<?xml version="1.0" encoding="UTF-8"?>
<svg width="1438px" height="1552px" viewBox="0 0 1438 1552" version="1.1" xmlns="http://www.w3.org/2000/svg" xmlns:xlink="http://www.w3.org/1999/xlink">
    <title>Artboard</title>
    <defs>
        <text id="text-1" font-family="SFProDisplay-Bold, SF Pro Display" font-size="18" font-weight="bold" letter-spacing="2" fill="#FFFFFF">
            <tspan x="274.963379" y="389.258152">TURN OFF ALARM</tspan>
        </text>
        <filter x="-2.6%" y="-9.1%" width="103.7%" height="119.6%" filterUnits="objectBoundingBox" id="filter-2">
            <feMorphology radius="2" operator="dilate" in="SourceAlpha" result="shadowSpreadOuter1"></feMorphology>
            <feOffset dx="0" dy="0" in="shadowSpreadOuter1" result="shadowOffsetOuter1"></feOffset>
            <feColorMatrix values="0 0 0 0 0.0549019608   0 0 0 0 0.0823529412   0 0 0 0 0.105882353  0 0 0 1 0" type="matrix" in="shadowOffsetOuter1"></feColorMatrix>
        </filter>
        <text id="text-3" font-family="SFProDisplay-Bold, SF Pro Display" font-size="18" font-weight="bold" letter-spacing="2" fill="#FFFFFF">
            <tspan x="263.346191" y="156">CHANGE SCHEDULE</tspan>
        </text>
        <filter x="-2.5%" y="-9.1%" width="103.9%" height="119.6%" filterUnits="objectBoundingBox" id="filter-4">
            <feMorphology radius="2" operator="dilate" in="SourceAlpha" result="shadowSpreadOuter1"></feMorphology>
            <feOffset dx="0" dy="0" in="shadowSpreadOuter1" result="shadowOffsetOuter1"></feOffset>
            <feColorMatrix values="0 0 0 0 0.0549019608   0 0 0 0 0.0823529412   0 0 0 0 0.105882353  0 0 0 1 0" type="matrix" in="shadowOffsetOuter1"></feColorMatrix>
        </filter>
        <text id="text-5" font-family="SFProDisplay-Bold, SF Pro Display" font-size="18" font-weight="bold" letter-spacing="2" fill="#FFFFFF">
            <tspan x="224.578125" y="606">CHANGE NEXT ALARM TIME</tspan>
        </text>
        <filter x="-1.7%" y="-9.1%" width="102.6%" height="119.6%" filterUnits="objectBoundingBox" id="filter-6">
            <feMorphology radius="2" operator="dilate" in="SourceAlpha" result="shadowSpreadOuter1"></feMorphology>
            <feOffset dx="0" dy="0" in="shadowSpreadOuter1" result="shadowOffsetOuter1"></feOffset>
            <feColorMatrix values="0 0 0 0 0.0549019608   0 0 0 0 0.0823529412   0 0 0 0 0.105882353  0 0 0 1 0" type="matrix" in="shadowOffsetOuter1"></feColorMatrix>
        </filter>
        <text id="text-7" font-family="SFProDisplay-Bold, SF Pro Display" font-size="18" font-weight="bold" letter-spacing="2" fill="#FFFFFF">
            <tspan x="245.01123" y="830.807927">TURN OFF NEXT ALARM</tspan>
        </text>
        <filter x="-2.3%" y="-9.1%" width="103.6%" height="119.6%" filterUnits="objectBoundingBox" id="filter-8">
            <feMorphology radius="2" operator="dilate" in="SourceAlpha" result="shadowSpreadOuter1"></feMorphology>
            <feOffset dx="0" dy="0" in="shadowSpreadOuter1" result="shadowOffsetOuter1"></feOffset>
            <feColorMatrix values="0 0 0 0 0.0549019608   0 0 0 0 0.0823529412   0 0 0 0 0.105882353  0 0 0 1 0" type="matrix" in="shadowOffsetOuter1"></feColorMatrix>
        </filter>
        <text id="text-9" font-family="SFProDisplay-Bold, SF Pro Display" font-size="18" font-weight="bold" letter-spacing="2" fill="#FFFFFF">
            <tspan x="161.30957" y="1058.84971">CHANGE TIME &amp; TURN OFF NEXT ALARM</tspan>
        </text>
        <filter x="-1.2%" y="-9.1%" width="101.9%" height="119.7%" filterUnits="objectBoundingBox" id="filter-10">
            <feMorphology radius="2" operator="dilate" in="SourceAlpha" result="shadowSpreadOuter1"></feMorphology>
            <feOffset dx="0" dy="0" in="shadowSpreadOuter1" result="shadowOffsetOuter1"></feOffset>
            <feColorMatrix values="0 0 0 0 0.0549019608   0 0 0 0 0.0823529412   0 0 0 0 0.105882353  0 0 0 1 0" type="matrix" in="shadowOffsetOuter1"></feColorMatrix>
        </filter>
        <text id="text-11" font-family="SFProDisplay-Bold, SF Pro Display" font-size="18" font-weight="bold" letter-spacing="2" fill="#FFFFFF">
            <tspan x="148.996582" y="17">NO CHANGES</tspan>
        </text>
        <filter x="-2.9%" y="-9.1%" width="104.6%" height="119.6%" filterUnits="objectBoundingBox" id="filter-12">
            <feMorphology radius="2" operator="dilate" in="SourceAlpha" result="shadowSpreadOuter1"></feMorphology>
            <feOffset dx="0" dy="0" in="shadowSpreadOuter1" result="shadowOffsetOuter1"></feOffset>
            <feColorMatrix values="0 0 0 0 0.0549019608   0 0 0 0 0.0823529412   0 0 0 0 0.105882353  0 0 0 1 0" type="matrix" in="shadowOffsetOuter1"></feColorMatrix>
        </filter>
    </defs>
    <g id="Artboard" stroke="none" stroke-width="1" fill="none" fill-rule="evenodd">
        <g id="turn-off-alarm" transform="translate(227.000000, 334.000000)">
            <g id="ArrowLabel">
                <path d="M594.366186,378.830199 L600.134776,388.829088 C600.410765,389.307469 600.246693,389.919007 599.768312,390.194996 C599.616359,390.282661 599.444018,390.32881 599.26859,390.32881 L587.73141,390.32881 C587.179125,390.32881 586.73141,389.881095 586.73141,389.32881 C586.73141,389.153382 586.777559,388.981041 586.865224,388.829088 L592.633814,378.830199 C592.909804,378.351818 593.521341,378.187746 593.999722,378.463735 C594.151958,378.551564 594.278357,378.677963 594.366186,378.830199 Z" id="Triangle-Copy" fill="#FFFFFF" transform="translate(593.500000, 383.828810) rotate(90.000000) translate(-593.500000, -383.828810) "></path>
                <path d="M0,0 L0,359.293478 C1.623249e-15,372.548312 10.745166,383.293478 24,383.293478 L587,383.293478 L587,383.293478" id="Path-2" stroke="#FFFFFF" stroke-width="3" stroke-linecap="square"></path>
                <g id="turn-off-alarm" fill="#FFFFFF" fill-opacity="1">
                    <use filter="url(#filter-2)" xlink:href="#text-1"></use>
                    <use xlink:href="#text-1"></use>
                </g>
            </g>
            <g id="Schedule" transform="translate(625.000000, 310.000000)">
                <path d="M15.3833112,15 L209.616689,15 C214.965801,15 216.905519,15.5569537 218.861074,16.6027962 C220.81663,17.6486388 222.351361,19.1833702 223.397204,21.1389258 C224.443046,23.0944813 225,25.0341988 225,30.3833112 L225,99.6166888 C225,104.965801 224.443046,106.905519 223.397204,108.861074 C222.351361,110.81663 220.81663,112.351361 218.861074,113.397204 C216.905519,114.443046 214.965801,115 209.616689,115 L15.3833112,115 C10.0341988,115 8.09448133,114.443046 6.13892578,113.397204 C4.18337022,112.351361 2.64863878,110.81663 1.60279622,108.861074 C0.556953667,106.905519 2.4074122e-16,104.965801 -4.14336123e-16,99.6166888 L4.14336123e-16,30.3833112 C-2.4074122e-16,25.0341988 0.556953667,23.0944813 1.60279622,21.1389258 C2.64863878,19.1833702 4.18337022,17.6486388 6.13892578,16.6027962 C8.09448133,15.5569537 10.0341988,15 15.3833112,15 Z" id="Rectangle" fill="#5AEDC8"></path>
                <g id="Group" transform="translate(16.000000, 38.000000)">
                    <path d="M1.43891979,7.14735536 C1.62609635,7.14735536 1.7430817,7.10056122 1.93025826,6.97187734 L6.2002235,3.89516266 C6.3990986,3.75478024 6.50438541,3.55590514 6.50438541,3.35703005 C6.50438541,3.08796375 6.37570153,2.85399305 6.15342936,2.67851502 C5.62699529,2.2339707 4.81979638,2 4.02429601,2 C2.09403775,2 0.526434071,3.509111 0.526434071,5.40427366 C0.526434071,5.90731066 0.608323815,6.35185499 0.748706234,6.6560169 C0.877390118,6.94848027 1.13475789,7.14735536 1.43891979,7.14735536 Z M21.2094438,7.14735536 C21.5136057,7.14735536 21.7592749,6.94848027 21.8996574,6.6560169 C22.0400398,6.36355352 22.110231,5.90731066 22.110231,5.40427366 C22.110231,3.509111 20.5543258,2 18.612369,2 C17.8285672,2 17.0213683,2.2339707 16.4832357,2.67851502 C16.2609635,2.85399305 16.1322796,3.08796375 16.1322796,3.35703005 C16.1322796,3.55590514 16.249265,3.75478024 16.4481401,3.89516266 L20.7181053,6.97187734 C20.8935834,7.10056122 21.0222672,7.14735536 21.2094438,7.14735536 Z M1.36872858,26.6839087 C1.80157438,27.1167545 2.49178794,27.1050559 2.93633226,26.6488131 L4.85489199,24.7419519 C6.69156197,26.0170922 8.9142836,26.7657984 11.3241818,26.7657984 C13.7223815,26.7657984 15.9568016,26.0170922 17.7934716,24.7419519 L19.7120313,26.6488131 C20.1565757,27.0933574 20.8467892,27.1167545 21.279635,26.6839087 C21.7007823,26.2627614 21.7007823,25.5959449 21.2679365,25.1630991 L19.442965,23.3381277 C21.4200174,21.3025826 22.6483636,18.5183313 22.6483636,15.4533151 C22.6483636,9.19459897 17.582898,4.12913335 11.3241818,4.12913335 C5.06546562,4.12913335 0,9.19459897 0,15.4533151 C0,18.5183313 1.21664763,21.3025826 3.20539857,23.3381277 L1.36872858,25.1630991 C0.935882793,25.5959449 0.947581328,26.2627614 1.36872858,26.6839087 Z M6.3990986,16.9975218 C5.84926746,16.9975218 5.41642166,16.5763745 5.41642166,16.0265434 C5.41642166,15.4767122 5.84926746,15.055565 6.3990986,15.055565 L10.3415049,15.055565 L10.3415049,9.4051726 C10.3415049,8.85534146 10.7743507,8.4341942 11.3124833,8.4341942 C11.8623144,8.4341942 12.2951602,8.85534146 12.2951602,9.4051726 L12.2951602,16.0265434 C12.2951602,16.5763745 11.8623144,16.9975218 11.3124833,16.9975218 L6.3990986,16.9975218 Z" id="Shape" fill="#FFFFFF" fill-rule="nonzero"></path>
                    <text id="Repeat-Alarm" font-family="SFProDisplay-Medium, SF Pro Display" font-size="24" font-weight="400" fill="#FFC233">
                        <tspan x="35.55" y="23">Repeat Alarm</tspan>
                    </text>
                    <text id="06:00-MTWTFSS" font-family="SFProDisplay-Bold, SF Pro Display" font-size="18" font-weight="bold" letter-spacing="1.5" fill="#FFFFFF">
                        <tspan x="16.159668" y="56">06:00 MTWTFSS</tspan>
                    </text>
                </g>
                <g id="status" transform="translate(57.000000, 0.000000)">
                    <path d="M10.2555408,-4.14336123e-16 L99.7444592,4.14336123e-16 C103.310534,-2.4074122e-16 104.603679,0.371302445 105.907383,1.06853082 C107.211087,1.76575919 108.234241,2.78891348 108.931469,4.09261719 C109.628698,5.39632089 110,6.68946584 110,10.2555408 L110,29.7444592 C110,33.3105342 109.628698,34.6036791 108.931469,35.9073828 C108.234241,37.2110865 107.211087,38.2342408 105.907383,38.9314692 C104.603679,39.6286976 103.310534,40 99.7444592,40 L10.2555408,40 C6.68946584,40 5.39632089,39.6286976 4.09261719,38.9314692 C2.78891348,38.2342408 1.76575919,37.2110865 1.06853082,35.9073828 C0.371302445,34.6036791 1.60494146e-16,33.3105342 -2.76224082e-16,29.7444592 L2.76224082e-16,10.2555408 C-1.60494146e-16,6.68946584 0.371302445,5.39632089 1.06853082,4.09261719 C1.76575919,2.78891348 2.78891348,1.76575919 4.09261719,1.06853082 C5.39632089,0.371302445 6.68946584,2.4074122e-16 10.2555408,-4.14336123e-16 Z" id="Rectangle" fill="#5AEDC8"></path>
                    <text id="disabled" font-family="SFProDisplay-Bold, SF Pro Display" font-size="18" font-weight="bold" letter-spacing="1.5" fill="#FFFFFF">
                        <tspan x="6.43017578" y="21">DISABLED</tspan>
                    </text>
                </g>
            </g>
        </g>
        <g id="change-schedule" transform="translate(227.000000, 334.000000)">
            <g id="ArrowLabel" transform="translate(0.000000, 0.000000)">
                <path d="M594.366186,145.501388 L600.134776,155.500278 C600.410765,155.978659 600.246693,156.590196 599.768312,156.866186 C599.616359,156.953851 599.444018,157 599.26859,157 L587.73141,157 C587.179125,157 586.73141,156.552285 586.73141,156 C586.73141,155.824572 586.777559,155.652231 586.865224,155.500278 L592.633814,145.501388 C592.909804,145.023007 593.521341,144.858936 593.999722,145.134925 C594.151958,145.222753 594.278357,145.349153 594.366186,145.501388 Z" id="Triangle-Copy" fill="#FFFFFF" transform="translate(593.500000, 150.500000) rotate(90.000000) translate(-593.500000, -150.500000) "></path>
                <path d="M0,0 L0,126 C1.623249e-15,139.254834 10.745166,150 24,150 L587,150 L587,150" id="Path-2" stroke="#FFFFFF" stroke-width="3" stroke-linecap="square"></path>
                <g id="change-schedule" fill="#FFFFFF" fill-opacity="1">
                    <use filter="url(#filter-4)" xlink:href="#text-3"></use>
                    <use xlink:href="#text-3"></use>
                </g>
            </g>
            <g id="Schedule" transform="translate(625.000000, 85.000000)">
                <path d="M15.3833112,15 L209.616689,15 C214.965801,15 216.905519,15.5569537 218.861074,16.6027962 C220.81663,17.6486388 222.351361,19.1833702 223.397204,21.1389258 C224.443046,23.0944813 225,25.0341988 225,30.3833112 L225,99.6166888 C225,104.965801 224.443046,106.905519 223.397204,108.861074 C222.351361,110.81663 220.81663,112.351361 218.861074,113.397204 C216.905519,114.443046 214.965801,115 209.616689,115 L15.3833112,115 C10.0341988,115 8.09448133,114.443046 6.13892578,113.397204 C4.18337022,112.351361 2.64863878,110.81663 1.60279622,108.861074 C0.556953667,106.905519 2.4074122e-16,104.965801 -4.14336123e-16,99.6166888 L4.14336123e-16,30.3833112 C-2.4074122e-16,25.0341988 0.556953667,23.0944813 1.60279622,21.1389258 C2.64863878,19.1833702 4.18337022,17.6486388 6.13892578,16.6027962 C8.09448133,15.5569537 10.0341988,15 15.3833112,15 Z" id="Rectangle" fill="#5AEDC8"></path>
                <g id="Group" transform="translate(16.000000, 38.000000)">
                    <path d="M1.43891979,7.14735536 C1.62609635,7.14735536 1.7430817,7.10056122 1.93025826,6.97187734 L6.2002235,3.89516266 C6.3990986,3.75478024 6.50438541,3.55590514 6.50438541,3.35703005 C6.50438541,3.08796375 6.37570153,2.85399305 6.15342936,2.67851502 C5.62699529,2.2339707 4.81979638,2 4.02429601,2 C2.09403775,2 0.526434071,3.509111 0.526434071,5.40427366 C0.526434071,5.90731066 0.608323815,6.35185499 0.748706234,6.6560169 C0.877390118,6.94848027 1.13475789,7.14735536 1.43891979,7.14735536 Z M21.2094438,7.14735536 C21.5136057,7.14735536 21.7592749,6.94848027 21.8996574,6.6560169 C22.0400398,6.36355352 22.110231,5.90731066 22.110231,5.40427366 C22.110231,3.509111 20.5543258,2 18.612369,2 C17.8285672,2 17.0213683,2.2339707 16.4832357,2.67851502 C16.2609635,2.85399305 16.1322796,3.08796375 16.1322796,3.35703005 C16.1322796,3.55590514 16.249265,3.75478024 16.4481401,3.89516266 L20.7181053,6.97187734 C20.8935834,7.10056122 21.0222672,7.14735536 21.2094438,7.14735536 Z M1.36872858,26.6839087 C1.80157438,27.1167545 2.49178794,27.1050559 2.93633226,26.6488131 L4.85489199,24.7419519 C6.69156197,26.0170922 8.9142836,26.7657984 11.3241818,26.7657984 C13.7223815,26.7657984 15.9568016,26.0170922 17.7934716,24.7419519 L19.7120313,26.6488131 C20.1565757,27.0933574 20.8467892,27.1167545 21.279635,26.6839087 C21.7007823,26.2627614 21.7007823,25.5959449 21.2679365,25.1630991 L19.442965,23.3381277 C21.4200174,21.3025826 22.6483636,18.5183313 22.6483636,15.4533151 C22.6483636,9.19459897 17.582898,4.12913335 11.3241818,4.12913335 C5.06546562,4.12913335 0,9.19459897 0,15.4533151 C0,18.5183313 1.21664763,21.3025826 3.20539857,23.3381277 L1.36872858,25.1630991 C0.935882793,25.5959449 0.947581328,26.2627614 1.36872858,26.6839087 Z M6.3990986,16.9975218 C5.84926746,16.9975218 5.41642166,16.5763745 5.41642166,16.0265434 C5.41642166,15.4767122 5.84926746,15.055565 6.3990986,15.055565 L10.3415049,15.055565 L10.3415049,9.4051726 C10.3415049,8.85534146 10.7743507,8.4341942 11.3124833,8.4341942 C11.8623144,8.4341942 12.2951602,8.85534146 12.2951602,9.4051726 L12.2951602,16.0265434 C12.2951602,16.5763745 11.8623144,16.9975218 11.3124833,16.9975218 L6.3990986,16.9975218 Z" id="Shape" fill="#FFFFFF" fill-rule="nonzero"></path>
                    <text id="Repeat-Alarm" font-family="SFProDisplay-Medium, SF Pro Display" font-size="24" font-weight="400" fill="#FFC233">
                        <tspan x="35.55" y="23">Repeat Alarm</tspan>
                    </text>
                    <text id="06:30-MTWTF" font-family="SFProDisplay-Bold, SF Pro Display" font-size="18" font-weight="bold" letter-spacing="1.5" fill="#FFFFFF">
                        <tspan x="29.3007813" y="56">06:30 MTWTF</tspan>
                    </text>
                </g>
                <g id="status" transform="translate(57.000000, 0.000000)">
                    <path d="M10.2555408,-4.14336123e-16 L99.7444592,4.14336123e-16 C103.310534,-2.4074122e-16 104.603679,0.371302445 105.907383,1.06853082 C107.211087,1.76575919 108.234241,2.78891348 108.931469,4.09261719 C109.628698,5.39632089 110,6.68946584 110,10.2555408 L110,29.7444592 C110,33.3105342 109.628698,34.6036791 108.931469,35.9073828 C108.234241,37.2110865 107.211087,38.2342408 105.907383,38.9314692 C104.603679,39.6286976 103.310534,40 99.7444592,40 L10.2555408,40 C6.68946584,40 5.39632089,39.6286976 4.09261719,38.9314692 C2.78891348,38.2342408 1.76575919,37.2110865 1.06853082,35.9073828 C0.371302445,34.6036791 1.60494146e-16,33.3105342 -2.76224082e-16,29.7444592 L2.76224082e-16,10.2555408 C-1.60494146e-16,6.68946584 0.371302445,5.39632089 1.06853082,4.09261719 C1.76575919,2.78891348 2.78891348,1.76575919 4.09261719,1.06853082 C5.39632089,0.371302445 6.68946584,2.4074122e-16 10.2555408,-4.14336123e-16 Z" id="Rectangle" fill="#5AEDC8"></path>
                    <text id="ENABLED" font-family="SFProDisplay-Bold, SF Pro Display" font-size="18" font-weight="bold" letter-spacing="1.5" fill="#FFFFFF">
                        <tspan x="9.82568359" y="21">ENABLED</tspan>
                    </text>
                </g>
            </g>
        </g>
        <g id="change-next-alarm" transform="translate(227.000000, 334.000000)">
            <g id="ArrowLabel">
                <path d="M594.366186,595.501388 L600.134776,605.500278 C600.410765,605.978659 600.246693,606.590196 599.768312,606.866186 C599.616359,606.953851 599.444018,607 599.26859,607 L587.73141,607 C587.179125,607 586.73141,606.552285 586.73141,606 C586.73141,605.824572 586.777559,605.652231 586.865224,605.500278 L592.633814,595.501388 C592.909804,595.023007 593.521341,594.858936 593.999722,595.134925 C594.151958,595.222753 594.278357,595.349153 594.366186,595.501388 Z" id="Triangle-Copy" fill="#FFFFFF" transform="translate(593.500000, 600.500000) rotate(90.000000) translate(-593.500000, -600.500000) "></path>
                <path d="M0,0 L0,576 C1.623249e-15,589.254834 10.745166,600 24,600 L587,600 L587,600" id="Path-2" stroke="#FFFFFF" stroke-width="3" stroke-linecap="square"></path>
                <g id="change-next-alarm-ti" fill="#FFFFFF" fill-opacity="1">
                    <use filter="url(#filter-6)" xlink:href="#text-5"></use>
                    <use xlink:href="#text-5"></use>
                </g>
            </g>
            <g id="Schedule" transform="translate(625.000000, 535.000000)">
                <path d="M15.3833112,15 L209.616689,15 C214.965801,15 216.905519,15.5569537 218.861074,16.6027962 C220.81663,17.6486388 222.351361,19.1833702 223.397204,21.1389258 C224.443046,23.0944813 225,25.0341988 225,30.3833112 L225,99.6166888 C225,104.965801 224.443046,106.905519 223.397204,108.861074 C222.351361,110.81663 220.81663,112.351361 218.861074,113.397204 C216.905519,114.443046 214.965801,115 209.616689,115 L15.3833112,115 C10.0341988,115 8.09448133,114.443046 6.13892578,113.397204 C4.18337022,112.351361 2.64863878,110.81663 1.60279622,108.861074 C0.556953667,106.905519 2.4074122e-16,104.965801 -4.14336123e-16,99.6166888 L4.14336123e-16,30.3833112 C-2.4074122e-16,25.0341988 0.556953667,23.0944813 1.60279622,21.1389258 C2.64863878,19.1833702 4.18337022,17.6486388 6.13892578,16.6027962 C8.09448133,15.5569537 10.0341988,15 15.3833112,15 Z" id="Rectangle" fill="#5AEDC8"></path>
                <g id="Group" transform="translate(16.000000, 38.000000)">
                    <path d="M1.43891979,7.14735536 C1.62609635,7.14735536 1.7430817,7.10056122 1.93025826,6.97187734 L6.2002235,3.89516266 C6.3990986,3.75478024 6.50438541,3.55590514 6.50438541,3.35703005 C6.50438541,3.08796375 6.37570153,2.85399305 6.15342936,2.67851502 C5.62699529,2.2339707 4.81979638,2 4.02429601,2 C2.09403775,2 0.526434071,3.509111 0.526434071,5.40427366 C0.526434071,5.90731066 0.608323815,6.35185499 0.748706234,6.6560169 C0.877390118,6.94848027 1.13475789,7.14735536 1.43891979,7.14735536 Z M21.2094438,7.14735536 C21.5136057,7.14735536 21.7592749,6.94848027 21.8996574,6.6560169 C22.0400398,6.36355352 22.110231,5.90731066 22.110231,5.40427366 C22.110231,3.509111 20.5543258,2 18.612369,2 C17.8285672,2 17.0213683,2.2339707 16.4832357,2.67851502 C16.2609635,2.85399305 16.1322796,3.08796375 16.1322796,3.35703005 C16.1322796,3.55590514 16.249265,3.75478024 16.4481401,3.89516266 L20.7181053,6.97187734 C20.8935834,7.10056122 21.0222672,7.14735536 21.2094438,7.14735536 Z M1.36872858,26.6839087 C1.80157438,27.1167545 2.49178794,27.1050559 2.93633226,26.6488131 L4.85489199,24.7419519 C6.69156197,26.0170922 8.9142836,26.7657984 11.3241818,26.7657984 C13.7223815,26.7657984 15.9568016,26.0170922 17.7934716,24.7419519 L19.7120313,26.6488131 C20.1565757,27.0933574 20.8467892,27.1167545 21.279635,26.6839087 C21.7007823,26.2627614 21.7007823,25.5959449 21.2679365,25.1630991 L19.442965,23.3381277 C21.4200174,21.3025826 22.6483636,18.5183313 22.6483636,15.4533151 C22.6483636,9.19459897 17.582898,4.12913335 11.3241818,4.12913335 C5.06546562,4.12913335 0,9.19459897 0,15.4533151 C0,18.5183313 1.21664763,21.3025826 3.20539857,23.3381277 L1.36872858,25.1630991 C0.935882793,25.5959449 0.947581328,26.2627614 1.36872858,26.6839087 Z M6.3990986,16.9975218 C5.84926746,16.9975218 5.41642166,16.5763745 5.41642166,16.0265434 C5.41642166,15.4767122 5.84926746,15.055565 6.3990986,15.055565 L10.3415049,15.055565 L10.3415049,9.4051726 C10.3415049,8.85534146 10.7743507,8.4341942 11.3124833,8.4341942 C11.8623144,8.4341942 12.2951602,8.85534146 12.2951602,9.4051726 L12.2951602,16.0265434 C12.2951602,16.5763745 11.8623144,16.9975218 11.3124833,16.9975218 L6.3990986,16.9975218 Z" id="Shape" fill="#FFFFFF" fill-rule="nonzero"></path>
                    <text id="Repeat-Alarm" font-family="SFProDisplay-Medium, SF Pro Display" font-size="24" font-weight="400" fill="#FFC233">
                        <tspan x="35.55" y="23">Repeat Alarm</tspan>
                    </text>
                    <text id="06:00-MTWTFSS" font-family="SFProDisplay-Bold, SF Pro Display" font-size="18" font-weight="bold" letter-spacing="1.5" fill="#FFFFFF">
                        <tspan x="16.159668" y="56">06:00 MTWTFSS</tspan>
                    </text>
                </g>
                <g id="status" transform="translate(57.000000, 0.000000)">
                    <path d="M10.2555408,-4.14336123e-16 L99.7444592,4.14336123e-16 C103.310534,-2.4074122e-16 104.603679,0.371302445 105.907383,1.06853082 C107.211087,1.76575919 108.234241,2.78891348 108.931469,4.09261719 C109.628698,5.39632089 110,6.68946584 110,10.2555408 L110,29.7444592 C110,33.3105342 109.628698,34.6036791 108.931469,35.9073828 C108.234241,37.2110865 107.211087,38.2342408 105.907383,38.9314692 C104.603679,39.6286976 103.310534,40 99.7444592,40 L10.2555408,40 C6.68946584,40 5.39632089,39.6286976 4.09261719,38.9314692 C2.78891348,38.2342408 1.76575919,37.2110865 1.06853082,35.9073828 C0.371302445,34.6036791 1.60494146e-16,33.3105342 -2.76224082e-16,29.7444592 L2.76224082e-16,10.2555408 C-1.60494146e-16,6.68946584 0.371302445,5.39632089 1.06853082,4.09261719 C1.76575919,2.78891348 2.78891348,1.76575919 4.09261719,1.06853082 C5.39632089,0.371302445 6.68946584,2.4074122e-16 10.2555408,-4.14336123e-16 Z" id="Rectangle" fill="#5AEDC8"></path>
                    <text id="OFF-10/01" font-family="SFProDisplay-Bold, SF Pro Display" font-size="18" font-weight="bold" letter-spacing="1.5" fill="#FFFFFF">
                        <tspan x="6.70410156" y="21">OFF 10/01</tspan>
                    </text>
                </g>
            </g>
            <g id="Schedule-Copy" transform="translate(875.000000, 535.000000)">
                <path d="M15.3833112,15 L209.616689,15 C214.965801,15 216.905519,15.5569537 218.861074,16.6027962 C220.81663,17.6486388 222.351361,19.1833702 223.397204,21.1389258 C224.443046,23.0944813 225,25.0341988 225,30.3833112 L225,99.6166888 C225,104.965801 224.443046,106.905519 223.397204,108.861074 C222.351361,110.81663 220.81663,112.351361 218.861074,113.397204 C216.905519,114.443046 214.965801,115 209.616689,115 L15.3833112,115 C10.0341988,115 8.09448133,114.443046 6.13892578,113.397204 C4.18337022,112.351361 2.64863878,110.81663 1.60279622,108.861074 C0.556953667,106.905519 2.4074122e-16,104.965801 -4.14336123e-16,99.6166888 L4.14336123e-16,30.3833112 C-2.4074122e-16,25.0341988 0.556953667,23.0944813 1.60279622,21.1389258 C2.64863878,19.1833702 4.18337022,17.6486388 6.13892578,16.6027962 C8.09448133,15.5569537 10.0341988,15 15.3833112,15 Z" id="Rectangle" fill="#4DCFFF"></path>
                <g id="Group" transform="translate(16.000000, 38.000000)">
                    <path d="M1.43891979,7.14735536 C1.62609635,7.14735536 1.7430817,7.10056122 1.93025826,6.97187734 L6.2002235,3.89516266 C6.3990986,3.75478024 6.50438541,3.55590514 6.50438541,3.35703005 C6.50438541,3.08796375 6.37570153,2.85399305 6.15342936,2.67851502 C5.62699529,2.2339707 4.81979638,2 4.02429601,2 C2.09403775,2 0.526434071,3.509111 0.526434071,5.40427366 C0.526434071,5.90731066 0.608323815,6.35185499 0.748706234,6.6560169 C0.877390118,6.94848027 1.13475789,7.14735536 1.43891979,7.14735536 Z M21.2094438,7.14735536 C21.5136057,7.14735536 21.7592749,6.94848027 21.8996574,6.6560169 C22.0400398,6.36355352 22.110231,5.90731066 22.110231,5.40427366 C22.110231,3.509111 20.5543258,2 18.612369,2 C17.8285672,2 17.0213683,2.2339707 16.4832357,2.67851502 C16.2609635,2.85399305 16.1322796,3.08796375 16.1322796,3.35703005 C16.1322796,3.55590514 16.249265,3.75478024 16.4481401,3.89516266 L20.7181053,6.97187734 C20.8935834,7.10056122 21.0222672,7.14735536 21.2094438,7.14735536 Z M1.36872858,26.6839087 C1.80157438,27.1167545 2.49178794,27.1050559 2.93633226,26.6488131 L4.85489199,24.7419519 C6.69156197,26.0170922 8.9142836,26.7657984 11.3241818,26.7657984 C13.7223815,26.7657984 15.9568016,26.0170922 17.7934716,24.7419519 L19.7120313,26.6488131 C20.1565757,27.0933574 20.8467892,27.1167545 21.279635,26.6839087 C21.7007823,26.2627614 21.7007823,25.5959449 21.2679365,25.1630991 L19.442965,23.3381277 C21.4200174,21.3025826 22.6483636,18.5183313 22.6483636,15.4533151 C22.6483636,9.19459897 17.582898,4.12913335 11.3241818,4.12913335 C5.06546562,4.12913335 0,9.19459897 0,15.4533151 C0,18.5183313 1.21664763,21.3025826 3.20539857,23.3381277 L1.36872858,25.1630991 C0.935882793,25.5959449 0.947581328,26.2627614 1.36872858,26.6839087 Z M6.3990986,16.9975218 C5.84926746,16.9975218 5.41642166,16.5763745 5.41642166,16.0265434 C5.41642166,15.4767122 5.84926746,15.055565 6.3990986,15.055565 L10.3415049,15.055565 L10.3415049,9.4051726 C10.3415049,8.85534146 10.7743507,8.4341942 11.3124833,8.4341942 C11.8623144,8.4341942 12.2951602,8.85534146 12.2951602,9.4051726 L12.2951602,16.0265434 C12.2951602,16.5763745 11.8623144,16.9975218 11.3124833,16.9975218 L6.3990986,16.9975218 Z" id="Shape" fill="#FFFFFF" fill-rule="nonzero"></path>
                    <text id="Fixed-Alarm" font-family="SFProDisplay-Medium, SF Pro Display" font-size="24" font-weight="400" fill="#FFC233">
                        <tspan x="35.55" y="23">Fixed Alarm</tspan>
                    </text>
                    <text id="06:30-10/01/23" font-family="SFProDisplay-Bold, SF Pro Display" font-size="18" font-weight="bold" letter-spacing="1.5" fill="#FFFFFF">
                        <tspan x="22.309082" y="56">06:30 10/01/23</tspan>
                    </text>
                </g>
                <g id="status" transform="translate(57.000000, 0.000000)">
                    <path d="M10.2555408,-4.14336123e-16 L99.7444592,4.14336123e-16 C103.310534,-2.4074122e-16 104.603679,0.371302445 105.907383,1.06853082 C107.211087,1.76575919 108.234241,2.78891348 108.931469,4.09261719 C109.628698,5.39632089 110,6.68946584 110,10.2555408 L110,29.7444592 C110,33.3105342 109.628698,34.6036791 108.931469,35.9073828 C108.234241,37.2110865 107.211087,38.2342408 105.907383,38.9314692 C104.603679,39.6286976 103.310534,40 99.7444592,40 L10.2555408,40 C6.68946584,40 5.39632089,39.6286976 4.09261719,38.9314692 C2.78891348,38.2342408 1.76575919,37.2110865 1.06853082,35.9073828 C0.371302445,34.6036791 1.60494146e-16,33.3105342 -2.76224082e-16,29.7444592 L2.76224082e-16,10.2555408 C-1.60494146e-16,6.68946584 0.371302445,5.39632089 1.06853082,4.09261719 C1.76575919,2.78891348 2.78891348,1.76575919 4.09261719,1.06853082 C5.39632089,0.371302445 6.68946584,2.4074122e-16 10.2555408,-4.14336123e-16 Z" id="Rectangle" fill="#4DCFFF"></path>
                    <text id="ENABLED" font-family="SFProDisplay-Bold, SF Pro Display" font-size="18" font-weight="bold" letter-spacing="1.5" fill="#FFFFFF">
                        <tspan x="9.82568359" y="21">ENABLED</tspan>
                    </text>
                </g>
            </g>
        </g>
        <g id="turn-off-next-alarm" transform="translate(227.000000, 334.000000)">
            <g id="ArrowLabel">
                <path d="M594.366186,820.327609 L600.134776,830.326499 C600.410765,830.80488 600.246693,831.416418 599.768312,831.692407 C599.616359,831.780072 599.444018,831.826221 599.26859,831.826221 L587.73141,831.826221 C587.179125,831.826221 586.73141,831.378506 586.73141,830.826221 C586.73141,830.650793 586.777559,830.478452 586.865224,830.326499 L592.633814,820.327609 C592.909804,819.849228 593.521341,819.685157 593.999722,819.961146 C594.151958,820.048974 594.278357,820.175374 594.366186,820.327609 Z" id="Triangle-Copy" fill="#FFFFFF" transform="translate(593.500000, 825.326221) rotate(90.000000) translate(-593.500000, -825.326221) "></path>
                <path d="M0,0 L0,800.817073 C6.28201516e-14,814.071907 10.745166,824.817073 24,824.817073 L587,824.817073 L587,824.817073" id="Path-2" stroke="#FFFFFF" stroke-width="3" stroke-linecap="square"></path>
                <g id="turn-off-next-alarm" fill="#FFFFFF" fill-opacity="1">
                    <use filter="url(#filter-8)" xlink:href="#text-7"></use>
                    <use xlink:href="#text-7"></use>
                </g>
            </g>
            <g id="Schedule" transform="translate(625.000000, 760.000000)">
                <path d="M15.3833112,15 L209.616689,15 C214.965801,15 216.905519,15.5569537 218.861074,16.6027962 C220.81663,17.6486388 222.351361,19.1833702 223.397204,21.1389258 C224.443046,23.0944813 225,25.0341988 225,30.3833112 L225,99.6166888 C225,104.965801 224.443046,106.905519 223.397204,108.861074 C222.351361,110.81663 220.81663,112.351361 218.861074,113.397204 C216.905519,114.443046 214.965801,115 209.616689,115 L15.3833112,115 C10.0341988,115 8.09448133,114.443046 6.13892578,113.397204 C4.18337022,112.351361 2.64863878,110.81663 1.60279622,108.861074 C0.556953667,106.905519 2.4074122e-16,104.965801 -4.14336123e-16,99.6166888 L4.14336123e-16,30.3833112 C-2.4074122e-16,25.0341988 0.556953667,23.0944813 1.60279622,21.1389258 C2.64863878,19.1833702 4.18337022,17.6486388 6.13892578,16.6027962 C8.09448133,15.5569537 10.0341988,15 15.3833112,15 Z" id="Rectangle" fill="#5AEDC8"></path>
                <g id="Group" transform="translate(16.000000, 38.000000)">
                    <path d="M1.43891979,7.14735536 C1.62609635,7.14735536 1.7430817,7.10056122 1.93025826,6.97187734 L6.2002235,3.89516266 C6.3990986,3.75478024 6.50438541,3.55590514 6.50438541,3.35703005 C6.50438541,3.08796375 6.37570153,2.85399305 6.15342936,2.67851502 C5.62699529,2.2339707 4.81979638,2 4.02429601,2 C2.09403775,2 0.526434071,3.509111 0.526434071,5.40427366 C0.526434071,5.90731066 0.608323815,6.35185499 0.748706234,6.6560169 C0.877390118,6.94848027 1.13475789,7.14735536 1.43891979,7.14735536 Z M21.2094438,7.14735536 C21.5136057,7.14735536 21.7592749,6.94848027 21.8996574,6.6560169 C22.0400398,6.36355352 22.110231,5.90731066 22.110231,5.40427366 C22.110231,3.509111 20.5543258,2 18.612369,2 C17.8285672,2 17.0213683,2.2339707 16.4832357,2.67851502 C16.2609635,2.85399305 16.1322796,3.08796375 16.1322796,3.35703005 C16.1322796,3.55590514 16.249265,3.75478024 16.4481401,3.89516266 L20.7181053,6.97187734 C20.8935834,7.10056122 21.0222672,7.14735536 21.2094438,7.14735536 Z M1.36872858,26.6839087 C1.80157438,27.1167545 2.49178794,27.1050559 2.93633226,26.6488131 L4.85489199,24.7419519 C6.69156197,26.0170922 8.9142836,26.7657984 11.3241818,26.7657984 C13.7223815,26.7657984 15.9568016,26.0170922 17.7934716,24.7419519 L19.7120313,26.6488131 C20.1565757,27.0933574 20.8467892,27.1167545 21.279635,26.6839087 C21.7007823,26.2627614 21.7007823,25.5959449 21.2679365,25.1630991 L19.442965,23.3381277 C21.4200174,21.3025826 22.6483636,18.5183313 22.6483636,15.4533151 C22.6483636,9.19459897 17.582898,4.12913335 11.3241818,4.12913335 C5.06546562,4.12913335 0,9.19459897 0,15.4533151 C0,18.5183313 1.21664763,21.3025826 3.20539857,23.3381277 L1.36872858,25.1630991 C0.935882793,25.5959449 0.947581328,26.2627614 1.36872858,26.6839087 Z M6.3990986,16.9975218 C5.84926746,16.9975218 5.41642166,16.5763745 5.41642166,16.0265434 C5.41642166,15.4767122 5.84926746,15.055565 6.3990986,15.055565 L10.3415049,15.055565 L10.3415049,9.4051726 C10.3415049,8.85534146 10.7743507,8.4341942 11.3124833,8.4341942 C11.8623144,8.4341942 12.2951602,8.85534146 12.2951602,9.4051726 L12.2951602,16.0265434 C12.2951602,16.5763745 11.8623144,16.9975218 11.3124833,16.9975218 L6.3990986,16.9975218 Z" id="Shape" fill="#FFFFFF" fill-rule="nonzero"></path>
                    <text id="Repeat-Alarm" font-family="SFProDisplay-Medium, SF Pro Display" font-size="24" font-weight="400" fill="#FFC233">
                        <tspan x="35.55" y="23">Repeat Alarm</tspan>
                    </text>
                    <text id="06:00-MTWTFSS" font-family="SFProDisplay-Bold, SF Pro Display" font-size="18" font-weight="bold" letter-spacing="1.5" fill="#FFFFFF">
                        <tspan x="16.159668" y="56">06:00 MTWTFSS</tspan>
                    </text>
                </g>
                <g id="status" transform="translate(57.000000, 0.000000)">
                    <path d="M10.2555408,-4.14336123e-16 L99.7444592,4.14336123e-16 C103.310534,-2.4074122e-16 104.603679,0.371302445 105.907383,1.06853082 C107.211087,1.76575919 108.234241,2.78891348 108.931469,4.09261719 C109.628698,5.39632089 110,6.68946584 110,10.2555408 L110,29.7444592 C110,33.3105342 109.628698,34.6036791 108.931469,35.9073828 C108.234241,37.2110865 107.211087,38.2342408 105.907383,38.9314692 C104.603679,39.6286976 103.310534,40 99.7444592,40 L10.2555408,40 C6.68946584,40 5.39632089,39.6286976 4.09261719,38.9314692 C2.78891348,38.2342408 1.76575919,37.2110865 1.06853082,35.9073828 C0.371302445,34.6036791 1.60494146e-16,33.3105342 -2.76224082e-16,29.7444592 L2.76224082e-16,10.2555408 C-1.60494146e-16,6.68946584 0.371302445,5.39632089 1.06853082,4.09261719 C1.76575919,2.78891348 2.78891348,1.76575919 4.09261719,1.06853082 C5.39632089,0.371302445 6.68946584,2.4074122e-16 10.2555408,-4.14336123e-16 Z" id="Rectangle" fill="#5AEDC8"></path>
                    <text id="OFF-10/01" font-family="SFProDisplay-Bold, SF Pro Display" font-size="18" font-weight="bold" letter-spacing="1.5" fill="#FFFFFF">
                        <tspan x="6.70410156" y="21">OFF 10/01</tspan>
                    </text>
                </g>
            </g>
            <g id="Schedule-Copy" transform="translate(875.000000, 760.000000)">
                <path d="M15.3833112,15 L209.616689,15 C214.965801,15 216.905519,15.5569537 218.861074,16.6027962 C220.81663,17.6486388 222.351361,19.1833702 223.397204,21.1389258 C224.443046,23.0944813 225,25.0341988 225,30.3833112 L225,99.6166888 C225,104.965801 224.443046,106.905519 223.397204,108.861074 C222.351361,110.81663 220.81663,112.351361 218.861074,113.397204 C216.905519,114.443046 214.965801,115 209.616689,115 L15.3833112,115 C10.0341988,115 8.09448133,114.443046 6.13892578,113.397204 C4.18337022,112.351361 2.64863878,110.81663 1.60279622,108.861074 C0.556953667,106.905519 2.4074122e-16,104.965801 -4.14336123e-16,99.6166888 L4.14336123e-16,30.3833112 C-2.4074122e-16,25.0341988 0.556953667,23.0944813 1.60279622,21.1389258 C2.64863878,19.1833702 4.18337022,17.6486388 6.13892578,16.6027962 C8.09448133,15.5569537 10.0341988,15 15.3833112,15 Z" id="Rectangle" fill="#4DCFFF"></path>
                <g id="Group" transform="translate(16.000000, 38.000000)">
                    <path d="M1.43891979,7.14735536 C1.62609635,7.14735536 1.7430817,7.10056122 1.93025826,6.97187734 L6.2002235,3.89516266 C6.3990986,3.75478024 6.50438541,3.55590514 6.50438541,3.35703005 C6.50438541,3.08796375 6.37570153,2.85399305 6.15342936,2.67851502 C5.62699529,2.2339707 4.81979638,2 4.02429601,2 C2.09403775,2 0.526434071,3.509111 0.526434071,5.40427366 C0.526434071,5.90731066 0.608323815,6.35185499 0.748706234,6.6560169 C0.877390118,6.94848027 1.13475789,7.14735536 1.43891979,7.14735536 Z M21.2094438,7.14735536 C21.5136057,7.14735536 21.7592749,6.94848027 21.8996574,6.6560169 C22.0400398,6.36355352 22.110231,5.90731066 22.110231,5.40427366 C22.110231,3.509111 20.5543258,2 18.612369,2 C17.8285672,2 17.0213683,2.2339707 16.4832357,2.67851502 C16.2609635,2.85399305 16.1322796,3.08796375 16.1322796,3.35703005 C16.1322796,3.55590514 16.249265,3.75478024 16.4481401,3.89516266 L20.7181053,6.97187734 C20.8935834,7.10056122 21.0222672,7.14735536 21.2094438,7.14735536 Z M1.36872858,26.6839087 C1.80157438,27.1167545 2.49178794,27.1050559 2.93633226,26.6488131 L4.85489199,24.7419519 C6.69156197,26.0170922 8.9142836,26.7657984 11.3241818,26.7657984 C13.7223815,26.7657984 15.9568016,26.0170922 17.7934716,24.7419519 L19.7120313,26.6488131 C20.1565757,27.0933574 20.8467892,27.1167545 21.279635,26.6839087 C21.7007823,26.2627614 21.7007823,25.5959449 21.2679365,25.1630991 L19.442965,23.3381277 C21.4200174,21.3025826 22.6483636,18.5183313 22.6483636,15.4533151 C22.6483636,9.19459897 17.582898,4.12913335 11.3241818,4.12913335 C5.06546562,4.12913335 0,9.19459897 0,15.4533151 C0,18.5183313 1.21664763,21.3025826 3.20539857,23.3381277 L1.36872858,25.1630991 C0.935882793,25.5959449 0.947581328,26.2627614 1.36872858,26.6839087 Z M6.3990986,16.9975218 C5.84926746,16.9975218 5.41642166,16.5763745 5.41642166,16.0265434 C5.41642166,15.4767122 5.84926746,15.055565 6.3990986,15.055565 L10.3415049,15.055565 L10.3415049,9.4051726 C10.3415049,8.85534146 10.7743507,8.4341942 11.3124833,8.4341942 C11.8623144,8.4341942 12.2951602,8.85534146 12.2951602,9.4051726 L12.2951602,16.0265434 C12.2951602,16.5763745 11.8623144,16.9975218 11.3124833,16.9975218 L6.3990986,16.9975218 Z" id="Shape" fill="#FFFFFF" fill-rule="nonzero"></path>
                    <text id="Fixed-Alarm" font-family="SFProDisplay-Medium, SF Pro Display" font-size="24" font-weight="400" fill="#FFC233">
                        <tspan x="35.55" y="23">Fixed Alarm</tspan>
                    </text>
                    <text id="06:00-10/01/23" font-family="SFProDisplay-Bold, SF Pro Display" font-size="18" font-weight="bold" letter-spacing="1.5" fill="#FFFFFF">
                        <tspan x="22.0322266" y="56">06:00 10/01/23</tspan>
                    </text>
                </g>
                <g id="status" transform="translate(57.000000, 0.000000)">
                    <path d="M10.2555408,-4.14336123e-16 L99.7444592,4.14336123e-16 C103.310534,-2.4074122e-16 104.603679,0.371302445 105.907383,1.06853082 C107.211087,1.76575919 108.234241,2.78891348 108.931469,4.09261719 C109.628698,5.39632089 110,6.68946584 110,10.2555408 L110,29.7444592 C110,33.3105342 109.628698,34.6036791 108.931469,35.9073828 C108.234241,37.2110865 107.211087,38.2342408 105.907383,38.9314692 C104.603679,39.6286976 103.310534,40 99.7444592,40 L10.2555408,40 C6.68946584,40 5.39632089,39.6286976 4.09261719,38.9314692 C2.78891348,38.2342408 1.76575919,37.2110865 1.06853082,35.9073828 C0.371302445,34.6036791 1.60494146e-16,33.3105342 -2.76224082e-16,29.7444592 L2.76224082e-16,10.2555408 C-1.60494146e-16,6.68946584 0.371302445,5.39632089 1.06853082,4.09261719 C1.76575919,2.78891348 2.78891348,1.76575919 4.09261719,1.06853082 C5.39632089,0.371302445 6.68946584,2.4074122e-16 10.2555408,-4.14336123e-16 Z" id="Rectangle" fill="#4DCFFF"></path>
                    <text id="DISABLED" font-family="SFProDisplay-Bold, SF Pro Display" font-size="18" font-weight="bold" letter-spacing="1.5" fill="#FFFFFF">
                        <tspan x="6.43017578" y="21">DISABLED</tspan>
                    </text>
                </g>
            </g>
        </g>
        <g id="change-and-turn-off-next" transform="translate(227.000000, 334.000000)">
            <g id="ArrowLabel">
                <path d="M594.366186,1048.36542 L600.134776,1058.36431 C600.410765,1058.84269 600.246693,1059.45422 599.768312,1059.73021 C599.616359,1059.81788 599.444018,1059.86403 599.26859,1059.86403 L587.73141,1059.86403 C587.179125,1059.86403 586.73141,1059.41631 586.73141,1058.86403 C586.73141,1058.6886 586.777559,1058.51626 586.865224,1058.36431 L592.633814,1048.36542 C592.909804,1047.88704 593.521341,1047.72296 593.999722,1047.99895 C594.151958,1048.08678 594.278357,1048.21318 594.366186,1048.36542 Z" id="Triangle-Copy" fill="#FFFFFF" transform="translate(593.500000, 1053.364028) rotate(90.000000) translate(-593.500000, -1053.364028) "></path>
                <path d="M0,0 L0,1028.85687 C1.21683439e-13,1042.1117 10.745166,1052.85687 24,1052.85687 L587,1052.85687 L587,1052.85687" id="Path-2" stroke="#FFFFFF" stroke-width="3" stroke-linecap="square"></path>
                <g id="change-time-&amp;-turn-o" fill="#FFFFFF" fill-opacity="1">
                    <use filter="url(#filter-10)" xlink:href="#text-9"></use>
                    <use xlink:href="#text-9"></use>
                </g>
            </g>
            <g id="Schedule" transform="translate(625.000000, 987.000000)">
                <path d="M15.3833112,15 L209.616689,15 C214.965801,15 216.905519,15.5569537 218.861074,16.6027962 C220.81663,17.6486388 222.351361,19.1833702 223.397204,21.1389258 C224.443046,23.0944813 225,25.0341988 225,30.3833112 L225,99.6166888 C225,104.965801 224.443046,106.905519 223.397204,108.861074 C222.351361,110.81663 220.81663,112.351361 218.861074,113.397204 C216.905519,114.443046 214.965801,115 209.616689,115 L15.3833112,115 C10.0341988,115 8.09448133,114.443046 6.13892578,113.397204 C4.18337022,112.351361 2.64863878,110.81663 1.60279622,108.861074 C0.556953667,106.905519 2.4074122e-16,104.965801 -4.14336123e-16,99.6166888 L4.14336123e-16,30.3833112 C-2.4074122e-16,25.0341988 0.556953667,23.0944813 1.60279622,21.1389258 C2.64863878,19.1833702 4.18337022,17.6486388 6.13892578,16.6027962 C8.09448133,15.5569537 10.0341988,15 15.3833112,15 Z" id="Rectangle" fill="#5AEDC8"></path>
                <g id="Group" transform="translate(16.000000, 38.000000)">
                    <path d="M1.43891979,7.14735536 C1.62609635,7.14735536 1.7430817,7.10056122 1.93025826,6.97187734 L6.2002235,3.89516266 C6.3990986,3.75478024 6.50438541,3.55590514 6.50438541,3.35703005 C6.50438541,3.08796375 6.37570153,2.85399305 6.15342936,2.67851502 C5.62699529,2.2339707 4.81979638,2 4.02429601,2 C2.09403775,2 0.526434071,3.509111 0.526434071,5.40427366 C0.526434071,5.90731066 0.608323815,6.35185499 0.748706234,6.6560169 C0.877390118,6.94848027 1.13475789,7.14735536 1.43891979,7.14735536 Z M21.2094438,7.14735536 C21.5136057,7.14735536 21.7592749,6.94848027 21.8996574,6.6560169 C22.0400398,6.36355352 22.110231,5.90731066 22.110231,5.40427366 C22.110231,3.509111 20.5543258,2 18.612369,2 C17.8285672,2 17.0213683,2.2339707 16.4832357,2.67851502 C16.2609635,2.85399305 16.1322796,3.08796375 16.1322796,3.35703005 C16.1322796,3.55590514 16.249265,3.75478024 16.4481401,3.89516266 L20.7181053,6.97187734 C20.8935834,7.10056122 21.0222672,7.14735536 21.2094438,7.14735536 Z M1.36872858,26.6839087 C1.80157438,27.1167545 2.49178794,27.1050559 2.93633226,26.6488131 L4.85489199,24.7419519 C6.69156197,26.0170922 8.9142836,26.7657984 11.3241818,26.7657984 C13.7223815,26.7657984 15.9568016,26.0170922 17.7934716,24.7419519 L19.7120313,26.6488131 C20.1565757,27.0933574 20.8467892,27.1167545 21.279635,26.6839087 C21.7007823,26.2627614 21.7007823,25.5959449 21.2679365,25.1630991 L19.442965,23.3381277 C21.4200174,21.3025826 22.6483636,18.5183313 22.6483636,15.4533151 C22.6483636,9.19459897 17.582898,4.12913335 11.3241818,4.12913335 C5.06546562,4.12913335 0,9.19459897 0,15.4533151 C0,18.5183313 1.21664763,21.3025826 3.20539857,23.3381277 L1.36872858,25.1630991 C0.935882793,25.5959449 0.947581328,26.2627614 1.36872858,26.6839087 Z M6.3990986,16.9975218 C5.84926746,16.9975218 5.41642166,16.5763745 5.41642166,16.0265434 C5.41642166,15.4767122 5.84926746,15.055565 6.3990986,15.055565 L10.3415049,15.055565 L10.3415049,9.4051726 C10.3415049,8.85534146 10.7743507,8.4341942 11.3124833,8.4341942 C11.8623144,8.4341942 12.2951602,8.85534146 12.2951602,9.4051726 L12.2951602,16.0265434 C12.2951602,16.5763745 11.8623144,16.9975218 11.3124833,16.9975218 L6.3990986,16.9975218 Z" id="Shape" fill="#FFFFFF" fill-rule="nonzero"></path>
                    <text id="Repeat-Alarm" font-family="SFProDisplay-Medium, SF Pro Display" font-size="24" font-weight="400" fill="#FFC233">
                        <tspan x="35.55" y="23">Repeat Alarm</tspan>
                    </text>
                    <text id="06:00-MTWTFSS" font-family="SFProDisplay-Bold, SF Pro Display" font-size="18" font-weight="bold" letter-spacing="1.5" fill="#FFFFFF">
                        <tspan x="16.159668" y="56">06:00 MTWTFSS</tspan>
                    </text>
                </g>
                <g id="status" transform="translate(57.000000, 0.000000)">
                    <path d="M10.2555408,-4.14336123e-16 L99.7444592,4.14336123e-16 C103.310534,-2.4074122e-16 104.603679,0.371302445 105.907383,1.06853082 C107.211087,1.76575919 108.234241,2.78891348 108.931469,4.09261719 C109.628698,5.39632089 110,6.68946584 110,10.2555408 L110,29.7444592 C110,33.3105342 109.628698,34.6036791 108.931469,35.9073828 C108.234241,37.2110865 107.211087,38.2342408 105.907383,38.9314692 C104.603679,39.6286976 103.310534,40 99.7444592,40 L10.2555408,40 C6.68946584,40 5.39632089,39.6286976 4.09261719,38.9314692 C2.78891348,38.2342408 1.76575919,37.2110865 1.06853082,35.9073828 C0.371302445,34.6036791 1.60494146e-16,33.3105342 -2.76224082e-16,29.7444592 L2.76224082e-16,10.2555408 C-1.60494146e-16,6.68946584 0.371302445,5.39632089 1.06853082,4.09261719 C1.76575919,2.78891348 2.78891348,1.76575919 4.09261719,1.06853082 C5.39632089,0.371302445 6.68946584,2.4074122e-16 10.2555408,-4.14336123e-16 Z" id="Rectangle" fill="#5AEDC8"></path>
                    <text id="OFF-10/01" font-family="SFProDisplay-Bold, SF Pro Display" font-size="18" font-weight="bold" letter-spacing="1.5" fill="#FFFFFF">
                        <tspan x="6.70410156" y="21">OFF 10/01</tspan>
                    </text>
                </g>
            </g>
            <g id="Schedule-Copy" transform="translate(875.000000, 987.000000)">
                <path d="M15.3833112,15 L209.616689,15 C214.965801,15 216.905519,15.5569537 218.861074,16.6027962 C220.81663,17.6486388 222.351361,19.1833702 223.397204,21.1389258 C224.443046,23.0944813 225,25.0341988 225,30.3833112 L225,99.6166888 C225,104.965801 224.443046,106.905519 223.397204,108.861074 C222.351361,110.81663 220.81663,112.351361 218.861074,113.397204 C216.905519,114.443046 214.965801,115 209.616689,115 L15.3833112,115 C10.0341988,115 8.09448133,114.443046 6.13892578,113.397204 C4.18337022,112.351361 2.64863878,110.81663 1.60279622,108.861074 C0.556953667,106.905519 2.4074122e-16,104.965801 -4.14336123e-16,99.6166888 L4.14336123e-16,30.3833112 C-2.4074122e-16,25.0341988 0.556953667,23.0944813 1.60279622,21.1389258 C2.64863878,19.1833702 4.18337022,17.6486388 6.13892578,16.6027962 C8.09448133,15.5569537 10.0341988,15 15.3833112,15 Z" id="Rectangle" fill="#4DCFFF"></path>
                <g id="Group" transform="translate(16.000000, 38.000000)">
                    <path d="M1.43891979,7.14735536 C1.62609635,7.14735536 1.7430817,7.10056122 1.93025826,6.97187734 L6.2002235,3.89516266 C6.3990986,3.75478024 6.50438541,3.55590514 6.50438541,3.35703005 C6.50438541,3.08796375 6.37570153,2.85399305 6.15342936,2.67851502 C5.62699529,2.2339707 4.81979638,2 4.02429601,2 C2.09403775,2 0.526434071,3.509111 0.526434071,5.40427366 C0.526434071,5.90731066 0.608323815,6.35185499 0.748706234,6.6560169 C0.877390118,6.94848027 1.13475789,7.14735536 1.43891979,7.14735536 Z M21.2094438,7.14735536 C21.5136057,7.14735536 21.7592749,6.94848027 21.8996574,6.6560169 C22.0400398,6.36355352 22.110231,5.90731066 22.110231,5.40427366 C22.110231,3.509111 20.5543258,2 18.612369,2 C17.8285672,2 17.0213683,2.2339707 16.4832357,2.67851502 C16.2609635,2.85399305 16.1322796,3.08796375 16.1322796,3.35703005 C16.1322796,3.55590514 16.249265,3.75478024 16.4481401,3.89516266 L20.7181053,6.97187734 C20.8935834,7.10056122 21.0222672,7.14735536 21.2094438,7.14735536 Z M1.36872858,26.6839087 C1.80157438,27.1167545 2.49178794,27.1050559 2.93633226,26.6488131 L4.85489199,24.7419519 C6.69156197,26.0170922 8.9142836,26.7657984 11.3241818,26.7657984 C13.7223815,26.7657984 15.9568016,26.0170922 17.7934716,24.7419519 L19.7120313,26.6488131 C20.1565757,27.0933574 20.8467892,27.1167545 21.279635,26.6839087 C21.7007823,26.2627614 21.7007823,25.5959449 21.2679365,25.1630991 L19.442965,23.3381277 C21.4200174,21.3025826 22.6483636,18.5183313 22.6483636,15.4533151 C22.6483636,9.19459897 17.582898,4.12913335 11.3241818,4.12913335 C5.06546562,4.12913335 0,9.19459897 0,15.4533151 C0,18.5183313 1.21664763,21.3025826 3.20539857,23.3381277 L1.36872858,25.1630991 C0.935882793,25.5959449 0.947581328,26.2627614 1.36872858,26.6839087 Z M6.3990986,16.9975218 C5.84926746,16.9975218 5.41642166,16.5763745 5.41642166,16.0265434 C5.41642166,15.4767122 5.84926746,15.055565 6.3990986,15.055565 L10.3415049,15.055565 L10.3415049,9.4051726 C10.3415049,8.85534146 10.7743507,8.4341942 11.3124833,8.4341942 C11.8623144,8.4341942 12.2951602,8.85534146 12.2951602,9.4051726 L12.2951602,16.0265434 C12.2951602,16.5763745 11.8623144,16.9975218 11.3124833,16.9975218 L6.3990986,16.9975218 Z" id="Shape" fill="#FFFFFF" fill-rule="nonzero"></path>
                    <text id="Fixed-Alarm" font-family="SFProDisplay-Medium, SF Pro Display" font-size="24" font-weight="400" fill="#FFC233">
                        <tspan x="35.55" y="23">Fixed Alarm</tspan>
                    </text>
                    <text id="06:30-10/01/23" font-family="SFProDisplay-Bold, SF Pro Display" font-size="18" font-weight="bold" letter-spacing="1.5" fill="#FFFFFF">
                        <tspan x="22.309082" y="56">06:30 10/01/23</tspan>
                    </text>
                </g>
                <g id="status" transform="translate(57.000000, 0.000000)">
                    <path d="M10.2555408,-4.14336123e-16 L99.7444592,4.14336123e-16 C103.310534,-2.4074122e-16 104.603679,0.371302445 105.907383,1.06853082 C107.211087,1.76575919 108.234241,2.78891348 108.931469,4.09261719 C109.628698,5.39632089 110,6.68946584 110,10.2555408 L110,29.7444592 C110,33.3105342 109.628698,34.6036791 108.931469,35.9073828 C108.234241,37.2110865 107.211087,38.2342408 105.907383,38.9314692 C104.603679,39.6286976 103.310534,40 99.7444592,40 L10.2555408,40 C6.68946584,40 5.39632089,39.6286976 4.09261719,38.9314692 C2.78891348,38.2342408 1.76575919,37.2110865 1.06853082,35.9073828 C0.371302445,34.6036791 1.60494146e-16,33.3105342 -2.76224082e-16,29.7444592 L2.76224082e-16,10.2555408 C-1.60494146e-16,6.68946584 0.371302445,5.39632089 1.06853082,4.09261719 C1.76575919,2.78891348 2.78891348,1.76575919 4.09261719,1.06853082 C5.39632089,0.371302445 6.68946584,2.4074122e-16 10.2555408,-4.14336123e-16 Z" id="Rectangle" fill="#4DCFFF"></path>
                    <text id="DISABLED" font-family="SFProDisplay-Bold, SF Pro Display" font-size="18" font-weight="bold" letter-spacing="1.5" fill="#FFFFFF">
                        <tspan x="6.43017578" y="21">DISABLED</tspan>
                    </text>
                </g>
            </g>
        </g>
        <g id="no-changes" transform="translate(124.000000, 194.000000)">
            <g id="Schedule" transform="translate(728.000000, 0.000000)">
                <path d="M15.3833112,15 L209.616689,15 C214.965801,15 216.905519,15.5569537 218.861074,16.6027962 C220.81663,17.6486388 222.351361,19.1833702 223.397204,21.1389258 C224.443046,23.0944813 225,25.0341988 225,30.3833112 L225,99.6166888 C225,104.965801 224.443046,106.905519 223.397204,108.861074 C222.351361,110.81663 220.81663,112.351361 218.861074,113.397204 C216.905519,114.443046 214.965801,115 209.616689,115 L15.3833112,115 C10.0341988,115 8.09448133,114.443046 6.13892578,113.397204 C4.18337022,112.351361 2.64863878,110.81663 1.60279622,108.861074 C0.556953667,106.905519 2.4074122e-16,104.965801 -4.14336123e-16,99.6166888 L4.14336123e-16,30.3833112 C-2.4074122e-16,25.0341988 0.556953667,23.0944813 1.60279622,21.1389258 C2.64863878,19.1833702 4.18337022,17.6486388 6.13892578,16.6027962 C8.09448133,15.5569537 10.0341988,15 15.3833112,15 Z" id="Rectangle" fill="#5AEDC8"></path>
                <g id="Group" transform="translate(16.000000, 38.000000)">
                    <path d="M1.43891979,7.14735536 C1.62609635,7.14735536 1.7430817,7.10056122 1.93025826,6.97187734 L6.2002235,3.89516266 C6.3990986,3.75478024 6.50438541,3.55590514 6.50438541,3.35703005 C6.50438541,3.08796375 6.37570153,2.85399305 6.15342936,2.67851502 C5.62699529,2.2339707 4.81979638,2 4.02429601,2 C2.09403775,2 0.526434071,3.509111 0.526434071,5.40427366 C0.526434071,5.90731066 0.608323815,6.35185499 0.748706234,6.6560169 C0.877390118,6.94848027 1.13475789,7.14735536 1.43891979,7.14735536 Z M21.2094438,7.14735536 C21.5136057,7.14735536 21.7592749,6.94848027 21.8996574,6.6560169 C22.0400398,6.36355352 22.110231,5.90731066 22.110231,5.40427366 C22.110231,3.509111 20.5543258,2 18.612369,2 C17.8285672,2 17.0213683,2.2339707 16.4832357,2.67851502 C16.2609635,2.85399305 16.1322796,3.08796375 16.1322796,3.35703005 C16.1322796,3.55590514 16.249265,3.75478024 16.4481401,3.89516266 L20.7181053,6.97187734 C20.8935834,7.10056122 21.0222672,7.14735536 21.2094438,7.14735536 Z M1.36872858,26.6839087 C1.80157438,27.1167545 2.49178794,27.1050559 2.93633226,26.6488131 L4.85489199,24.7419519 C6.69156197,26.0170922 8.9142836,26.7657984 11.3241818,26.7657984 C13.7223815,26.7657984 15.9568016,26.0170922 17.7934716,24.7419519 L19.7120313,26.6488131 C20.1565757,27.0933574 20.8467892,27.1167545 21.279635,26.6839087 C21.7007823,26.2627614 21.7007823,25.5959449 21.2679365,25.1630991 L19.442965,23.3381277 C21.4200174,21.3025826 22.6483636,18.5183313 22.6483636,15.4533151 C22.6483636,9.19459897 17.582898,4.12913335 11.3241818,4.12913335 C5.06546562,4.12913335 0,9.19459897 0,15.4533151 C0,18.5183313 1.21664763,21.3025826 3.20539857,23.3381277 L1.36872858,25.1630991 C0.935882793,25.5959449 0.947581328,26.2627614 1.36872858,26.6839087 Z M6.3990986,16.9975218 C5.84926746,16.9975218 5.41642166,16.5763745 5.41642166,16.0265434 C5.41642166,15.4767122 5.84926746,15.055565 6.3990986,15.055565 L10.3415049,15.055565 L10.3415049,9.4051726 C10.3415049,8.85534146 10.7743507,8.4341942 11.3124833,8.4341942 C11.8623144,8.4341942 12.2951602,8.85534146 12.2951602,9.4051726 L12.2951602,16.0265434 C12.2951602,16.5763745 11.8623144,16.9975218 11.3124833,16.9975218 L6.3990986,16.9975218 Z" id="Shape" fill="#FFFFFF" fill-rule="nonzero"></path>
                    <text id="Repeat-Alarm" font-family="SFProDisplay-Medium, SF Pro Display" font-size="24" font-weight="400" fill="#FFC233">
                        <tspan x="35.55" y="23">Repeat Alarm</tspan>
                    </text>
                    <text id="06:00-MTWTFSS" font-family="SFProDisplay-Bold, SF Pro Display" font-size="18" font-weight="bold" letter-spacing="1.5" fill="#FFFFFF">
                        <tspan x="16.159668" y="56">06:00 MTWTFSS</tspan>
                    </text>
                </g>
                <g id="status" transform="translate(58.000000, 0.000000)">
                    <path d="M10.2555408,-4.14336123e-16 L99.7444592,4.14336123e-16 C103.310534,-2.4074122e-16 104.603679,0.371302445 105.907383,1.06853082 C107.211087,1.76575919 108.234241,2.78891348 108.931469,4.09261719 C109.628698,5.39632089 110,6.68946584 110,10.2555408 L110,29.7444592 C110,33.3105342 109.628698,34.6036791 108.931469,35.9073828 C108.234241,37.2110865 107.211087,38.2342408 105.907383,38.9314692 C104.603679,39.6286976 103.310534,40 99.7444592,40 L10.2555408,40 C6.68946584,40 5.39632089,39.6286976 4.09261719,38.9314692 C2.78891348,38.2342408 1.76575919,37.2110865 1.06853082,35.9073828 C0.371302445,34.6036791 1.60494146e-16,33.3105342 -2.76224082e-16,29.7444592 L2.76224082e-16,10.2555408 C-1.60494146e-16,6.68946584 0.371302445,5.39632089 1.06853082,4.09261719 C1.76575919,2.78891348 2.78891348,1.76575919 4.09261719,1.06853082 C5.39632089,0.371302445 6.68946584,2.4074122e-16 10.2555408,-4.14336123e-16 Z" id="Rectangle" fill="#5AEDC8"></path>
                    <text id="ENABLED" font-family="SFProDisplay-Bold, SF Pro Display" font-size="18" font-weight="bold" letter-spacing="1.5" fill="#FFFFFF">
                        <tspan x="9.82568359" y="21">ENABLED</tspan>
                    </text>
                </g>
            </g>
            <g id="ArrowLabel" transform="translate(250.000000, 55.000000)">
                <g id="Arrow" transform="translate(0.000000, 3.000000)">
                    <line x1="8.72349068e-16" y1="7.5" x2="447" y2="7.5" id="Line" stroke="#FFFFFF" stroke-width="3" stroke-linecap="square"></line>
                    <path d="M447.366186,2.50138835 L453.134776,12.5002775 C453.410765,12.9786586 453.246693,13.5901965 452.768312,13.8661856 C452.616359,13.9538509 452.444018,14 452.26859,14 L440.73141,14 C440.179125,14 439.73141,13.5522847 439.73141,13 C439.73141,12.824572 439.777559,12.6522307 439.865224,12.5002775 L445.633814,2.50138835 C445.909804,2.02300726 446.521341,1.85893613 446.999722,2.13492522 C447.151958,2.22275344 447.278357,2.34915276 447.366186,2.50138835 Z" id="Triangle" fill="#FFFFFF" transform="translate(446.500000, 7.500000) rotate(90.000000) translate(-446.500000, -7.500000) "></path>
                </g>
                <g id="no-changes" fill="#FFFFFF" fill-opacity="1">
                    <use filter="url(#filter-12)" xlink:href="#text-11"></use>
                    <use xlink:href="#text-11"></use>
                </g>
            </g>
            <g id="Bedtime" transform="translate(0.000000, 15.000000)">
                <path d="M15.3833112,-6.21504185e-16 L209.616689,6.21504185e-16 C214.965801,-3.61111829e-16 216.905519,0.556953667 218.861074,1.60279622 C220.81663,2.64863878 222.351361,4.18337022 223.397204,6.13892578 C224.443046,8.09448133 225,10.0341988 225,15.3833112 L225,84.6166888 C225,89.9658012 224.443046,91.9055187 223.397204,93.8610742 C222.351361,95.8166298 220.81663,97.3513612 218.861074,98.3972038 C216.905519,99.4430463 214.965801,100 209.616689,100 L15.3833112,100 C10.0341988,100 8.09448133,99.4430463 6.13892578,98.3972038 C4.18337022,97.3513612 2.64863878,95.8166298 1.60279622,93.8610742 C0.556953667,91.9055187 2.4074122e-16,89.9658012 -4.14336123e-16,84.6166888 L4.14336123e-16,15.3833112 C-2.4074122e-16,10.0341988 0.556953667,8.09448133 1.60279622,6.13892578 C2.64863878,4.18337022 4.18337022,2.64863878 6.13892578,1.60279622 C8.09448133,0.556953667 10.0341988,3.61111829e-16 15.3833112,-6.21504185e-16 Z" id="Rectangle" fill="#FFC233"></path>
                <g id="Group" transform="translate(15.000000, 23.000000)">
                    <text id="06:00-MTWTFSS-Copy" font-family="SFProDisplay-Bold, SF Pro Display" font-size="18" font-weight="bold" letter-spacing="1.5" fill="#FFFFFF">
                        <tspan x="16.159668" y="56">06:00 MTWTFSS</tspan>
                    </text>
                    <path d="M6.39992227,11.5868636 L8.93587252,11.5868636 L8.93587252,10.2363 C8.93587252,9.30353673 9.4508356,8.79828993 10.4030315,8.79828993 L13.9980567,8.79828993 C14.9405363,8.79828993 15.4652157,9.30353673 15.4652157,10.2363 L15.4652157,11.5868636 L17.6513797,11.5868636 L17.6513797,10.2363 C17.6513797,9.30353673 18.1663428,8.79828993 19.1574038,8.79828993 L22.5678197,8.79828993 C23.5588807,8.79828993 24.08356,9.30353673 24.08356,10.2363 L24.08356,11.5868636 L26.6195103,11.5868636 L26.6195103,8.79828993 C26.6195103,6.95219588 25.6284493,6 23.8212204,6 L9.18849592,6 C7.39098329,6 6.39992227,6.95219588 6.39992227,8.79828993 L6.39992227,11.5868636 Z M4,21.9444229 C4,22.4691022 4.34006996,22.7994559 4.85503304,22.7994559 L5.45744267,22.7994559 C5.97240575,22.7994559 6.31247571,22.4691022 6.31247571,21.9444229 L6.31247571,20.5452779 C6.41935484,20.5744267 6.7594248,20.5938593 7.00233191,20.5938593 L25.9976681,20.5938593 C26.2405752,20.5938593 26.5806452,20.5744267 26.6972406,20.5452779 L26.6972406,21.9444229 C26.6972406,22.4691022 27.0373105,22.7994559 27.5522736,22.7994559 L28.144967,22.7994559 C28.6696463,22.7994559 29,22.4691022 29,21.9444229 L29,16.0466382 C29,14.1228138 27.940925,13.0734551 25.9976681,13.0734551 L7.00233191,13.0734551 C5.05907501,13.0734551 4,14.1228138 4,16.0466382 L4,21.9444229 Z" id="Shape" fill="#FFFFFF" fill-rule="nonzero"></path>
                    <text id="Bedtime-Alarm" font-family="SFProDisplay-Medium, SF Pro Display" font-size="24" font-weight="400" fill="#FFC233">
                        <tspan x="45" y="23">Bedtime Alarm</tspan>
                    </text>
                </g>
            </g>
        </g>
        <text id="Alarms-Recieved" font-family="SFProDisplay-Medium, SF Pro Display" font-size="28" font-weight="400" letter-spacing="2.33333333" fill="#FFFFFF">
            <tspan x="970.84082" y="97">Alarms Recieved</tspan>
        </text>
    </g>
</svg>