<?xml version="1.0" encoding="utf-8"?>
<!-- Generator: Adobe Illustrator 27.0.0, SVG Export Plug-In . SVG Version: 6.00 Build 0)  -->
<svg version="1.1" xmlns="http://www.w3.org/2000/svg" xmlns:xlink="http://www.w3.org/1999/xlink" x="0px" y="0px"
	 viewBox="0 0 297.92 419.81" style="enable-background:new 0 0 297.92 419.81;" xml:space="preserve">
<style type="text/css">
	.st0{fill-rule:evenodd;clip-rule:evenodd;fill:#232323;}
	.st1{fill:#8F00FF;}
	.st2{fill:#0091FF;}
	.st3{fill:#E02020;}
	.st4{fill:#FF0076;}
	.st5{fill:#FA8A00;}
	.st6{fill:#00D4FF;}
	.st7{fill:#F7D100;}
	.st8{fill-rule:evenodd;clip-rule:evenodd;fill:#232323;}
</style>
<g id="Layer_1" layer="1">
	
		<rect x="0.14" y="0.14" transform="matrix(-1 -8.978919e-11 8.978919e-11 -1 297.921 419.8111)" class="st0" width="297.64" height="419.53"/>
</g>
<g id="Layer_2" layer="2">
	<polygon id="Path_11_" class="st1" points="0.13,311.89 297.71,14.31 297.79,0.22 224.11,0.22 0.21,224.12 	"/>
	<polygon id="Path_10_" class="st2" points="140.5,0.22 0.21,140.51 0.13,224.04 224.02,0.14 	"/>
	<polygon id="Path_9_" class="st3" points="297.75,194.31 72.44,419.63 0.21,419.67 0.21,399.83 297.79,102.25 	"/>
	<polygon id="Path_8_" class="st4" points="0.13,399.75 297.71,102.17 297.79,14.39 0.21,311.97 	"/>
	<polygon id="Path_7_" class="st5" points="297.79,194.36 72.48,419.67 156.09,419.67 297.79,279.38 	"/>
	<polygon id="Path_6_" class="st6" points="140.46,0.18 0.17,140.47 0.21,0.22 	"/>
	<polygon id="Path" class="st7" points="297.79,419.67 156.09,419.67 297.79,279.38 	"/>
</g>
<g id="Layer_3" layer="3">
	<rect x="126.99" y="54" class="st8" width="7.09" height="7.09"/>
	<rect x="126.99" y="139.04" class="st8" width="7.09" height="7.09"/>
	<rect x="163.84" y="96.52" class="st8" width="7.09" height="7.09"/>
	<rect x="163.84" y="351.64" class="st8" width="7.09" height="7.09"/>
	<rect x="126.99" y="224.08" class="st8" width="7.09" height="7.09"/>
	<rect x="163.84" y="181.56" class="st8" width="7.09" height="7.09"/>
	<rect x="163.84" y="266.6" class="st8" width="7.09" height="7.09"/>
	<rect x="126.99" y="309.12" class="st8" width="7.09" height="7.09"/>
	<rect x="78.8" y="96.52" class="st8" width="7.09" height="7.09"/>
	<rect x="41.95" y="54" class="st8" width="7.09" height="7.09"/>
	<rect x="41.95" y="224.08" class="st8" width="7.09" height="7.09"/>
	<rect x="41.95" y="309.12" class="st8" width="7.09" height="7.09"/>
	<rect x="212.03" y="309.12" class="st8" width="7.09" height="7.09"/>
	<rect x="78.8" y="181.56" class="st8" width="7.09" height="7.09"/>
	<rect x="78.8" y="351.64" class="st8" width="7.09" height="7.09"/>
	<rect x="78.8" y="266.6" class="st8" width="7.09" height="7.09"/>
	<rect x="41.95" y="139.04" class="st8" width="7.09" height="7.09"/>
	<rect x="248.88" y="351.64" class="st8" width="7.09" height="7.09"/>
	<rect x="248.88" y="266.6" class="st8" width="7.09" height="7.09"/>
	<rect x="248.88" y="96.52" class="st8" width="7.09" height="7.09"/>
	<rect x="212.03" y="54" class="st8" width="7.09" height="7.09"/>
	<rect x="212.03" y="139.04" class="st8" width="7.09" height="7.09"/>
	<path class="st8" d="M0.14,0.14v419.53h297.64V0.14H0.14z M56.13,323.29H41.95v7.09h-7.09v-28.35h21.26V323.29z M56.13,238.25
		H41.95v7.09h-7.09v-28.35h21.26V238.25z M56.13,153.21H41.95v7.09h-7.09v-28.35h21.26V153.21z M56.13,68.17H41.95v7.09h-7.09V46.91
		h21.26V68.17z M92.98,365.81H78.8v7.09h-7.09v-28.35h21.26V365.81z M92.98,280.77H78.8v7.09h-7.09v-28.35h21.26V280.77z
		 M92.98,195.73H78.8v7.09h-7.09v-28.35h21.26V195.73z M92.98,110.69H78.8v7.09h-7.09V89.43h21.26V110.69z M141.17,323.29h-14.17
		v7.09h-7.09v-28.35h21.26V323.29z M141.17,238.25h-14.17v7.09h-7.09v-28.35h21.26V238.25z M141.17,153.21h-14.17v7.09h-7.09v-28.35
		h21.26V153.21z M141.17,68.17h-14.17v7.09h-7.09V46.91h21.26V68.17z M178.02,365.81h-14.17v7.09h-7.09v-28.35h21.26V365.81z
		 M178.02,280.77h-14.17v7.09h-7.09v-28.35h21.26V280.77z M178.02,195.73h-14.17v7.09h-7.09v-28.35h21.26V195.73z M178.02,110.69
		h-14.17v7.09h-7.09V89.43h21.26V110.69z M226.2,323.29h-14.17v7.09h-7.09v-28.35h21.26V323.29z M226.2,238.25h-14.17v7.09h-7.09
		v-28.35h21.26V238.25z M226.2,153.21h-14.17v7.09h-7.09v-28.35h21.26V153.21z M226.2,68.17h-14.17v7.09h-7.09V46.91h21.26V68.17z
		 M263.06,365.81h-14.17v7.09h-7.09v-28.35h21.26V365.81z M263.06,280.77h-14.17v7.09h-7.09v-28.35h21.26V280.77z M263.06,195.73
		h-14.17v7.09h-7.09v-28.35h21.26V195.73z M263.06,110.69h-14.17v7.09h-7.09V89.43h21.26V110.69z"/>
	<rect x="248.88" y="181.56" class="st8" width="7.09" height="7.09"/>
	<rect x="212.03" y="224.08" class="st8" width="7.09" height="7.09"/>
</g>
</svg>
