<?xml version="1.0" encoding="utf-8"?>
<!-- Generator: Adobe Illustrator 27.0.0, SVG Export Plug-In . SVG Version: 6.00 Build 0)  -->
<svg version="1.1" xmlns="http://www.w3.org/2000/svg" xmlns:xlink="http://www.w3.org/1999/xlink" x="0px" y="0px"
	 viewBox="0 0 297.64 419.53" style="enable-background:new 0 0 297.64 419.53;" xml:space="preserve">
<style type="text/css">
	.st0{fill:#FFFFFF;}
	.st1{fill:#0C1C2A;}
	.st2{fill:#F7941D;}
</style>
<g id="Layer_1">
	<rect class="st0" width="297.64" height="419.53"/>
</g>
<g id="Layer_2">
	<path class="st1" d="M88.86,115.44l53.63,43.88v132.09l-53.63,19.5V115.44z M208.78,115.44l-53.63,43.88v132.09l53.63,19.5V115.44z
		"/>
	<path class="st0" d="M0,0v419.53h297.64V0H0z M218.77,325.17l-69.95-25.44l-69.95,25.44V94.36l69.95,57.23l69.95-57.23V325.17z"/>
</g>
<g id="Layer_3" data-material="gold" data-thickness="0.5">
	<g>
		<path class="st2" d="M99.5,244.89c0-0.22-0.08-0.4-0.23-0.55c-0.16-0.15-0.34-0.23-0.55-0.23h-6.37c-0.22,0-0.4,0.08-0.55,0.23
			c-0.15,0.15-0.23,0.34-0.23,0.55v2.9c0,0.21,0.08,0.39,0.23,0.55c0.15,0.16,0.34,0.23,0.55,0.23h6.37c0.21,0,0.39-0.08,0.55-0.23
			c0.16-0.16,0.23-0.34,0.23-0.55V244.89z M97.93,247.06c0,0.13-0.07,0.19-0.2,0.19h-4.4c-0.14,0-0.2-0.06-0.2-0.19v-1.47
			c0-0.13,0.07-0.19,0.2-0.19h4.4c0.14,0,0.2,0.06,0.2,0.19V247.06z"/>
		<path class="st2" d="M192.68,178.51c-0.5,0-0.74,0.25-0.74,0.76v1.06c0,0.22-0.1,0.33-0.3,0.33h-0.6c-0.44,0-0.65,0.21-0.65,0.64
			s0.22,0.64,0.65,0.64h0.59c0.21,0,0.32,0.11,0.32,0.32v1.22c0,0.49,0.25,0.73,0.74,0.73c0.5,0,0.74-0.24,0.74-0.73v-4.21
			C193.42,178.77,193.18,178.51,192.68,178.51z"/>
		<path class="st2" d="M178.38,192.98c0,0.42,0.22,0.63,0.67,0.63h1.95l-2.36,1.76c-0.43,0.32-0.5,0.65-0.23,1
			c0.29,0.35,0.64,0.36,1.07,0.05l2.85-2.21l2.84,2.21c0.42,0.33,0.78,0.32,1.07-0.05c0.28-0.35,0.2-0.69-0.23-1l-2.36-1.76h1.96
			c0.42,0,0.63-0.21,0.63-0.63c0-0.43-0.21-0.64-0.64-0.64h-6.59C178.6,192.34,178.38,192.55,178.38,192.98z"/>
		<path class="st2" d="M99.5,166.37c0-0.54-0.26-0.8-0.79-0.8c-0.53,0-0.79,0.27-0.79,0.8v4.47c0,0.52,0.26,0.78,0.79,0.78
			c0.53,0,0.79-0.26,0.79-0.78V166.37z"/>
		<path class="st2" d="M185.91,238.28c0.26,0.25,0.57,0.44,0.91,0.58c0.35,0.14,0.71,0.21,1.09,0.21c0.4,0,0.77-0.07,1.12-0.21
			c0.35-0.14,0.65-0.33,0.9-0.58c0.26-0.25,0.47-0.53,0.63-0.86c0.15-0.32,0.23-0.67,0.23-1.03c0-0.37-0.08-0.71-0.23-1.04
			c-0.15-0.32-0.36-0.61-0.63-0.86c-0.26-0.24-0.56-0.43-0.9-0.57c-0.35-0.14-0.72-0.21-1.12-0.21c-0.38,0-0.75,0.07-1.09,0.21
			c-0.35,0.14-0.65,0.33-0.91,0.57c-0.26,0.25-0.47,0.53-0.61,0.86c-0.15,0.32-0.22,0.67-0.22,1.04c0,0.36,0.07,0.7,0.22,1.03
			C185.45,237.74,185.65,238.03,185.91,238.28z M186.92,235.39c0.28-0.28,0.61-0.42,1-0.42c0.41,0,0.75,0.14,1.03,0.42
			c0.28,0.28,0.42,0.61,0.42,1c0,0.38-0.14,0.71-0.42,0.99c-0.28,0.28-0.63,0.42-1.03,0.42c-0.39,0-0.73-0.14-1-0.42
			c-0.28-0.28-0.42-0.61-0.42-0.99C186.5,236,186.64,235.67,186.92,235.39z"/>
		<path class="st2" d="M193.2,188.76c0.15-0.15,0.22-0.32,0.22-0.51v-2.73c0-0.2-0.07-0.38-0.22-0.52
			c-0.15-0.14-0.32-0.21-0.51-0.21h-6c-0.2,0-0.38,0.07-0.52,0.21c-0.14,0.14-0.21,0.32-0.21,0.52v2.73c0,0.2,0.07,0.37,0.21,0.51
			c0.14,0.15,0.32,0.22,0.52,0.22h6C192.89,188.98,193.06,188.91,193.2,188.76z M191.95,187.56c0,0.12-0.06,0.18-0.19,0.18h-4.14
			c-0.13,0-0.19-0.06-0.19-0.18v-1.39c0-0.12,0.06-0.18,0.19-0.18h4.14c0.13,0,0.19,0.06,0.19,0.18V187.56z"/>
		<path class="st2" d="M174.61,243.53c0.26,0.23,0.55,0.42,0.89,0.56c0.33,0.14,0.69,0.21,1.08,0.21c0.38,0,0.73-0.07,1.07-0.21
			c0.33-0.14,0.63-0.33,0.89-0.56c0.26-0.23,0.45-0.5,0.6-0.81c0.14-0.32,0.21-0.65,0.21-1c0-0.36-0.07-0.7-0.21-1.01
			c-0.14-0.31-0.34-0.58-0.6-0.82c-0.26-0.23-0.55-0.41-0.89-0.55c-0.33-0.14-0.69-0.21-1.07-0.21c-0.38,0-0.74,0.07-1.08,0.21
			c-0.33,0.14-0.63,0.32-0.89,0.55c-0.25,0.23-0.45,0.51-0.59,0.82c-0.15,0.31-0.22,0.65-0.22,1.01c0,0.35,0.07,0.69,0.22,1
			C174.17,243.04,174.36,243.31,174.61,243.53z M175.61,240.76c0.26-0.27,0.58-0.41,0.96-0.41c0.37,0,0.68,0.13,0.95,0.41
			c0.26,0.27,0.4,0.59,0.4,0.97c0,0.37-0.13,0.69-0.4,0.96c-0.26,0.27-0.58,0.41-0.95,0.41c-0.38,0-0.7-0.14-0.96-0.41
			c-0.26-0.27-0.39-0.59-0.39-0.96C175.22,241.35,175.35,241.03,175.61,240.76z"/>
		<path class="st2" d="M98.2,158.06c-0.26-0.24-0.57-0.43-0.92-0.58s-0.72-0.22-1.11-0.22c-0.4,0-0.77,0.07-1.12,0.22
			s-0.65,0.34-0.92,0.58c-0.26,0.25-0.46,0.53-0.61,0.86c-0.15,0.32-0.23,0.67-0.23,1.04c0,0.36,0.08,0.71,0.23,1.04
			c0.15,0.33,0.36,0.62,0.61,0.86c0.26,0.25,0.57,0.44,0.92,0.59s0.72,0.22,1.12,0.22c0.39,0,0.76-0.07,1.11-0.22
			s0.65-0.34,0.92-0.59c0.26-0.24,0.47-0.53,0.62-0.86s0.22-0.68,0.22-1.04c0-0.37-0.07-0.71-0.22-1.04S98.46,158.31,98.2,158.06z
			 M97.14,160.93c-0.27,0.28-0.6,0.41-0.97,0.41c-0.38,0-0.71-0.14-0.98-0.41c-0.27-0.28-0.4-0.6-0.4-0.98
			c0-0.38,0.13-0.71,0.4-0.98c0.27-0.27,0.59-0.41,0.98-0.41c0.38,0,0.7,0.14,0.97,0.41c0.27,0.27,0.41,0.6,0.41,0.98
			C97.55,160.33,97.41,160.66,97.14,160.93z"/>
		<path class="st2" d="M172.6,211.77c0.38,0.16,0.78,0.24,1.2,0.24c0.44,0,0.84-0.08,1.22-0.24c0.38-0.16,0.7-0.38,0.98-0.66
			c0.29-0.26,0.51-0.58,0.66-0.94c0.15-0.36,0.23-0.76,0.23-1.18c0-0.41-0.08-0.8-0.23-1.17c-0.15-0.36-0.37-0.68-0.66-0.95
			c-0.27-0.28-0.6-0.5-0.98-0.66c-0.38-0.16-0.79-0.24-1.22-0.24c-0.42,0-0.82,0.08-1.2,0.24c-0.38,0.16-0.71,0.38-0.99,0.66
			c-0.28,0.27-0.49,0.59-0.65,0.95c-0.15,0.36-0.23,0.75-0.23,1.17c0,0.42,0.08,0.81,0.23,1.18c0.15,0.36,0.37,0.68,0.65,0.94
			C171.89,211.39,172.22,211.61,172.6,211.77z M172.34,208.32c0.09-0.21,0.2-0.39,0.34-0.54c0.16-0.16,0.33-0.28,0.52-0.36
			c0.19-0.08,0.39-0.12,0.59-0.12c0.22,0,0.42,0.04,0.61,0.12c0.19,0.08,0.37,0.2,0.52,0.36c0.14,0.15,0.26,0.33,0.35,0.54
			c0.09,0.21,0.13,0.44,0.13,0.68c0,0.24-0.05,0.47-0.14,0.68c-0.09,0.21-0.21,0.39-0.36,0.54c-0.16,0.16-0.33,0.28-0.52,0.36
			c-0.19,0.08-0.39,0.12-0.61,0.12c-0.2,0-0.4-0.04-0.59-0.12c-0.19-0.08-0.37-0.2-0.52-0.36c-0.14-0.15-0.26-0.33-0.34-0.54
			c-0.09-0.21-0.13-0.44-0.13-0.68C172.21,208.75,172.26,208.53,172.34,208.32z"/>
		<path class="st2" d="M100.65,226.25c0-0.51-0.25-0.77-0.74-0.77h-0.43c-0.22,0-0.34-0.11-0.34-0.34v-1.28
			c0-0.53-0.26-0.79-0.78-0.79c-0.54,0-0.8,0.26-0.8,0.79v4.67c0,0.53,0.27,0.79,0.8,0.79c0.52,0,0.78-0.26,0.78-0.79v-1.21
			c0-0.22,0.11-0.34,0.34-0.34h0.43C100.41,226.99,100.65,226.74,100.65,226.25z"/>
		<path class="st2" d="M184.83,211.25c0.44,0.29,0.8,0.2,1.08-0.28l1.81-3.21l1.83,3.21c0.28,0.48,0.64,0.58,1.08,0.28
			c0.35-0.26,0.39-0.61,0.1-1.07l-2.21-3.87c-0.2-0.33-0.47-0.5-0.81-0.5c-0.33,0-0.59,0.17-0.79,0.5l-2.21,3.87
			C184.43,210.66,184.47,211.02,184.83,211.25z"/>
		<path class="st2" d="M192.94,216.2c0.5-0.01,0.74-0.26,0.74-0.76v-2.67c0-0.2-0.08-0.38-0.23-0.53c-0.15-0.15-0.32-0.23-0.52-0.23
			h-6.18c-0.44,0-0.65,0.22-0.65,0.67c0,0.44,0.22,0.65,0.65,0.65h5.12c0.21,0,0.32,0.11,0.32,0.32v1.79
			C192.19,215.94,192.44,216.19,192.94,216.2z"/>
		<path class="st2" d="M178.65,233.49c-0.5,0-0.76,0.25-0.76,0.74v4.21c0,0.5,0.25,0.74,0.76,0.74c0.49,0,0.73-0.25,0.73-0.74v-1.17
			c0-0.21,0.11-0.32,0.32-0.32h0.42c0.46,0,0.69-0.23,0.69-0.69c0-0.47-0.23-0.71-0.69-0.71h-0.42c-0.21,0-0.32-0.1-0.32-0.3v-1.02
			C179.38,233.73,179.14,233.49,178.65,233.49z"/>
		<path class="st2" d="M188.97,243.5c0.26,0.24,0.56,0.43,0.91,0.57c0.35,0.14,0.72,0.21,1.11,0.21c0.38,0,0.75-0.07,1.1-0.21
			c0.35-0.14,0.65-0.33,0.91-0.57c0.26-0.24,0.46-0.52,0.61-0.85c0.15-0.32,0.23-0.67,0.23-1.03c0-0.37-0.08-0.71-0.23-1.03
			c-0.15-0.32-0.36-0.59-0.61-0.83c-0.26-0.24-0.56-0.43-0.91-0.58c-0.35-0.14-0.72-0.21-1.1-0.21c-0.39,0-0.76,0.07-1.11,0.21
			c-0.35,0.14-0.65,0.33-0.91,0.58c-0.26,0.24-0.46,0.52-0.61,0.83c-0.15,0.32-0.23,0.66-0.23,1.03c0,0.36,0.08,0.7,0.23,1.03
			C188.51,242.98,188.72,243.26,188.97,243.5z M189.96,240.61c0.28-0.28,0.63-0.42,1.03-0.42c0.4,0,0.74,0.14,1.02,0.42
			c0.28,0.28,0.42,0.62,0.42,1.02c0,0.39-0.14,0.73-0.42,1.01c-0.28,0.28-0.62,0.42-1.02,0.42c-0.41,0-0.75-0.14-1.03-0.42
			c-0.28-0.28-0.42-0.62-0.42-1.01C189.53,241.23,189.68,240.89,189.96,240.61z"/>
		<path class="st2" d="M99.62,262.18c0-0.45-0.23-0.67-0.7-0.67h-5.58c-0.13,0-0.19-0.06-0.19-0.19v-1.35
			c0-0.53-0.26-0.79-0.79-0.79s-0.79,0.26-0.79,0.79v2.12c0,0.22,0.08,0.4,0.23,0.56c0.16,0.16,0.34,0.23,0.56,0.23h6.57
			C99.39,262.87,99.62,262.64,99.62,262.18z"/>
		<path class="st2" d="M183.43,202.65c0.35-0.14,0.65-0.33,0.91-0.56c0.26-0.23,0.47-0.51,0.62-0.82c0.15-0.32,0.23-0.65,0.23-1.01
			s-0.08-0.7-0.23-1.02c-0.13-0.28-0.31-0.53-0.53-0.74h1.93c0.42,0,0.63-0.21,0.63-0.63c0-0.43-0.21-0.64-0.63-0.64h-2.97
			c-0.21,0-0.32-0.11-0.32-0.32v-0.61c0-0.49-0.25-0.73-0.74-0.73c-0.5,0-0.76,0.24-0.76,0.73v0.61c0,0.21-0.1,0.32-0.3,0.32h-2.98
			c-0.42,0-0.63,0.21-0.63,0.64c0,0.42,0.21,0.63,0.63,0.63h1.92c-0.22,0.22-0.39,0.47-0.52,0.74c-0.15,0.32-0.23,0.65-0.23,1.02
			s0.07,0.7,0.22,1.01c0.15,0.32,0.35,0.59,0.61,0.82c0.26,0.23,0.56,0.42,0.91,0.56c0.35,0.14,0.72,0.21,1.11,0.21
			C182.71,202.86,183.08,202.79,183.43,202.65z M181.31,201.22c-0.14-0.13-0.24-0.29-0.32-0.46c-0.08-0.17-0.12-0.36-0.12-0.56
			s0.04-0.39,0.12-0.56c0.08-0.17,0.19-0.33,0.32-0.46c0.13-0.13,0.28-0.24,0.46-0.32c0.18-0.08,0.37-0.12,0.57-0.12
			c0.2,0,0.38,0.04,0.56,0.12c0.18,0.08,0.33,0.19,0.47,0.32c0.13,0.14,0.23,0.29,0.31,0.46c0.08,0.17,0.12,0.36,0.12,0.56
			s-0.04,0.39-0.12,0.56c-0.08,0.17-0.18,0.33-0.31,0.46c-0.14,0.14-0.29,0.24-0.47,0.32c-0.18,0.08-0.36,0.12-0.56,0.12
			c-0.2,0-0.39-0.04-0.57-0.12C181.59,201.47,181.44,201.36,181.31,201.22z"/>
		<path class="st2" d="M179.82,215.07v-8.74c0-0.5-0.25-0.76-0.74-0.76c-0.5,0-0.74,0.25-0.74,0.76v8.74c0,0.49,0.25,0.73,0.74,0.73
			C179.58,215.81,179.82,215.56,179.82,215.07z"/>
		<path class="st2" d="M178.82,270.78c0.5,0,0.74-0.25,0.74-0.74v-4.21c0-0.2,0.11-0.3,0.32-0.3h0.44c0.47,0,0.7-0.23,0.7-0.7
			c0-0.46-0.23-0.69-0.7-0.69h-0.44c-0.21,0-0.32-0.11-0.32-0.32v-2.51c0-0.5-0.25-0.76-0.74-0.76s-0.74,0.25-0.74,0.76v8.73
			C178.07,270.53,178.32,270.78,178.82,270.78z"/>
		<path class="st2" d="M98.71,208.69c-0.53,0-0.79,0.27-0.79,0.8v4.47c0,0.52,0.26,0.78,0.79,0.78c0.53,0,0.79-0.26,0.79-0.78v-4.47
			C99.5,208.96,99.24,208.69,98.71,208.69z"/>
		<path class="st2" d="M185.19,165.74v5.81c0,0.5,0.25,0.74,0.74,0.74c0.5,0,0.74-0.25,0.74-0.74v-5.81c0-0.5-0.25-0.76-0.74-0.76
			C185.44,164.98,185.19,165.24,185.19,165.74z"/>
		<path class="st2" d="M178.89,247.02c-0.5,0-0.74,0.25-0.74,0.76v5.81c0,0.5,0.25,0.74,0.74,0.74c0.5,0,0.74-0.25,0.74-0.74v-5.81
			C179.63,247.27,179.39,247.02,178.89,247.02z"/>
		<path class="st2" d="M186.18,219.11c-0.47,0-0.71,0.24-0.71,0.73v8.77c0,0.48,0.24,0.72,0.71,0.72c0.48,0,0.72-0.24,0.72-0.72
			v-8.77C186.9,219.35,186.66,219.11,186.18,219.11z"/>
		<path class="st2" d="M185.5,178.7c-0.49,0-0.73,0.24-0.73,0.72v3.82c0,0.2,0.07,0.38,0.21,0.52c0.14,0.14,0.32,0.21,0.52,0.21
			h3.95c0.2,0,0.38-0.07,0.52-0.21c0.15-0.14,0.22-0.32,0.22-0.52v-3.82c0-0.48-0.25-0.72-0.74-0.72c-0.48,0-0.72,0.24-0.72,0.72
			v0.53c0,0.21-0.11,0.32-0.32,0.32h-1.86c-0.21,0-0.32-0.11-0.32-0.32v-0.53C186.23,178.94,185.99,178.7,185.5,178.7z
			 M186.55,181.45h1.86c0.21,0,0.32,0.1,0.32,0.3v0.7c0,0.2-0.11,0.3-0.32,0.3h-1.86c-0.21,0-0.32-0.1-0.32-0.3v-0.7
			C186.23,181.55,186.33,181.45,186.55,181.45z"/>
		<path class="st2" d="M93.36,167.32c0.22,0,0.34,0.11,0.34,0.32v3.13c0,0.53,0.26,0.79,0.78,0.79c0.53,0,0.79-0.26,0.79-0.79v-4.04
			c0-0.21-0.08-0.39-0.23-0.55c-0.16-0.16-0.34-0.24-0.56-0.24h-3.62v1.38H93.36z"/>
		<path class="st2" d="M193.68,206.33c0-0.5-0.25-0.76-0.74-0.76c-0.5,0-0.74,0.25-0.74,0.76v4.4c0,0.49,0.25,0.73,0.74,0.73
			c0.5,0,0.74-0.24,0.74-0.73V206.33z"/>
		<path class="st2" d="M193.26,161.21c0-0.42-0.21-0.63-0.63-0.63h-5.56c-0.12,0-0.18-0.06-0.18-0.18v-0.76
			c0-0.5-0.26-0.74-0.78-0.74c-0.5,0-0.76,0.25-0.76,0.74v1.47c0,0.2,0.08,0.38,0.23,0.52c0.15,0.15,0.32,0.22,0.52,0.22h6.53
			C193.05,161.85,193.26,161.63,193.26,161.21z"/>
		<path class="st2" d="M193.36,291.6c0-0.21,0.11-0.32,0.32-0.32h0.42c0.46-0.01,0.69-0.24,0.69-0.69c0-0.47-0.23-0.71-0.69-0.71
			h-0.42c-0.21,0-0.32-0.11-0.32-0.32v-1.22c0-0.5-0.24-0.74-0.73-0.74c-0.5,0-0.76,0.25-0.76,0.74v4.53c0,0.5,0.25,0.76,0.76,0.76
			c0.49,0,0.73-0.25,0.73-0.76V291.6z"/>
		<path class="st2" d="M161.98,266.95c0.5,0,0.74-0.24,0.74-0.73v-4.47c0-0.2-0.07-0.38-0.22-0.52c-0.15-0.14-0.32-0.21-0.52-0.21
			h-4.32c-0.25,0-0.42,0.08-0.52,0.23v0.83c0.1,0.14,0.27,0.22,0.52,0.22h3.27c0.21,0,0.32,0.1,0.32,0.3v3.62
			C161.25,266.71,161.49,266.95,161.98,266.95z"/>
		<path class="st2" d="M158.66,281.03c-0.5,0-0.76,0.25-0.76,0.74v1.96c0,0.2,0.08,0.38,0.23,0.52c0.15,0.15,0.33,0.22,0.53,0.22
			h6.46c0.43,0,0.64-0.22,0.64-0.65c0-0.42-0.21-0.63-0.64-0.63h-5.54c-0.12,0-0.18-0.06-0.18-0.18v-1.24
			C159.41,281.27,159.16,281.03,158.66,281.03z"/>
		<path class="st2" d="M159.38,170.09c-0.47,0-0.71,0.24-0.71,0.71v1.17c0,0.21-0.11,0.32-0.32,0.32h-1.21v1.29h5.17
			c0.44,0,0.65-0.22,0.65-0.65c0-0.42-0.22-0.63-0.65-0.63h-1.91c-0.21,0-0.32-0.11-0.32-0.32v-1.17
			C160.09,170.33,159.86,170.09,159.38,170.09z"/>
		<path class="st2" d="M195.4,133.91c0,0.51,0.25,0.77,0.75,0.77c0.51,0,0.77-0.26,0.77-0.77v-6.19l-1.52,1.25V133.91z"/>
		<path class="st2" d="M193.03,133.68c0,0.5,0.25,0.76,0.74,0.76c0.5,0,0.76-0.25,0.76-0.76v-4l-1.5,1.23V133.68z"/>
		<path class="st2" d="M191.95,132.47c0.46-0.17,0.6-0.48,0.44-0.95l-0.03-0.08l-1.12,0.91
			C191.42,132.53,191.65,132.58,191.95,132.47z"/>
		<path class="st2" d="M160.97,184.16c0.5,0,0.74-0.25,0.74-0.74v-3.8c0-0.2-0.07-0.37-0.22-0.52c-0.15-0.15-0.32-0.23-0.52-0.23
			h-3.79c-0.01,0-0.02,0-0.03,0v1.29c0.01,0,0.02,0,0.03,0h2.74c0.21,0,0.32,0.1,0.32,0.3v2.94
			C160.23,183.92,160.48,184.16,160.97,184.16z"/>
		<path class="st2" d="M163.24,215.58c0.47,0,0.71-0.24,0.71-0.71v-8.47c0-0.47-0.24-0.71-0.71-0.71c-0.47,0-0.7,0.24-0.7,0.71v2.23
			c0,0.21-0.11,0.32-0.32,0.32h-1.05c-0.44,0-0.67,0.22-0.67,0.65c0,0.43,0.22,0.64,0.67,0.64h1.05c0.21,0,0.32,0.11,0.32,0.32v4.31
			C162.54,215.34,162.77,215.58,163.24,215.58z"/>
		<path class="st2" d="M165.15,197.01v-4.21c0-0.5-0.25-0.76-0.74-0.76c-0.5,0-0.74,0.25-0.74,0.76v4.21c0,0.49,0.25,0.73,0.74,0.73
			C164.9,197.74,165.15,197.5,165.15,197.01z"/>
		<path class="st2" d="M157.77,213.35H161c0.44,0,0.65-0.21,0.65-0.64c0-0.44-0.22-0.65-0.65-0.65h-2.22c-0.21,0-0.32-0.1-0.32-0.3
			v-4.21c0-0.2,0.1-0.3,0.32-0.3h1.94c0.44,0,0.65-0.22,0.65-0.65c0-0.43-0.22-0.64-0.65-0.64h-2.95c-0.2,0-0.38,0.08-0.52,0.23
			c-0.04,0.05-0.07,0.1-0.1,0.15v6.67c0.03,0.05,0.06,0.1,0.1,0.15C157.39,213.27,157.57,213.35,157.77,213.35z"/>
		<path class="st2" d="M159.36,193.7c0.21,0,0.32,0.1,0.32,0.3v2.94c0,0.5,0.24,0.74,0.73,0.74c0.5,0,0.74-0.25,0.74-0.74v-3.8
			c0-0.2-0.07-0.37-0.22-0.52c-0.15-0.15-0.32-0.23-0.52-0.23h-3.27v1.3H159.36z"/>
		<path class="st2" d="M157.89,198.53c-0.14,0.14-0.21,0.32-0.21,0.52v2.73c0,0.2,0.07,0.37,0.21,0.51
			c0.14,0.15,0.32,0.22,0.52,0.22h6c0.2,0,0.37-0.07,0.51-0.22s0.22-0.32,0.22-0.51v-2.73c0-0.2-0.07-0.38-0.22-0.52
			c-0.15-0.14-0.32-0.21-0.51-0.21h-6C158.21,198.32,158.04,198.39,157.89,198.53z M159.15,199.7c0-0.12,0.06-0.18,0.19-0.18h4.14
			c0.13,0,0.19,0.06,0.19,0.18v1.39c0,0.12-0.06,0.18-0.19,0.18h-4.14c-0.13,0-0.19-0.06-0.19-0.18V199.7z"/>
		<path class="st2" d="M99.5,238.25c0-0.53-0.26-0.8-0.79-0.8c-0.53,0-0.79,0.27-0.79,0.8v4.47c0,0.52,0.26,0.78,0.79,0.78
			c0.53,0,0.79-0.26,0.79-0.78V238.25z"/>
		<path class="st2" d="M173.61,160.42v-1.31c0-0.5-0.25-0.74-0.74-0.74c-0.5,0-0.74,0.25-0.74,0.74v2c0,0.2,0.07,0.38,0.22,0.52
			c0.15,0.15,0.32,0.22,0.52,0.22h6.16c0.41,0,0.62-0.21,0.62-0.63c0-0.41-0.21-0.62-0.62-0.62h-5.23
			C173.67,160.6,173.61,160.54,173.61,160.42z"/>
		<path class="st2" d="M184.97,252.7h1.89c0.09,0,0.14,0.05,0.14,0.14v0.72c0,0.5,0.25,0.74,0.74,0.74c0.5,0,0.74-0.25,0.74-0.74
			v-0.72c0-0.09,0.04-0.14,0.13-0.14h2.09c0.43,0,0.64-0.21,0.64-0.63c0-0.41-0.21-0.62-0.64-0.62h-0.76
			c0.19-0.2,0.34-0.43,0.46-0.68c0.16-0.31,0.24-0.64,0.24-1c0-0.37-0.08-0.72-0.24-1.04c-0.16-0.33-0.37-0.61-0.63-0.86
			c-0.26-0.23-0.57-0.42-0.93-0.57c-0.35-0.15-0.73-0.22-1.12-0.22c-0.39,0-0.76,0.07-1.12,0.22c-0.35,0.15-0.66,0.34-0.92,0.57
			c-0.26,0.25-0.47,0.54-0.63,0.86c-0.15,0.33-0.23,0.67-0.23,1.04c0,0.36,0.08,0.7,0.24,1c0.11,0.25,0.26,0.47,0.45,0.68h-0.56
			c-0.42,0-0.63,0.21-0.63,0.62C184.33,252.49,184.54,252.7,184.97,252.7z M186.72,248.75c0.27-0.28,0.61-0.42,1.02-0.42
			c0.41,0,0.75,0.14,1.03,0.42c0.28,0.28,0.42,0.63,0.42,1.03c0,0.4-0.14,0.74-0.42,1.03c-0.28,0.29-0.62,0.43-1.03,0.43
			c-0.41,0-0.75-0.14-1.02-0.43c-0.27-0.29-0.41-0.63-0.41-1.03C186.31,249.37,186.44,249.03,186.72,248.75z"/>
		<path class="st2" d="M95.8,185.84c0.16-0.16,0.23-0.34,0.23-0.55v-4.19c0-0.21-0.08-0.39-0.23-0.55
			c-0.16-0.16-0.34-0.23-0.56-0.23h-4.16c-0.08,0-0.15,0.02-0.22,0.04v5.66c0.07,0.02,0.14,0.04,0.22,0.04h4.16
			C95.45,186.07,95.64,186,95.8,185.84z M94.47,184.49c0,0.16-0.08,0.24-0.24,0.24H92.1c-0.16,0-0.24-0.08-0.24-0.24v-2.58
			c0-0.16,0.08-0.24,0.24-0.24h2.13c0.16,0,0.24,0.08,0.24,0.24V184.49z"/>
		<path class="st2" d="M182.66,165.34h-3.91c-0.2,0-0.38,0.07-0.52,0.22c-0.14,0.15-0.21,0.32-0.21,0.51v3.95
			c0,0.2,0.07,0.37,0.21,0.51c0.14,0.15,0.32,0.22,0.52,0.22h3.91c0.2,0,0.38-0.07,0.52-0.22c0.15-0.15,0.22-0.32,0.22-0.51v-3.95
			c0-0.2-0.07-0.37-0.22-0.51C183.04,165.42,182.86,165.34,182.66,165.34z M181.94,169.27c0,0.15-0.08,0.23-0.23,0.23h-2.01
			c-0.15,0-0.23-0.08-0.23-0.23v-2.42c0-0.15,0.08-0.23,0.23-0.23h2.01c0.15,0,0.23,0.08,0.23,0.23V169.27z"/>
		<path class="st2" d="M180.7,173.91v-1.27c0-0.5-0.25-0.74-0.74-0.74c-0.5,0-0.74,0.25-0.74,0.74v2c0,0.2,0.07,0.38,0.22,0.52
			c0.15,0.15,0.32,0.22,0.52,0.22h6.18c0.44,0,0.65-0.22,0.65-0.65c0-0.42-0.22-0.63-0.65-0.63h-5.25
			C180.76,174.09,180.7,174.03,180.7,173.91z"/>
		<path class="st2" d="M185.66,261.67v3.79c0,0.2,0.08,0.38,0.23,0.52c0.15,0.15,0.33,0.22,0.53,0.22h6.62
			c0.43,0,0.64-0.21,0.64-0.64c0-0.42-0.21-0.63-0.64-0.63h-5.57c-0.21,0-0.32-0.1-0.32-0.3v-2.12c0-0.2,0.11-0.3,0.32-0.3h5.46
			c0.43,0,0.64-0.21,0.64-0.64c0-0.42-0.21-0.63-0.64-0.63h-6.51c-0.2,0-0.38,0.07-0.53,0.22
			C185.74,261.29,185.66,261.46,185.66,261.67z"/>
		<path class="st2" d="M193.36,233.49c-0.49,0-0.73,0.25-0.73,0.76v0.16c0,0.15-0.08,0.23-0.23,0.23h-0.86
			c-0.41,0-0.61,0.2-0.61,0.59c0,0.41,0.2,0.62,0.61,0.62h0.86c0.15,0,0.23,0.08,0.23,0.23v0.68c0,0.15-0.08,0.23-0.23,0.23h-0.86
			c-0.41,0-0.61,0.2-0.61,0.6c0,0.41,0.2,0.61,0.61,0.61h0.86c0.15,0,0.23,0.08,0.23,0.23v0.17c0,0.49,0.24,0.73,0.73,0.73
			c0.5,0,0.76-0.24,0.76-0.73v-4.32C194.11,233.74,193.86,233.49,193.36,233.49z"/>
		<path class="st2" d="M189.7,253.88c0,0.42,0.21,0.63,0.63,0.63h1.56c0.15,0,0.23,0.07,0.23,0.21v0.03c0,0.47,0.25,0.7,0.74,0.7
			c0.5,0,0.74-0.25,0.74-0.76v-6.94c0-0.5-0.25-0.76-0.74-0.76c-0.5,0-0.74,0.25-0.74,0.76v5.27c0,0.15-0.08,0.23-0.23,0.23h-1.56
			C189.91,253.26,189.7,253.47,189.7,253.88z"/>
		<path class="st2" d="M178.06,281.87c0.44,0.19,0.75,0.07,0.94-0.36l1.82-4.6l1.82,4.6c0.19,0.43,0.5,0.55,0.95,0.36
			c0.45-0.19,0.58-0.5,0.38-0.95l-2.31-5.86c-0.18-0.41-0.46-0.62-0.83-0.62c-0.38,0-0.65,0.21-0.83,0.62l-2.31,5.86
			C177.47,281.37,177.6,281.68,178.06,281.87z"/>
		<path class="st2" d="M99.27,283.64h-0.7c-0.21,0-0.32-0.1-0.32-0.3v-2.27c0-0.5-0.24-0.76-0.73-0.76c-0.5,0-0.74,0.25-0.74,0.76
			v8.73c0,0.5,0.25,0.74,0.74,0.74c0.49,0,0.73-0.25,0.73-0.74v-4.41c0-0.21,0.11-0.32,0.32-0.32h0.7c0.47,0,0.71-0.24,0.71-0.71
			C99.98,283.88,99.74,283.64,99.27,283.64z"/>
		<path class="st2" d="M98.45,229.91h-6.6c-0.46,0-0.69,0.24-0.69,0.71c0,0.46,0.23,0.7,0.69,0.7h5.39c0.22,0,0.32,0.11,0.32,0.34
			v1.92c0,0.53,0.27,0.79,0.8,0.79c0.52,0,0.78-0.26,0.78-0.79v-2.95c0-0.19-0.07-0.36-0.2-0.5
			C98.8,229.98,98.64,229.91,98.45,229.91z"/>
		<path class="st2" d="M170.86,252.99c0.41,0.24,0.74,0.15,1.02-0.28l1.86-3l1.86,3c0.27,0.43,0.61,0.52,1.03,0.28
			c0.38-0.23,0.42-0.57,0.15-1.04l-2.09-3.32h1.44c0.42,0,0.63-0.21,0.63-0.63c0-0.42-0.21-0.63-0.63-0.63h-4.79
			c-0.42,0-0.63,0.21-0.63,0.63c0,0.42,0.21,0.63,0.63,0.63h1.47l-2.1,3.32C170.43,252.42,170.48,252.77,170.86,252.99z"/>
		<path class="st2" d="M171.4,269.14h5.67c0.44,0,0.65-0.22,0.65-0.65c0-0.42-0.22-0.63-0.65-0.63h-2c-0.15,0-0.23-0.08-0.23-0.23
			v-1.08c0.16-0.03,0.31-0.08,0.46-0.14c0.36-0.13,0.68-0.33,0.95-0.6c0.27-0.26,0.48-0.57,0.64-0.91c0.15-0.35,0.23-0.72,0.23-1.12
			c0-0.39-0.08-0.76-0.23-1.11c-0.15-0.35-0.37-0.65-0.64-0.91c-0.27-0.27-0.59-0.48-0.95-0.63c-0.36-0.15-0.75-0.23-1.17-0.23
			c-0.41,0-0.79,0.08-1.16,0.23c-0.36,0.15-0.68,0.36-0.95,0.63c-0.27,0.26-0.48,0.57-0.63,0.91c-0.15,0.35-0.23,0.71-0.23,1.11
			c0,0.4,0.08,0.77,0.23,1.12c0.15,0.35,0.36,0.65,0.63,0.91c0.27,0.26,0.59,0.46,0.96,0.6c0.14,0.06,0.29,0.11,0.44,0.14v1.08
			c0,0.15-0.08,0.23-0.23,0.23h-1.8c-0.43,0-0.64,0.21-0.64,0.64C170.76,268.93,170.97,269.14,171.4,269.14z M173.07,264.89
			c-0.14-0.14-0.26-0.3-0.34-0.5c-0.09-0.2-0.13-0.4-0.13-0.61c0-0.2,0.04-0.4,0.13-0.6c0.09-0.2,0.2-0.36,0.34-0.51
			c0.14-0.14,0.31-0.25,0.5-0.33c0.19-0.08,0.38-0.12,0.58-0.12c0.2,0,0.4,0.04,0.59,0.12c0.19,0.08,0.35,0.19,0.5,0.33
			c0.14,0.14,0.26,0.31,0.35,0.51s0.13,0.39,0.13,0.6c0,0.21-0.04,0.41-0.13,0.61s-0.21,0.36-0.35,0.5
			c-0.14,0.15-0.31,0.26-0.5,0.34c-0.19,0.08-0.38,0.12-0.59,0.12c-0.2,0-0.39-0.04-0.58-0.12
			C173.38,265.16,173.21,265.04,173.07,264.89z"/>
		<path class="st2" d="M171.04,180.18h3.12c0.2,0,0.3,0.1,0.3,0.3v5.23c0,0.5,0.25,0.74,0.74,0.74c0.5,0,0.74-0.25,0.74-0.74v-6.1
			c0-0.2-0.08-0.37-0.23-0.52c-0.15-0.15-0.32-0.23-0.51-0.23h-4.18c-0.44,0-0.65,0.21-0.65,0.64
			C170.39,179.96,170.61,180.18,171.04,180.18z"/>
		<path class="st2" d="M178.82,178.51c-0.5,0-0.74,0.25-0.74,0.76v8.74c0,0.49,0.25,0.73,0.74,0.73c0.5,0,0.74-0.24,0.74-0.73v-8.74
			C179.57,178.77,179.32,178.51,178.82,178.51z"/>
		<path class="st2" d="M201.44,243.88h5.35v-1.29h-4.42c-0.12,0-0.18-0.06-0.18-0.18v-1.27c0-0.5-0.25-0.74-0.74-0.74
			c-0.5,0-0.76,0.25-0.76,0.74v2c0,0.2,0.08,0.38,0.23,0.52C201.06,243.81,201.23,243.88,201.44,243.88z"/>
		<path class="st2" d="M199.18,215.08h7.6v-1.33h-7.6c-0.45,0.01-0.67,0.23-0.67,0.67C198.51,214.86,198.73,215.08,199.18,215.08z"
			/>
		<path class="st2" d="M206.61,188.04c0,0.23,0.06,0.41,0.17,0.52v-9.87c-0.11,0.12-0.17,0.29-0.17,0.52V188.04z"/>
		<path class="st2" d="M90.91,287.74l1.82-4.6l1.83,4.6c0.19,0.43,0.5,0.55,0.94,0.36c0.45-0.19,0.58-0.5,0.4-0.95l-2.31-5.86
			c-0.19-0.41-0.47-0.62-0.85-0.62c-0.38,0-0.65,0.21-0.83,0.62l-1.04,2.63v3.91C90.87,287.8,90.9,287.78,90.91,287.74z"/>
		<path class="st2" d="M203.12,229.14c0.25,0.23,0.54,0.42,0.86,0.55c0.33,0.14,0.68,0.2,1.05,0.2c0.37,0,0.72-0.07,1.04-0.2
			c0.26-0.11,0.49-0.26,0.7-0.43v-3.81c-0.21-0.17-0.44-0.31-0.7-0.42c-0.33-0.14-0.67-0.2-1.04-0.2c-0.38,0-0.73,0.07-1.05,0.2
			c-0.33,0.13-0.61,0.32-0.86,0.54c-0.24,0.23-0.43,0.5-0.57,0.81c-0.14,0.3-0.21,0.63-0.21,0.98c0,0.34,0.07,0.66,0.21,0.98
			C202.69,228.65,202.88,228.92,203.12,229.14z M204.12,226.44c0.25-0.26,0.56-0.38,0.92-0.38c0.35,0,0.66,0.13,0.91,0.38
			c0.25,0.26,0.38,0.56,0.38,0.92c0,0.35-0.13,0.66-0.38,0.92c-0.25,0.26-0.55,0.39-0.91,0.39c-0.36,0-0.67-0.13-0.92-0.39
			c-0.25-0.26-0.38-0.57-0.38-0.92C203.74,227,203.86,226.69,204.12,226.44z"/>
		<path class="st2" d="M206.45,222.86h-0.73c-0.41,0-0.62,0.2-0.62,0.61c0,0.41,0.21,0.62,0.62,0.62h0.73
			c0.15,0,0.23,0.08,0.23,0.23v0.07c0,0.18,0.04,0.32,0.11,0.43v-5.39c-0.07,0.12-0.11,0.26-0.11,0.44v0.85
			c0,0.15-0.08,0.23-0.23,0.23h-0.73c-0.41,0-0.62,0.2-0.62,0.6c0,0.41,0.21,0.62,0.62,0.62h0.73c0.15,0,0.23,0.08,0.23,0.23v0.26
			C206.67,222.79,206.6,222.86,206.45,222.86z"/>
		<path class="st2" d="M203.24,205.97c-0.37,0-0.64,0.12-0.82,0.37l-3.18,4.3c-0.33,0.45-0.3,0.82,0.1,1.11
			c0.39,0.28,0.75,0.19,1.08-0.26l2.82-3.8l2.81,3.8c0.23,0.31,0.48,0.43,0.73,0.4v-1.86l-2.72-3.68
			C203.88,206.1,203.6,205.97,203.24,205.97z"/>
		<path class="st2" d="M202.18,200.98v-1.27c0-0.5-0.25-0.74-0.74-0.74c-0.5,0-0.76,0.25-0.76,0.74v2c0,0.2,0.08,0.38,0.23,0.52
			c0.15,0.15,0.33,0.22,0.53,0.22h5.34v-1.29h-4.42C202.24,201.16,202.18,201.1,202.18,200.98z"/>
		<path class="st2" d="M206.78,284.15v-9.9c-0.14,0.13-0.22,0.32-0.22,0.59v8.74C206.56,283.84,206.64,284.03,206.78,284.15z"/>
		<path class="st2" d="M204.96,173.19c-0.21,0-0.32-0.11-0.32-0.32v-1.2c0.14-0.03,0.29-0.08,0.43-0.14
			c0.37-0.15,0.69-0.36,0.97-0.62c0.27-0.26,0.49-0.57,0.65-0.92c0.04-0.09,0.06-0.19,0.09-0.28v-1.68
			c-0.03-0.09-0.05-0.18-0.09-0.27c-0.11-0.22-0.24-0.42-0.39-0.61h0.48v-1.26h-1.86c-0.09,0-0.14-0.04-0.14-0.12v-0.25
			c0-0.56-0.3-0.85-0.89-0.85c-0.6,0-0.9,0.28-0.9,0.85v0.25c0,0.08-0.04,0.12-0.12,0.12h-2.61c-0.42,0-0.63,0.21-0.63,0.63
			c0,0.42,0.21,0.63,0.63,0.63h1.22c-0.15,0.19-0.28,0.39-0.38,0.61c-0.17,0.35-0.25,0.72-0.25,1.12c0,0.39,0.08,0.76,0.24,1.11
			c0.16,0.35,0.38,0.66,0.66,0.92c0.27,0.26,0.59,0.47,0.96,0.62c0.14,0.06,0.29,0.11,0.43,0.14v1.2c0,0.21-0.1,0.32-0.3,0.32h-3.03
			c-0.42,0-0.63,0.21-0.63,0.64c0,0.44,0.21,0.65,0.63,0.65h6.98v-1.3H204.96z M203.9,170.52c-0.23,0-0.44-0.04-0.64-0.13
			c-0.2-0.09-0.37-0.2-0.51-0.34c-0.15-0.15-0.27-0.32-0.36-0.52c-0.09-0.2-0.13-0.41-0.13-0.63c0-0.23,0.04-0.44,0.13-0.63
			c0.09-0.2,0.2-0.37,0.36-0.52c0.14-0.15,0.31-0.27,0.51-0.36c0.2-0.09,0.41-0.13,0.64-0.13c0.22,0,0.43,0.04,0.63,0.13
			c0.2,0.09,0.37,0.21,0.52,0.36c0.14,0.15,0.26,0.32,0.34,0.52c0.09,0.2,0.13,0.41,0.13,0.63c0,0.22-0.04,0.43-0.13,0.63
			c-0.09,0.2-0.2,0.37-0.34,0.52c-0.15,0.14-0.32,0.26-0.52,0.34C204.32,170.48,204.11,170.52,203.9,170.52z"/>
		<path class="st2" d="M200.12,270.95h6.54c0.04,0,0.08-0.01,0.12-0.02v-1.22c-0.04,0-0.07-0.02-0.12-0.02h-5.59
			c-0.12,0-0.18-0.06-0.18-0.18v-1.26c0-0.5-0.26-0.74-0.77-0.74c-0.5,0-0.74,0.25-0.74,0.74v1.95c0,0.2,0.08,0.38,0.23,0.52
			C199.75,270.87,199.93,270.95,200.12,270.95z"/>
		<path class="st2" d="M206.64,252.28c0.05,0,0.09-0.01,0.14-0.02v-5.23c-0.05-0.01-0.09-0.02-0.14-0.02c-0.5,0-0.74,0.25-0.74,0.76
			v3.76C205.9,252.03,206.15,252.28,206.64,252.28z"/>
		<path class="st2" d="M90.86,129.28c0.19,0.13,0.39,0.25,0.61,0.34c0.37,0.15,0.76,0.23,1.17,0.23c0.42,0,0.82-0.08,1.18-0.23
			c0.37-0.15,0.69-0.36,0.97-0.61c0.27-0.26,0.49-0.57,0.65-0.92c0.16-0.35,0.24-0.72,0.24-1.12c0-0.39-0.08-0.76-0.24-1.11
			c-0.16-0.35-0.38-0.66-0.65-0.92c-0.28-0.26-0.6-0.46-0.97-0.61c-0.37-0.15-0.76-0.23-1.18-0.23c-0.41,0-0.8,0.08-1.17,0.23
			c-0.22,0.09-0.42,0.21-0.61,0.34V129.28z M91.51,125.85c0.15-0.14,0.32-0.25,0.52-0.33c0.2-0.09,0.4-0.13,0.61-0.13
			c0.22,0,0.42,0.04,0.62,0.13c0.2,0.09,0.36,0.2,0.51,0.33c0.14,0.15,0.26,0.32,0.34,0.51c0.09,0.19,0.13,0.39,0.13,0.6
			c0,0.22-0.04,0.42-0.13,0.61c-0.09,0.19-0.2,0.36-0.34,0.5c-0.14,0.14-0.31,0.26-0.51,0.34c-0.2,0.09-0.4,0.13-0.62,0.13
			c-0.21,0-0.41-0.04-0.61-0.13c-0.2-0.09-0.37-0.2-0.52-0.34c-0.14-0.14-0.25-0.31-0.33-0.5c-0.09-0.19-0.13-0.4-0.13-0.61
			c0-0.21,0.04-0.41,0.13-0.6C91.27,126.17,91.38,126,91.51,125.85z"/>
		<path class="st2" d="M198.61,266.09c0,0.43,0.21,0.64,0.63,0.64h3.04c0.15,0,0.23,0.07,0.23,0.21V268c0,0.5,0.26,0.74,0.78,0.74
			c0.5,0,0.74-0.25,0.74-0.74v-1.06c0-0.14,0.08-0.21,0.23-0.21h2.52v-1.27h-1.27c0.28-0.27,0.5-0.58,0.68-0.92
			c0.17-0.35,0.25-0.72,0.25-1.13c0-0.41-0.08-0.8-0.25-1.16c-0.17-0.36-0.39-0.67-0.67-0.94c-0.29-0.27-0.63-0.48-1.02-0.64
			c-0.38-0.16-0.79-0.24-1.22-0.24c-0.44,0-0.85,0.08-1.23,0.24c-0.38,0.16-0.72,0.37-1,0.64c-0.29,0.26-0.51,0.58-0.68,0.94
			c-0.17,0.36-0.25,0.75-0.25,1.16c0,0.41,0.09,0.78,0.26,1.13c0.17,0.35,0.39,0.65,0.68,0.92h-1.8
			C198.82,265.45,198.61,265.66,198.61,266.09z M201.72,262.73c0.09-0.21,0.21-0.39,0.37-0.55c0.14-0.16,0.32-0.28,0.52-0.38
			c0.21-0.09,0.43-0.14,0.66-0.14c0.23,0,0.44,0.05,0.65,0.14c0.21,0.09,0.39,0.22,0.54,0.38c0.15,0.16,0.27,0.34,0.36,0.55
			c0.09,0.21,0.13,0.43,0.13,0.67c0,0.23-0.04,0.45-0.13,0.67c-0.09,0.21-0.21,0.39-0.36,0.55c-0.15,0.15-0.33,0.27-0.54,0.37
			c-0.21,0.09-0.42,0.14-0.65,0.14c-0.23,0-0.45-0.05-0.66-0.14c-0.21-0.09-0.38-0.22-0.52-0.37c-0.16-0.16-0.28-0.34-0.37-0.55
			c-0.09-0.21-0.14-0.43-0.14-0.67C201.59,263.16,201.63,262.94,201.72,262.73z"/>
		<path class="st2" d="M91.9,304.24h6.13c0.43,0,0.64-0.22,0.64-0.65c0-0.42-0.21-0.63-0.64-0.63h-5.21c-0.12,0-0.18-0.06-0.18-0.18
			v-1.27c0-0.5-0.25-0.74-0.74-0.74c-0.5,0-0.74,0.25-0.74,0.74v2c0,0.2,0.07,0.38,0.22,0.52C91.52,304.17,91.69,304.24,91.9,304.24
			z"/>
		<path class="st2" d="M203.31,290.9c-0.24-0.23-0.52-0.41-0.85-0.54c-0.33-0.12-0.68-0.19-1.04-0.19
			c-0.38,0.01-0.73,0.07-1.05,0.19c-0.33,0.12-0.61,0.3-0.84,0.53c-0.25,0.23-0.44,0.5-0.58,0.81c-0.13,0.31-0.2,0.64-0.2,1
			c0,0.35,0.07,0.69,0.2,1c0.14,0.32,0.33,0.59,0.58,0.82c0.23,0.24,0.51,0.42,0.85,0.54c0.33,0.12,0.68,0.18,1.05,0.18
			s0.72-0.06,1.04-0.18c0.33-0.12,0.61-0.3,0.85-0.54c0.25-0.23,0.44-0.51,0.58-0.82c0.13-0.32,0.2-0.65,0.2-1
			c0-0.36-0.07-0.7-0.2-1C203.75,291.41,203.56,291.14,203.31,290.9z M202.32,293.66c-0.26,0.24-0.56,0.36-0.9,0.36
			c-0.34,0-0.64-0.12-0.89-0.36c-0.26-0.24-0.38-0.55-0.38-0.94c0-0.39,0.13-0.7,0.38-0.94c0.26-0.24,0.55-0.36,0.89-0.36
			c0.34,0,0.64,0.12,0.9,0.36s0.4,0.55,0.4,0.94C202.71,293.1,202.58,293.42,202.32,293.66z"/>
		<path class="st2" d="M140.49,284.23h-0.4c-0.14,0-0.21-0.08-0.21-0.23v-2.9c0-0.45-0.23-0.68-0.69-0.68
			c-0.44,0-0.67,0.23-0.67,0.68v8.55c0,0.44,0.22,0.66,0.67,0.66c0.46,0,0.69-0.22,0.69-0.66v-3.87c0-0.14,0.07-0.21,0.21-0.21h0.4
			V284.23z"/>
		<path class="st2" d="M201.39,130.56c-0.51,0-0.77,0.26-0.77,0.77v0.89c0,0.22-0.11,0.34-0.34,0.34h-1.08
			c-0.45,0-0.68,0.22-0.68,0.67c0,0.46,0.23,0.69,0.68,0.69h7.57v-1.37c-0.21-0.01-0.32-0.12-0.32-0.33v-0.89
			c0-0.51-0.26-0.77-0.77-0.77c-0.51,0-0.77,0.26-0.77,0.77v0.89c0,0.22-0.11,0.34-0.32,0.34h-2.12c-0.22,0-0.32-0.11-0.32-0.34
			v-0.89C202.16,130.81,201.9,130.56,201.39,130.56z"/>
		<path class="st2" d="M205.71,254.49h-5.04c-0.2,0-0.38,0.07-0.52,0.22c-0.15,0.15-0.22,0.32-0.22,0.52v1.5
			c0,0.2,0.07,0.37,0.22,0.52c0.15,0.15,0.32,0.23,0.52,0.23h6.12v-1.21h-5.18c-0.13,0-0.2-0.07-0.2-0.2v-0.26
			c0-0.13,0.07-0.19,0.2-0.19h5.04c0.05,0,0.09-0.02,0.14-0.03v-2.89c-0.05-0.01-0.09-0.03-0.14-0.03h-6.13
			c-0.39,0-0.59,0.2-0.59,0.6c0,0.38,0.2,0.57,0.59,0.57h5.2c0.13,0,0.19,0.06,0.19,0.19v0.27
			C205.9,254.43,205.83,254.49,205.71,254.49z"/>
		<path class="st2" d="M203.49,288.48h-1.13c-0.09,0-0.14-0.04-0.14-0.12v-0.23c0-0.54-0.27-0.81-0.8-0.81
			c-0.53,0-0.8,0.27-0.8,0.81v0.23c0,0.08-0.05,0.12-0.14,0.12h-1.38c-0.44,0-0.65,0.22-0.65,0.65c0,0.43,0.22,0.64,0.65,0.64h4.38
			c0.43,0,0.64-0.21,0.64-0.64C204.13,288.7,203.92,288.48,203.49,288.48z"/>
		<path class="st2" d="M170.54,234.49c0,0.44,0.22,0.65,0.65,0.65h2.85c0.21,0,0.32,0.1,0.32,0.3v2.59c0,0.49,0.25,0.73,0.74,0.73
			c0.49,0,0.73-0.24,0.73-0.73v-3.45c0-0.2-0.07-0.37-0.22-0.52c-0.15-0.15-0.32-0.23-0.51-0.23h-3.91
			C170.76,233.85,170.54,234.06,170.54,234.49z"/>
		<path class="st2" d="M199.23,237.3c0,0.35,0.07,0.67,0.22,0.99c0.15,0.31,0.35,0.58,0.6,0.81c0.25,0.23,0.54,0.42,0.89,0.55
			c0.34,0.14,0.7,0.2,1.09,0.2c0.38,0,0.75-0.07,1.09-0.2c0.34-0.13,0.64-0.32,0.89-0.55c0.26-0.23,0.46-0.49,0.61-0.81
			c0.15-0.31,0.23-0.64,0.23-0.99c0-0.35-0.08-0.68-0.23-0.99c-0.13-0.28-0.31-0.52-0.53-0.73h0.38c0.4,0,0.6-0.21,0.6-0.62
			c0-0.42-0.2-0.63-0.6-0.63h-1.5c-0.08,0-0.12-0.04-0.12-0.12v-0.2c0-0.53-0.27-0.8-0.81-0.8c-0.53,0-0.8,0.27-0.8,0.8v0.2
			c0,0.08-0.05,0.12-0.14,0.12h-1.84c-0.41,0-0.61,0.21-0.61,0.63c0,0.41,0.2,0.62,0.61,0.62h0.72c-0.22,0.21-0.39,0.45-0.52,0.73
			C199.3,236.62,199.23,236.95,199.23,237.3z M201.05,236.27c0.27-0.27,0.59-0.4,0.97-0.4c0.38,0,0.71,0.13,0.98,0.4
			c0.27,0.27,0.4,0.59,0.4,0.98c0,0.38-0.13,0.7-0.4,0.97c-0.27,0.27-0.59,0.41-0.98,0.41c-0.38,0-0.7-0.13-0.97-0.41
			c-0.27-0.27-0.41-0.59-0.41-0.97C200.65,236.86,200.78,236.53,201.05,236.27z"/>
		<path class="st2" d="M99.94,198.35h-0.46c-0.22,0-0.34-0.11-0.34-0.34v-2.9c0-0.53-0.26-0.8-0.78-0.8c-0.54,0-0.8,0.27-0.8,0.8
			v9.29c0,0.52,0.27,0.78,0.8,0.78c0.52,0,0.78-0.26,0.78-0.78v-4.27c0-0.22,0.11-0.32,0.34-0.32h0.46c0.5,0,0.75-0.24,0.75-0.73
			C100.69,198.6,100.44,198.35,99.94,198.35z"/>
		<path class="st2" d="M206.45,196.44h-0.64c-0.41,0-0.62,0.21-0.62,0.62c0,0.41,0.21,0.62,0.62,0.62h0.64
			c0.15,0,0.23,0.08,0.23,0.23v0.7c0,0.18,0.04,0.32,0.11,0.43v-6.68c-0.07,0.12-0.11,0.26-0.11,0.44v1.08
			c0,0.14-0.08,0.21-0.23,0.21h-0.64c-0.41,0-0.62,0.21-0.62,0.62s0.21,0.62,0.62,0.62h0.64c0.15,0,0.23,0.08,0.23,0.23v0.65
			C206.67,196.37,206.6,196.44,206.45,196.44z"/>
		<path class="st2" d="M206.78,240.49v-6.69c-0.07,0.12-0.11,0.26-0.11,0.44v1.08c0,0.14-0.08,0.21-0.23,0.21h-0.64
			c-0.41,0-0.62,0.21-0.62,0.62s0.21,0.62,0.62,0.62h0.64c0.15,0,0.23,0.08,0.23,0.23v0.65c0,0.15-0.08,0.23-0.23,0.23h-0.64
			c-0.41,0-0.62,0.21-0.62,0.62c0,0.41,0.21,0.62,0.62,0.62h0.64c0.15,0,0.23,0.08,0.23,0.23v0.7
			C206.67,240.23,206.71,240.37,206.78,240.49z"/>
		<path class="st2" d="M202.02,191.75c-0.53,0-0.8,0.27-0.8,0.8v0.2c0,0.08-0.05,0.12-0.14,0.12h-1.84c-0.41,0-0.61,0.21-0.61,0.63
			c0,0.41,0.2,0.62,0.61,0.62h0.72c-0.22,0.21-0.39,0.45-0.52,0.73c-0.15,0.32-0.23,0.65-0.23,0.99c0,0.35,0.07,0.67,0.22,0.99
			c0.15,0.31,0.35,0.58,0.6,0.81c0.25,0.23,0.54,0.42,0.89,0.55c0.34,0.14,0.7,0.2,1.09,0.2c0.38,0,0.75-0.07,1.09-0.2
			c0.34-0.13,0.64-0.32,0.89-0.55c0.26-0.23,0.46-0.49,0.61-0.81c0.15-0.31,0.23-0.64,0.23-0.99c0-0.35-0.08-0.68-0.23-0.99
			c-0.13-0.28-0.31-0.52-0.53-0.73h0.38c0.4,0,0.6-0.21,0.6-0.62c0-0.42-0.2-0.63-0.6-0.63h-1.5c-0.08,0-0.12-0.04-0.12-0.12v-0.2
			C202.84,192.02,202.57,191.75,202.02,191.75z M203,194.83c0.27,0.27,0.4,0.59,0.4,0.98c0,0.38-0.13,0.7-0.4,0.97
			c-0.27,0.27-0.59,0.41-0.98,0.41c-0.38,0-0.7-0.13-0.97-0.41c-0.27-0.27-0.41-0.59-0.41-0.97c0-0.38,0.14-0.71,0.41-0.98
			c0.27-0.27,0.59-0.4,0.97-0.4C202.41,194.43,202.73,194.56,203,194.83z"/>
		<path class="st2" d="M199.43,222.48c0,0.32,0.07,0.63,0.2,0.92c0.13,0.29,0.32,0.54,0.55,0.75c0.23,0.22,0.51,0.39,0.82,0.51
			c0.32,0.12,0.65,0.19,1.01,0.19s0.7-0.06,1.02-0.19c0.32-0.12,0.59-0.3,0.82-0.51c0.23-0.21,0.42-0.46,0.56-0.75
			c0.14-0.29,0.21-0.6,0.21-0.92c0-0.32-0.07-0.63-0.2-0.93c-0.08-0.16-0.18-0.31-0.29-0.45h0.34c0.39,0,0.59-0.2,0.59-0.61
			s-0.2-0.61-0.59-0.61h-1.51c-0.08,0-0.12-0.04-0.12-0.13v-0.12c0-0.54-0.27-0.81-0.81-0.81c-0.53,0-0.8,0.27-0.8,0.81v0.12
			c0,0.09-0.05,0.13-0.14,0.13h-1.85c-0.4,0-0.6,0.2-0.6,0.61s0.2,0.61,0.6,0.61h0.68c-0.11,0.14-0.21,0.29-0.28,0.45
			C199.5,221.85,199.43,222.16,199.43,222.48z M201.2,221.57c0.24-0.24,0.52-0.36,0.82-0.36c0.32,0,0.6,0.12,0.84,0.36
			c0.24,0.24,0.37,0.52,0.37,0.85c0,0.33-0.12,0.61-0.37,0.85s-0.52,0.36-0.84,0.36c-0.3,0-0.57-0.12-0.82-0.36
			c-0.24-0.24-0.37-0.52-0.37-0.85C200.83,222.09,200.95,221.81,201.2,221.57z"/>
		<path class="st2" d="M92.64,299.84c0.42,0,0.82-0.08,1.18-0.23c0.37-0.15,0.69-0.36,0.97-0.61c0.27-0.26,0.49-0.57,0.65-0.92
			c0.16-0.35,0.24-0.72,0.24-1.12c0-0.39-0.08-0.76-0.24-1.11c-0.16-0.35-0.38-0.66-0.65-0.92c-0.28-0.26-0.6-0.46-0.97-0.61
			c-0.37-0.15-0.76-0.23-1.18-0.23c-0.41,0-0.8,0.08-1.17,0.23c-0.22,0.09-0.42,0.21-0.61,0.34v4.62c0.19,0.13,0.39,0.25,0.61,0.34
			C91.83,299.77,92.23,299.84,92.64,299.84z M91.05,296.96c0-0.21,0.04-0.41,0.13-0.6c0.09-0.19,0.2-0.36,0.33-0.51
			c0.15-0.14,0.32-0.25,0.52-0.33c0.2-0.09,0.4-0.13,0.61-0.13c0.22,0,0.42,0.04,0.62,0.13c0.2,0.09,0.36,0.2,0.51,0.33
			c0.14,0.15,0.26,0.32,0.34,0.51c0.09,0.19,0.13,0.39,0.13,0.6c0,0.22-0.04,0.42-0.13,0.61c-0.09,0.19-0.2,0.36-0.34,0.5
			c-0.14,0.14-0.31,0.26-0.51,0.34c-0.2,0.09-0.4,0.13-0.62,0.13c-0.21,0-0.41-0.04-0.61-0.13c-0.2-0.09-0.37-0.2-0.52-0.34
			c-0.14-0.14-0.25-0.31-0.33-0.5C91.09,297.38,91.05,297.17,91.05,296.96z"/>
		<path class="st2" d="M177.94,143.46c0.28,0.28,0.61,0.5,0.99,0.66c0.38,0.16,0.78,0.24,1.2,0.24c0.44,0,0.84-0.08,1.22-0.24
			c0.38-0.16,0.7-0.38,0.98-0.66c0.29-0.26,0.51-0.58,0.66-0.94c0.15-0.36,0.23-0.76,0.23-1.18c0-0.41-0.08-0.8-0.23-1.17
			c-0.11-0.26-0.26-0.48-0.44-0.69l-1.09,0.89c0.06,0.09,0.11,0.19,0.15,0.29c0.09,0.21,0.13,0.44,0.13,0.68
			c0,0.24-0.05,0.47-0.14,0.68c-0.09,0.21-0.21,0.39-0.36,0.54c-0.16,0.16-0.33,0.28-0.52,0.36c-0.19,0.08-0.39,0.12-0.61,0.12
			c-0.2,0-0.4-0.04-0.59-0.12c-0.19-0.08-0.37-0.2-0.52-0.36c-0.03-0.03-0.06-0.07-0.09-0.11l-1.09,0.89
			C177.87,143.37,177.9,143.42,177.94,143.46z"/>
		<path class="st2" d="M178.8,151.45c-0.5,0-0.76,0.25-0.76,0.74V158c0,0.5,0.25,0.76,0.76,0.76c0.49,0,0.73-0.25,0.73-0.76v-2.26
			c0-0.2,0.11-0.3,0.32-0.3h0.41c0.47,0,0.7-0.24,0.7-0.72c0-0.47-0.23-0.7-0.7-0.7h-0.41c-0.21,0-0.32-0.11-0.32-0.32v-1.51
			C179.53,151.7,179.28,151.45,178.8,151.45z"/>
		<path class="st2" d="M185.24,158.44h8.04c0.43,0,0.64-0.21,0.64-0.63c0-0.44-0.21-0.65-0.64-0.65h-3.04
			c-0.15,0-0.23-0.08-0.23-0.23v-0.52c0.14-0.03,0.27-0.07,0.41-0.11c0.35-0.13,0.66-0.31,0.93-0.55c0.26-0.23,0.47-0.51,0.63-0.83
			c0.16-0.32,0.24-0.66,0.24-1.03c0-0.36-0.08-0.7-0.24-1.03c-0.16-0.32-0.37-0.6-0.63-0.83c-0.26-0.24-0.57-0.43-0.93-0.58
			c-0.36-0.14-0.74-0.21-1.13-0.21c-0.41,0-0.79,0.07-1.14,0.21c-0.36,0.14-0.67,0.33-0.93,0.58c-0.26,0.23-0.47,0.51-0.63,0.83
			c-0.16,0.32-0.24,0.67-0.24,1.03c0,0.37,0.08,0.71,0.24,1.03c0.16,0.32,0.37,0.6,0.63,0.83c0.26,0.24,0.57,0.42,0.94,0.55
			c0.12,0.05,0.24,0.08,0.37,0.11v0.52c0,0.15-0.08,0.23-0.23,0.23h-3.04c-0.43,0-0.64,0.22-0.64,0.65
			C184.59,158.23,184.81,158.44,185.24,158.44z M188.18,154.95c-0.14-0.14-0.24-0.29-0.33-0.47c-0.08-0.18-0.12-0.37-0.12-0.57
			s0.04-0.39,0.12-0.57c0.08-0.18,0.19-0.33,0.33-0.47c0.14-0.14,0.3-0.24,0.49-0.32c0.19-0.08,0.39-0.12,0.6-0.12
			c0.2,0,0.4,0.04,0.59,0.12c0.19,0.08,0.35,0.19,0.5,0.32c0.13,0.14,0.23,0.29,0.32,0.47c0.08,0.18,0.12,0.37,0.12,0.57
			s-0.04,0.39-0.12,0.57c-0.08,0.18-0.19,0.33-0.32,0.47c-0.14,0.14-0.31,0.24-0.5,0.32c-0.19,0.08-0.38,0.12-0.59,0.12
			c-0.21,0-0.41-0.04-0.6-0.12C188.48,155.19,188.31,155.08,188.18,154.95z"/>
		<path class="st2" d="M173.74,151.16c-0.53,0-0.8,0.27-0.8,0.8v0.28c0,0.08-0.04,0.12-0.13,0.12h-1.84c-0.41,0-0.61,0.21-0.61,0.63
			c0,0.41,0.2,0.62,0.61,0.62h0.64c-0.18,0.2-0.33,0.41-0.44,0.65c-0.15,0.32-0.23,0.65-0.23,0.99c0,0.35,0.07,0.67,0.22,0.99
			c0.15,0.31,0.35,0.58,0.6,0.81c0.25,0.23,0.54,0.42,0.89,0.55s0.7,0.2,1.09,0.2c0.38,0,0.75-0.07,1.09-0.2s0.64-0.32,0.89-0.55
			c0.26-0.23,0.46-0.49,0.61-0.81c0.15-0.31,0.23-0.64,0.23-0.99c0-0.35-0.08-0.68-0.23-0.99c-0.12-0.24-0.27-0.46-0.45-0.65h0.53
			c0.4,0,0.6-0.21,0.6-0.62c0-0.42-0.2-0.63-0.6-0.63h-1.71c-0.09,0-0.14-0.04-0.14-0.12v-0.28
			C174.55,151.43,174.28,151.16,173.74,151.16z M174.72,154.23c0.27,0.27,0.4,0.59,0.4,0.98c0,0.38-0.13,0.7-0.4,0.97
			c-0.27,0.27-0.59,0.41-0.98,0.41c-0.38,0-0.7-0.14-0.96-0.41c-0.27-0.27-0.4-0.59-0.4-0.97c0-0.38,0.13-0.71,0.4-0.98
			c0.27-0.27,0.59-0.4,0.96-0.4C174.13,153.83,174.45,153.96,174.72,154.23z"/>
		<path class="st2" d="M185.4,148.15c0.5,0,0.74-0.24,0.74-0.73v-8.74c0-0.5-0.25-0.76-0.74-0.76c-0.5,0-0.74,0.25-0.74,0.76v8.74
			C184.66,147.9,184.91,148.15,185.4,148.15z"/>
		<path class="st2" d="M96.51,202.08h-2.59c-0.22,0-0.33-0.11-0.34-0.34v-2.66c0-0.5-0.26-0.75-0.77-0.75
			c-0.5,0-0.75,0.25-0.75,0.75v2.66c0,0.22-0.11,0.34-0.34,0.34h-0.87v1.37h5.65c0.45,0,0.68-0.23,0.68-0.7
			C97.19,202.3,96.96,202.08,96.51,202.08z"/>
		<path class="st2" d="M187.99,294.79c-0.15,0.31-0.23,0.65-0.23,1.01c0,0.35,0.08,0.69,0.23,1.01c0.15,0.32,0.35,0.6,0.6,0.83
			c0.26,0.24,0.55,0.43,0.89,0.57c0.34,0.14,0.7,0.21,1.08,0.21c0.38,0,0.73-0.07,1.07-0.21c0.34-0.14,0.64-0.33,0.89-0.57
			c0.26-0.23,0.46-0.51,0.6-0.83c0.15-0.32,0.22-0.66,0.22-1.01c0-0.36-0.07-0.7-0.22-1.01c-0.15-0.31-0.35-0.58-0.6-0.82
			c-0.26-0.24-0.55-0.43-0.89-0.57c-0.29-0.11-0.59-0.18-0.9-0.2c0.02-0.06,0.02-0.13,0.02-0.21c0-0.39-0.2-0.59-0.6-0.59h-3.47
			c-0.21,0-0.32-0.11-0.32-0.32v-0.36c0-0.21,0.1-0.32,0.32-0.32h2.94c0.21,0,0.38-0.07,0.52-0.21s0.21-0.32,0.21-0.54v-1.95
			c0-0.22-0.07-0.39-0.21-0.53s-0.31-0.2-0.52-0.2h-4.09c-0.43,0-0.64,0.21-0.64,0.62c0,0.42,0.21,0.63,0.64,0.63h3.03
			c0.21,0,0.32,0.11,0.32,0.32v0.34c0,0.21-0.11,0.32-0.32,0.32h-2.93c-0.23,0-0.41,0.07-0.54,0.21c-0.13,0.14-0.2,0.32-0.2,0.53
			v1.91c0,0.21,0.07,0.39,0.21,0.53c0.14,0.14,0.32,0.21,0.54,0.21h3.47c-0.19,0.11-0.36,0.23-0.52,0.38
			C188.34,294.21,188.14,294.48,187.99,294.79z M189.58,294.81c0.27-0.27,0.6-0.41,0.98-0.41c0.38,0,0.7,0.14,0.97,0.41
			c0.27,0.27,0.41,0.6,0.41,0.99c0,0.38-0.13,0.7-0.41,0.98c-0.27,0.28-0.59,0.42-0.97,0.42c-0.38,0-0.71-0.14-0.98-0.42
			s-0.41-0.6-0.41-0.98C189.18,295.41,189.31,295.09,189.58,294.81z"/>
		<path class="st2" d="M91.8,215.58c-0.15,0.15-0.23,0.34-0.23,0.55v2.9c0,0.21,0.08,0.39,0.23,0.55c0.15,0.16,0.34,0.23,0.55,0.23
			h6.37c0.21,0,0.39-0.08,0.55-0.23c0.16-0.16,0.23-0.34,0.23-0.55v-2.9c0-0.22-0.08-0.4-0.23-0.55c-0.16-0.15-0.34-0.23-0.55-0.23
			h-6.37C92.14,215.36,91.95,215.43,91.8,215.58z M93.13,216.83c0-0.13,0.07-0.19,0.2-0.19h4.4c0.14,0,0.2,0.06,0.2,0.19v1.47
			c0,0.13-0.07,0.19-0.2,0.19h-4.4c-0.14,0-0.2-0.06-0.2-0.19V216.83z"/>
		<path class="st2" d="M182.31,220.11c0-0.43-0.22-0.64-0.65-0.64h-3.78c-0.44,0-0.65,0.21-0.65,0.64c0,0.43,0.22,0.64,0.65,0.64
			h0.96l-1.61,5.4c-0.14,0.5-0.02,0.8,0.36,0.92c0.49,0.15,0.8-0.01,0.94-0.47l1.29-4.4l1.26,4.4c0.14,0.47,0.45,0.62,0.94,0.47
			c0.38-0.12,0.5-0.43,0.36-0.92l-1.6-5.4h0.89C182.1,220.76,182.31,220.54,182.31,220.11z"/>
		<path class="st2" d="M196.76,148.15c0.49,0,0.73-0.24,0.73-0.72v-8.77c0-0.49-0.24-0.73-0.73-0.73c-0.48,0-0.72,0.24-0.72,0.73
			v2.41c0,0.15-0.08,0.23-0.23,0.23h-0.59c-0.15,0-0.23-0.08-0.23-0.23v-2.33c0-0.47-0.24-0.7-0.71-0.7c-0.47,0-0.7,0.23-0.7,0.7
			v8.49c0,0.47,0.23,0.7,0.7,0.7c0.47,0,0.71-0.23,0.71-0.7v-4.36c0-0.15,0.08-0.23,0.23-0.23h0.59c0.15,0,0.23,0.08,0.23,0.23v4.57
			C196.04,147.91,196.28,148.15,196.76,148.15z"/>
		<path class="st2" d="M190,139.57h1.84c0.43,0,0.64-0.21,0.64-0.64s-0.21-0.64-0.64-0.64h-2.84c-0.2,0-0.38,0.08-0.52,0.23
			c-0.15,0.15-0.22,0.32-0.22,0.52v6.12c0,0.2,0.07,0.37,0.22,0.52c0.15,0.15,0.32,0.23,0.52,0.23h3.17c0.44,0,0.65-0.21,0.65-0.64
			c0-0.43-0.22-0.64-0.65-0.64H190c-0.21,0-0.32-0.1-0.32-0.3v-1.29c0-0.21,0.11-0.32,0.32-0.32h1.84c0.43,0,0.64-0.21,0.64-0.62
			c0-0.44-0.21-0.65-0.64-0.65H190c-0.21,0-0.32-0.1-0.32-0.32v-1.24C189.68,139.67,189.79,139.57,190,139.57z"/>
		<path class="st2" d="M172.91,253.93c-0.5,0-0.74,0.25-0.74,0.74v2c0,0.2,0.07,0.38,0.22,0.52c0.15,0.15,0.32,0.22,0.52,0.22h6.18
			c0.44,0,0.65-0.22,0.65-0.65c0-0.42-0.22-0.63-0.65-0.63h-5.25c-0.12,0-0.18-0.06-0.18-0.18v-1.27
			C173.66,254.18,173.41,253.93,172.91,253.93z"/>
		<path class="st2" d="M186.77,254.39c-0.5,0-0.74,0.25-0.74,0.74v1.53c0,0.2,0.07,0.38,0.22,0.52c0.15,0.15,0.32,0.22,0.52,0.22
			h6.31c0.42,0,0.63-0.21,0.63-0.63c0-0.41-0.21-0.61-0.63-0.61h-5.39c-0.12,0-0.18-0.06-0.18-0.18v-0.86
			C187.51,254.64,187.27,254.39,186.77,254.39z"/>
		<path class="st2" d="M200.84,156.66c0.29,0.27,0.64,0.49,1.03,0.65c0.39,0.17,0.81,0.25,1.26,0.25c0.45,0,0.87-0.08,1.26-0.25
			c0.39-0.17,0.74-0.38,1.04-0.65c0.29-0.27,0.52-0.59,0.69-0.95c0.17-0.36,0.25-0.76,0.25-1.18c0-0.41-0.08-0.8-0.25-1.17
			c-0.17-0.36-0.4-0.68-0.69-0.95c-0.3-0.27-0.65-0.49-1.04-0.65c-0.39-0.17-0.81-0.25-1.26-0.25c-0.45,0-0.87,0.08-1.26,0.25
			c-0.39,0.17-0.73,0.38-1.03,0.65c-0.3,0.27-0.53,0.59-0.7,0.95c-0.17,0.36-0.25,0.75-0.25,1.17c0,0.42,0.08,0.81,0.25,1.18
			C200.31,156.07,200.54,156.39,200.84,156.66z M201.53,153.86c0.1-0.21,0.23-0.4,0.38-0.55c0.16-0.16,0.34-0.28,0.56-0.37
			c0.21-0.09,0.43-0.14,0.66-0.14c0.23,0,0.45,0.05,0.66,0.14c0.21,0.09,0.4,0.21,0.56,0.37c0.16,0.15,0.29,0.33,0.39,0.55
			c0.1,0.21,0.15,0.44,0.15,0.67c0,0.24-0.05,0.47-0.15,0.68c-0.1,0.21-0.23,0.4-0.39,0.55c-0.16,0.16-0.34,0.28-0.56,0.37
			c-0.21,0.09-0.43,0.14-0.66,0.14c-0.23,0-0.45-0.05-0.66-0.14c-0.21-0.09-0.4-0.21-0.56-0.37c-0.16-0.15-0.29-0.33-0.38-0.55
			c-0.1-0.21-0.15-0.44-0.15-0.68C201.38,154.3,201.43,154.07,201.53,153.86z"/>
		<path class="st2" d="M194.39,269.4c0-0.43-0.21-0.64-0.64-0.64h-3.01c-0.21,0-0.32-0.11-0.32-0.32v-1.16
			c0-0.5-0.25-0.74-0.74-0.74c-0.5,0-0.76,0.25-0.76,0.74v1.16c0,0.21-0.1,0.32-0.3,0.32h-3.02c-0.43,0-0.64,0.21-0.64,0.64
			c0,0.44,0.21,0.65,0.64,0.65h8.15C194.17,270.05,194.39,269.84,194.39,269.4z"/>
		<path class="st2" d="M185.15,274.84v8.74c0,0.49,0.25,0.73,0.74,0.73c0.5,0,0.74-0.24,0.74-0.73v-8.74c0-0.5-0.25-0.76-0.74-0.76
			C185.4,274.08,185.15,274.33,185.15,274.84z"/>
		<path class="st2" d="M97.19,274.64c0-0.45-0.23-0.67-0.68-0.67h-2.59c-0.22,0-0.33-0.11-0.34-0.34v-2.66
			c0-0.5-0.26-0.75-0.77-0.75c-0.5,0-0.75,0.25-0.75,0.75v2.66c0,0.22-0.11,0.34-0.34,0.34h-0.87v1.37h5.65
			C96.96,275.33,97.19,275.1,97.19,274.64z"/>
		<path class="st2" d="M199.11,159.39h1.14c0.09,0,0.14,0.05,0.14,0.14v1.67c0,0.48,0.24,0.72,0.73,0.72c0.5,0,0.74-0.24,0.74-0.72
			v-1.67c0-0.09,0.04-0.14,0.14-0.14h2.25c0.08,0,0.12,0.05,0.12,0.14v1.67c0,0.48,0.25,0.72,0.74,0.72c0.49,0,0.73-0.24,0.73-0.72
			v-1.67c0-0.09,0.04-0.14,0.13-0.14h0.79v-1.29h-7.67c-0.44,0-0.65,0.22-0.65,0.67C198.46,159.18,198.68,159.39,199.11,159.39z"/>
		<path class="st2" d="M204.96,124.15c-0.44-0.18-0.91-0.28-1.41-0.28c-0.5,0-0.97,0.09-1.41,0.28c-0.44,0.18-0.82,0.43-1.15,0.74
			c-0.34,0.31-0.59,0.67-0.78,1.09c-0.18,0.42-0.28,0.85-0.28,1.32c0,0.47,0.09,0.91,0.28,1.33c0.18,0.42,0.44,0.77,0.78,1.08
			c0.33,0.32,0.71,0.57,1.15,0.75c0.44,0.18,0.91,0.27,1.41,0.27c0.5,0,0.97-0.09,1.41-0.27c0.44-0.18,0.82-0.43,1.15-0.75
			c0.28-0.25,0.49-0.55,0.67-0.87v-3.07c-0.18-0.33-0.39-0.63-0.67-0.88C205.79,124.58,205.4,124.33,204.96,124.15z M205.45,128.09
			c-0.12,0.25-0.27,0.47-0.45,0.66c-0.18,0.18-0.39,0.33-0.65,0.44c-0.26,0.11-0.52,0.17-0.8,0.17c-0.28,0-0.55-0.06-0.8-0.17
			c-0.25-0.11-0.47-0.26-0.65-0.44c-0.18-0.19-0.33-0.41-0.44-0.66c-0.11-0.25-0.17-0.51-0.17-0.79c0-0.27,0.06-0.53,0.17-0.78
			c0.11-0.25,0.26-0.47,0.44-0.65s0.4-0.33,0.65-0.44c0.25-0.11,0.52-0.17,0.8-0.17c0.28,0,0.55,0.06,0.8,0.17
			c0.26,0.11,0.47,0.26,0.65,0.44c0.18,0.18,0.33,0.4,0.45,0.65c0.12,0.25,0.17,0.51,0.17,0.78
			C205.62,127.58,205.56,127.84,205.45,128.09z"/>
		<path class="st2" d="M206.56,138.68v5.81c0,0.27,0.08,0.46,0.22,0.58v-6.98C206.64,138.21,206.56,138.4,206.56,138.68z"/>
		<path class="st2" d="M100.69,270.97c0-0.49-0.25-0.73-0.75-0.73h-0.46c-0.22,0-0.34-0.11-0.34-0.34V267c0-0.53-0.26-0.8-0.78-0.8
			c-0.54,0-0.8,0.27-0.8,0.8v9.29c0,0.52,0.27,0.78,0.8,0.78c0.52,0,0.78-0.26,0.78-0.78v-4.27c0-0.22,0.11-0.32,0.34-0.32h0.46
			C100.44,271.7,100.69,271.46,100.69,270.97z"/>
		<path class="st2" d="M204.56,143.47c0.15-0.15,0.22-0.32,0.22-0.51v-3.95c0-0.2-0.07-0.37-0.22-0.51s-0.32-0.22-0.52-0.22h-3.91
			c-0.2,0-0.38,0.07-0.52,0.22c-0.14,0.15-0.21,0.32-0.21,0.51v3.95c0,0.2,0.07,0.37,0.21,0.51c0.14,0.15,0.32,0.22,0.52,0.22h3.91
			C204.23,143.69,204.41,143.62,204.56,143.47z M203.31,142.21c0,0.15-0.08,0.23-0.23,0.23h-2.01c-0.15,0-0.23-0.08-0.23-0.23v-2.42
			c0-0.15,0.08-0.23,0.23-0.23h2.01c0.15,0,0.23,0.08,0.23,0.23V142.21z"/>
		<path class="st2" d="M206.78,147.03h-4.53c-0.12,0-0.18-0.06-0.18-0.18v-1.27c0-0.5-0.25-0.74-0.74-0.74
			c-0.5,0-0.74,0.25-0.74,0.74v2c0,0.2,0.07,0.38,0.22,0.52c0.15,0.15,0.32,0.22,0.52,0.22h5.46V147.03z"/>
		<path class="st2" d="M197.92,181.77c0,0.4,0.08,0.77,0.23,1.12c0.15,0.35,0.36,0.65,0.62,0.91c0.26,0.26,0.57,0.47,0.92,0.62
			s0.73,0.23,1.13,0.23c0.4,0,0.77-0.08,1.12-0.23c0.35-0.15,0.66-0.36,0.93-0.62c0.26-0.26,0.47-0.57,0.62-0.91
			c0.06-0.15,0.11-0.3,0.15-0.46h0.55c0.15,0,0.23,0.08,0.23,0.23v5.18c0,0.46,0.23,0.69,0.69,0.69c0.45,0,0.68-0.23,0.68-0.69
			v-8.52c0-0.45-0.23-0.68-0.68-0.68c-0.46,0-0.69,0.23-0.69,0.68v1.6c0,0.15-0.08,0.23-0.23,0.23h-0.55
			c-0.04-0.16-0.09-0.31-0.15-0.46c-0.15-0.35-0.36-0.65-0.62-0.92c-0.27-0.26-0.58-0.47-0.93-0.61c-0.35-0.15-0.72-0.22-1.12-0.22
			c-0.41,0-0.78,0.07-1.13,0.22c-0.35,0.15-0.66,0.35-0.92,0.61c-0.26,0.27-0.47,0.58-0.62,0.92
			C197.99,181.01,197.92,181.38,197.92,181.77z M199.46,181.16c0.07-0.2,0.17-0.37,0.3-0.52c0.14-0.14,0.29-0.25,0.47-0.34
			c0.18-0.09,0.37-0.14,0.58-0.14c0.2,0,0.39,0.05,0.57,0.14c0.18,0.09,0.34,0.2,0.47,0.34c0.13,0.15,0.24,0.33,0.3,0.52
			c0.07,0.2,0.1,0.4,0.1,0.61c0,0.22-0.03,0.42-0.1,0.62c-0.07,0.2-0.17,0.37-0.3,0.52c-0.14,0.14-0.29,0.26-0.47,0.35
			c-0.18,0.09-0.37,0.14-0.57,0.14c-0.2,0-0.4-0.05-0.58-0.14c-0.18-0.09-0.34-0.21-0.47-0.35c-0.13-0.15-0.24-0.32-0.3-0.52
			c-0.07-0.2-0.1-0.4-0.1-0.62C199.36,181.56,199.39,181.36,199.46,181.16z"/>
		<path class="st2" d="M99.62,190.29c0-0.45-0.23-0.67-0.7-0.67h-5.58c-0.13,0-0.19-0.06-0.19-0.19v-1.35
			c0-0.53-0.26-0.79-0.79-0.79s-0.79,0.26-0.79,0.79v2.12c0,0.22,0.08,0.4,0.23,0.56c0.16,0.16,0.34,0.23,0.56,0.23h6.57
			C99.39,190.99,99.62,190.75,99.62,190.29z"/>
		<path class="st2" d="M205.08,281.41c0-0.43-0.22-0.64-0.65-0.64h-3.25c-0.21,0-0.32-0.1-0.32-0.3v-1.29c0-0.21,0.1-0.32,0.32-0.32
			h2.81c0.43,0,0.64-0.21,0.64-0.62c0-0.44-0.21-0.65-0.64-0.65h-2.81c-0.21,0-0.32-0.11-0.32-0.32v-1.24c0-0.2,0.1-0.3,0.32-0.3
			h2.81c0.43,0,0.64-0.21,0.64-0.64s-0.21-0.64-0.64-0.64h-3.86c-0.2,0-0.38,0.08-0.52,0.23c-0.15,0.15-0.22,0.32-0.22,0.52v6.12
			c0,0.2,0.07,0.37,0.22,0.52c0.15,0.15,0.32,0.23,0.52,0.23h4.3C204.86,282.05,205.08,281.84,205.08,281.41z"/>
		<path class="st2" d="M205.44,297.61c0.46,0,0.69-0.22,0.69-0.66v-3.87c0-0.14,0.07-0.21,0.21-0.21h0.44v-1.34h-0.44
			c-0.14,0-0.21-0.08-0.21-0.23v-2.9c0-0.45-0.23-0.68-0.69-0.68c-0.44,0-0.67,0.23-0.67,0.68v8.55
			C204.78,297.39,205,297.61,205.44,297.61z"/>
		<path class="st2" d="M199.18,250.81h-0.27c-0.42,0-0.63,0.2-0.63,0.61c0,0.42,0.21,0.63,0.63,0.63h5.32
			c0.42,0,0.63-0.21,0.63-0.63c0-0.41-0.21-0.61-0.63-0.61h-0.33c-0.15,0-0.22-0.08-0.21-0.23v-1.74c0-0.15,0.08-0.23,0.23-0.23
			h0.25c0.42,0,0.63-0.21,0.63-0.62c0-0.41-0.21-0.62-0.63-0.62h-5.25c-0.42,0-0.63,0.21-0.63,0.62c0,0.41,0.21,0.62,0.63,0.62h0.27
			c0.15,0,0.23,0.08,0.23,0.23v1.74C199.4,250.73,199.33,250.81,199.18,250.81z M200.82,248.84c0-0.15,0.08-0.23,0.23-0.23h1
			c0.14,0,0.21,0.08,0.21,0.23v1.74c0,0.15-0.07,0.23-0.21,0.23h-1c-0.15,0-0.23-0.08-0.23-0.23V248.84z"/>
		<path class="st2" d="M100.65,154.11c0-0.5-0.25-0.74-0.74-0.74h-0.43c-0.22,0-0.34-0.11-0.34-0.32v-1.05c0-0.54-0.26-0.8-0.78-0.8
			c-0.54,0-0.8,0.26-0.8,0.79v4.47c0,0.53,0.27,0.79,0.8,0.79c0.52,0,0.78-0.26,0.78-0.79v-1.26c0-0.22,0.11-0.34,0.34-0.34h0.43
			C100.41,154.85,100.65,154.6,100.65,154.11z"/>
		<path class="st2" d="M184.65,228.4v-8.47c0-0.47-0.24-0.71-0.71-0.71c-0.47,0-0.7,0.24-0.7,0.71v1.89c0,0.21-0.11,0.32-0.32,0.32
			h-0.47c-0.46,0-0.69,0.22-0.69,0.67c0,0.44,0.23,0.66,0.69,0.66h0.47c0.21,0,0.32,0.11,0.32,0.32v4.61c0,0.47,0.23,0.71,0.7,0.71
			C184.41,229.11,184.65,228.87,184.65,228.4z"/>
		<path class="st2" d="M127.6,243.06v-4.8c0-0.53-0.26-0.8-0.79-0.8c-0.53,0-0.79,0.27-0.79,0.8v0.9c0,0.16-0.08,0.24-0.24,0.24H125
			c-0.44,0-0.66,0.21-0.66,0.64c0,0.44,0.22,0.66,0.66,0.66h0.78c0.16,0,0.24,0.08,0.24,0.24v0.28c0,0.16-0.08,0.24-0.24,0.24H125
			c-0.44,0-0.66,0.22-0.66,0.65c0,0.44,0.22,0.66,0.66,0.66h0.78c0.16,0,0.24,0.08,0.24,0.24v0.07c0,0.53,0.26,0.79,0.79,0.79
			C127.34,243.85,127.6,243.58,127.6,243.06z"/>
		<path class="st2" d="M127.15,246.22c0-0.37-0.07-0.71-0.22-1.04c-0.15-0.32-0.35-0.61-0.62-0.86c-0.26-0.24-0.57-0.43-0.92-0.57
			c-0.35-0.14-0.72-0.22-1.11-0.22c-0.4,0-0.77,0.07-1.12,0.22c-0.35,0.14-0.65,0.34-0.92,0.57c-0.26,0.25-0.46,0.53-0.61,0.86
			c-0.15,0.32-0.23,0.67-0.23,1.04c0,0.36,0.08,0.7,0.23,1.04c0.15,0.33,0.36,0.62,0.61,0.86c0.26,0.25,0.57,0.44,0.92,0.59
			c0.35,0.14,0.72,0.22,1.12,0.22c0.39,0,0.76-0.07,1.11-0.22s0.65-0.34,0.92-0.59c0.26-0.24,0.47-0.53,0.62-0.86
			C127.07,246.92,127.15,246.58,127.15,246.22z M125.25,247.19c-0.27,0.28-0.59,0.41-0.96,0.41c-0.38,0-0.71-0.14-0.98-0.41
			c-0.27-0.28-0.4-0.6-0.4-0.98c0-0.38,0.13-0.71,0.4-0.98c0.27-0.27,0.59-0.41,0.98-0.41c0.38,0,0.7,0.14,0.96,0.41
			c0.27,0.27,0.4,0.6,0.4,0.98C125.65,246.59,125.52,246.92,125.25,247.19z"/>
		<path class="st2" d="M122.62,223.45h-4.16c-0.22,0-0.4,0.08-0.55,0.23c-0.15,0.16-0.23,0.34-0.23,0.55v4.19
			c0,0.21,0.08,0.39,0.23,0.55c0.15,0.16,0.34,0.23,0.55,0.23h4.16c0.22,0,0.4-0.08,0.56-0.23c0.16-0.16,0.23-0.34,0.23-0.55v-4.19
			c0-0.21-0.08-0.39-0.23-0.55C123.02,223.53,122.84,223.45,122.62,223.45z M121.85,227.62c0,0.16-0.08,0.24-0.24,0.24h-2.13
			c-0.16,0-0.24-0.08-0.24-0.24v-2.58c0-0.16,0.08-0.24,0.24-0.24h2.13c0.16,0,0.24,0.08,0.24,0.24V227.62z"/>
		<path class="st2" d="M121.09,237.14c-0.57,0-0.85,0.29-0.85,0.86v0.13c0,0.1-0.05,0.14-0.14,0.14h-1.96
			c-0.42,0-0.63,0.22-0.63,0.65c0,0.43,0.21,0.65,0.63,0.65h0.72c-0.12,0.15-0.22,0.31-0.3,0.48c-0.14,0.31-0.22,0.64-0.22,0.98
			c0,0.34,0.07,0.67,0.22,0.98c0.14,0.31,0.34,0.57,0.59,0.8c0.25,0.23,0.54,0.41,0.87,0.55c0.34,0.13,0.7,0.2,1.08,0.2
			c0.38,0,0.74-0.07,1.08-0.2c0.34-0.13,0.63-0.31,0.87-0.55c0.25-0.22,0.44-0.49,0.59-0.8s0.22-0.63,0.22-0.98
			c0-0.34-0.07-0.67-0.22-0.98c-0.09-0.17-0.19-0.33-0.31-0.48h0.36c0.42,0,0.62-0.22,0.62-0.65c0-0.43-0.21-0.65-0.62-0.65h-1.61
			c-0.09,0-0.13-0.05-0.13-0.14V238C121.95,237.42,121.66,237.14,121.09,237.14z M121.97,240.06c0.26,0.26,0.39,0.56,0.39,0.9
			c0,0.35-0.13,0.65-0.39,0.9c-0.26,0.25-0.56,0.38-0.89,0.38c-0.32,0-0.61-0.13-0.87-0.38c-0.26-0.25-0.39-0.55-0.39-0.9
			c0-0.34,0.13-0.64,0.39-0.9c0.26-0.26,0.55-0.38,0.87-0.38C121.41,239.68,121.71,239.8,121.97,240.06z"/>
		<path class="st2" d="M97.92,180.74v6.17c0,0.53,0.26,0.79,0.79,0.79c0.53,0,0.79-0.26,0.79-0.79v-6.17c0-0.54-0.26-0.8-0.79-0.8
			C98.19,179.94,97.92,180.21,97.92,180.74z"/>
		<path class="st2" d="M95.13,157.07c0.21,0,0.39-0.08,0.55-0.23c0.16-0.15,0.23-0.34,0.23-0.55v-4.13c0-0.52-0.26-0.78-0.78-0.78
			c-0.52,0-0.78,0.26-0.78,0.78v0.58c0,0.22-0.11,0.34-0.34,0.34h-1.98c-0.22,0-0.34-0.11-0.34-0.34v-0.58
			c0-0.52-0.26-0.78-0.78-0.78c-0.03,0-0.04,0.01-0.07,0.01v5.67c0.02,0,0.04,0.01,0.07,0.01H95.13z M91.7,154.66
			c0-0.22,0.11-0.32,0.34-0.32h1.98c0.22,0,0.34,0.11,0.34,0.32v0.78c0,0.22-0.11,0.32-0.34,0.32h-1.98c-0.22,0-0.34-0.11-0.34-0.32
			V154.66z"/>
		<path class="st2" d="M99.5,173c0-0.22-0.08-0.4-0.23-0.55c-0.16-0.15-0.34-0.23-0.55-0.23h-6.37c-0.22,0-0.4,0.08-0.55,0.23
			c-0.15,0.15-0.23,0.34-0.23,0.55v2.9c0,0.21,0.08,0.39,0.23,0.55c0.15,0.16,0.34,0.23,0.55,0.23h6.37c0.21,0,0.39-0.08,0.55-0.23
			c0.16-0.16,0.23-0.34,0.23-0.55V173z M97.93,175.17c0,0.13-0.07,0.19-0.2,0.19h-4.4c-0.14,0-0.2-0.06-0.2-0.19v-1.47
			c0-0.13,0.07-0.19,0.2-0.19h4.4c0.14,0,0.2,0.06,0.2,0.19V175.17z"/>
		<path class="st2" d="M106.18,158.66c-0.53,0-0.79,0.26-0.79,0.79v1.99c0,0.22,0.08,0.4,0.23,0.56c0.16,0.16,0.34,0.23,0.56,0.23
			h6.52c0.46,0,0.68-0.23,0.68-0.69c0-0.45-0.23-0.67-0.68-0.67h-5.51c-0.13,0-0.19-0.06-0.19-0.19v-1.22
			C106.99,158.93,106.72,158.66,106.18,158.66z"/>
		<path class="st2" d="M161.03,224.7c0.2,0,0.37-0.07,0.51-0.21c0.15-0.14,0.22-0.32,0.22-0.52v-3.96c0-0.48-0.24-0.72-0.73-0.72
			s-0.73,0.24-0.73,0.72v0.65c0,0.21-0.11,0.32-0.32,0.32h-1.86c-0.21,0-0.32-0.1-0.32-0.32v-0.65c0-0.45-0.23-0.69-0.66-0.71v5.4
			H161.03z M157.8,222.48c0-0.21,0.11-0.32,0.32-0.32h1.86c0.21,0,0.32,0.11,0.32,0.32v0.68c0,0.22-0.11,0.33-0.32,0.33h-1.86
			c-0.21,0-0.32-0.11-0.32-0.33V222.48z"/>
		<path class="st2" d="M103.68,185.81c0,0.45,0.22,0.67,0.67,0.67h2.24c0.16,0,0.24,0.08,0.24,0.24v1.07c0,0.53,0.26,0.79,0.77,0.79
			c0.51,0,0.77-0.26,0.77-0.79v-1.07c0-0.16,0.08-0.24,0.24-0.24h0.84c0.16,0,0.24,0.08,0.24,0.24v1.07c0,0.53,0.26,0.79,0.77,0.79
			c0.5,0,0.76-0.26,0.76-0.79v-1.07c0-0.16,0.08-0.24,0.24-0.24h1.47c0.45,0,0.67-0.22,0.67-0.67s-0.22-0.67-0.67-0.67h-1.89
			c0.29-0.29,0.52-0.61,0.71-0.97c0.18-0.37,0.26-0.77,0.26-1.2c0-0.44-0.09-0.85-0.27-1.23c-0.18-0.38-0.42-0.71-0.71-0.99
			c-0.31-0.29-0.67-0.52-1.08-0.68c-0.41-0.17-0.84-0.25-1.29-0.25c-0.46,0-0.9,0.08-1.31,0.25c-0.41,0.17-0.76,0.4-1.07,0.68
			c-0.3,0.28-0.55,0.61-0.72,0.99c-0.18,0.38-0.27,0.79-0.27,1.23c0,0.43,0.09,0.83,0.28,1.2c0.18,0.36,0.41,0.68,0.71,0.97h-1.91
			C103.9,185.14,103.68,185.36,103.68,185.81z M106.98,182.26c0.1-0.22,0.23-0.41,0.4-0.58c0.15-0.17,0.34-0.3,0.56-0.4
			c0.22-0.1,0.45-0.15,0.7-0.15c0.24,0,0.47,0.05,0.69,0.15c0.22,0.1,0.41,0.23,0.57,0.4c0.16,0.17,0.29,0.36,0.38,0.58
			c0.1,0.22,0.14,0.46,0.14,0.71c0,0.25-0.05,0.48-0.14,0.71c-0.1,0.22-0.22,0.42-0.38,0.59c-0.16,0.16-0.35,0.29-0.57,0.39
			c-0.22,0.1-0.45,0.15-0.69,0.15c-0.25,0-0.48-0.05-0.7-0.15c-0.22-0.1-0.41-0.23-0.56-0.39c-0.17-0.17-0.3-0.36-0.4-0.59
			c-0.1-0.22-0.14-0.46-0.14-0.71C106.84,182.72,106.89,182.48,106.98,182.26z"/>
		<path class="st2" d="M106.07,152.91h3.32c0.45,0,0.68-0.23,0.68-0.68c0-0.44-0.23-0.66-0.68-0.66h-4.34
			c-0.22,0-0.4,0.08-0.56,0.24c-0.16,0.16-0.23,0.34-0.23,0.55v4.7c0,0.22,0.08,0.4,0.23,0.54c0.16,0.14,0.34,0.22,0.56,0.22H110
			c0.44,0,0.66-0.22,0.66-0.67c0-0.44-0.22-0.66-0.66-0.66h-3.93c-0.16,0-0.24-0.08-0.24-0.24v-0.67c0-0.16,0.08-0.24,0.24-0.24
			h3.33c0.45,0,0.67-0.22,0.67-0.65c0-0.44-0.22-0.66-0.67-0.66h-3.33c-0.16,0-0.24-0.08-0.24-0.24v-0.63
			C105.83,152.99,105.91,152.91,106.07,152.91z"/>
		<path class="st2" d="M94.47,214.7c0.53,0,0.79-0.26,0.79-0.79v-4.04c0-0.21-0.08-0.39-0.23-0.55c-0.16-0.16-0.34-0.24-0.56-0.24
			h-3.62v1.38h2.5c0.22,0,0.34,0.11,0.34,0.32v3.13C93.69,214.43,93.95,214.7,94.47,214.7z"/>
		<path class="st2" d="M103.98,231.4c0.5,0.22,0.87,0.06,1.09-0.49l1.88-4.74l1.88,4.74c0.22,0.55,0.59,0.72,1.09,0.49
			c0.4-0.18,0.5-0.52,0.3-1.04l-2.25-5.53h1.45c0.46,0,0.7-0.23,0.7-0.68c0-0.45-0.23-0.68-0.68-0.68h-5.08
			c-0.45,0-0.67,0.23-0.67,0.68c0,0.46,0.23,0.68,0.68,0.68h1.56l-2.25,5.53C103.47,230.87,103.57,231.22,103.98,231.4z"/>
		<path class="st2" d="M112.65,215.58c-0.15,0.15-0.23,0.34-0.23,0.55v2.9c0,0.21,0.08,0.39,0.23,0.55
			c0.15,0.16,0.34,0.23,0.55,0.23h6.31c0.22,0,0.4-0.08,0.55-0.23c0.15-0.16,0.23-0.34,0.23-0.55v-2.9c0-0.22-0.08-0.4-0.23-0.55
			c-0.15-0.15-0.34-0.23-0.55-0.23h-6.31C112.98,215.36,112.8,215.43,112.65,215.58z M113.98,216.83c0-0.13,0.07-0.19,0.2-0.19h4.35
			c0.13,0,0.19,0.06,0.19,0.19v1.47c0,0.13-0.06,0.19-0.19,0.19h-4.35c-0.14,0-0.2-0.06-0.2-0.19V216.83z"/>
		<path class="st2" d="M112.04,144.25v-6.13c0-0.49-0.24-0.73-0.73-0.73c-0.48,0-0.72,0.24-0.72,0.73v6.13
			c0,0.48,0.24,0.72,0.72,0.72C111.8,144.98,112.04,144.74,112.04,144.25z"/>
		<path class="st2" d="M105.79,146.32v-1.27c0-0.5-0.25-0.74-0.74-0.74c-0.5,0-0.76,0.25-0.76,0.74v2c0,0.2,0.08,0.38,0.23,0.52
			c0.15,0.15,0.33,0.22,0.53,0.22h6.46c0.43,0,0.64-0.22,0.64-0.65c0-0.42-0.21-0.63-0.64-0.63h-5.54
			C105.85,146.5,105.79,146.44,105.79,146.32z"/>
		<path class="st2" d="M119.83,176.85c0.53-0.01,0.79-0.28,0.79-0.8v-2.84c0-0.22-0.08-0.4-0.24-0.56
			c-0.16-0.16-0.34-0.24-0.55-0.24h-6.57c-0.46,0-0.69,0.24-0.69,0.71c0,0.46,0.23,0.69,0.69,0.69h5.44c0.22,0,0.34,0.11,0.34,0.34
			v1.91C119.04,176.57,119.3,176.84,119.83,176.85z"/>
		<path class="st2" d="M103.51,137.57c-0.47,0-0.71,0.24-0.71,0.71v4.34c0,0.2,0.07,0.37,0.21,0.51c0.14,0.15,0.32,0.22,0.52,0.22
			h2.92c0.2,0,0.37-0.07,0.51-0.22c0.15-0.15,0.22-0.32,0.22-0.51v-1.49h0.88c0.21,0,0.32,0.11,0.32,0.32v2.71
			c0,0.48,0.23,0.72,0.7,0.72c0.48,0,0.72-0.24,0.72-0.72v-5.94c0-0.47-0.24-0.71-0.72-0.71c-0.47,0-0.7,0.24-0.7,0.71v1.32
			c0,0.21-0.11,0.32-0.32,0.32h-0.88v-1.57c0-0.47-0.24-0.71-0.72-0.71c-0.47,0-0.7,0.24-0.7,0.71v0.68c0,0.21-0.11,0.32-0.32,0.32
			h-0.91c-0.2,0-0.3-0.11-0.3-0.32v-0.68C104.23,137.8,103.99,137.57,103.51,137.57z M104.53,140.5h0.89c0.23,0,0.34,0.11,0.34,0.32
			v0.96c0,0.21-0.11,0.32-0.34,0.32h-0.89c-0.2,0-0.3-0.11-0.3-0.32v-0.96C104.23,140.6,104.33,140.5,104.53,140.5z"/>
		<path class="st2" d="M95.49,201.12c0.53,0,0.79-0.26,0.79-0.78v-4.74c0-0.22-0.08-0.4-0.23-0.55c-0.16-0.15-0.34-0.23-0.56-0.23
			H90.9c-0.02,0-0.03,0.01-0.04,0.01v1.34c0.02,0,0.03,0.01,0.04,0.01h3.47c0.22,0,0.34,0.11,0.34,0.32v3.85
			C94.71,200.86,94.97,201.12,95.49,201.12z"/>
		<path class="st2" d="M114.58,287.49c-0.15,0.31-0.23,0.65-0.23,1.01c0,0.35,0.08,0.69,0.23,1.01c0.15,0.32,0.35,0.6,0.6,0.83
			c0.26,0.24,0.55,0.43,0.89,0.57c0.34,0.14,0.7,0.21,1.08,0.21c0.38,0,0.73-0.07,1.07-0.21c0.34-0.14,0.64-0.33,0.89-0.57
			c0.26-0.23,0.46-0.51,0.6-0.83c0.15-0.32,0.22-0.66,0.22-1.01c0-0.36-0.07-0.7-0.22-1.01c-0.15-0.31-0.35-0.58-0.6-0.82
			c-0.26-0.24-0.55-0.43-0.89-0.57c-0.29-0.11-0.59-0.18-0.9-0.2c0.02-0.06,0.02-0.13,0.02-0.21c0-0.39-0.2-0.59-0.6-0.59h-3.47
			c-0.21,0-0.32-0.11-0.32-0.32v-0.36c0-0.21,0.1-0.32,0.32-0.32h2.94c0.21,0,0.38-0.07,0.52-0.21c0.14-0.14,0.21-0.32,0.21-0.54
			v-1.95c0-0.22-0.07-0.39-0.21-0.53s-0.31-0.2-0.52-0.2h-4.09c-0.43,0-0.64,0.21-0.64,0.62c0,0.42,0.21,0.63,0.64,0.63h3.03
			c0.21,0,0.32,0.11,0.32,0.32v0.34c0,0.21-0.11,0.32-0.32,0.32h-2.93c-0.23,0-0.41,0.07-0.54,0.21c-0.13,0.14-0.2,0.32-0.2,0.53
			v1.91c0,0.21,0.07,0.39,0.21,0.53c0.14,0.14,0.32,0.21,0.54,0.21h3.47c-0.19,0.11-0.36,0.23-0.52,0.38
			C114.93,286.91,114.73,287.18,114.58,287.49z M116.17,287.51c0.27-0.27,0.6-0.41,0.98-0.41c0.38,0,0.7,0.14,0.97,0.41
			c0.27,0.27,0.41,0.6,0.41,0.99c0,0.38-0.13,0.7-0.41,0.98c-0.27,0.28-0.59,0.42-0.97,0.42c-0.38,0-0.71-0.14-0.98-0.42
			c-0.27-0.28-0.41-0.6-0.41-0.98C115.76,288.12,115.9,287.79,116.17,287.51z"/>
		<path class="st2" d="M112.48,151.19c-0.54,0-0.8,0.26-0.8,0.79v6.48c0,0.53,0.27,0.79,0.8,0.79c0.52,0,0.78-0.26,0.78-0.79v-2.72
			c0-0.22,0.11-0.32,0.34-0.32h0.43c0.49,0,0.74-0.25,0.74-0.75c0-0.5-0.25-0.74-0.74-0.74h-0.43c-0.22,0-0.34-0.11-0.34-0.34v-1.61
			C113.26,151.45,113,151.19,112.48,151.19z"/>
		<path class="st2" d="M111.32,299.73c0.5,0,0.74-0.25,0.74-0.74v-4.39c0-0.5-0.25-0.76-0.74-0.76c-0.5,0-0.74,0.25-0.74,0.76v0.06
			c0,0.08-0.05,0.12-0.14,0.12h-2.1c-0.39,0-0.59,0.2-0.59,0.6c0,0.39,0.19,0.59,0.59,0.59h2.1c0.09,0,0.14,0.04,0.14,0.14v0.17
			c0,0.09-0.05,0.14-0.14,0.14h-2.11c-0.38,0-0.57,0.19-0.57,0.57c0,0.39,0.19,0.59,0.57,0.59h2.11c0.09,0,0.14,0.05,0.14,0.14v1.29
			C110.58,299.48,110.83,299.73,111.32,299.73z"/>
		<path class="st2" d="M124.47,180.74v9.29c0,0.52,0.26,0.78,0.79,0.78c0.53,0,0.79-0.26,0.79-0.78v-9.29c0-0.54-0.26-0.8-0.79-0.8
			C124.74,179.94,124.47,180.21,124.47,180.74z"/>
		<path class="st2" d="M117.58,160.59c0,0.46,0.23,0.69,0.68,0.69h8.66c0.46,0,0.68-0.23,0.68-0.69c0-0.46-0.23-0.68-0.68-0.68h-3.2
			c-0.22,0-0.34-0.11-0.34-0.34v-1.93c0-0.54-0.26-0.8-0.79-0.8c-0.54,0-0.8,0.27-0.8,0.8v1.93c0,0.22-0.11,0.34-0.32,0.34h-3.21
			C117.81,159.91,117.58,160.14,117.58,160.59z"/>
		<path class="st2" d="M121.43,188.39c0.53,0,0.79-0.26,0.79-0.79v-6.48c0-0.21-0.08-0.39-0.24-0.55c-0.16-0.16-0.34-0.24-0.54-0.24
			H117c-0.46,0-0.69,0.23-0.69,0.68c0,0.47,0.23,0.71,0.69,0.71h3.32c0.22,0,0.32,0.11,0.32,0.32v5.56
			C120.64,188.12,120.9,188.39,121.43,188.39z"/>
		<path class="st2" d="M120.54,232.56v-1.35c0-0.53-0.26-0.79-0.79-0.79c-0.53,0-0.79,0.26-0.79,0.79v2.12
			c0,0.22,0.08,0.4,0.23,0.56c0.16,0.16,0.34,0.23,0.56,0.23h6.57c0.46,0,0.7-0.23,0.7-0.69c0-0.45-0.23-0.67-0.7-0.67h-5.58
			C120.6,232.75,120.54,232.69,120.54,232.56z"/>
		<path class="st2" d="M119.51,208.69c-0.54,0-0.8,0.26-0.8,0.79v4.47c0,0.53,0.27,0.79,0.8,0.79c0.52,0,0.78-0.26,0.78-0.79v-1.22
			c0-0.22,0.11-0.34,0.34-0.34h0.43c0.49,0,0.74-0.25,0.74-0.74c0-0.51-0.25-0.77-0.74-0.77h-0.43c-0.22,0-0.34-0.11-0.34-0.32
			v-1.08C120.29,208.96,120.03,208.69,119.51,208.69z"/>
		<path class="st2" d="M119.6,157.52l3-4.12l2.98,4.12c0.36,0.46,0.75,0.56,1.16,0.28c0.44-0.3,0.47-0.69,0.11-1.17l-3.39-4.65
			c-0.25-0.34-0.54-0.52-0.86-0.52c-0.34,0-0.63,0.17-0.87,0.52l-3.39,4.65c-0.36,0.49-0.32,0.88,0.11,1.17
			C118.86,158.08,119.25,157.99,119.6,157.52z"/>
		<path class="st2" d="M126.89,230.04v-6.17c0-0.53-0.26-0.8-0.79-0.8c-0.53,0-0.79,0.27-0.79,0.8v6.17c0,0.53,0.26,0.79,0.79,0.79
			C126.62,230.83,126.89,230.57,126.89,230.04z"/>
		<path class="st2" d="M113.16,269.77h0.74c0.5,0,0.76-0.25,0.76-0.76c0-0.51-0.25-0.77-0.76-0.77h-0.74
			c-0.22,0-0.34-0.11-0.34-0.32V267c0-0.53-0.26-0.8-0.78-0.8c-0.53,0-0.79,0.27-0.79,0.8v9.27c0,0.53,0.26,0.79,0.79,0.79
			c0.52,0,0.78-0.26,0.78-0.79v-3.22c0-0.22,0.11-0.32,0.34-0.32h0.74c0.5,0,0.76-0.26,0.76-0.77c0-0.5-0.25-0.75-0.76-0.75h-0.74
			c-0.22,0-0.34-0.11-0.34-0.34v-0.77C112.82,269.88,112.93,269.77,113.16,269.77z"/>
		<path class="st2" d="M126.97,277.07c0.53,0,0.79-0.26,0.79-0.78V267c0-0.53-0.26-0.8-0.79-0.8c-0.53,0-0.79,0.27-0.79,0.8v9.29
			C126.18,276.81,126.44,277.07,126.97,277.07z"/>
		<path class="st2" d="M91.9,130.77c-0.5,0-0.74,0.25-0.74,0.74v2c0,0.2,0.07,0.38,0.22,0.52c0.15,0.15,0.32,0.22,0.52,0.22h6.13
			c0.43,0,0.64-0.22,0.64-0.65c0-0.42-0.21-0.63-0.64-0.63h-5.21c-0.12,0-0.18-0.06-0.18-0.18v-1.27
			C92.64,131.02,92.39,130.77,91.9,130.77z"/>
		<path class="st2" d="M123.7,272.08c0.3-0.28,0.54-0.61,0.7-1s0.25-0.8,0.25-1.25c0-0.44-0.08-0.85-0.25-1.24s-0.4-0.72-0.7-1.01
			c-0.29-0.3-0.63-0.53-1.04-0.7c-0.4-0.17-0.84-0.26-1.3-0.26c-0.45,0-0.87,0.09-1.28,0.26c-0.4,0.17-0.75,0.41-1.05,0.7
			c-0.3,0.29-0.53,0.62-0.69,1.01s-0.25,0.8-0.25,1.24c0,0.45,0.08,0.86,0.25,1.25s0.39,0.72,0.69,1c0.3,0.3,0.64,0.53,1.05,0.7
			c0.4,0.17,0.83,0.26,1.28,0.26c0.46,0,0.9-0.09,1.3-0.26C123.06,272.61,123.41,272.38,123.7,272.08z M122.01,271.51
			c-0.2,0.09-0.42,0.13-0.65,0.13c-0.22,0-0.43-0.04-0.63-0.13c-0.2-0.09-0.39-0.22-0.56-0.38c-0.15-0.16-0.27-0.35-0.37-0.58
			c-0.09-0.22-0.14-0.46-0.14-0.72c0-0.26,0.05-0.5,0.14-0.72c0.09-0.22,0.21-0.42,0.37-0.57c0.17-0.17,0.35-0.29,0.56-0.38
			c0.2-0.08,0.41-0.13,0.63-0.13c0.23,0,0.45,0.04,0.65,0.13c0.2,0.08,0.39,0.21,0.56,0.38c0.15,0.16,0.28,0.35,0.37,0.57
			c0.1,0.22,0.14,0.46,0.14,0.72c0,0.26-0.05,0.49-0.15,0.72c-0.1,0.22-0.23,0.42-0.38,0.58
			C122.39,271.29,122.21,271.42,122.01,271.51z"/>
		<path class="st2" d="M116.36,296.01h5.3c0.44,0,0.65-0.21,0.65-0.64c0-0.44-0.22-0.65-0.65-0.65h-1.67
			c-0.08,0-0.12-0.04-0.12-0.12v-0.23c0-0.54-0.27-0.81-0.81-0.81c-0.53,0-0.8,0.27-0.8,0.81v0.23c0,0.08-0.05,0.12-0.14,0.12h-1.76
			c-0.44,0-0.66,0.22-0.66,0.65C115.69,295.79,115.91,296.01,116.36,296.01z"/>
		<path class="st2" d="M117.04,168.33c0,0.46,0.23,0.69,0.68,0.69h0.98c0.22,0,0.34,0.11,0.34,0.34v1.67c0,0.53,0.26,0.79,0.79,0.79
			c0.53,0,0.79-0.26,0.79-0.77v-4.68c0-0.54-0.26-0.8-0.79-0.8c-0.53,0-0.79,0.27-0.79,0.8v0.95c0,0.22-0.11,0.32-0.34,0.32h-0.98
			C117.26,167.64,117.04,167.87,117.04,168.33z"/>
		<path class="st2" d="M114.28,165.81c-0.35,0-0.63,0.18-0.84,0.53l-2.35,4.11c-0.3,0.51-0.26,0.89,0.12,1.14
			c0.46,0.31,0.85,0.21,1.15-0.3l1.93-3.41l1.94,3.41c0.3,0.51,0.68,0.61,1.15,0.3c0.38-0.27,0.41-0.65,0.11-1.14l-2.35-4.11
			C114.94,165.99,114.65,165.81,114.28,165.81z"/>
		<path class="st2" d="M104.23,299.2h4.29c0.41,0,0.61-0.21,0.61-0.62c0-0.4-0.2-0.6-0.61-0.6h-3.32c-0.14,0-0.21-0.08-0.21-0.23
			v-2.99c0-0.5-0.25-0.74-0.76-0.74c-0.49,0-0.73,0.25-0.73,0.74v3.69c0,0.2,0.07,0.38,0.21,0.52
			C103.85,299.13,104.03,299.2,104.23,299.2z"/>
		<path class="st2" d="M119.22,280.31c-0.5,0-0.76,0.25-0.76,0.74v4.53c0,0.5,0.25,0.76,0.76,0.76c0.49,0,0.73-0.25,0.73-0.76v-1.28
			c0-0.21,0.11-0.32,0.32-0.32h0.42c0.46-0.01,0.69-0.24,0.69-0.69c0-0.47-0.23-0.71-0.69-0.71h-0.42c-0.21,0-0.32-0.11-0.32-0.32
			v-1.22C119.95,280.56,119.7,280.31,119.22,280.31z"/>
		<path class="st2" d="M121.75,146.68c0,0.47,0.23,0.71,0.7,0.71c0.47,0,0.71-0.24,0.71-0.71v-0.6l-1.41-1.15V146.68z"/>
		<path class="st2" d="M97.05,139.81h-5.56c-0.22,0-0.4,0.07-0.54,0.21c-0.04,0.04-0.06,0.09-0.09,0.14v2.67
			c0.03,0.05,0.05,0.1,0.09,0.14c0.14,0.14,0.32,0.21,0.54,0.21h6.68c0.43,0,0.64-0.21,0.64-0.63c0-0.43-0.21-0.64-0.64-0.64h-5.72
			c-0.15,0-0.23-0.08-0.23-0.23v-0.38c0-0.15,0.08-0.23,0.23-0.23h5.56c0.21,0,0.39-0.07,0.53-0.21c0.14-0.14,0.21-0.31,0.21-0.52
			v-1.85c0-0.21-0.07-0.39-0.21-0.52c-0.14-0.14-0.31-0.21-0.52-0.21h-6.63c-0.25,0-0.42,0.08-0.53,0.23v0.82
			c0.11,0.14,0.28,0.22,0.53,0.22h5.66c0.14,0,0.21,0.08,0.21,0.23v0.34C97.26,139.74,97.19,139.81,97.05,139.81z"/>
		<path class="st2" d="M97.83,293.84c-0.5,0-0.76,0.25-0.76,0.74v5.81c0,0.5,0.25,0.76,0.76,0.76c0.49,0,0.73-0.25,0.73-0.76v-2.26
			c0-0.2,0.11-0.3,0.32-0.3h0.41c0.47,0,0.7-0.24,0.7-0.72c0-0.47-0.23-0.7-0.7-0.7h-0.41c-0.21,0-0.32-0.11-0.32-0.32v-1.51
			C98.56,294.09,98.32,293.84,97.83,293.84z"/>
		<path class="st2" d="M116.2,144.02h-0.11c-0.43,0-0.64,0.21-0.64,0.63c0,0.41,0.21,0.62,0.64,0.62h4.45
			c0.42,0,0.63-0.21,0.63-0.62c0-0.08-0.01-0.15-0.03-0.22l-0.48-0.4c-0.04,0-0.07-0.02-0.12-0.02h-0.18
			c-0.15,0-0.23-0.08-0.23-0.23v-0.19l-1.36-1.12v1.3c0,0.15-0.07,0.23-0.21,0.23h-0.53c-0.15,0-0.23-0.08-0.23-0.23v-2.09
			l-1.39-1.14v3.23C116.41,143.94,116.34,144.02,116.2,144.02z"/>
		<path class="st2" d="M123.9,146.89c0,0.48,0.24,0.72,0.71,0.72c0.14,0,0.25-0.02,0.35-0.06l-1.06-0.86V146.89z"/>
		<path class="st2" d="M127.12,203.04h-3.2c-0.22,0-0.34-0.11-0.34-0.34v-1.27c0.15-0.03,0.3-0.08,0.45-0.14
			c0.39-0.16,0.74-0.38,1.03-0.66c0.29-0.28,0.52-0.6,0.69-0.98c0.17-0.37,0.26-0.76,0.26-1.18c0-0.42-0.08-0.82-0.25-1.19
			c-0.12-0.23-0.26-0.45-0.42-0.65h1.29c0.45,0,0.67-0.22,0.67-0.67c0-0.45-0.22-0.67-0.67-0.67h-2.76c-0.1,0-0.14-0.04-0.14-0.13
			v-0.26c0-0.6-0.32-0.9-0.95-0.9c-0.64,0-0.96,0.3-0.96,0.9v0.26c0,0.09-0.04,0.13-0.13,0.13h-2.77c-0.45,0-0.67,0.22-0.67,0.67
			c0,0.45,0.22,0.67,0.67,0.67h1.29c-0.16,0.2-0.3,0.42-0.41,0.65c-0.18,0.37-0.26,0.76-0.26,1.19c0,0.42,0.09,0.81,0.26,1.18
			c0.17,0.37,0.41,0.7,0.7,0.98c0.29,0.28,0.63,0.5,1.02,0.66c0.15,0.06,0.3,0.11,0.45,0.14v1.27c0,0.22-0.11,0.34-0.32,0.34h-3.22
			c-0.45,0-0.67,0.23-0.67,0.68c0,0.46,0.22,0.7,0.67,0.7h8.67c0.46,0,0.68-0.23,0.68-0.7C127.8,203.27,127.58,203.04,127.12,203.04
			z M122.8,200.2c-0.24,0-0.47-0.05-0.68-0.14c-0.21-0.09-0.39-0.21-0.55-0.37c-0.16-0.16-0.29-0.35-0.38-0.56
			c-0.09-0.21-0.14-0.43-0.14-0.66c0-0.24,0.05-0.46,0.14-0.67c0.09-0.21,0.22-0.39,0.38-0.55c0.15-0.16,0.33-0.29,0.55-0.38
			c0.21-0.09,0.44-0.14,0.68-0.14c0.23,0,0.45,0.05,0.66,0.14c0.21,0.09,0.4,0.22,0.56,0.38c0.15,0.16,0.27,0.34,0.37,0.55
			c0.09,0.21,0.14,0.43,0.14,0.67c0,0.23-0.05,0.45-0.14,0.66c-0.09,0.21-0.21,0.4-0.37,0.56c-0.16,0.15-0.35,0.27-0.56,0.37
			C123.25,200.15,123.03,200.2,122.8,200.2z"/>
		<path class="st2" d="M93.69,145.25c0.2,0,0.3,0.11,0.3,0.32v1.54c0,0.5,0.25,0.74,0.76,0.74c0.5,0,0.74-0.25,0.74-0.74v-1.54
			c0-0.21,0.11-0.32,0.32-0.32h2.97c0.42,0,0.63-0.21,0.63-0.63c0-0.44-0.21-0.65-0.63-0.65h-7.92v1.29H93.69z"/>
		<path class="st2" d="M112.63,204.98c0.26-0.24,0.47-0.53,0.62-0.86c0.15-0.33,0.22-0.68,0.22-1.04c0-0.37-0.07-0.71-0.22-1.04
			c-0.15-0.32-0.35-0.61-0.62-0.86c-0.26-0.24-0.57-0.43-0.92-0.57c-0.35-0.14-0.72-0.22-1.11-0.22c-0.4,0-0.77,0.07-1.12,0.22
			c-0.35,0.14-0.65,0.34-0.92,0.57c-0.26,0.25-0.46,0.53-0.61,0.86c-0.15,0.32-0.23,0.67-0.23,1.04c0,0.36,0.08,0.7,0.23,1.04
			c0.15,0.33,0.36,0.62,0.61,0.86c0.26,0.25,0.57,0.44,0.92,0.59s0.72,0.22,1.12,0.22c0.39,0,0.76-0.07,1.11-0.22
			C112.06,205.42,112.37,205.23,112.63,204.98z M110.61,204.48c-0.38,0-0.71-0.14-0.98-0.41c-0.27-0.28-0.4-0.6-0.4-0.98
			c0-0.38,0.13-0.71,0.4-0.98c0.27-0.27,0.59-0.41,0.98-0.41c0.38,0,0.7,0.14,0.96,0.41c0.27,0.27,0.4,0.6,0.4,0.98
			c0,0.38-0.13,0.7-0.4,0.98C111.31,204.34,110.98,204.48,110.61,204.48z"/>
		<path class="st2" d="M95.49,273.01c0.53,0,0.79-0.26,0.79-0.78v-4.74c0-0.22-0.08-0.4-0.23-0.55c-0.16-0.15-0.34-0.23-0.56-0.23
			H90.9c-0.02,0-0.03,0.01-0.04,0.01v1.34c0.02,0,0.03,0.01,0.04,0.01h3.47c0.22,0,0.34,0.11,0.34,0.32v3.85
			C94.71,272.75,94.97,273.01,95.49,273.01z"/>
		<path class="st2" d="M104.44,200.08c0.42,0.29,0.79,0.21,1.1-0.24l1.99-2.94l1.82,2.67c0.3,0.45,0.67,0.53,1.1,0.25
			c0.38-0.26,0.41-0.62,0.07-1.09l-1.94-2.72h1.5c0.44,0,0.66-0.22,0.66-0.66c0-0.44-0.22-0.66-0.66-0.66h-5.12
			c-0.44,0-0.66,0.22-0.66,0.66c0,0.44,0.22,0.66,0.66,0.66h1.52l-2.12,2.97C104.02,199.47,104.05,199.83,104.44,200.08z"/>
		<path class="st2" d="M113.14,233.16v-9.29c0-0.53-0.26-0.8-0.79-0.8c-0.53,0-0.79,0.27-0.79,0.8v9.29c0,0.52,0.26,0.78,0.79,0.78
			C112.88,233.94,113.14,233.68,113.14,233.16z"/>
		<path class="st2" d="M116.99,213.12h-3.69c-0.22,0-0.34-0.11-0.34-0.32v-3.12c0-0.53-0.26-0.79-0.79-0.79s-0.79,0.26-0.79,0.79
			v3.99c0,0.22,0.08,0.4,0.23,0.56c0.16,0.16,0.34,0.23,0.56,0.23h4.82c0.43,0,0.65-0.22,0.65-0.65
			C117.64,213.37,117.43,213.14,116.99,213.12z"/>
		<path class="st2" d="M112.41,257.88c0.53,0,0.79-0.26,0.79-0.79v-4.46c0-0.53-0.26-0.8-0.79-0.8c-0.53,0-0.79,0.27-0.79,0.8v1.17
			c0,0.22-0.11,0.32-0.34,0.32h-0.87c-0.45,0-0.67,0.23-0.67,0.68c0,0.45,0.22,0.68,0.67,0.68h0.87c0.22,0,0.34,0.11,0.34,0.34v1.26
			C111.62,257.61,111.88,257.88,112.41,257.88z"/>
		<path class="st2" d="M105.28,187.33c-0.53,0-0.79,0.26-0.79,0.79v2.07c0,0.22,0.08,0.4,0.24,0.56c0.16,0.16,0.34,0.23,0.55,0.23
			h6.95c0.44,0,0.66-0.22,0.66-0.67c0-0.44-0.22-0.66-0.66-0.66h-5.94c-0.13,0-0.19-0.06-0.19-0.19v-1.34
			C106.1,187.6,105.83,187.33,105.28,187.33z"/>
		<path class="st2" d="M111.19,240.79v-2.48c0-0.49-0.25-0.74-0.75-0.74c-0.5,0-0.74,0.25-0.74,0.74v9.02
			c0,0.49,0.25,0.74,0.74,0.74c0.5,0,0.75-0.25,0.75-0.74v-4.64c0-0.16,0.08-0.24,0.24-0.24h0.62c0.16,0,0.24,0.08,0.24,0.24v4.85
			c0,0.51,0.26,0.77,0.77,0.77c0.52,0,0.78-0.26,0.78-0.77v-9.32c0-0.52-0.26-0.78-0.78-0.78c-0.51,0-0.77,0.26-0.77,0.78v2.56
			c0,0.16-0.08,0.24-0.24,0.24h-0.62C111.27,241.03,111.19,240.95,111.19,240.79z"/>
		<path class="st2" d="M112.04,262.49c0.26-0.24,0.47-0.53,0.62-0.86c0.15-0.33,0.22-0.68,0.22-1.04c0-0.37-0.07-0.71-0.22-1.04
			c-0.15-0.32-0.35-0.61-0.62-0.86c-0.26-0.24-0.57-0.43-0.92-0.57c-0.35-0.14-0.72-0.22-1.11-0.22c-0.4,0-0.77,0.07-1.12,0.22
			c-0.35,0.14-0.65,0.34-0.92,0.57c-0.26,0.25-0.46,0.53-0.61,0.86c-0.15,0.32-0.23,0.67-0.23,1.04c0,0.36,0.08,0.7,0.23,1.04
			c0.15,0.33,0.36,0.62,0.61,0.86c0.26,0.25,0.57,0.44,0.92,0.59s0.72,0.22,1.12,0.22c0.39,0,0.76-0.07,1.11-0.22
			C111.47,262.93,111.78,262.74,112.04,262.49z M110.02,261.99c-0.38,0-0.71-0.14-0.98-0.41c-0.27-0.28-0.4-0.6-0.4-0.98
			c0-0.38,0.13-0.71,0.4-0.98c0.27-0.27,0.59-0.41,0.98-0.41c0.38,0,0.7,0.14,0.96,0.41c0.27,0.27,0.4,0.6,0.4,0.98
			c0,0.38-0.13,0.7-0.4,0.98C110.71,261.85,110.39,261.99,110.02,261.99z"/>
		<path class="st2" d="M104.03,274.48c0.46,0.2,0.79,0.07,0.99-0.38l1.93-4.89l1.94,4.89c0.2,0.45,0.53,0.58,0.99,0.38
			c0.48-0.2,0.62-0.53,0.42-1.01l-2.46-6.23c-0.2-0.44-0.5-0.66-0.9-0.66c-0.4,0-0.7,0.22-0.89,0.66l-2.46,6.23
			C103.4,273.95,103.54,274.28,104.03,274.48z"/>
		<path class="st2" d="M103.85,257.59c0.42,0.29,0.79,0.21,1.1-0.24l1.99-2.94l1.82,2.67c0.3,0.45,0.67,0.53,1.1,0.25
			c0.38-0.26,0.41-0.62,0.07-1.09l-1.94-2.72h1.5c0.44,0,0.66-0.22,0.66-0.66c0-0.44-0.22-0.66-0.66-0.66h-5.12
			c-0.44,0-0.66,0.22-0.66,0.66c0,0.44,0.22,0.66,0.66,0.66h1.52l-2.12,2.97C103.43,256.98,103.45,257.34,103.85,257.59z"/>
		<path class="st2" d="M113.8,199.58v-4.46c0-0.53-0.26-0.8-0.79-0.8c-0.53,0-0.79,0.27-0.79,0.8v1.17c0,0.22-0.11,0.32-0.34,0.32
			H111c-0.45,0-0.67,0.23-0.67,0.68c0,0.45,0.22,0.68,0.67,0.68h0.87c0.22,0,0.34,0.11,0.34,0.34v1.26c0,0.53,0.26,0.79,0.79,0.79
			C113.53,200.37,113.8,200.1,113.8,199.58z"/>
		<path class="st2" d="M105.87,239.2h1.95c0.45,0,0.68-0.23,0.68-0.68c0-0.45-0.23-0.68-0.68-0.68h-3.02c-0.22,0-0.4,0.08-0.56,0.24
			c-0.16,0.16-0.23,0.34-0.23,0.55v6.51c0,0.21,0.08,0.39,0.23,0.55c0.16,0.16,0.34,0.24,0.56,0.24h3.37c0.46,0,0.69-0.23,0.69-0.68
			c0-0.45-0.23-0.68-0.69-0.68h-2.3c-0.22,0-0.34-0.11-0.34-0.32v-1.37c0-0.22,0.11-0.34,0.34-0.34h1.95c0.45,0,0.68-0.22,0.68-0.66
			c0-0.46-0.23-0.7-0.68-0.7h-1.95c-0.22,0-0.34-0.11-0.34-0.34v-1.32C105.54,239.31,105.65,239.2,105.87,239.2z"/>
		<path class="st2" d="M125.8,256.25c0.53,0,0.79-0.27,0.79-0.8V253c0-0.21-0.08-0.39-0.24-0.55c-0.16-0.16-0.34-0.24-0.55-0.24
			h-7.04c-0.46,0-0.68,0.22-0.68,0.66c0,0.46,0.23,0.69,0.68,0.69h5.93c0.22,0,0.32,0.11,0.32,0.32v1.56
			C125.01,255.98,125.27,256.25,125.8,256.25z"/>
		<path class="st2" d="M158.29,167.17l-1.15,1.87v2.3c0.11-0.05,0.22-0.12,0.31-0.25l1.94-3.27l1.94,3.27
			c0.26,0.35,0.58,0.39,0.96,0.14c0.35-0.23,0.38-0.55,0.1-0.97l-1.89-3.09h1.42c0.4,0,0.6-0.21,0.6-0.63c0-0.43-0.2-0.64-0.6-0.64
			h-1.51c-0.15,0-0.23-0.07-0.23-0.21v-0.28c0-0.47-0.26-0.71-0.78-0.71c-0.51,0-0.77,0.24-0.77,0.71v0.28
			c0,0.14-0.08,0.21-0.24,0.21h-1.26v1.27H158.29z"/>
		<path class="st2" d="M158.54,279.92c0.38,0,0.74-0.07,1.08-0.22c0.34-0.15,0.64-0.34,0.89-0.58c0.26-0.25,0.46-0.54,0.61-0.87
			c0.05-0.14,0.1-0.27,0.14-0.41h0.6c0.15,0,0.23,0.08,0.23,0.23v2.77c0,0.48,0.23,0.72,0.69,0.72c0.46,0,0.69-0.24,0.69-0.72v-5.94
			c0-0.47-0.23-0.71-0.69-0.71c-0.46,0-0.69,0.24-0.69,0.71v1.42c0,0.16-0.08,0.24-0.24,0.24h-0.59c-0.03-0.14-0.08-0.28-0.14-0.42
			c-0.15-0.33-0.35-0.62-0.61-0.87c-0.26-0.25-0.55-0.44-0.89-0.59c-0.34-0.14-0.7-0.21-1.08-0.21c-0.39,0-0.76,0.07-1.09,0.21
			c-0.11,0.05-0.2,0.1-0.3,0.16v2.28c0.01-0.38,0.15-0.71,0.41-0.99c0.27-0.29,0.6-0.44,0.99-0.44c0.38,0,0.7,0.15,0.98,0.44
			c0.28,0.29,0.42,0.64,0.42,1.05c0,0.41-0.14,0.77-0.42,1.06c-0.28,0.29-0.61,0.44-0.98,0.44c-0.38,0-0.71-0.15-0.99-0.44
			c-0.26-0.28-0.39-0.62-0.41-1v2.3c0.1,0.06,0.19,0.11,0.3,0.16C157.78,279.85,158.15,279.92,158.54,279.92z"/>
		<path class="st2" d="M157.14,160.7c0.1,0.16,0.27,0.26,0.54,0.26h8.15c0.43,0,0.64-0.22,0.64-0.65c0-0.43-0.21-0.64-0.64-0.64
			h-3.01c-0.21,0-0.32-0.11-0.32-0.32v-0.98c0-0.5-0.25-0.74-0.74-0.74c-0.5,0-0.76,0.25-0.76,0.74v0.98c0,0.21-0.1,0.32-0.3,0.32
			h-2.82l-0.74,0.6V160.7z"/>
		<path class="st2" d="M161.88,156.39v0.19c0,0.19,0.07,0.35,0.21,0.5c0.14,0.14,0.31,0.21,0.5,0.21h2.64
			c0.44,0,0.65-0.21,0.65-0.63c0-0.43-0.22-0.64-0.65-0.64h-1.62c-0.21,0-0.32-0.11-0.32-0.32v-0.46L161.88,156.39z"/>
		<path class="st2" d="M161.47,156.72l-0.7,0.57h0.05C161.24,157.29,161.45,157.1,161.47,156.72z"/>
		<path class="st2" d="M166.2,236.72h-0.47c-0.22,0-0.34-0.11-0.34-0.34v-2.67c0-0.53-0.26-0.8-0.79-0.8s-0.79,0.27-0.79,0.8v9.27
			c0,0.53,0.26,0.79,0.79,0.79s0.79-0.26,0.79-0.79v-4.47c0-0.22,0.11-0.32,0.34-0.32h0.47c0.49,0,0.74-0.25,0.74-0.74
			C166.94,236.96,166.69,236.72,166.2,236.72z"/>
		<path class="st2" d="M171.49,295.04l1.82-4.6l1.83,4.6c0.19,0.43,0.5,0.55,0.94,0.36c0.45-0.19,0.58-0.5,0.4-0.95l-2.31-5.86
			c-0.19-0.41-0.47-0.62-0.85-0.62s-0.65,0.21-0.83,0.62l-2.31,5.86c-0.04,0.09-0.06,0.18-0.07,0.26l1.31,0.48
			C171.43,295.14,171.46,295.1,171.49,295.04z"/>
		<path class="st2" d="M97.07,124.74v5.67c0,0.5,0.25,0.76,0.76,0.76c0.49,0,0.73-0.25,0.73-0.76v-2.26c0-0.2,0.11-0.3,0.32-0.3
			h0.41c0.47,0,0.7-0.24,0.7-0.72c0,0,0-0.01,0-0.01l-0.84-0.69h-0.26c-0.21,0-0.32-0.11-0.32-0.32v-0.16L97.07,124.74z"/>
		<path class="st2" d="M123.81,293.84c-0.49,0-0.73,0.25-0.73,0.76v1.74l1.47-0.53v-1.21C124.54,294.1,124.3,293.84,123.81,293.84z"
			/>
		<path class="st2" d="M178.83,297.1v-4.41c0-0.21,0.11-0.32,0.32-0.32h0.7c0.47,0,0.71-0.24,0.71-0.71c0-0.48-0.24-0.72-0.71-0.72
			h-0.7c-0.21,0-0.32-0.1-0.32-0.3v-2.27c0-0.5-0.24-0.76-0.73-0.76c-0.5,0-0.74,0.25-0.74,0.76v8.73c0,0.1,0.02,0.19,0.04,0.27
			l1.08,0.39C178.7,297.66,178.83,297.44,178.83,297.1z"/>
		<path class="st2" d="M111.02,300.19c-0.26-0.24-0.55-0.43-0.89-0.57c-0.34-0.14-0.7-0.21-1.07-0.21c-0.38,0-0.74,0.07-1.08,0.21
			c-0.34,0.14-0.64,0.33-0.89,0.57c-0.25,0.23-0.45,0.51-0.6,0.82c-0.15,0.31-0.23,0.65-0.23,1.01c0,0.14,0.02,0.28,0.05,0.42
			l1.37-0.5c0.02-0.35,0.15-0.65,0.4-0.91c0.27-0.27,0.6-0.41,0.98-0.41c0.38,0,0.7,0.14,0.97,0.41c0.01,0.01,0.02,0.03,0.03,0.04
			l1.31-0.48C111.27,300.45,111.15,300.32,111.02,300.19z"/>
		<path class="st2" d="M166.88,265.04c0-0.46-0.24-0.69-0.71-0.69h-0.43c-0.21,0-0.32-0.11-0.32-0.32v-2.73
			c0-0.5-0.24-0.76-0.73-0.76c-0.5,0-0.76,0.25-0.76,0.76v8.74c0,0.49,0.25,0.73,0.76,0.73c0.49,0,0.73-0.24,0.73-0.73v-4.01
			c0-0.2,0.11-0.3,0.32-0.3h0.43C166.64,265.72,166.88,265.5,166.88,265.04z"/>
		<path class="st2" d="M125.69,263.11c0.52,0,0.78-0.26,0.78-0.79v-2.56c0-0.22-0.08-0.4-0.23-0.56c-0.16-0.16-0.34-0.23-0.55-0.23
			h-2.58v-0.72c0-0.22,0.11-0.34,0.34-0.34h3.15c0.45,0,0.68-0.22,0.68-0.67c0-0.47-0.23-0.71-0.68-0.71h-8.55
			c-0.45,0-0.67,0.24-0.67,0.71c0,0.45,0.22,0.67,0.67,0.67h3.17c0.22,0,0.32,0.11,0.32,0.34v0.72h-2.8c-0.45,0-0.67,0.23-0.67,0.68
			c0,0.45,0.22,0.67,0.67,0.67h5.82c0.22,0,0.32,0.11,0.32,0.34v1.66C124.89,262.85,125.15,263.11,125.69,263.11z"/>
		<path class="st2" d="M206.78,306.93v-1.27h-5.19c-0.15,0-0.23-0.08-0.23-0.23v-0.38c0-0.15,0.08-0.23,0.23-0.23h5.19v-3.32h-6.25
			c-0.44,0-0.65,0.21-0.65,0.64c0,0.42,0.22,0.63,0.65,0.63h5.66c0.14,0,0.21,0.08,0.21,0.23v0.34c0,0.15-0.07,0.23-0.21,0.23h-5.56
			c-0.22,0-0.4,0.07-0.54,0.21c-0.14,0.14-0.21,0.32-0.21,0.54v1.24l3.8,1.38H206.78z"/>
		<path class="st2" d="M120.17,296.64c-0.35-0.14-0.73-0.21-1.13-0.21c-0.39,0-0.76,0.07-1.11,0.21c-0.35,0.14-0.66,0.33-0.93,0.58
			c-0.26,0.25-0.47,0.53-0.61,0.86c-0.11,0.24-0.16,0.5-0.19,0.77l1.71-0.62c0.04-0.05,0.07-0.09,0.11-0.14
			c0.28-0.28,0.62-0.42,1.01-0.42c0.11,0,0.22,0.01,0.32,0.03l1.59-0.58C120.72,296.92,120.47,296.75,120.17,296.64z"/>
		<path class="st2" d="M163.85,257.61c0.33-0.13,0.61-0.32,0.86-0.55c0.25-0.23,0.44-0.49,0.58-0.81s0.21-0.64,0.21-0.98
			c0-0.35-0.07-0.67-0.21-0.98c-0.14-0.3-0.33-0.57-0.58-0.81c-0.25-0.23-0.54-0.41-0.86-0.54c-0.33-0.14-0.68-0.2-1.04-0.2
			c-0.38,0-0.73,0.07-1.05,0.2c-0.33,0.13-0.61,0.32-0.86,0.54c-0.24,0.23-0.43,0.5-0.58,0.81c-0.14,0.3-0.21,0.63-0.21,0.98
			c0,0.34,0.07,0.66,0.21,0.98c0.14,0.31,0.33,0.58,0.58,0.81c0.25,0.23,0.54,0.42,0.86,0.55c0.33,0.14,0.68,0.2,1.05,0.2
			C163.17,257.81,163.52,257.74,163.85,257.61z M161.51,255.27c0-0.36,0.13-0.67,0.38-0.93c0.25-0.26,0.56-0.38,0.92-0.38
			c0.35,0,0.66,0.13,0.91,0.38c0.25,0.26,0.38,0.56,0.38,0.93c0,0.35-0.13,0.66-0.38,0.92c-0.25,0.26-0.55,0.39-0.91,0.39
			c-0.36,0-0.67-0.13-0.92-0.39C161.64,255.93,161.51,255.62,161.51,255.27z"/>
		<path class="st2" d="M165.81,251.99v-4.22c0-0.5-0.25-0.76-0.74-0.76c-0.5,0-0.74,0.25-0.74,0.76v0.81c0,0.21-0.11,0.32-0.32,0.32
			h-0.92c-0.43,0-0.64,0.21-0.64,0.64c0,0.43,0.21,0.64,0.64,0.64H164c0.21,0,0.32,0.11,0.32,0.32v1.47c0,0.5,0.25,0.74,0.74,0.74
			C165.56,252.71,165.81,252.47,165.81,251.99z"/>
		<path class="st2" d="M164.81,223.11c0-0.21,0.11-0.32,0.32-0.32h0.41c0.47,0,0.7-0.23,0.7-0.7c0-0.48-0.23-0.72-0.7-0.72h-0.41
			c-0.21,0-0.32-0.11-0.32-0.32v-1.21c0-0.5-0.24-0.74-0.73-0.74c-0.5,0-0.76,0.25-0.76,0.74v4.4c0,0.5,0.25,0.74,0.76,0.74
			c0.49,0,0.73-0.25,0.73-0.74V223.11z"/>
		<path class="st2" d="M164.81,228.99v-2.77c0-0.18-0.06-0.34-0.19-0.47c-0.13-0.13-0.28-0.2-0.46-0.2h-6.21
			c-0.44,0-0.65,0.22-0.65,0.67c0,0.44,0.22,0.65,0.65,0.65h5.07c0.2,0,0.3,0.11,0.3,0.32v1.8c0,0.5,0.25,0.74,0.76,0.74
			C164.56,229.73,164.81,229.48,164.81,228.99z"/>
		<path class="st2" d="M91.26,257.88l1.98-3.19l1.98,3.19c0.29,0.46,0.65,0.56,1.09,0.3c0.4-0.24,0.45-0.61,0.16-1.1l-2.22-3.52
			h1.53c0.45,0,0.67-0.22,0.67-0.67c0-0.45-0.22-0.67-0.67-0.67h-4.92v1.34h1.39l-1.39,2.19v2.5
			C91,258.18,91.14,258.07,91.26,257.88z"/>
		<path class="st2" d="M163.44,241.34c0-0.45-0.23-0.67-0.7-0.67h-2.12c-0.16,0-0.24-0.08-0.24-0.24v-1.15
			c0.17-0.03,0.33-0.08,0.49-0.14c0.38-0.14,0.72-0.36,1.01-0.63c0.29-0.28,0.51-0.6,0.68-0.97c0.16-0.37,0.25-0.76,0.25-1.19
			c0-0.42-0.08-0.81-0.25-1.17c-0.16-0.37-0.39-0.69-0.68-0.97c-0.29-0.29-0.62-0.51-1.01-0.67c-0.39-0.16-0.8-0.24-1.24-0.24
			c-0.43,0-0.84,0.08-1.23,0.24c-0.39,0.16-0.72,0.38-1.01,0.67c-0.09,0.09-0.17,0.19-0.25,0.29v3.72c0.08,0.1,0.15,0.2,0.25,0.29
			c0.29,0.28,0.63,0.49,1.02,0.63c0.15,0.06,0.31,0.11,0.47,0.14v1.15c0,0.16-0.08,0.24-0.24,0.24h-1.49v1.37h5.6
			C163.21,242.04,163.44,241.8,163.44,241.34z M159.63,238.01c-0.21,0-0.41-0.04-0.61-0.13c-0.2-0.08-0.38-0.21-0.53-0.37
			c-0.15-0.14-0.27-0.32-0.37-0.53c-0.09-0.21-0.14-0.42-0.14-0.65c0-0.22,0.05-0.43,0.14-0.63c0.09-0.21,0.21-0.39,0.37-0.54
			c0.15-0.15,0.33-0.27,0.53-0.35c0.2-0.08,0.4-0.13,0.61-0.13c0.22,0,0.42,0.04,0.62,0.13c0.2,0.08,0.38,0.2,0.53,0.35
			c0.15,0.15,0.28,0.33,0.37,0.54c0.1,0.21,0.14,0.42,0.14,0.63c0,0.22-0.05,0.44-0.14,0.65c-0.1,0.21-0.22,0.38-0.37,0.53
			c-0.15,0.16-0.33,0.28-0.53,0.37C160.05,237.97,159.85,238.01,159.63,238.01z"/>
		<path class="st2" d="M158.06,251.98l1.78-2.88l1.8,2.88c0.29,0.44,0.66,0.54,1.09,0.28c0.38-0.26,0.41-0.62,0.11-1.08l-2.19-3.42
			c-0.2-0.34-0.48-0.51-0.82-0.51c-0.33,0-0.6,0.17-0.81,0.51l-1.88,2.96v1.61C157.5,252.47,157.8,252.36,158.06,251.98z"/>
		<path class="st2" d="M158.45,185c-0.14,0.14-0.21,0.32-0.21,0.52v2.73c0,0.2,0.07,0.37,0.21,0.51c0.14,0.15,0.32,0.22,0.52,0.22h6
			c0.2,0,0.37-0.07,0.51-0.22c0.15-0.15,0.22-0.32,0.22-0.51v-2.73c0-0.2-0.07-0.38-0.22-0.52c-0.15-0.14-0.32-0.21-0.51-0.21h-6
			C158.77,184.78,158.59,184.86,158.45,185z M159.7,186.17c0-0.12,0.06-0.18,0.19-0.18h4.14c0.13,0,0.19,0.06,0.19,0.18v1.39
			c0,0.12-0.06,0.18-0.19,0.18h-4.14c-0.13,0-0.19-0.06-0.19-0.18V186.17z"/>
		<path class="st2" d="M94.47,243.45c0.53,0,0.79-0.26,0.79-0.79v-4.04c0-0.21-0.08-0.39-0.23-0.55c-0.16-0.16-0.34-0.24-0.56-0.24
			h-3.62v1.38h2.5c0.22,0,0.34,0.11,0.34,0.32v3.13C93.69,243.19,93.95,243.45,94.47,243.45z"/>
		<path class="st2" d="M165.65,280.95v-6.13c0-0.49-0.24-0.73-0.71-0.73c-0.47,0-0.7,0.24-0.7,0.73v6.13c0,0.48,0.23,0.72,0.7,0.72
			C165.42,281.67,165.65,281.43,165.65,280.95z"/>
		<path class="st2" d="M165.49,205.58c-0.47,0-0.71,0.24-0.71,0.71v8.82c0,0.47,0.24,0.7,0.71,0.7c0.47,0,0.71-0.23,0.71-0.7v-8.82
			C166.2,205.81,165.97,205.58,165.49,205.58z"/>
		<path class="st2" d="M162.94,269.14c0.43,0,0.64-0.22,0.64-0.65c0-0.42-0.21-0.63-0.64-0.63h-2.44c-0.2,0-0.31-0.11-0.32-0.32
			v-2.5c0-0.47-0.24-0.71-0.72-0.71c-0.47,0-0.71,0.24-0.71,0.71v2.5c0,0.21-0.11,0.32-0.32,0.32h-1.18c-0.04,0-0.08,0.01-0.11,0.02
			v1.25c0.04,0,0.07,0.02,0.11,0.02H162.94z"/>
		<path class="st2" d="M164.4,164.98c-0.5,0-0.74,0.25-0.74,0.76v8.73c0,0.5,0.25,0.74,0.74,0.74c0.5,0,0.74-0.25,0.74-0.74v-8.73
			C165.15,165.24,164.9,164.98,164.4,164.98z"/>
		<path class="st2" d="M164.96,178.51c-0.5,0-0.74,0.25-0.74,0.76v4.21c0,0.49,0.25,0.73,0.74,0.73c0.5,0,0.74-0.24,0.74-0.73v-4.21
			C165.7,178.77,165.45,178.51,164.96,178.51z"/>
		<polygon class="st2" points="206.78,307.72 205.85,307.72 206.78,308.06 		"/>
		<path class="st2" d="M136.67,197.08c0,0.46,0.23,0.7,0.68,0.7h0.98c0.22,0,0.34,0.11,0.34,0.34v1.67c0,0.53,0.26,0.79,0.79,0.79
			s0.79-0.26,0.79-0.77v-4.68c0-0.53-0.26-0.8-0.79-0.8s-0.79,0.27-0.79,0.8v0.95c0,0.22-0.11,0.32-0.34,0.32h-0.98
			C136.9,196.39,136.67,196.62,136.67,197.08z"/>
		<path class="st2" d="M133.13,213.21c0.27,0.35,0.64,0.37,1.1,0.05l3.07-2.3l3.06,2.3c0.05,0.03,0.09,0.05,0.14,0.07v-1.7l-1.8-1.3
			h1.8v-1.33h-6.73c-0.45,0-0.68,0.22-0.68,0.67c0,0.44,0.23,0.66,0.7,0.66h2.12l-2.53,1.82
			C132.92,212.49,132.84,212.84,133.13,213.21z"/>
		<path class="st2" d="M132.2,201.86c0,0.46,0.23,0.7,0.69,0.7h5.44c0.22,0,0.34,0.11,0.34,0.34v1.91c0,0.53,0.26,0.79,0.79,0.8
			c0.53-0.01,0.79-0.28,0.79-0.8v-2.84c0-0.22-0.08-0.4-0.24-0.56c-0.16-0.16-0.34-0.24-0.55-0.24h-6.57
			C132.43,201.16,132.2,201.39,132.2,201.86z"/>
		<path class="st2" d="M140.49,237.65c-0.13-0.13-0.32-0.2-0.58-0.2c-0.54,0-0.8,0.27-0.8,0.8v9.29c0,0.52,0.27,0.78,0.8,0.78
			c0.26,0,0.45-0.06,0.58-0.19V237.65z"/>
		<path class="st2" d="M138.74,179.94c-0.53,0-0.79,0.27-0.79,0.8v9.27c0,0.53,0.26,0.79,0.79,0.79s0.79-0.26,0.79-0.79v-4.47
			c0-0.22,0.11-0.32,0.34-0.32h0.47c0.06,0,0.1-0.02,0.16-0.02v-1.43c-0.05-0.01-0.1-0.02-0.16-0.02h-0.47
			c-0.22,0-0.34-0.11-0.34-0.34v-2.67C139.53,180.21,139.27,179.94,138.74,179.94z"/>
		<path class="st2" d="M135.36,175.05v-1.35c0-0.53-0.26-0.79-0.79-0.79c-0.53,0-0.79,0.26-0.79,0.79v2.12
			c0,0.22,0.08,0.4,0.23,0.56c0.16,0.16,0.34,0.23,0.56,0.23h5.92v-1.37h-4.94C135.42,175.24,135.36,175.18,135.36,175.05z"/>
		<path class="st2" d="M132.34,214.82c0,0.47,0.22,0.71,0.67,0.71h3.26c0.16,0,0.24,0.08,0.24,0.24v0.9c0,0.53,0.27,0.79,0.8,0.79
			c0.53,0,0.79-0.26,0.79-0.79v-0.9c0-0.16,0.08-0.24,0.24-0.24h2.15v-1.39h-7.48C132.56,214.13,132.34,214.36,132.34,214.82z"/>
		<path class="st2" d="M131.57,232.2h6.03c0.46,0,0.7-0.23,0.7-0.7c0-0.45-0.23-0.67-0.7-0.67h-2.12c-0.16,0-0.24-0.08-0.24-0.24
			v-1.15c0.17-0.03,0.33-0.08,0.49-0.14c0.38-0.14,0.72-0.36,1.01-0.63c0.29-0.28,0.51-0.6,0.68-0.97c0.16-0.37,0.25-0.76,0.25-1.19
			c0-0.42-0.08-0.81-0.25-1.17c-0.16-0.37-0.39-0.69-0.68-0.97c-0.29-0.29-0.62-0.51-1.01-0.67c-0.39-0.16-0.8-0.24-1.24-0.24
			c-0.43,0-0.84,0.08-1.23,0.24c-0.39,0.16-0.72,0.38-1.01,0.67c-0.29,0.28-0.51,0.6-0.67,0.97s-0.24,0.76-0.24,1.17
			c0,0.42,0.08,0.82,0.24,1.19c0.16,0.37,0.38,0.69,0.67,0.97c0.29,0.28,0.63,0.49,1.02,0.63c0.15,0.06,0.31,0.11,0.47,0.14v1.15
			c0,0.16-0.08,0.24-0.24,0.24h-1.92c-0.45,0-0.68,0.23-0.68,0.68C130.88,231.97,131.11,232.2,131.57,232.2z M133.34,227.68
			c-0.15-0.14-0.27-0.32-0.37-0.53c-0.09-0.21-0.14-0.42-0.14-0.65c0-0.22,0.05-0.43,0.14-0.63c0.09-0.21,0.21-0.39,0.37-0.54
			c0.15-0.15,0.33-0.27,0.53-0.35c0.2-0.08,0.4-0.13,0.61-0.13c0.22,0,0.42,0.04,0.62,0.13c0.2,0.08,0.38,0.2,0.53,0.35
			c0.15,0.15,0.28,0.33,0.37,0.54c0.1,0.21,0.14,0.42,0.14,0.63c0,0.22-0.05,0.44-0.14,0.65c-0.1,0.21-0.22,0.38-0.37,0.53
			c-0.15,0.16-0.33,0.28-0.53,0.37c-0.2,0.08-0.41,0.13-0.62,0.13c-0.21,0-0.41-0.04-0.61-0.13
			C133.67,227.96,133.49,227.84,133.34,227.68z"/>
		<path class="st2" d="M131.36,152.79v4.06c0,0.21,0.08,0.39,0.23,0.55c0.16,0.16,0.34,0.24,0.56,0.24h4.53
			c0.19,0,0.34-0.05,0.45-0.14l-1.46-1.19h-2.39c-0.22,0-0.34-0.11-0.34-0.34v-1.89L131.36,152.79z"/>
		<path class="st2" d="M139.89,160.87h-5.58c-0.13,0-0.19-0.06-0.19-0.19v-1.35c0-0.53-0.26-0.79-0.79-0.79
			c-0.53,0-0.79,0.26-0.79,0.79v2.12c0,0.22,0.08,0.4,0.23,0.56c0.16,0.16,0.34,0.23,0.56,0.23h6.57c0.31,0,0.5-0.11,0.6-0.31v-0.75
			C140.39,160.97,140.19,160.87,139.89,160.87z"/>
		<path class="st2" d="M140.49,277.03v-10.79c-0.35,0.08-0.54,0.33-0.54,0.77v9.29C139.95,276.72,140.14,276.96,140.49,277.03z"/>
		<path class="st2" d="M140.13,166.37v6.17c0,0.35,0.13,0.58,0.36,0.69v-7.57C140.26,165.78,140.13,166.01,140.13,166.37z"/>
		<path class="st2" d="M131.84,257.46h8.61c0.02,0,0.03-0.01,0.04-0.01v-1.27c-0.02,0-0.03-0.01-0.04-0.01h-8.61
			c-0.43,0-0.65,0.21-0.65,0.64C131.19,257.24,131.4,257.46,131.84,257.46z"/>
		<path class="st2" d="M139.45,223.07c-0.53,0-0.79,0.27-0.79,0.8v9.27c0,0.53,0.26,0.79,0.79,0.79c0.53,0,0.79-0.26,0.79-0.79
			v-4.47c0-0.18,0.09-0.29,0.25-0.31v-1.5c-0.16-0.03-0.25-0.13-0.25-0.32v-2.67C140.24,223.34,139.98,223.07,139.45,223.07z"/>
		<path class="st2" d="M130.85,200.34c0.46,0.31,0.85,0.21,1.15-0.3l1.93-3.41l1.94,3.41c0.3,0.51,0.68,0.61,1.15,0.3
			c0.38-0.27,0.41-0.65,0.11-1.14l-2.35-4.11c-0.21-0.35-0.49-0.53-0.86-0.53c-0.35,0-0.63,0.18-0.84,0.53l-2.35,4.11
			C130.42,199.72,130.46,200.1,130.85,200.34z"/>
		<path class="st2" d="M138.89,273.64c0-0.45-0.23-0.68-0.68-0.68h-3.86c-0.22,0-0.34-0.11-0.34-0.34v-5.44
			c0-0.53-0.26-0.79-0.79-0.79s-0.79,0.26-0.79,0.79v6.35c0,0.22,0.08,0.4,0.23,0.56c0.16,0.16,0.34,0.23,0.56,0.23h4.98
			C138.66,274.33,138.89,274.1,138.89,273.64z"/>
		<path class="st2" d="M90.93,223.26c-0.03,0-0.04,0.01-0.07,0.01V229c0.02,0,0.04,0.01,0.07,0.01h4.21c0.21,0,0.39-0.08,0.55-0.23
			c0.16-0.15,0.23-0.34,0.23-0.55v-4.21c0-0.51-0.26-0.77-0.78-0.77c-0.52,0-0.78,0.26-0.78,0.77v0.69c0,0.22-0.11,0.34-0.34,0.34
			h-1.98c-0.22,0-0.34-0.11-0.34-0.34v-0.69C91.7,223.52,91.44,223.26,90.93,223.26z M92.04,226.32h1.98c0.22,0,0.34,0.11,0.34,0.34
			v0.72c0,0.23-0.11,0.35-0.34,0.35h-1.98c-0.22,0-0.34-0.12-0.34-0.35v-0.72C91.7,226.43,91.82,226.32,92.04,226.32z"/>
		<path class="st2" d="M137.06,283.61c-0.24-0.23-0.52-0.41-0.85-0.54c-0.33-0.12-0.68-0.19-1.04-0.19
			c-0.38,0.01-0.73,0.07-1.05,0.19c-0.33,0.12-0.61,0.3-0.84,0.53c-0.25,0.23-0.44,0.5-0.58,0.81c-0.13,0.31-0.2,0.64-0.2,1
			c0,0.35,0.07,0.69,0.2,1c0.14,0.32,0.33,0.59,0.58,0.82c0.23,0.24,0.51,0.42,0.85,0.54c0.33,0.12,0.68,0.18,1.05,0.18
			s0.72-0.06,1.04-0.18c0.33-0.12,0.61-0.3,0.85-0.54c0.25-0.23,0.44-0.51,0.58-0.82c0.13-0.32,0.2-0.65,0.2-1
			c0-0.36-0.07-0.7-0.2-1C137.5,284.11,137.31,283.84,137.06,283.61z M136.07,286.36c-0.26,0.24-0.56,0.36-0.9,0.36
			c-0.34,0-0.64-0.12-0.89-0.36c-0.26-0.24-0.38-0.55-0.38-0.94c0-0.39,0.13-0.7,0.38-0.94s0.55-0.36,0.89-0.36
			c0.34,0,0.64,0.12,0.9,0.36s0.4,0.55,0.4,0.94C136.47,285.8,136.33,286.12,136.07,286.36z"/>
		<path class="st2" d="M140.4,262.32c0-0.4-0.2-0.6-0.61-0.6h-6.04c-0.12,0-0.18-0.06-0.18-0.18v-0.26c0-0.12,0.06-0.18,0.18-0.18h6
			c0.35,0,0.53-0.18,0.53-0.55c0-0.38-0.18-0.56-0.53-0.56h-6c-0.12,0-0.18-0.06-0.18-0.17v-0.26c0-0.12,0.06-0.18,0.18-0.18h5.95
			c0.38,0,0.57-0.2,0.57-0.61c0-0.4-0.19-0.6-0.57-0.6h-6.91c-0.21,0-0.39,0.08-0.55,0.24c-0.16,0.16-0.24,0.34-0.24,0.55v3.2
			c0,0.21,0.08,0.39,0.24,0.55c0.16,0.16,0.34,0.24,0.55,0.24h7C140.2,262.94,140.4,262.74,140.4,262.32z"/>
		<path class="st2" d="M137.24,281.18h-1.13c-0.09,0-0.14-0.04-0.14-0.12v-0.23c0-0.54-0.27-0.81-0.8-0.81
			c-0.53,0-0.8,0.27-0.8,0.81v0.23c0,0.08-0.05,0.12-0.14,0.12h-1.38c-0.44,0-0.65,0.22-0.65,0.65c0,0.43,0.22,0.64,0.65,0.64h4.38
			c0.43,0,0.64-0.21,0.64-0.64C137.89,281.4,137.67,281.18,137.24,281.18z"/>
		<path class="st2" d="M98.71,259.59c0.53,0,0.79-0.27,0.79-0.8v-6.16c0-0.53-0.26-0.8-0.79-0.8c-0.53,0-0.79,0.27-0.79,0.8v1.25
			c0,0.22-0.11,0.32-0.34,0.32h-0.86c-0.45,0-0.68,0.23-0.68,0.69c0,0.46,0.23,0.68,0.68,0.68h0.86c0.22,0,0.34,0.11,0.34,0.34v2.88
			C97.92,259.32,98.19,259.59,98.71,259.59z"/>
		<path class="st2" d="M137.04,244.25c0.53,0,0.79-0.26,0.79-0.78v-4.74c0-0.22-0.08-0.4-0.23-0.55c-0.16-0.15-0.34-0.23-0.56-0.23
			h-4.59c-0.46,0-0.68,0.23-0.68,0.68c0,0.45,0.23,0.67,0.68,0.67h3.47c0.22,0,0.34,0.11,0.34,0.32v3.85
			C136.26,243.99,136.52,244.25,137.04,244.25z"/>
		<path class="st2" d="M138.74,245.88c0-0.45-0.23-0.67-0.68-0.67h-2.59c-0.22,0-0.33-0.11-0.34-0.34v-2.66
			c0-0.5-0.26-0.75-0.77-0.75c-0.5,0-0.75,0.25-0.75,0.75v2.66c0,0.22-0.11,0.34-0.34,0.34h-1.26c-0.45,0-0.68,0.23-0.68,0.68
			c0,0.45,0.23,0.68,0.68,0.68h6.04C138.51,246.58,138.74,246.35,138.74,245.88z"/>
		<path class="st2" d="M132.78,187.7h-1.92c-0.45,0-0.68,0.23-0.68,0.68s0.23,0.68,0.68,0.68h6.03c0.46,0,0.7-0.23,0.7-0.69
			c0-0.45-0.23-0.67-0.7-0.67h-2.12c-0.16,0-0.24-0.08-0.24-0.24v-1.15c0.17-0.03,0.33-0.08,0.49-0.14
			c0.38-0.14,0.72-0.36,1.01-0.63c0.29-0.28,0.51-0.6,0.68-0.97c0.16-0.37,0.25-0.76,0.25-1.19c0-0.42-0.08-0.81-0.25-1.17
			c-0.16-0.37-0.39-0.69-0.68-0.97c-0.29-0.29-0.62-0.51-1.01-0.67c-0.39-0.16-0.8-0.24-1.24-0.24c-0.43,0-0.84,0.08-1.23,0.24
			c-0.39,0.16-0.72,0.38-1.01,0.67c-0.29,0.28-0.51,0.6-0.67,0.97c-0.16,0.37-0.24,0.76-0.24,1.17c0,0.42,0.08,0.82,0.24,1.19
			c0.16,0.37,0.38,0.69,0.67,0.97c0.29,0.28,0.63,0.49,1.02,0.63c0.15,0.06,0.31,0.11,0.47,0.14v1.15
			C133.02,187.62,132.94,187.7,132.78,187.7z M132.63,184.55c-0.15-0.14-0.27-0.32-0.37-0.53c-0.09-0.21-0.14-0.42-0.14-0.65
			c0-0.22,0.05-0.43,0.14-0.63c0.09-0.21,0.21-0.39,0.37-0.54c0.15-0.15,0.33-0.27,0.53-0.35c0.2-0.08,0.4-0.13,0.61-0.13
			c0.22,0,0.42,0.04,0.62,0.13c0.2,0.08,0.38,0.2,0.53,0.35c0.15,0.15,0.28,0.33,0.37,0.54c0.1,0.21,0.14,0.42,0.14,0.63
			c0,0.22-0.05,0.44-0.14,0.65c-0.1,0.21-0.22,0.38-0.37,0.53c-0.15,0.16-0.33,0.28-0.53,0.37c-0.2,0.08-0.41,0.13-0.62,0.13
			c-0.21,0-0.41-0.04-0.61-0.13C132.96,184.83,132.79,184.71,132.63,184.55z"/>
		<path class="st2" d="M134.84,255.82c0.51,0,0.77-0.26,0.77-0.78V253c0-0.21-0.08-0.39-0.24-0.55c-0.16-0.16-0.34-0.24-0.55-0.24
			h-2.72c-0.43,0-0.65,0.21-0.65,0.64c0,0.42,0.22,0.63,0.65,0.63h1.64c0.22,0,0.32,0.11,0.32,0.34v1.22
			C134.06,255.56,134.32,255.82,134.84,255.82z"/>
		<path class="st2" d="M133.95,216.35c-0.53,0-0.79,0.26-0.79,0.79v1.81c0,0.22,0.08,0.4,0.24,0.56c0.16,0.16,0.34,0.23,0.55,0.23
			h6.55v-1.35h-5.55c-0.13,0-0.19-0.06-0.19-0.19v-1.05C134.75,216.61,134.48,216.35,133.95,216.35z"/>
		<path class="st2" d="M139.62,255.82c0.52,0,0.78-0.26,0.78-0.79V253c0-0.21-0.08-0.39-0.24-0.55c-0.16-0.16-0.34-0.24-0.55-0.24
			h-2.82c-0.43,0-0.65,0.21-0.65,0.64c0,0.42,0.22,0.63,0.65,0.63h1.71c0.22,0,0.32,0.11,0.32,0.34v1.21
			C138.83,255.55,139.1,255.82,139.62,255.82z"/>
		<path class="st2" d="M132.39,171.91c0.43,0.26,0.79,0.16,1.08-0.3l1.98-3.19l1.98,3.19c0.29,0.46,0.65,0.56,1.09,0.3
			c0.4-0.24,0.45-0.61,0.16-1.1l-2.22-3.52h1.53c0.45,0,0.67-0.22,0.67-0.67c0-0.45-0.22-0.67-0.67-0.67h-5.09
			c-0.45,0-0.67,0.22-0.67,0.67c0,0.45,0.22,0.67,0.67,0.67h1.56l-2.23,3.52C131.93,171.31,131.98,171.67,132.39,171.91z"/>
	</g>
</g>
</svg>
