<svg version="1.1" id="Layer_1" xmlns="http://www.w3.org/2000/svg" xmlns:xlink="http://www.w3.org/1999/xlink" x="0px" y="0px" viewBox="0 0 297.64 420.95" style="enable-background:new 0 0 297.64 420.95;" xml:space="preserve">
<style type="text/css">
	.st0{fill:#fefefe;}
	.st1{fill:#232323;}
	.st2{fill:#8F00FF;}
	.st3{fill:#F7D100;}
</style>
<g id="Layer_1_00000165935861614335026940000006003583060880438151_">
	<rect class="st0" width="297.64" height="420.94"></rect>
</g>
<g id="Layer_2_00000036953115380894100470000008867854515687905169_">
	<path class="st0" d="M0,0v420.95h297.64V0H0z M257,148.84c0,0.6-0.03,1.19-0.07,1.79l-0.06,0.86c-0.06,0.84-0.15,1.68-0.29,2.52
		l-0.23,1.45c-0.1,0.61-0.22,1.22-0.35,1.83l-0.25,1.09c-0.09,0.39-0.19,0.78-0.29,1.17l-0.32,1.16c-0.1,0.36-0.21,0.73-0.32,1.09
		l-0.8,2.54c-0.14,0.43-0.28,0.85-0.44,1.27l-1.21,3.29c-0.09,0.25-0.19,0.5-0.29,0.74l-2.56,6.51l-0.3,1.51l-0.28,1.91l-0.13,1.27
		l-0.39,5.53c-0.02,0.34-0.05,0.69-0.09,1.03l-0.21,1.97c-0.02,0.23-0.05,0.46-0.08,0.69l-0.19,1.44c-0.04,0.31-0.09,0.62-0.14,0.92
		l-0.29,1.77c-0.07,0.41-0.15,0.83-0.23,1.24l-0.24,1.14c-0.11,0.52-0.23,1.03-0.37,1.54l-0.26,0.95c-0.24,0.9-0.53,1.78-0.86,2.65
		l-0.29,0.77c-0.3,0.79-0.63,1.56-1,2.32l-0.21,0.43c-0.44,0.9-0.92,1.78-1.46,2.64l-0.23,0.38c-0.46,0.73-0.94,1.44-1.46,2.12
		l-0.26,0.34c-0.9,1.19-1.9,2.31-2.99,3.35l-0.46,0.44c-1.01,0.96-2.09,1.85-3.23,2.66l-0.56,0.4c-0.84,0.6-1.72,1.15-2.62,1.65
		l-0.45,0.25c-0.99,0.55-2.02,1.04-3.07,1.47l-1.09,0.44c-0.86,0.35-1.73,0.65-2.62,0.92l-1.28,7.19c-0.05,0.27-0.1,0.54-0.15,0.81
		l-0.14,0.66c-0.15,0.71-0.32,1.42-0.53,2.12l-0.16,0.56c-0.26,0.89-0.56,1.76-0.9,2.62l-1.59,3.98c-0.04,0.09-0.07,0.18-0.11,0.27
		l-1.3,3.16c-0.08,0.21-0.17,0.41-0.26,0.62l-1.04,2.38c-0.1,0.24-0.21,0.47-0.32,0.71l-1.17,2.48c-0.11,0.24-0.23,0.48-0.35,0.71
		l-1.29,2.55c-0.13,0.26-0.27,0.53-0.42,0.79l-1.69,3.09c-0.1,0.18-0.2,0.37-0.31,0.55l-2.61,4.53c-0.1,0.17-0.2,0.34-0.3,0.51
		l-0.72,1.19c-0.16,0.26-0.32,0.52-0.49,0.78l-0.87,1.65l-3.82,7.51l-0.98,2.11l-1.02,2.5l-0.4,1.26l-0.26,1.17
		c-0.17,0.76-0.37,1.52-0.61,2.26l-0.89,2.84c-0.25,0.8-0.54,1.6-0.86,2.38l-0.49,1.19v1.73c-0.01,3.43-0.64,6.84-1.86,10.05
		l-0.49,1.28c-0.99,2.6-2.36,5.04-4.05,7.22l-0.11,0.22c-0.36,0.7-0.74,1.38-1.15,2.04l-0.36,0.59c-0.16,0.25-0.32,0.5-0.48,0.74
		l-3.73,5.61c-0.08,0.11-0.15,0.22-0.23,0.34l-3.16,4.59c-0.1,0.14-0.2,0.29-0.3,0.43l-4.01,5.61c-0.1,0.14-0.2,0.28-0.31,0.42
		l-3.45,4.64c-0.14,0.19-0.28,0.38-0.43,0.56l-2.49,3.19c-0.32,0.41-0.66,0.81-1,1.21l-1.46,1.66c-0.36,0.41-0.73,0.81-1.12,1.2
		l-1.09,1.1c-0.29,0.3-0.59,0.59-0.9,0.88l-1.5,1.4c-0.17,0.16-0.34,0.32-0.52,0.47l-1.54,1.36c-0.21,0.18-0.42,0.36-0.63,0.54
		l-1.25,1.04c-0.33,0.28-0.67,0.54-1.01,0.8l-1,0.76c-0.26,0.2-0.53,0.4-0.8,0.59l-0.83,0.58c-0.41,0.29-0.82,0.56-1.24,0.83
		l-2.19,1.38c-0.28,0.18-0.57,0.35-0.86,0.52l-4.38,2.55c-0.64,0.37-1.29,0.72-1.95,1.03l-0.53,0.25c-1.42,0.68-2.89,1.25-4.41,1.68
		l-0.62,0.18c-1.08,0.31-2.17,0.56-3.28,0.74l-1.09,0.18c-0.77,0.13-1.55,0.22-2.33,0.29l-1.26,0.1c-0.62,0.05-1.24,0.08-1.86,0.09
		l-1.62,0.02c-0.44,0.01-0.87,0-1.31-0.01l-1.69-0.05c-0.31-0.01-0.62-0.03-0.93-0.05l-1.97-0.13c-0.33-0.02-0.66-0.05-0.98-0.08
		l-2.03-0.2c-0.26-0.03-0.52-0.06-0.78-0.09l-2.26-0.29c-0.25-0.03-0.49-0.07-0.74-0.1l-1.92-0.3c-0.49-0.08-0.98-0.17-1.47-0.27
		l-1.42-0.3c-0.95-0.2-1.9-0.45-2.83-0.75l-1.43-0.46c-0.47-0.15-0.93-0.31-1.39-0.48l-2.16-0.82c-0.43-0.16-0.86-0.34-1.28-0.52
		l-0.9-0.39c-0.37-0.16-0.74-0.33-1.11-0.51l-0.89-0.43c-0.8-0.39-1.58-0.82-2.34-1.28l-1.08-0.66c-1.16-0.71-2.27-1.5-3.33-2.37
		l-0.74-0.61c-0.95-0.78-1.84-1.63-2.68-2.53l-0.71-0.76c-0.7-0.75-1.36-1.54-1.97-2.36l-0.71-0.95c-0.47-0.63-0.91-1.28-1.33-1.95
		l-0.73-1.17c-0.23-0.37-0.46-0.75-0.67-1.14l-1.03-1.84c-0.17-0.3-0.33-0.61-0.49-0.92l-3.81-7.27l-0.59-0.8l-0.91-1.15l-1.58-1.89
		c-0.35-0.42-0.7-0.85-1.03-1.3l-0.68-0.92c-0.36-0.49-0.71-0.99-1.04-1.5l-1.06-1.64c-0.15-0.22-0.29-0.45-0.43-0.68l-1.24-2.04
		c-0.12-0.19-0.23-0.38-0.34-0.57l-1-1.73c-0.09-0.15-0.18-0.31-0.26-0.46l-1.07-1.93c-0.14-0.24-0.27-0.49-0.39-0.74l-1.02-1.97
		c-0.11-0.21-0.21-0.42-0.32-0.63l-0.9-1.87c-0.09-0.19-0.18-0.39-0.27-0.58l-0.92-2.02c-0.11-0.25-0.22-0.49-0.33-0.74l-0.93-2.2
		c-0.09-0.22-0.19-0.45-0.27-0.67l-0.97-2.48c-0.14-0.35-0.27-0.71-0.39-1.06l-0.97-2.79l-1.75-4.78c-0.14-0.39-0.28-0.79-0.41-1.19
		l-0.41-1.29c-0.13-0.4-0.25-0.81-0.36-1.22l-0.35-1.3c-0.1-0.37-0.19-0.74-0.28-1.12l-0.19-0.85c-0.11-0.47-0.2-0.94-0.28-1.42
		l-0.21-1.24c-0.09-0.54-0.17-1.08-0.23-1.62l-0.13-1.19c-0.07-0.57-0.11-1.15-0.14-1.73l-0.06-1.11c-0.02-0.44-0.04-0.88-0.04-1.32
		l-0.01-1.34c0-0.08,0-0.17,0-0.25c-0.01-0.04-0.02-0.07-0.03-0.11l-0.29-1.08c-0.14-0.53-0.26-1.06-0.37-1.6l-0.28-1.37
		c-0.06-0.3-0.12-0.6-0.17-0.9l-0.22-1.29c-0.05-0.3-0.1-0.59-0.14-0.89l-1.3-9.48l-1.39-9.61c-0.01-0.09-0.03-0.19-0.04-0.29
		l-1.61-11.97L45.86,230l-0.25-1.09l-0.69-2.61l-1.46-5.25c-0.06-0.2-0.11-0.41-0.16-0.62l-0.39-1.52
		c-0.11-0.45-0.22-0.89-0.31-1.34l-0.44-2.19c-0.09-0.44-0.17-0.87-0.23-1.32l-0.41-2.67c-0.04-0.28-0.08-0.56-0.12-0.84l-0.3-2.46
		c-0.05-0.38-0.09-0.76-0.12-1.14l-0.16-1.93c-0.03-0.37-0.05-0.75-0.07-1.12l-0.07-1.73c-0.02-0.45-0.03-0.89-0.03-1.34l0.01-2.01
		c0-0.43,0.01-0.87,0.04-1.3l0.07-1.36c0.03-0.55,0.07-1.1,0.13-1.65l0.14-1.32c0.06-0.56,0.14-1.12,0.23-1.68l0.29-1.7
		c0.05-0.29,0.1-0.57,0.16-0.86l0.45-2.21c0.04-0.22,0.09-0.43,0.14-0.65l0.85-3.74c0.09-0.38,0.18-0.75,0.28-1.13l0.32-1.2
		c0.11-0.41,0.23-0.81,0.36-1.21l0.37-1.15c0.14-0.43,0.29-0.86,0.44-1.29l1.45-3.89c0.06-0.17,0.13-0.35,0.2-0.52l3.23-8.18
		c0.08-0.21,0.17-0.43,0.26-0.64l0.83-1.97c0.15-0.36,0.32-0.72,0.48-1.08l0.77-1.63c0.24-0.5,0.49-1,0.76-1.49l0.96-1.76L53.78,150
		c-0.01-0.37-0.01-0.75,0-1.12l0.04-1.95c0.01-0.61,0.05-1.21,0.1-1.82l0.09-1.01c0.04-0.5,0.1-1,0.17-1.5l0.13-0.91
		c0.1-0.7,0.22-1.4,0.37-2.09l0.18-0.82c0.12-0.57,0.26-1.13,0.42-1.69l0.22-0.76c0.22-0.78,0.48-1.56,0.76-2.32l0.35-0.94
		c0.22-0.57,0.45-1.14,0.71-1.7l0.4-0.88c0.3-0.66,0.63-1.31,0.98-1.94l0.47-0.85c0.27-0.49,0.55-0.96,0.84-1.43l0.56-0.89
		c0.35-0.56,0.73-1.11,1.12-1.65l0.71-0.97c0.26-0.36,0.54-0.71,0.82-1.06l0.64-0.79c0.19-0.24,0.39-0.48,0.59-0.71l0.99-1.15
		c0.18-0.21,0.36-0.41,0.55-0.61l1.1-1.2c0.15-0.17,0.31-0.34,0.47-0.5l2.03-2.11c0.08-0.09,0.16-0.17,0.25-0.25l2.42-2.46
		c0.16-0.17,0.33-0.33,0.5-0.49l1.25-1.2c0.3-0.29,0.6-0.57,0.91-0.84l1.26-1.12c0.45-0.39,0.9-0.77,1.37-1.14l1.28-1
		c0.5-0.39,1.01-0.76,1.53-1.11l1.31-0.89c0.5-0.34,1.01-0.66,1.53-0.96l1.34-0.79c0.42-0.25,0.85-0.48,1.28-0.71l1.69-0.88
		c0.52-0.27,1.04-0.52,1.57-0.76l2.06-0.91c0.65-0.29,1.32-0.56,2-0.8l2.19-0.78c0.5-0.18,1-0.34,1.51-0.49l1.99-0.58
		c0.13-0.04,0.25-0.07,0.38-0.11l5.06-1.41c0.15-0.04,0.3-0.08,0.44-0.12l1.28-0.33c0.37-0.1,0.75-0.19,1.12-0.27l1.14-0.25
		c0.49-0.11,0.97-0.2,1.47-0.28l0.8-0.13c0.62-0.1,1.24-0.18,1.86-0.24l0.75-0.07c0.21-0.02,0.41-0.04,0.62-0.05
		c0.23-0.16,0.45-0.31,0.68-0.46l1.2-0.78c0.66-0.43,1.34-0.83,2.03-1.21l2.14-1.15c0.45-0.24,0.9-0.47,1.36-0.69l2.68-1.27
		c0.3-0.14,0.6-0.28,0.9-0.4l3.15-1.36c0.26-0.11,0.52-0.22,0.78-0.32l2.86-1.13l3.28-1.88c0.04-0.11,0.07-0.21,0.11-0.32l0.51-1.45
		c0.38-1.07,0.83-2.12,1.33-3.13l0.54-1.08c0.54-1.07,1.14-2.11,1.8-3.11l0.32-0.48c0.44-0.66,0.92-1.31,1.41-1.93l0.34-0.43
		c0.81-1.01,1.68-1.96,2.62-2.85l0.38-0.36c1-0.95,2.07-1.83,3.2-2.63l0.41-0.29c1.12-0.79,2.3-1.5,3.52-2.12l0.46-0.23
		c1.67-0.85,3.43-1.52,5.24-2.03l0.76-0.21c1.45-0.4,2.93-0.69,4.42-0.86l0.56-0.06c1.1-0.12,2.21-0.18,3.32-0.18l0.89,0.01
		c0.78,0,1.56,0.04,2.34,0.11l0.62,0.06c0.8,0.07,1.61,0.18,2.4,0.32l0.96,0.17c0.58,0.1,1.16,0.22,1.73,0.36l0.63,0.15
		c0.57,0.14,1.14,0.29,1.7,0.47l0.93,0.28c0.62,0.19,1.23,0.4,1.84,0.63l0.59,0.23c0.46,0.18,0.92,0.37,1.37,0.57l0.86,0.38
		c0.67,0.3,1.33,0.62,1.97,0.97l0.81,0.44c0.51,0.27,1,0.56,1.49,0.87l0.77,0.48c0.39,0.24,0.77,0.5,1.15,0.76l0.74,0.51
		c0.42,0.29,0.84,0.6,1.24,0.91l0.71,0.55c0.32,0.25,0.63,0.5,0.94,0.76l0.71,0.6c0.33,0.28,0.66,0.57,0.98,0.87l0.98,0.91
		c0.35,0.33,0.7,0.67,1.04,1.01l6.33,6.48l1.19,1.09c1.73,1.58,3.27,3.36,4.56,5.32l0.11,0.16c0.4,0.45,0.78,0.91,1.14,1.38
		l0.91,1.17c0.45,0.58,0.88,1.18,1.29,1.79l0.82,1.25c0.16,0.25,0.32,0.49,0.47,0.74l1.39,2.25c0.46,0.74,0.88,1.5,1.27,2.28
		l0.37,0.75c0.24,0.48,0.46,0.96,0.67,1.45l0.37,0.88l0.4,0.64c0.37,0.58,0.71,1.18,1.03,1.79l0.88,1.68
		c0.14,0.26,0.27,0.52,0.4,0.78l3.07,1.25l4.8,1.87c0.44,0.17,0.87,0.35,1.3,0.55l0.89,0.4c0.92,0.41,1.81,0.87,2.68,1.38l1.13,0.66
		c0.82,0.48,1.61,0.99,2.38,1.55l1.25,0.91c0.6,0.43,1.18,0.89,1.75,1.37l1.14,0.97c0.54,0.46,1.07,0.95,1.58,1.45l1.2,1.19
		c0.41,0.4,0.8,0.82,1.19,1.25l0.59,0.66c0.25,0.28,0.5,0.57,0.74,0.86l0.87,1.05c0.25,0.3,0.49,0.61,0.72,0.91l0.56,0.74
		c0.25,0.33,0.49,0.66,0.73,1l0.78,1.13c0.25,0.36,0.49,0.73,0.73,1.11l0.71,1.14c0.25,0.4,0.49,0.81,0.72,1.22l0.42,0.75
		c0.18,0.32,0.35,0.64,0.51,0.97l0.55,1.09c0.31,0.62,0.6,1.25,0.87,1.89l0.3,0.71c0.19,0.47,0.38,0.94,0.55,1.42l0.25,0.7
		c0.26,0.74,0.5,1.49,0.7,2.26l0.19,0.71c0.21,0.78,0.38,1.56,0.51,2.35l0.12,0.71c0.13,0.74,0.23,1.49,0.3,2.24l0.07,0.74
		c0.09,0.93,0.13,1.86,0.12,2.79L257,148.84z"></path>
	<polyline class="st1" points="131.42,333.29 131.94,333.04 136.33,330.49 138.51,329.12 139.34,328.53 140.34,327.77 
		141.59,326.73 143.13,325.37 144.63,323.97 145.72,322.87 147.17,321.21 149.67,318.02 153.12,313.37 157.13,307.76 160.29,303.16 
		164.03,297.56 164.39,296.97 164.58,296.61 164.84,295.78 166.11,292.69 166.22,292.57 166.34,292.51 166.83,292.54 167.2,292.43 
		167.29,292.36 167.78,291.08 167.78,288.18 167.76,287.68 167.7,287.54 167.47,287.39 167.05,287.29 167,287.24 166.95,287.03 
		167.04,286.56 167.55,284.92 168.48,282.3 169.52,279.56 170.44,277.34 171.33,274.5 171.76,272.58 172.27,270.77 172.94,268.77 
		173.63,266.96 174.77,264.27 176.12,261.36 177.92,257.75 180.35,253.04 181.94,250.04 182.57,249.08 183.29,247.89 185.89,243.37 
		187.58,240.28 188.88,237.73 190.04,235.25 191.09,232.87 192.38,229.71 193.97,225.73 194.13,225.17 194.27,224.51 196.02,214.63 
		196.38,212.78 196.75,211.19 197.51,208.38 199.51,201.7 200.18,199.61 200.56,198.68 200.77,198.33 200.99,198.03 201.23,197.77 
		201.52,197.55 202.22,197.19 203.25,196.86 204.17,196.67 205.14,196.54 209.95,196.07 212.05,195.82 214.04,195.47 215.4,195.1 
		216.49,194.65 216.93,194.41 217.5,194.01 217.96,193.57 218.21,193.23 218.45,192.85 218.66,192.42 218.95,191.65 219.21,190.69 
		219.45,189.55 219.75,187.78 219.94,186.34 220.15,184.37 220.57,178.43 220.78,176.27 221.02,174.51 221.29,172.77 221.61,171.09 
		221.95,169.53 222.43,167.7 223.06,165.85 225.78,159.08 226.99,155.79 227.8,153.25 228.11,152.09 228.36,151 228.59,149.54 
		228.65,148.68 228.66,147.88 228.59,147.14 228.46,146.44 228.28,145.73 228.03,145.03 227.73,144.32 227.18,143.23 226.76,142.48 
		226.05,141.33 225.27,140.2 224.71,139.46 223.84,138.41 223.25,137.74 222.06,136.56 220.91,135.58 219.66,134.68 218.53,134.02 
		217.64,133.62 212.65,131.68 208.72,130.08 206.21,129 204.82,128.3 203.7,127.57 201.99,126.33 199.61,124.49 198.05,123.21 
		197.76,122.91 197.48,122.52 195.52,119.32 195.44,119.11 195.27,118.37 195.09,117.79 194.59,116.54 193.7,114.87 192.13,112.36 
		190.89,109.45 190.52,108.71 189.14,106.46 188.31,105.21 187.4,104.05 186.23,102.98 185.94,102.54 185.13,101.11 184.89,100.75 
		183.3,99.3 181.55,97.59 176.08,91.95 175.1,91.03 174.4,90.43 173.68,89.88 172.94,89.37 172.17,88.88 171.36,88.45 170.5,88.06 
		169.91,87.83 168.98,87.55 168.35,87.4 167.39,87.23 166.77,87.17 165.88,87.17 165.32,87.23 164.56,87.44 164.1,87.67 
		163.69,87.97 163.31,88.33 162.97,88.76 162.64,89.24 162.11,90.32 161.59,91.76 160.96,94.22 160.63,95.27 160.28,96.09 
		159.99,96.65 159.24,97.87 158.55,98.83 157.5,100.15 156.39,101.41 155.07,102.8 154.14,103.7 153.16,104.53 152.46,105.04 
		151.5,105.66 144.02,109.94 143.42,110.22 139.06,111.94 135.91,113.3 133.23,114.56 131.09,115.72 129.89,116.5 129.45,116.85 
		128.93,117.31 128.31,118.03 127.17,119.57 126.81,119.98 126.42,120.35 126,120.69 125.55,120.99 124.58,121.46 123.48,121.81 
		122.88,121.91 122.31,121.96 121.47,121.91 118.66,121.56 117.28,121.47 115.82,121.49 115.07,121.56 114.27,121.69 113.13,121.94 
		111.85,122.28 106.79,123.69 104.8,124.27 102.61,125.05 100.55,125.97 98.86,126.85 97.52,127.63 96.2,128.52 94.92,129.52 
		93.66,130.64 92.41,131.84 89.99,134.3 87.96,136.41 86.87,137.61 85.88,138.76 85.24,139.55 84.53,140.52 83.97,141.4 
		83.5,142.25 83.1,143.13 82.75,144.07 82.53,144.83 82.35,145.65 82.22,146.56 82.14,147.57 82.1,149.52 82.21,155.67 
		82.19,159.32 82.07,161.68 81.94,162.61 81.81,163.21 81.49,164.06 81.1,164.84 78.73,168.81 77.75,170.6 76.98,172.23 
		76.15,174.2 72.92,182.38 71.48,186.27 71.11,187.42 70.79,188.62 69.94,192.36 69.49,194.58 69.2,196.28 69.06,197.6 
		68.99,198.96 68.98,200.96 69.06,202.69 69.22,204.62 69.52,207.08 69.93,209.75 70.38,211.95 70.76,213.47 72.27,218.9 
		73.12,222.09 73.6,224.16 74.03,226.42 74.59,230.13 76.23,242.35 77.64,252.06 78.96,261.65 79.18,262.93 79.46,264.3 
		79.74,265.38 80.46,267.71 80.7,268.87 80.76,269.57 80.78,270.21 80.71,272.84 80.72,274.18 80.78,275.29 80.91,276.48 
		81.13,277.72 81.32,278.57 81.67,279.87 82.08,281.16 83.92,286.18 84.98,289.22 85.95,291.71 86.88,293.91 87.8,295.92 
		88.7,297.79 89.71,299.77 90.78,301.7 91.78,303.43 93.03,305.47 94.09,307.11 94.77,308.03 96.63,310.24 98.1,312.11 
		99.43,313.91 100.46,315.48 101.04,316.46 101.83,317.89 105.18,324.42 106.21,326.26 106.93,327.43 107.65,328.38 108.36,329.15 
		109.1,329.76 110.18,330.41 111.06,330.85 111.96,331.24 114.12,332.05 115.55,332.51 116.97,332.81 118.89,333.1 121.15,333.39 
		123.17,333.6 125.14,333.72 126.83,333.78 128.45,333.75 129.71,333.65 130.8,333.47 131.42,333.29 	"></polyline>
</g>
<g>
	<polyline class="st1" points="129.64,330.04 130.34,329.8 130.86,329.57 131.57,329.2 135.9,326.77 137.61,325.23 141.03,322.08 
		142.86,320.23 143.82,319.12 144.89,317.85 147.94,314.03 150.83,310.2 152.1,308.42 153.33,306.62 155.52,303.21 157.61,299.65 
		158.8,297.49 159.36,296.44 159.72,295.59 160.19,294.24 160.31,293.65 160.68,293.12 161.99,290.81 162.17,290.41 162.88,288.46 
		163.18,287.17 163.26,286.55 164.37,281.32 164.54,280.21 164.65,278.98 164.72,278.82 165.3,277.92 165.8,276.92 166.1,276.15 
		166.52,274.82 167.83,267.88 168.77,263.49 169.19,261.85 169.61,260.42 170.04,259.18 170.49,258.06 171.18,256.6 172.2,254.66 
		173.17,253 174.24,251.34 175.09,250.15 175.96,249.06 176.8,248.06 178.9,245.74 179.86,244.56 180.56,243.61 181.26,242.58 
		182.64,240.32 184.11,237.69 185.3,235.29 188.57,227.83 189.41,225.76 190.09,223.67 190.66,221.53 191.32,218.5 192.48,212.56 
		192.91,210.5 193.43,208.48 194.59,204.18 195.25,201.48 195.87,198.43 196.16,196.71 196.56,193.85 196.69,193.21 196.8,192.88 
		196.94,192.64 197.05,192.53 197.26,192.42 197.56,192.37 198.09,192.36 200.86,192.46 203.25,192.39 204.54,192.28 205.81,192.13 
		206.98,191.93 208.31,191.63 208.86,191.47 209.56,191.19 209.95,191 210.47,190.66 210.94,190.27 211.39,189.79 211.86,189.22 
		212.33,188.56 213.14,187.24 213.9,185.71 214.55,184.14 215.15,182.39 215.73,180.37 216.21,178.29 217.95,169.33 218.32,167.66 
		218.64,166.71 219.18,165.27 222.06,157.87 222.62,156.19 223.07,154.47 223.24,153.6 223.43,152.31 223.5,151.48 223.55,150.3 
		223.54,149.22 223.48,148.01 223.37,147.04 223.22,146.24 223.06,145.7 222.84,145.14 222.53,144.53 222.01,143.61 221.34,142.58 
		220.77,141.77 219.72,140.46 219.02,139.74 218.25,139.06 217.68,138.62 216.74,138 214.87,136.94 208.28,133.59 204.9,131.73 
		203.12,130.65 200.2,128.78 196.97,126.66 196.08,126.01 195.82,125.72 195.5,125.27 193.94,122.81 192.69,120.67 190.72,117.16 
		189.41,115.02 188.16,113.14 186.96,111.43 185.69,109.7 185.07,108.97 185.21,107.69 185.17,107.24 184.99,106.82 183.14,105.72 
		178.93,103.51 178.59,103.23 178.3,102.9 177.46,101.63 177.12,101.19 176.82,100.86 176.46,100.55 175.85,100.14 175.09,99.73 
		174.16,99.38 173.37,99.16 172.5,99.04 171.89,99.02 171.26,99.07 170.6,99.17 169.93,99.35 169.25,99.59 168.56,99.88 
		167.54,100.42 166.17,101.27 164.8,102.28 159.65,106.42 157.9,107.77 156.63,108.68 155.1,109.73 153.8,110.53 152.7,111.15 
		151.5,111.75 149.16,112.75 147.21,113.45 145.85,113.83 140.97,115.05 138.43,115.82 137.24,116.24 136.14,116.67 135.13,117.11 
		134.24,117.56 133.19,118.17 132.14,118.93 131.18,119.8 129.59,121.56 128.48,122.62 127.94,123.07 127.35,123.51 126.83,123.83 
		126.26,124.13 125.15,124.54 123.88,124.87 122.51,125.12 119.16,125.62 118.15,125.85 116.98,126.16 114.7,126.88 111.7,127.91 
		107.5,129.4 104.18,130.65 99.75,132.4 98.95,132.77 98.13,133.21 97.24,133.79 96.29,134.51 95.04,135.55 93.72,136.74 
		92.73,137.68 92.27,138.17 91.86,138.82 90.99,140.37 89.83,142.55 89,144.27 88.28,146.04 87.85,147.37 87.55,148.69 87.3,150.46 
		87.16,152.21 86.98,156.5 86.83,158.47 86.48,161.74 86.36,162.4 86.18,162.97 85.85,163.7 85.26,164.67 82.36,169.04 81.25,170.8 
		80.34,172.42 79.51,174.1 78.74,175.85 77.85,177.96 75.76,183.32 73.49,189.61 73.06,191 72.78,192.1 72.54,193.33 72.3,195.15 
		72.14,196.8 71.99,198.91 71.91,200.82 71.88,202.57 71.93,203.66 72.05,204.66 72.52,207.02 73.29,210.19 73.76,211.77 
		75.46,216.99 76.14,219.23 76.65,221.13 77.08,223.14 77.38,224.88 77.71,227.14 79.54,241.52 81.17,253.09 82.2,260.83 
		82.53,262.82 83.31,266.41 83.58,268.14 83.77,269.77 83.93,271.73 84,273.44 84.01,275.76 84.12,276.81 84.27,277.54 
		84.49,278.32 85.68,281.78 86.87,285.61 87.39,287.14 88.29,289.36 89.81,292.63 91.34,295.69 92.7,298.13 94.19,300.62 
		95.67,302.88 96.93,304.71 98.97,307.53 100.86,310.22 101.96,311.83 102.82,313.15 103.59,314.47 104.11,315.46 106.27,320.01 
		107.55,322.5 108.2,323.65 108.84,324.69 109.44,325.58 110.01,326.32 110.37,326.73 110.89,327.24 111.4,327.65 111.89,327.98 
		113.1,328.58 115.02,329.35 116.36,329.78 118,330.18 120.57,330.67 122.94,331.05 123.92,331.13 124.9,331.03 128.88,330.23 
		129.64,330.04 	"></polyline>
</g>
<g>
	<polyline class="st3" points="127.24,327.83 128.19,327.53 129.11,327.16 130.14,326.67 131.14,326.12 132.34,325.37 
		133.36,324.69 134.41,323.91 136.37,322.33 138.3,320.6 139.65,319.23 140.38,318.41 141.04,317.6 142.03,316.28 144.01,313.42 
		145.44,311.43 146.96,309.42 149.93,305.62 151.59,303 153.6,299.74 154.48,298.18 155.34,296.5 156.85,293.17 157.38,291.78 
		158.29,290.15 158.93,288.71 159.01,287.95 159.11,287.48 160.58,281.36 160.99,279.46 161.09,278.82 161.18,277.89 161.37,276.9 
		161.49,274.69 161.56,274.53 161.67,274.38 162.12,274 162.2,273.83 162.3,273.49 162.68,271.8 164.39,263.43 165.29,259.36 
		165.86,257.04 166.28,255.56 166.7,254.29 167.13,253.2 167.57,252.24 168.04,251.38 168.53,250.61 169.27,249.62 170.11,248.63 
		171.04,247.59 175.89,242.47 176.93,241.19 178.07,239.54 179.03,237.99 179.97,236.34 180.76,234.86 181.6,233.2 182.66,231 
		183.6,228.92 184.39,227.03 185.18,225.01 186.26,221.87 187.14,218.92 187.69,216.8 189.04,211.12 190.97,203.87 191.69,200.62 
		193.34,191.82 193.55,190.91 193.71,190.42 193.86,190.16 194.01,189.99 194.2,189.88 194.5,189.82 198.67,189.3 199.58,189.25 
		201.14,189.23 201.77,189.19 202.61,189.03 203.39,188.75 203.89,188.49 204.44,188.16 205.01,187.74 205.8,187.09 206.76,186.19 
		207.79,185.16 208.52,184.37 209.05,183.71 209.44,183.13 209.84,182.45 210.7,180.7 212,177.67 213.05,174.89 213.42,173.78 
		213.83,172.38 214.83,168.25 215.5,165.85 216.45,162.87 218.73,156.19 219.09,155.03 219.17,154.56 219.2,153.81 219.18,150.54 
		219.05,148.21 218.96,147.39 218.86,146.96 218.58,146.39 218.03,145.57 216.1,142.92 215.12,141.7 214.62,141.19 214.26,140.87 
		213.01,139.98 211.16,138.84 204.59,134.95 201.42,133 198.54,131.15 196.92,130.06 195.76,129.21 194.56,128.25 193.85,127.59 
		193.14,126.87 192.44,126.07 191.74,125.18 191.04,124.2 190.36,123.14 187.73,118.82 186.64,117.16 185.76,116 183.81,113.56 
		181.88,111.26 181.24,110.59 180.6,109.99 179.94,109.47 179.02,108.82 177.81,108.08 176.42,107.33 175.43,106.89 174.73,106.66 
		173.97,106.53 172.52,106.4 171.44,106.16 171.19,106.16 170.9,106.22 170.3,106.51 168.29,107.67 166.96,108.4 164.44,109.64 
		158.25,112.81 155.37,114.21 152.7,115.37 150.37,116.25 148.28,116.9 146.75,117.3 139.43,119.12 137.94,119.54 137,119.87 
		136.4,120.15 135.87,120.47 135.36,120.86 134.88,121.33 134.41,121.86 133.8,122.64 132.2,125.01 131.7,125.68 131.26,126.12 
		130.92,126.4 130.09,126.91 128.97,127.38 127.6,127.82 126,128.23 122.25,129.11 120.72,129.5 119.33,129.9 114.66,131.36 
		108.76,132.91 107.6,133.25 107.09,133.48 106.52,133.77 103.3,135.61 101.75,136.6 101.06,137.11 100.42,137.62 99.64,138.37 
		98.62,139.5 97.5,140.92 96.53,142.28 95.54,143.77 94.42,145.61 93.24,147.7 92.56,149.05 92.39,149.54 92.33,150.02 92.4,153.59 
		92.37,154.54 92.25,155.44 91.99,156.6 91.33,158.93 90.65,161.5 90.16,162.99 89.68,164.06 88.93,165.3 85.16,170.5 83.84,172.47 
		82.88,174.1 81.98,175.88 81.16,177.68 80.51,179.23 79.85,180.91 78.99,183.21 78.05,185.93 77.15,188.63 76.42,190.94 
		75.98,192.5 75.68,193.77 75.37,195.35 75.18,196.68 75.09,197.73 75.07,198.81 75.13,199.97 75.26,201.55 75.48,203.23 
		75.93,205.79 76.53,208.28 77.34,211.03 78.87,215.73 79.39,217.44 79.85,219.25 80.21,221.04 80.57,223.3 81.01,226.6 
		83.01,242.35 84.68,253.96 85.47,260.45 86.32,266.04 87.47,275.63 87.74,277.29 88.14,279.2 88.73,281.59 89.24,283.41 
		89.87,285.26 90.86,287.57 92.63,291.21 94.54,294.84 96.04,297.37 98.91,301.74 100.31,303.94 104.75,311.24 105.88,313.17 
		106.88,314.99 109.28,319.73 109.91,320.82 110.91,322.4 111.83,323.8 112.34,324.5 112.85,325.1 113.42,325.59 114.11,326.02 
		115.15,326.51 116.14,326.87 117.52,327.27 118.7,327.54 120.21,327.83 121.65,328.04 122.93,328.2 123.82,328.26 124.65,328.25 
		125.46,328.19 126.33,328.05 127.24,327.83 	"></polyline>
</g>
<g>
	<polyline class="st2" points="127.48,325.21 127.87,325.06 129.06,324.43 131.89,322.68 132.68,322.16 133.44,321.59 
		134.88,320.36 135.87,319.39 136.65,318.58 138.3,316.7 139.85,314.76 140.34,314.05 141.66,311.95 144.64,307.04 147.94,302.56 
		148.93,301.12 149.81,299.66 150.48,298.42 151.35,296.62 153.24,292.47 154.35,289.89 154.81,289.01 154.88,288.57 155.24,287.23 
		157.61,279.03 157.85,278.08 158.08,277.02 158.98,274.39 159.21,273.62 160.1,266.61 160.38,264.78 160.67,263.23 161.39,259.83 
		162.47,255.13 163.41,251.35 163.93,249.66 164.26,249.02 164.81,248.36 171.8,241.21 173.28,239.61 174.29,238.43 175.12,237.28 
		175.96,235.88 176.9,234.11 177.81,232.2 179.59,228.22 180.56,225.87 181.48,223.3 182.63,219.78 184.55,213.29 186.99,204.4 
		187.74,202.09 188.15,200.74 190.61,191.16 191.04,189.64 191.34,188.84 191.58,188.4 191.84,188.07 192.17,187.8 192.5,187.65 
		193.08,187.51 195.53,187.15 196.81,186.87 197.92,186.51 198.49,186.27 199.08,185.95 200.17,185.23 200.91,184.61 201.46,184.1 
		202.71,182.77 203.77,181.45 204.53,180.41 205.31,179.23 206.12,177.95 206.91,176.59 208.41,173.77 209.38,171.78 210.18,170.03 
		211.09,167.92 211.79,166.2 213.18,161.85 213.69,160.12 214.15,158.36 214.44,157.1 214.67,155.93 214.81,154.85 214.87,153.83 
		214.88,152.85 214.82,151.91 214.7,150.69 214.55,149.6 214.38,148.67 214.21,147.93 214.05,147.47 213.85,147.05 213.58,146.59 
		213.06,145.86 211.88,144.46 210.87,143.39 209.71,142.27 208.77,141.47 207.47,140.46 205.49,139.07 198.74,134.71 196.88,133.45 
		195.36,132.37 193.25,130.78 191.21,129.19 189.91,128.13 188.98,127.26 188.3,126.48 181.94,117.99 180.78,116.54 179.74,115.42 
		178.98,114.73 178.16,114.09 177.26,113.48 176.29,112.88 174.97,112.13 174.01,111.63 172.92,111.14 172.23,110.91 171.45,110.8 
		171.09,110.8 170.56,110.87 169.44,111.2 167.06,112.05 165.31,112.75 163.71,113.47 161.95,114.32 158.54,116.05 156.24,117.14 
		153.73,118.26 151.53,119.18 149.5,119.97 147.8,120.54 146.64,120.85 144.48,121.35 143.36,121.68 142.49,121.99 141.63,122.4 
		140.79,122.87 140.26,123.24 139.51,123.84 138.81,124.51 137.97,125.46 137.22,126.43 136.55,127.37 135.38,129.15 134.95,129.71 
		134.48,130.16 133.8,130.55 132.77,130.92 131.33,131.34 123.94,133.12 121.41,133.78 119.05,134.48 116.51,135.34 115.09,135.88 
		113.84,136.41 112.11,137.21 110.52,138 109.24,138.68 108.04,139.38 107.22,139.93 106.48,140.52 105.78,141.17 105.33,141.67 
		104.9,142.22 104.27,143.15 103.66,144.17 102.92,145.56 102.18,147.09 101.31,149.06 100.4,150.05 99.61,151.17 99.58,151.41 
		99.8,152.06 99.83,152.3 99.39,153.39 99.17,154.54 99.08,155.59 98.97,155.87 98.19,156.91 96.16,159.29 95.57,160.11 
		95.18,160.79 94.64,161.83 92.93,165.48 92.3,166.54 91.24,168.01 89.87,169.8 86.5,173.93 85.69,175.11 84.86,176.54 
		84.25,177.76 83.59,179.24 83.08,180.56 82.36,182.55 81.02,186.78 80.23,189.52 79.68,191.58 79.32,193.18 79.06,194.6 78.88,196 
		78.8,197.2 78.79,198.5 78.85,199.93 79.01,201.84 79.2,203.57 79.54,205.77 80.02,208.03 80.65,210.33 82.14,214.97 82.57,216.41 
		82.95,218.06 83.39,220.6 84.68,229.62 86.43,242.88 88.19,254.93 88.64,260.21 90.54,276.21 90.76,277.66 91,278.97 91.27,280.16 
		91.54,281.14 92.15,282.93 93.02,284.97 94.34,287.64 96.33,291.41 97.41,293.36 100.2,297.88 102.99,302.55 107.29,309.93 
		107.95,311.14 109.71,314.85 111.03,317.48 111.99,319.27 113.02,321.06 113.63,322.01 114.12,322.68 114.61,323.23 115.13,323.65 
		115.57,323.91 116.25,324.19 117.07,324.45 118.25,324.72 120.56,325.12 122.84,325.36 124.3,325.43 125.6,325.45 126.5,325.41 
		127.09,325.32 127.48,325.21 	"></polyline>
</g>
<g>
	<polyline class="st1" points="128.23,321.71 129.42,321.24 130.24,320.82 131.08,320.33 131.8,319.85 132.35,319.43 133.08,318.79 
		133.71,318.16 134.53,317.26 135.55,316.07 136.65,314.66 139.72,310.46 140.49,309.32 141.07,308.38 143.7,303.65 144.62,302.13 
		145.77,300.35 149.33,292.87 150.28,290.77 151.12,288.78 151.84,286.9 152.45,285.09 153.28,282.48 154.31,278.94 155.62,273.93 
		156.1,271.7 156.58,268.7 157.6,261.06 157.97,258.88 158.5,256.09 158.96,253.91 159.48,251.7 159.9,250.12 160.39,248.67 
		160.95,247.35 161.37,246.51 161.86,245.69 162.72,244.48 163.36,243.66 164.44,242.4 169.32,237.1 170.88,235.31 171.59,234.41 
		172.1,233.65 172.58,232.81 173.02,231.91 174.57,228.29 176.68,223.07 178.17,219.27 179.27,216.26 179.87,214.5 180.34,212.86 
		181.7,207.49 182.5,204.69 183.5,201.73 185.54,196.24 186.52,193.51 187.5,190.49 188.62,186.67 188.97,185.76 189.19,185.36 
		189.35,185.15 189.54,184.98 189.87,184.77 190.45,184.55 192.64,183.89 193.94,183.43 195.17,182.9 196.08,182.41 196.97,181.77 
		197.71,181.14 198.55,180.32 199.52,179.26 200.97,177.48 202.13,175.88 203.3,174.12 204.42,172.26 205.46,170.38 206.67,168.03 
		209.36,162.57 209.6,161.97 209.73,161.03 209.95,159.14 210.15,156.41 210.17,155.17 210.15,153.98 210.1,153.2 209.96,152.1 
		209.76,151.05 209.51,150.04 209.22,149.07 208.89,148.18 208.54,147.36 208.05,146.43 207.67,145.83 207.14,145.14 206.43,144.37 
		205.53,143.54 202.57,141.05 201.75,140.42 199.66,138.94 194.32,135.45 191.86,133.77 189.57,132.09 188.35,131.11 187.52,130.4 
		185.83,128.79 184.1,126.95 181.96,124.46 178.18,119.89 177.49,119.12 176.86,118.56 176.18,118.03 175.35,117.47 173.33,116.21 
		172.01,115.53 171.4,115.3 170.88,115.14 170.26,115.01 169.72,114.94 169.18,114.96 168.51,115.06 167.54,115.25 166.31,115.55 
		164.97,115.95 163.92,116.33 163.17,116.65 162.2,117.12 158.43,119.31 156.11,120.49 153.23,121.82 146.81,124.62 146.16,124.97 
		145.74,125.27 145.15,125.74 144.5,126.36 143.39,127.51 142.45,128.56 141.56,129.64 140.1,131.52 139.45,132.28 138.9,132.81 
		138.46,133.17 137.97,133.51 137.38,133.85 136.31,134.38 135.47,134.74 134,135.3 132.3,135.87 127.98,137.19 121.18,139.08 
		120.05,139.46 119.38,139.76 118.42,140.27 116.14,141.54 114.84,142.4 113.76,143.25 113.11,143.83 112.48,144.48 111.86,145.18 
		111.3,145.91 110.8,146.64 110.38,147.35 109.28,149.46 108.74,150.19 107.99,150.95 105,153.54 104.27,154.27 103.7,154.94 
		103.16,155.74 102.41,157.1 101.84,158.03 97.19,164.94 96.23,166.25 94.24,168.76 92.14,171.57 89.19,175.28 88.26,176.56 
		87.46,177.74 86.96,178.57 86.55,179.32 86.21,180.11 85.87,181.05 85.05,183.74 82.91,191.44 82.69,192.47 82.51,193.87 
		82.41,195.18 82.39,196.59 82.43,198.21 82.56,200.31 82.75,202.32 83.01,204.58 83.33,206.94 83.63,208.58 83.95,209.88 
		85.16,213.92 85.81,216.47 86.43,219.47 87,222.96 87.65,227.92 88.27,233.26 88.78,238.18 89.42,245.11 89.83,248.76 90.2,251.52 
		90.49,253.44 90.81,255.19 91.37,257.73 91.56,258.89 93.29,275.74 93.65,278.49 93.95,280 94.3,280.98 94.88,282.22 96.88,286.1 
		98.43,289 99.97,291.66 104.17,298.47 105.23,300.32 106.05,301.83 107.78,305.3 110.25,310.71 111.25,312.77 112.75,315.61 
		114.4,318.53 115.03,319.54 115.44,320.14 115.81,320.58 116.21,320.92 116.7,321.23 117.32,321.5 118.08,321.75 118.92,321.98 
		119.8,322.15 120.65,322.28 122.33,322.37 124.75,322.3 125.82,322.21 126.8,322.07 127.53,321.92 128.23,321.71 	"></polyline>
</g>
<g>
	<polyline class="st1" points="129.89,318.16 130.5,317.86 131.06,317.42 131.77,316.75 132.43,316.02 133.14,315.17 133.8,314.28 
		134.45,313.26 134.91,312.42 135.49,311.12 135.68,310.79 135.98,310.49 137.09,309.77 137.67,309.23 138.29,308.42 139.08,307.09 
		139.65,305.97 141.39,302.35 143.41,298.83 144.48,296.75 148.32,288.27 148.88,286.9 149.42,285.32 150.38,281.91 151.19,278.61 
		151.72,276.09 152.37,272.24 153.13,268.99 153.51,266.84 154.63,259.27 155.11,256.6 155.61,254.2 156.2,251.64 156.73,249.7 
		157.31,247.8 157.94,246 158.38,244.87 159.06,243.28 159.75,241.86 160.6,240.25 161.33,238.99 162,237.91 162.48,237.23 
		163.65,235.68 164.56,234.38 165.53,232.88 166.67,230.99 167.59,229.37 168.52,227.6 169.43,225.72 170.64,223.12 172.63,218.44 
		174.37,214.03 175.22,211.75 177.72,204.78 181.5,195.16 184.35,187.29 186.47,181.83 186.55,181.73 188.66,180.64 190.94,179.37 
		192.75,178.27 194.56,177.1 195.79,176.24 197.19,175.16 198.05,174.39 199,173.42 199.76,172.47 200.39,171.52 200.96,170.52 
		201.64,169.15 202.81,166.55 203.71,164.37 204.35,162.62 204.82,161.01 205.02,160.06 205.16,159.09 205.28,158.09 205.39,156.67 
		205.44,154.46 205.39,153.36 205.28,152.3 205.13,151.32 204.99,150.69 204.61,149.55 204.38,149.03 204.1,148.53 203.78,148.03 
		203.2,147.28 202,145.95 199.74,143.69 197.67,141.78 196.27,140.63 195.44,140.02 194.68,139.52 190.91,137.26 188.3,135.62 
		186.64,134.47 185.01,133.21 184.01,132.34 182.95,131.35 178.34,126.81 175.69,124.32 171.12,120.19 170.6,119.83 170.18,119.67 
		169.65,119.57 168.98,119.52 166.73,119.46 165.74,119.49 165.05,119.68 164.11,120.07 163.12,120.6 156.27,124.62 154.39,125.74 
		152.97,126.67 151.67,127.64 150.78,128.4 149.92,129.22 148.85,130.4 147.84,131.66 146.17,133.85 145.14,135.06 144.55,135.64 
		143.89,136.21 142.73,137.04 141.86,137.57 140.91,138.09 138.93,139.02 136.17,140.11 134.27,140.79 132.21,141.46 131.42,141.77 
		129.28,142.75 127.09,143.9 125,145.12 122.82,146.54 120.74,147.98 117.27,150.54 115.76,151.56 114.28,152.47 110.59,154.61 
		109.61,155.26 109.04,155.7 108.43,156.26 107.94,156.83 106.15,159.15 102.49,163.71 101.66,164.69 100.12,166.39 96.95,169.66 
		96.07,170.65 92.3,175.61 91.03,177.41 90.32,178.57 89.61,179.89 88.89,181.43 88.33,182.8 87.65,184.65 87.03,186.54 
		86.28,188.95 85.75,190.89 85.49,192.07 85.36,192.99 85.29,193.99 85.28,195.11 85.33,196.93 85.52,200.38 85.65,202.03 
		85.85,203.85 86.25,206.6 86.58,208.34 86.82,209.24 87.61,211.85 88.17,213.97 89.56,220.15 89.83,221.57 91.58,238.74 
		91.75,240.72 92.1,246.39 92.35,249.24 92.61,251.79 92.76,252.94 92.95,253.94 94.17,258.94 94.44,260.26 94.67,261.54 
		94.96,263.97 95.63,271.12 95.97,274.35 96.35,276.86 96.57,277.96 96.78,278.78 97.24,280.2 97.82,281.7 98.51,283.26 
		99.5,285.17 101.11,287.95 105.46,294.98 106.28,296.4 106.95,297.64 107.62,299.07 112.39,309.99 113.07,311.42 113.55,312.27 
		114.7,313.96 116.03,315.72 117.4,317.32 118.52,318.45 118.97,318.77 119.38,318.89 119.94,318.92 121.16,318.87 124.5,318.69 
		129.23,318.3 129.89,318.16 	"></polyline>
</g>
<g>
	<polyline class="st3" points="129.79,314.75 130.17,314.63 130.55,314.43 130.92,314.15 131.34,313.71 131.65,313.29 
		131.91,312.84 133.05,310.42 133.37,309.83 133.72,309.33 134.12,308.86 134.5,308.52 135.53,307.99 135.95,307.73 136.27,307.37 
		136.61,306.85 137.45,305.17 139.56,300.63 142.34,295.16 143.26,293.17 144.34,290.65 145.92,286.75 146.77,284.19 147.43,281.79 
		148.48,277.38 149.09,275.02 149.21,274.37 149.72,270.53 150.53,265.43 151.34,259.2 151.82,256.33 152.36,253.64 152.94,251.2 
		153.62,248.74 154.49,245.92 155.42,243.25 156.24,241.12 157.12,239.04 159.96,232.54 161.41,229.41 164.36,223.66 165.51,221.14 
		168,215.06 171.09,207.23 171.7,205.76 172.49,204.16 175.56,198.62 176.14,197.45 176.55,196.56 176.74,196 176.89,195.41 
		177.38,192.27 177.72,190.35 178.16,188.17 178.69,185.87 179.14,184.13 179.64,182.44 180.23,180.84 180.68,179.84 181.21,178.92 
		181.5,178.48 182.14,177.68 182.88,176.95 183.28,176.61 184.15,175.98 185.1,175.41 186.64,174.63 191.23,172.66 192.88,171.88 
		193.9,171.33 194.49,170.96 195,170.6 195.66,170.02 196.21,169.42 196.88,168.49 197.35,167.69 197.96,166.47 198.73,164.73 
		199.3,163.24 199.81,161.73 200.21,160.22 200.44,159.08 200.61,157.94 200.83,155.68 200.89,154.33 200.9,153.45 200.83,152.5 
		200.74,151.91 200.58,151.38 200.36,150.88 200.08,150.37 199.6,149.63 198.45,148.15 196.96,146.49 195.54,145.03 193.86,143.36 
		192.78,142.35 192.25,141.92 191.18,141.25 185.13,137.74 183.04,136.42 181.67,135.42 178.26,132.71 176.06,131.04 173.68,129.32 
		171.87,128.1 170.66,127.35 169.63,126.78 168.73,126.4 168.2,126.23 167.69,126.13 167.19,126.08 166.71,126.09 166.21,126.15 
		165.72,126.25 164.95,126.45 163.67,126.94 162.37,127.57 160.78,128.5 158.8,129.81 157.05,131.07 156.21,131.76 155.39,132.49 
		154.63,133.31 154.12,133.91 153.62,134.56 152.89,135.63 150.69,139.08 150.18,139.8 149.64,140.46 149.07,141.08 148.44,141.65 
		147.73,142.18 146.92,142.7 146,143.2 144.98,143.7 142.62,144.76 136.19,147.48 130.34,149.84 125.61,151.98 117.88,155.27 
		116.33,156.02 115.37,156.55 114.29,157.26 113.28,158.05 111.67,159.42 109.94,161.01 104.47,166.42 98.73,171.85 97.37,173.27 
		96.02,174.94 94.55,177.01 93.33,178.96 92.19,180.97 91.01,183.3 90.19,185.17 89.55,186.94 88.84,189.21 88.27,191.35 
		88.06,192.38 87.97,193.32 87.91,197.21 87.93,199.34 88.01,201.53 88.14,203.49 88.31,205.04 88.5,206.22 88.8,207.43 
		89.15,208.47 90.2,211.26 90.72,212.83 92.06,217.54 92.34,218.61 92.56,219.66 92.67,220.49 92.73,221.42 92.91,226.96 
		93.23,232.1 93.52,235.55 94.04,240.75 94.66,248.68 95,252.11 95.18,253.35 95.38,254.43 96.7,259.67 97.05,261.24 97.4,262.99 
		97.98,266.53 99.41,276.34 99.79,278.51 100.12,280.02 100.31,280.6 100.52,281.14 101.25,282.55 102.28,284.31 105.57,289.67 
		106.81,291.86 107.85,293.82 109.18,296.5 110.27,298.89 111.48,301.84 112.2,303.84 113.76,307.33 116.13,311.63 117.6,313.81 
		117.77,314.01 118.23,314.32 120.19,315.22 123.96,315.14 126.62,314.91 129.26,314.82 129.79,314.75 	"></polyline>
</g>
<g>
	<polyline class="st2" points="123.83,312.95 125.66,312.08 126.31,311.66 128.81,309.51 129.04,309.36 130.4,307.84 131.57,306.36 
		131.74,306.17 131.86,306.16 133.43,306.38 133.88,306.39 134.03,306.3 134.4,305.52 134.89,304.66 135.42,303.61 138.4,297.26 
		140.47,293.26 141.19,291.83 141.96,290.14 142.75,288.21 144.01,284.77 144.7,282.71 146.33,277.14 146.78,275.31 147.07,273.34 
		147.67,267.54 148.16,261.71 148.57,256.19 148.75,254.46 148.97,253.28 149.35,251.77 151.38,244.44 152.1,242.02 152.84,239.68 
		154.27,235.61 156.77,229.11 163.95,210.95 165.15,207.7 166.42,203.89 166.89,202.64 167.4,201.52 168.19,200.21 169.07,199.01 
		170.64,197.13 170.84,196.82 170.95,196.56 171.15,195.8 171.35,194.56 171.5,193.17 171.75,189.93 171.9,188.53 172.19,186.48 
		172.56,184.41 172.98,182.53 173.55,180.41 174.33,178.16 174.97,176.66 175.72,175.22 176.55,173.89 177.45,172.7 177.91,172.17 
		178.85,171.23 179.77,170.45 181.06,169.59 182.18,168.99 184.34,168 185.51,167.3 187.61,165.75 189.82,163.98 191.96,162.07 
		192.88,161.17 193.64,160.34 194.25,159.56 194.71,158.86 195.04,158.19 195.27,157.53 195.36,157.1 195.45,156.43 195.49,155.75 
		195.48,154.83 195.33,153.36 195.18,152.66 195.02,152.18 194.81,151.7 194.54,151.22 194.08,150.51 193.66,149.93 192.63,148.7 
		191.45,147.5 190.45,146.67 189.5,146.06 188.75,145.71 186.98,145.05 186.11,144.66 184.87,144.03 183.41,143.16 180.74,141.41 
		179.17,140.28 176.88,138.55 175.59,137.72 174.35,137.04 172.94,136.35 171.94,135.94 171.16,135.69 170.02,135.47 168.71,135.38 
		167.2,135.45 165.94,135.64 164.62,135.96 163.72,136.29 162.82,136.69 162.38,136.94 161.51,137.5 160.66,138.16 159.85,138.91 
		159.07,139.74 158.01,141.07 157.37,141.97 156.53,143.28 154.47,146.9 153.99,147.57 153.58,148.03 152.84,148.69 152.1,149.28 
		150.3,150.51 148.35,151.66 147.22,152.26 146,152.85 144.1,153.67 142.18,154.38 140.34,154.93 138.7,155.33 137.27,155.6 
		135.74,155.79 132.12,155.96 130.1,156.16 127.55,156.59 125.85,156.96 124.71,157.25 123.59,157.56 122,158.07 119.72,158.92 
		118.61,159.42 117.64,159.92 116.78,160.43 115.95,160.96 113.77,162.56 111.41,164.47 104.45,170.73 99.45,175.08 98.77,175.71 
		98.18,176.35 97.42,177.29 96.42,178.79 94.68,181.7 93.33,184.13 92.82,185.17 92.45,186.04 91.62,188.4 91.23,189.6 
		90.93,190.95 90.61,192.9 90.39,194.87 90.27,196.7 90.21,198.6 90.23,200.83 90.33,202.95 90.51,205.07 90.64,205.74 
		90.97,206.69 94.13,214.53 94.58,215.7 95.03,217.26 95.44,219.12 95.54,219.9 95.57,220.7 95.53,221.6 95.34,224.06 95.26,225.77 
		95.26,228.36 95.34,230.68 95.48,233.02 95.9,238.12 96.28,243.44 97.03,251.68 97.26,252.94 98.26,256.83 98.98,259.88 
		101.37,271.22 102.38,275.58 102.81,277.17 103.25,278.6 103.75,279.95 104.32,281.27 105.42,283.42 107.57,287.31 110.55,292.88 
		111.62,294.97 112.44,296.77 112.84,297.79 113.05,298.49 113.13,298.9 113.07,299.14 113.09,299.26 113.86,302.73 114.4,304.18 
		115.83,307.31 118.3,311.27 118.55,311.57 118.9,311.91 120.25,312.83 120.56,312.97 121,313.06 122.56,313.11 123.28,313.09 
		123.83,312.95 	"></polyline>
</g>
<g>
	<polyline class="st1" points="123.36,311.62 123.66,311.46 125.2,310.61 127.37,308.7 127.43,308.57 127.7,307.64 128.02,306.79 
		128.33,305.18 128.46,304.98 129.17,304.16 129.4,304 129.59,303.99 130.41,304.36 131.31,304.82 131.41,304.83 131.65,304.59 
		132.98,302.86 134.11,300.57 137.23,293.79 139.07,290.8 139.66,289.72 140.26,288.54 141.51,285.73 142.15,284.11 142.69,282.68 
		144.55,276.43 144.72,275.64 144.89,274.41 145.53,268.73 145.8,265.33 145.99,260.79 145.99,256.64 146.02,255.14 146.14,253.06 
		146.27,251.78 146.51,250.52 146.82,249.1 149.01,240.22 149.91,235.94 150.24,234.71 150.73,233.22 152.31,228.79 156.06,218.93 
		160.51,207.48 161.67,204.4 162.43,202.25 162.99,200.53 163.35,199.29 163.52,198.58 163.93,196.47 165.12,191.84 165.35,190.54 
		165.63,187.77 165.67,186.78 165.54,185.6 165.26,184.24 164.64,181.75 163.76,178.49 161.85,171.67 161.52,170.38 161.29,169.29 
		161.15,168.32 161.09,167.36 161.07,166.35 161.13,162.33 161.07,161.31 160.93,160.36 160.69,159.52 160.33,158.83 160.02,158.47 
		159.85,158.32 159.46,158.1 159.25,158.04 159.03,158 158.58,158 158.35,158.05 157.89,158.21 157.44,158.46 157.01,158.77 
		155.83,159.79 155.28,160.2 154.68,160.49 154.25,160.62 153.77,160.69 150.43,160.96 144.32,161.77 142.98,161.9 141.76,161.97 
		140.69,161.99 139.74,161.95 136.37,161.64 133.79,161.53 129.34,161.52 126.08,161.62 124.59,161.77 123.61,161.96 122.39,162.35 
		121.15,162.91 119.13,164.02 116.4,165.7 113.61,167.51 111.46,169.04 109.38,170.66 106.64,172.93 101.8,177.09 100.21,178.56 
		99.18,179.7 98.15,181.03 97.04,182.69 95.97,184.52 94.91,186.59 94.16,188.3 93.59,189.9 93.13,191.6 92.83,193 92.59,194.62 
		92.42,196.15 92.34,197.79 92.33,199.42 92.4,201.15 92.56,203.25 92.74,204.59 92.9,205.32 93.1,205.98 93.95,208.16 
		94.59,209.61 96.44,213.51 97.47,215.89 97.8,216.85 98.05,217.74 98.25,218.65 98.37,219.4 98.41,220.18 98.36,221.13 
		97.85,225.33 97.66,227.44 97.58,229.17 97.57,230.89 97.63,232.56 97.9,236.65 98.1,240.99 98.27,243.83 98.69,248.43 
		98.94,250.48 99.1,251.36 99.69,253.41 100.49,256.38 102.72,265.23 103.94,269.81 105.24,274.31 106.19,277.13 106.81,278.69 
		107.58,280.32 108.26,281.55 109.66,283.87 110.29,285.07 112.34,289.71 115.55,296.08 115.59,296.31 115.61,296.61 115.56,297.8 
		115.46,298.91 115.26,299.52 115.25,299.83 115.42,301.1 115.51,301.49 115.85,302.54 116.45,304.19 117.53,306.64 119.71,310.06 
		120.02,310.3 121.09,311.23 121.39,311.43 123.15,311.65 123.36,311.62 	"></polyline>
</g>
<g>
	<polyline class="st1" points="123.36,310.04 123.95,309.85 124.26,309.68 124.46,309.52 124.6,309.33 124.79,308.87 125.37,308.31 
		125.85,307.64 126.16,307.31 126.27,307.14 126.45,306.65 126.6,306.07 126.72,305.35 126.77,304.67 127.39,303.46 127.93,302.48 
		128.06,302.36 128.24,302.32 129.24,302.36 129.79,302.47 129.92,302.44 130.08,302.33 130.33,302.04 131.02,301 131.94,299.38 
		134.77,293.97 135.45,292.79 136.54,291.08 137.25,289.87 138.11,288.28 138.91,286.66 139.99,284.22 141.31,280.93 142.38,277.62 
		142.63,276.73 142.78,276.02 142.99,274.68 143.19,272.86 143.68,267.72 143.76,266.5 143.88,263.79 143.94,261.49 143.95,259.28 
		143.88,255.67 143.99,251.2 144.13,248.76 144.41,246.72 144.71,245.2 145.88,239.95 146.9,234.15 147.26,232.26 147.79,229.93 
		148.36,227.79 149.1,225.36 150.23,222.11 155.43,207.72 156.38,204.8 156.99,202.61 157.2,201.61 157.36,200.57 157.6,197.75 
		157.75,196.48 158.29,193.6 158.52,192.03 158.71,190.21 159.03,185.83 159.07,184.51 159.01,183.47 158.82,182.01 158.55,180.73 
		158.17,179.38 157.68,177.99 157.08,176.59 156.53,175.53 155.72,174.13 154.81,172.81 153.87,171.62 152.95,170.64 152.11,169.9 
		151.19,169.25 150.7,168.98 150.25,168.77 149.53,168.57 148.7,168.49 146.22,168.46 144.1,168.37 140.37,168.1 138.83,167.93 
		137.4,167.72 136.57,167.54 134.9,167.13 133.48,166.87 131.68,166.73 129.54,166.68 127.62,166.72 126.12,166.81 124.72,166.96 
		123.77,167.13 122.89,167.34 121.81,167.69 120.77,168.11 119.45,168.71 117.06,169.9 114.79,171.12 111.38,173.06 110.23,173.81 
		108.44,175.26 105.99,177.41 101.54,181.65 100.23,182.96 99.14,184.17 98.36,185.17 97.57,186.36 96.97,187.5 96.38,188.9 
		95.77,190.72 95.24,192.72 94.83,194.55 94.64,195.66 94.52,196.64 94.46,197.58 94.45,198.71 94.55,200.45 94.73,202.48 
		94.91,203.85 95.12,204.91 95.48,206.06 96.04,207.37 96.64,208.59 98.31,211.75 98.96,213.12 99.62,214.61 100.03,215.64 
		100.32,216.45 100.49,217.15 100.6,217.92 100.76,220.11 100.77,221 100.73,222.02 100.52,224.58 99.9,230.05 99.82,231.21 
		99.8,232.25 99.93,235.27 99.96,240.78 100.08,243.43 100.23,245.27 100.47,247.44 100.75,249.24 101.03,250.62 101.36,251.85 
		102.87,256.6 106.65,269.19 107.69,272.39 108.36,274.2 108.78,275.17 109.16,275.91 110.69,278.53 111.81,280.14 113.72,282.53 
		113.97,282.91 114.14,283.28 114.19,283.6 114.27,285.73 114.25,287.18 114.34,287.86 114.53,288.55 115.09,290.09 116.02,292.21 
		116.75,293.72 117.38,294.77 117.63,295.26 118.26,296.9 118.37,297.24 118.41,297.66 118.37,297.8 117.51,297.95 117.26,298.03 
		117.16,298.1 117.1,298.26 117.04,298.92 117.04,301 117.53,303.26 117.92,304.44 118.74,305.89 120.69,309.1 121.07,309.4 
		122.05,309.98 122.7,310.09 123.36,310.04 	"></polyline>
</g>
<g>
	<polyline class="st3" points="123.66,309.12 123.86,309.01 124.45,308.15 124.48,307.56 124.54,307.31 125.05,306.74 
		125.22,306.43 125.51,305.31 125.39,303.85 125.28,303.19 124.86,302.46 124.82,302.31 124.87,302.11 125,301.84 125.58,301.01 
		125.74,300.84 125.84,300.79 127.4,300.93 128.54,301.13 128.82,301.14 128.89,301.07 129.07,300.66 129.18,300.08 129.39,299.59 
		130.79,296.76 132.17,294.15 133.42,291.98 135.87,288.2 136.47,287.15 137.05,286.05 137.75,284.54 139.22,281.11 139.91,279.38 
		140.33,278.16 140.51,277.34 140.75,275.86 141.34,271.3 141.76,267.59 141.98,264.37 142.07,261.97 142.11,259.35 142.11,252.76 
		141.93,247.3 141.95,245.76 142.02,244.4 142.21,242.68 142.88,238.87 144,231.32 144.34,229.35 144.76,227.32 145.3,225.11 
		145.97,222.65 148.41,214.57 149.73,210.4 151.43,205.39 152.4,202 152.92,199.71 153.48,196.38 153.7,194.67 153.8,192.91 
		153.83,189.83 153.9,187.05 153.9,185.64 153.83,184.58 153.7,183.49 153.52,182.6 153.34,181.92 152.97,181 152.58,180.27 
		152.09,179.48 151.52,178.68 150.65,177.59 149.95,176.82 149.01,175.91 148.31,175.33 147.38,174.7 146.91,174.45 146.17,174.12 
		144.85,173.68 143.35,173.35 141.74,173.11 139.86,172.97 138.35,172.97 136.65,173.14 136.18,173.12 135.56,172.99 133.99,172.48 
		133.07,172.22 130.84,171.74 129.96,171.6 128.98,171.51 127.21,171.36 126.04,171.31 125.1,171.32 124.2,171.37 122.49,171.6 
		121.48,171.81 120.44,172.08 119.52,172.37 118.68,172.69 117.42,173.25 116.23,173.83 114.92,174.53 113.28,175.44 111.83,176.31 
		110.69,177.04 109.85,177.64 109.08,178.27 108.1,179.23 106.68,180.8 105.55,182.14 104.66,183.33 104.43,183.57 103.99,183.95 
		100.83,186.4 99.58,187.45 99.27,187.76 99.01,188.32 98.56,189.58 98.1,191.05 97.7,192.45 96.96,195.45 96.65,196.98 
		96.56,197.61 96.7,199.89 96.92,202.5 97.04,203.56 97.22,204.22 97.78,205.74 98.42,207.07 99.66,209.22 100.48,210.51 
		100.78,210.91 100.81,211.05 102.17,214.32 102.35,214.85 102.45,215.29 102.63,219.47 102.64,220.61 101.89,233.55 101.8,236.48 
		101.78,239.22 101.86,241.89 102.04,244.56 102.34,246.98 102.57,248.28 102.82,249.45 103.25,251.14 103.79,252.82 108.56,266.56 
		109.72,269.69 110.43,271.41 111.23,273 111.88,274.06 112.85,275.4 113.17,275.97 114.76,279.54 115.45,281.35 115.79,282.51 
		116.04,283.7 116.16,284.7 116.23,286.6 116.38,287.41 116.66,288.42 117.26,290.22 117.89,291.87 118.34,292.81 119.41,294.86 
		119.96,296.09 120.61,297.86 120.84,298.57 120.96,299.04 120.99,299.78 120.94,299.93 120.18,299.75 119.61,299.67 118.78,299.66 
		118.65,299.68 118.58,299.75 118.54,300.1 118.56,301.59 118.63,302.84 118.69,303.16 118.84,303.68 118.98,303.98 121.66,308.5 
		121.8,308.68 122.03,308.86 122.31,309 122.54,309.07 123.43,309.17 123.66,309.12 	"></polyline>
</g>
<g>
	<path class="st2" d="M122.98,306.82l0.18-0.05l0.78-0.61l0.31-0.34l0.05-0.13l-0.18-0.64l-0.64-1.37l-1.19-1.49l-0.12-0.11
		l-0.4-0.23l-1.48-0.58l-0.1-0.03l-0.06,0.03l-0.06,0.16l0.02,0.27l0.25,0.91l0.77,1.44l0.62,1.56l0.82,1.08l0.12,0.08l0.17,0.05
		L122.98,306.82 M127.04,299.35l0.09-0.08l2.24-4.6l1-1.92l0.91-1.45l3.03-4.54l1.04-1.7l0.45-0.89l1.85-4.01l0.53-1.4l0.3-1.15
		l0.19-1l0.21-1.42l0.68-5.17l0.38-3.81l0.23-3.21l0.1-3.09l0.04-4.99l-0.02-2.09l-0.09-2.17l-0.34-4.21l-0.03-1.51l0.22-3.63
		l0.43-3.95l0.37-3.01l0.64-4.45l0.31-1.75l0.3-1.42l0.38-1.47l0.88-2.92l0.37-1.34l1.41-6.06l3.29-13.19l0.32-1.42l0.49-2.55
		l0.35-2.22l0.17-1.9l0.02-1.55l-0.04-1.16l-0.1-1.49l-0.31-2.91l-0.24-1.22l-0.22-0.71l-0.26-0.65l-0.36-0.76l-0.47-0.82
		l-0.59-0.85l-0.46-0.57l-0.5-0.55l-0.81-0.79l-0.56-0.48l-0.85-0.66l-1.34-0.89l-1.16-0.64l-1.17-0.5l-0.99-0.28l-0.74-0.13
		l-0.68-0.05l-1.63,0.05l-0.39-0.01l-0.57-0.11l-2.17-0.54l-1.95-0.33l-3.35-0.37l-1.3-0.09l-1.06-0.02l-1.62,0.08l-1.44,0.2
		l-1.57,0.36l-3.2,0.84l-2.05,0.9l-2.45,1.18l-1.54,0.85l-0.45,0.29l-0.44,0.34l-0.58,0.61l-0.59,0.89l-1.16,2.51l-0.57,1.04
		l-0.62,1l-0.75,1.01l-2.2,2.56l-0.36,0.35l-0.31,0.18l-0.35,0.12l-1.24,0.3l-0.87,0.34l-0.48,0.32l-0.36,0.41l-0.24,0.47
		l-0.22,0.61l-0.26,0.9l-0.17,0.88l-0.19,1.67l-0.05,2.19l0.1,2.94l0.09,0.89l0.13,0.8l0.16,0.67l0.23,0.77l1.26,3.33l0.13,0.16
		l0.8,0.7l1.1,1.27l0.37,0.31l0.35-0.17l0.41-0.29l0.34-0.31l0.44-0.49l0.05-0.01l0.04,0.06l0.05,0.31l0.08,0.87l-0.01,0.29
		l-0.17,0.88l-0.24,0.71l-0.11,0.53l-0.15,1.15l-0.13,1.5l-0.09,1.75l-0.12,4.6l-0.82,12l-0.07,2.12l0.02,4.52l0.07,1.62l0.14,1.72
		l0.25,1.79l0.25,1.39l0.29,1.38l0.45,1.81l0.49,1.68l0.61,1.85l0.86,2.33l0.97,2.48l4.09,9.9l1.18,2.5l1.66,3.12l0.74,1.77
		l0.81,2.17l0.45,1.43l0.56,2.13l0.2,1.04l0.45,2.98l0.35,1.83l1.47,5.66l1.79,2.75l0.52,0.73l0.7,1.12l0.34,0.41l1.35,1.23
		l0.22,0.16l0.27,0.1l0.51,0.14l1.09,0.21L127.04,299.35"></path>
</g>
<g>
	<polyline class="st1" points="125.56,297.59 125.71,297.44 126.09,296.53 128.01,292.69 128.39,292 129.44,290.34 133.49,284.22 
		134.12,283.23 135.17,281.29 135.93,279.66 136.42,278.3 136.76,276.92 137.29,273.8 137.88,269.47 138.2,266.33 138.38,263.35 
		138.53,256.71 138.57,252.19 138.52,250.69 138.25,247.47 137.96,242.59 137.94,241.78 138.1,238.58 138.57,232.85 138.84,231.13 
		139.74,226.34 140.02,225.19 140.91,222.18 141.28,220.73 141.6,219.15 142.14,216 142.53,214.07 144.27,206.82 144.95,203.65 
		145.19,202.15 145.36,200.88 145.71,197.13 146.11,193.78 146.15,192.69 146.11,191.96 145.98,190.95 145.79,190.03 145.53,189.01 
		145.12,187.6 144.47,185.63 143.98,184.27 143.62,183.48 143.28,182.92 142.78,182.38 140.33,180.22 139.11,179.24 138.52,178.85 
		138.06,178.62 137.63,178.48 137.07,178.37 129.67,177.44 125.95,177.09 124.31,177.01 122.96,177.1 121.18,177.41 119.15,177.9 
		117.12,178.51 115.51,179.11 113.96,179.83 112.71,180.51 112.16,180.87 111.75,181.21 111.29,181.73 110.86,182.5 110.46,183.45 
		109.71,185.53 109.19,186.65 108.74,187.38 107.83,188.61 107.36,189.29 106.87,190.16 106.39,191.17 106.22,191.65 106.1,192.5 
		106.17,194.51 105.46,193.63 104.75,192.9 104.15,192.51 103.38,192.17 102.83,192.09 102.33,192.09 102.03,192.3 101.3,192.95 
		101.13,193.47 100.8,194.93 100.44,199.34 100.45,199.62 100.51,199.84 101.26,201.55 102.75,205.69 102.92,206.05 103.6,207.16 
		103.73,207.28 103.81,207.28 104.66,206.21 105.32,205.18 105.71,204.49 106.01,203.84 106.07,203.79 106.15,203.85 106.27,204.05 
		106.97,205.53 107.19,206.26 107.32,206.98 107.38,208.31 107.32,209.3 107.16,210.12 106.78,211.56 106.6,212.33 106.46,213.23 
		106.32,214.52 106.21,216.22 106.11,219.73 105.99,221.89 105.54,227.79 105.11,232.88 104.98,235.19 104.97,236.77 105.01,238.81 
		105.08,240.34 105.18,241.44 105.35,242.74 105.55,243.87 106.16,246.64 106.85,249.21 107.6,251.67 108.43,254.05 109.19,255.95 
		109.87,257.42 111.94,261.47 114.13,266.14 116.16,270 116.59,270.92 116.89,271.73 118.26,276.2 118.59,277.43 118.76,278.48 
		118.83,279.87 118.96,281.18 119.2,282.87 120.81,289.94 121.09,291.09 121.31,291.8 121.46,292.17 121.7,292.61 122.7,294 
		123,294.47 123.88,296.38 124.09,296.64 124.84,297.31 125.13,297.53 125.38,297.62 125.56,297.59 	"></polyline>
</g>
<g>
	<path class="st1" d="M103.83,204.85l0.09-0.08l0.26-0.36l0.21-0.42l1.22-2.89l0.34-0.94l0.06-0.41l0.03-1.58l-0.11-0.74l-0.36-1.23
		l-0.1-0.24l-0.21-0.36l-1.05-1.2l-0.88-0.85l-0.35-0.21l-0.22-0.07l-0.18-0.01l-0.14,0.03l-0.1,0.08l-0.16,0.28l-0.41,1.79
		l-0.23,2.63l-0.03,0.68l0.08,0.35l0.34,0.71l0.16,0.74l1.33,3.62l0.26,0.58l0.07,0.09L103.83,204.85 M124.46,294.97l0.03-0.03
		l0.3-0.7l0.58-0.9l1.42-2.39l1.15-1.77l1.66-2.36l1.74-2.27l0.81-1.29l1.49-2.74l0.85-1.79l0.34-1l0.36-1.65l0.43-2.53l0.54-3.6
		l0.34-2.56l0.08-1.13l0.03-3.89l0.21-8.27l0.06-3.49l-0.18-5.13l-0.43-4.58l-0.14-1.97l-0.07-1.87l0.03-1.1l0.27-2.25l0.34-2.25
		l0.54-3.24l0.58-3.11l0.37-1.78l0.83-3.43l1.2-6.23l0.55-2.37l0.94-3.78l0.24-1.18l0.54-3.36l0.43-3.19l0.29-2.76l0.09-1.84
		l-0.01-1.17l-0.13-1.4l-0.33-1.99l-0.27-1.17l-1.6-3.83l-0.71-1.6l-0.44-0.73l-0.6-0.66l-0.91-0.77l-0.96-0.63l-0.87-0.42
		l-1.06-0.35l-1.53-0.35l-4.72-0.86l-1.15-0.11l-1.7-0.06l-1.38,0.02l-1.42,0.12l-1.5,0.22l-1.59,0.33l-1.72,0.47l-2.55,0.83
		l-2.12,0.75l-0.5,0.2l-0.39,0.22l-0.35,0.3l-0.52,0.64l-0.31,0.41l-0.26,0.46l-0.33,0.79l-0.4,1.2l-0.31,0.79l-0.49,1.11
		l-1.09,2.29l-0.39,0.95l-0.27,0.95l-0.14,1l-0.01,0.64l0.07,1.28l-0.02,2.04l-0.53,2.38l-0.22,0.66l-0.02,0.19l0.08,0.58l0.52,2.21
		l0.18,0.38l0.38,0.92l0.32,1l0.07,0.75l-0.03,1.5l-0.17,1.74l-0.5,2.54l-0.23,1.94l-0.15,2.03l-0.12,3.43l-0.16,2.6l-0.34,3.99
		l-0.67,6.59l-0.14,2.04l-0.06,1.64l0.01,1.77l0.09,1.62l0.12,1.03l0.21,1.12l0.76,3.1l1,3.66l0.95,3.08l0.8,2.28l0.49,1.19
		l0.44,0.88l1.48,2.55l2.74,4.9l3.34,5.6l0.6,1.18l0.38,0.99l0.26,0.95l0.35,1.54l0.15,0.91l0.09,0.79l0.05,1.78l-0.12,3.65
		l0.07,0.93l0.16,0.94l0.79,3.53l0.65,3.28l0.35,1.52l0.34,1.11l0.2,0.46l0.91,1.7l0.26,0.67L124.46,294.97"></path>
</g>
<g>
	<path class="st3" d="M103.73,201.73l0.08-0.03l0.21-0.35l0.46-0.87l0.19-0.54l0.15-1.54l-0.19-0.82l-0.43-1.22l-0.39-0.49
		l-0.84-0.82l-0.06,0.14l-0.19,0.93l-0.11,1.9l0.17,0.67l0.06,0.59l0.13,0.58l0.16,0.52l0.24,0.56l0.26,0.61L103.73,201.73
		 M124.6,289.58l0.58-0.33l0.59-0.41l0.58-0.61l2.97-3.38l0.46-0.56l0.33-0.47l0.74-1.23l0.55-1.01l0.43-0.93l0.53-1.3l0.57-1.52
		l0.3-0.92l0.23-0.97l0.33-1.7l0.48-3.02l0.24-2.49l0.08-1.66l0.03-3.25l0.44-5.97l0.11-2.8l0.06-3.15l0.01-5.74l-0.38-3.56
		l-0.67-5.4l-0.05-0.62l0.03-0.46l0.83-6.09l0.92-4.66l0.68-4.37l0.87-4.28l0.81-4.23l0.92-3.65l0.39-1.88l0.21-1.47l0.28-2.5
		l0.53-3.09l0.25-1.62l0.17-1.54l0.06-1.05l-0.02-1.28l-0.15-1.46l-0.22-1.31l-0.32-1.19l-0.78-2.11l-0.86-1.94l-0.35-0.67
		l-0.35-0.59l-0.65-0.84l-0.65-0.61l-0.75-0.53l-1.18-0.65l-1.31-0.61l-0.77-0.22l-2.53-0.59l-1.4-0.27l-1.2-0.1l-0.79-0.01
		l-0.83,0.05l-1.64,0.22l-3.05,0.63l-1.01,0.26l-1.08,0.32l-3.16,1.09l-1.04,0.41l-0.7,0.32l-0.88,0.47l-0.55,0.38l-0.38,0.37
		l-0.22,0.4l-0.22,1.06l-0.15,0.55l-0.77,2.15l-0.42,1.35l-0.21,0.91l-0.13,0.93l-0.02,1.1l0.15,1.27l0.29,1.33l0.63,2.07l0.06,0.34
		l-0.6,1.93l-0.21,0.95l-0.11,0.73l-0.05,1.32l0.01,2.14l-0.03,1.01l-0.17,1.98l-0.4,3.37l-0.3,6.71l-0.09,1.46l-0.29,2.96
		l-0.99,8.82l-0.22,2.55l-0.12,2.18l-0.01,1.09l0.06,0.95l0.11,0.77l0.26,1.18l1.2,4.42l1.1,3.84l0.67,2.1l0.64,1.65l0.64,1.34
		l0.68,1.2l2.93,4.52l3.46,5.75l2,3.24l0.27,0.5l0.2,0.53l0.25,0.96l0.21,1.14l0.2,1.47l0.12,1.34l0.03,1.23l-0.07,2.88v3.05
		l0.06,1.34l0.2,1.18l0.57,2.83l0.26,0.95l0.3,0.74l0.26,0.53L124.6,289.58"></path>
</g>
<g>
	<polyline class="st2" points="125.73,284.94 126.14,284.82 126.56,284.61 127,284.34 127.37,284.04 127.74,283.69 128.18,283.18 
		128.64,282.59 129.06,282 129.44,281.3 130.03,280.05 130.75,278.36 131.34,276.85 131.6,275.91 131.99,274.26 132.48,272 
		132.74,270.66 132.87,269.76 132.94,268.87 133.17,263.86 133.79,255.5 133.86,252.99 133.84,251.6 133.77,249.96 133.64,248.39 
		133.47,246.8 133.58,245.68 133.56,244.49 133.41,242.73 132.87,237.98 132.81,236.66 132.87,235.48 133,234.32 133.5,231.2 
		133.92,228.16 134.42,225.14 134.71,222.47 134.95,220.84 136.09,215.05 136.92,210.31 137.62,207.41 138.25,203.99 138.69,201.36 
		138.91,199.77 139.08,198.15 139.15,196.74 139.16,195.25 139.09,194.43 138.81,192.45 138.65,191.71 138.5,191.18 138.01,189.94 
		136.85,187.53 136.18,186.37 135.45,185.32 134.8,184.6 134.4,184.25 133.97,183.94 133.15,183.47 131.71,182.84 130.8,182.49 
		130.01,182.28 129.1,182.14 127.63,182 126.56,182.05 124.98,182.27 123.28,182.57 121.63,182.95 120.3,183.33 118.85,183.82 
		117.67,184.3 116.41,184.89 115.69,185.28 115.11,185.65 114.71,185.97 114.45,186.25 114.22,186.66 113.76,187.73 113.1,189.48 
		112.76,190.58 112.54,191.5 112.41,192.27 112.37,193.07 112.39,193.76 112.48,194.51 112.9,196.32 113.02,196.98 113.05,197.48 
		113.02,198.03 112.52,202.02 112.23,205.68 111.87,208.5 111.68,210.28 111.54,212.83 111.44,217.35 111.32,219.72 110.49,226.14 
		109.96,230.58 109.58,234.39 109.44,236.78 109.44,237.86 109.52,238.66 109.7,239.67 109.94,240.64 110.64,243.21 112.08,248 
		112.74,250.11 113.16,251.21 114.09,253.02 114.88,254.36 117.56,258 119.49,260.8 122.37,265.86 122.98,267.04 123.3,267.83 
		124.43,271.47 124.69,272.51 124.83,273.36 125.34,279.27 125.34,280.63 125.21,282.43 125.17,283.59 125.24,284.57 125.31,284.78 
		125.4,284.89 125.53,284.94 125.73,284.94 	"></polyline>
</g>
<g>
	<polyline class="st1" points="128.49,276.76 128.61,276.71 128.79,276.47 129.07,275.92 129.75,274.48 131.05,270.57 
		131.17,270.12 131.27,269.58 131.73,264.87 131.86,262.79 132.04,258.73 132.53,253.62 132.64,251.87 132.58,250.55 132.19,247.09 
		132.15,246.42 132.17,245.14 132.12,244.37 131.68,240.31 131.51,238.35 131.44,236.57 131.51,235.07 131.65,233.95 132.29,230.29 
		132.92,225.35 133.39,222.54 133.89,218.86 135.31,210.9 135.86,208.24 136.22,206.35 137.1,201.22 137.46,198.4 137.56,197.17 
		137.6,196 137.58,194.76 137.46,193.6 137.22,192.35 136.9,191.14 136.49,190.07 135.83,188.65 135.19,187.49 134.59,186.57 
		133.96,185.81 133.24,185.1 132.64,184.63 132,184.26 130.79,183.72 130.13,183.51 129.39,183.4 128.11,183.34 127.13,183.37 
		125.86,183.51 124.03,183.77 122.01,184.12 121.13,184.32 120.57,184.47 118.83,185.11 117.14,185.81 116.78,186.01 116.49,186.23 
		116.09,186.68 115.72,187.22 115.44,187.76 115.19,188.44 114.98,189.19 114.75,190.29 114.46,192.09 114.39,192.88 114.4,193.85 
		114.52,195.95 114.54,197.18 114.76,198.99 114.76,199.69 114.18,203.53 114,204.49 113.52,206.46 113.38,207.59 113.12,211.52 
		113.03,216.23 112.92,218.45 112.69,220.96 112.1,225.5 111.87,227.68 111.6,231.35 111.49,234.11 111.52,235.72 111.62,236.98 
		111.87,238.66 112.19,240.18 112.73,242.33 113.5,244.98 114.52,248.26 115.2,250.21 115.55,251.01 115.96,251.87 117.16,254.01 
		118.12,255.51 120.12,258.37 121.39,260.29 122.67,262.39 123.67,264.2 124.14,265.21 124.57,266.31 125.31,268.63 126.55,272 
		127,273.73 127.39,274.75 128.14,276.35 128.39,276.72 128.49,276.76 	"></polyline>
</g>
<g>
	<polyline class="st1" points="128.53,269.15 128.77,268.94 128.99,268.58 129.21,268.09 129.44,267.22 129.8,265.1 130.05,263.21 
		130.46,258.68 131.05,253.49 131.15,252.26 131.21,251.25 131.16,250.17 130.83,246.75 130.72,244.79 130.37,241.45 130.15,238.67 
		130.07,236.45 130.08,235.65 130.15,234.72 130.29,233.69 130.78,231.26 131,230 131.54,225.93 132.06,222.78 132.48,219.19 
		132.77,217.27 133.78,211.52 135.23,203.92 135.8,200.63 136.09,198.54 136.22,196.74 136.26,195.39 136.24,194.27 136.17,193.59 
		136.02,192.84 135.71,191.64 135.36,190.66 134.91,189.67 134.24,188.42 133.77,187.64 132.83,186.53 132.14,185.83 131.09,184.92 
		130.22,184.73 129.34,184.63 126.92,184.7 125.39,184.88 122.49,185.42 121.32,185.69 120.25,185.98 119.04,186.42 118.52,186.68 
		118.09,186.96 117.64,187.34 117.27,187.74 116.98,188.13 116.82,188.46 116.64,189.2 116.2,192.25 116.07,193.77 116.04,195.52 
		116.07,196.21 116.16,197 116.74,199.88 116.77,200.46 116.74,201.1 116.64,201.81 116.47,202.43 116.25,202.97 115.55,204.47 
		115.24,205.38 115.11,206.08 114.98,207.6 114.72,209 114.63,211.27 114.62,215.5 114.5,218.16 114.28,220.86 113.74,225.5 
		113.61,227.35 113.53,230.55 113.56,232.85 113.8,236.34 114.09,238.97 114.25,239.78 114.56,240.93 117.26,249.39 117.52,250.04 
		118.08,251.21 119.09,253.16 119.85,254.56 120.46,255.54 122.66,258.7 124.23,261.11 124.73,261.94 125.12,262.69 125.8,264.25 
		126.8,266.82 127.36,268.04 127.62,268.5 127.87,268.84 128.1,269.08 128.32,269.18 128.53,269.15 	"></polyline>
</g>
<g>
	<polyline class="st3" points="127.51,257.68 127.94,257.5 128.36,257.23 128.47,257.1 128.56,256.91 129.03,255.62 129.34,254.67 
		129.45,254.18 129.57,252.75 129.61,251.58 129.23,247.38 128.73,239.43 128.65,236.66 128.72,234.82 128.91,233.49 129.63,230.13 
		130.2,226.25 130.7,223.26 131.2,218.64 131.59,215.98 132.86,208.57 134.01,202.83 134.63,199.35 134.84,197.61 134.94,195.22 
		134.92,194.52 134.83,193.92 134.32,191.6 134.02,190.76 133.45,189.78 132.17,187.89 131.69,187.31 131.25,186.87 130.64,186.39 
		130.04,186.04 129.61,185.9 129.05,185.87 128,185.92 125.81,186.12 122.33,186.79 121.11,187.08 120.3,187.32 119.81,187.5 
		119.29,187.74 118.88,187.98 118.54,188.26 118.27,188.52 118.01,188.88 117.84,189.18 117.69,189.58 117.53,190.33 117.39,191.58 
		117.27,195.23 117.42,196.36 118.22,200.17 118.29,201.01 118.27,202.23 118.22,202.86 118.12,203.42 117.63,205 117.14,207.17 
		116.55,209 116.4,209.66 116.31,210.32 116.29,211.45 116.47,215.83 116.49,219.18 116.41,220.54 116.09,223.67 115.93,225.85 
		115.82,228.25 115.77,230.74 115.79,232.21 115.85,233.42 115.97,234.72 116.15,236.14 116.39,237.67 116.65,238.91 116.94,240.14 
		117.26,241.31 118.08,243.76 119.08,246.24 119.72,247.67 122.46,253.31 122.75,253.78 122.98,254.1 124.4,255.6 126.2,257.28 
		126.49,257.51 126.79,257.67 127.11,257.73 127.51,257.68 	"></polyline>
</g>
<g>
	<polyline class="st2" points="126.75,253.37 126.31,253.46 125.91,253.41 125.57,253.27 125.22,253.02 124.71,252.52 
		124.23,251.94 123.8,251.36 123.37,250.69 122.53,249.15 121.54,247.04 120.49,244.64 119.98,243.27 119.55,241.79 118.65,237.59 
		118.23,235.22 117.99,233.06 117.9,230.91 118.01,226.9 118.12,224.92 118.3,222.96 118.87,217.91 119.32,212.38 119.66,209.93 
		119.67,209.43 119.58,208.38 119.58,207.87 119.73,206.56 119.77,206.01 119.71,202.68 119.56,201.03 119.26,199.36 118.29,195.42 
		118.21,194.91 118.23,192.22 118.28,191.6 118.38,191.06 118.51,190.6 118.67,190.19 118.87,189.8 119.07,189.52 119.28,189.27 
		119.55,189.03 119.85,188.83 120.18,188.67 120.66,188.51 121.38,188.32 123.87,187.82 126.53,187.37 127.31,187.28 127.92,187.25 
		128.5,187.29 128.97,187.37 129.45,187.52 129.87,187.73 130.27,188 130.65,188.34 131.03,188.76 131.45,189.34 131.99,190.16 
		132.36,190.77 132.66,191.38 132.93,192.11 133.15,192.83 133.3,193.53 133.38,194.27 133.4,195.06 133.36,196.38 133.24,198 
		133.03,200.01 132.82,201.54 132.54,203.14 131.65,207.24 131.2,209.53 130.9,211.67 130.07,216.77 129.88,218.34 129.39,223.11 
		128.74,227.06 128.44,229.26 128.16,230.69 127.45,233.51 127.24,234.77 127.19,235.69 127.19,236.84 127.3,244.3 127.39,246.29 
		127.67,250.47 127.64,251.19 127.56,251.91 127.41,252.52 127.24,252.94 127,253.23 126.75,253.37 	"></polyline>
</g>
<g>
	<polyline class="st1" points="125.05,249 125.18,248.94 125.24,248.85 125.37,248.46 125.49,247.06 125.54,244.61 125.7,241.29 
		125.65,236.14 125.68,235.01 125.73,234.27 125.92,233.24 126.71,230.08 127.22,227.1 127.78,224.7 127.97,223.76 128.25,221.46 
		128.69,216.38 129.12,212.88 129.72,208.85 130.77,204.09 131.18,201.89 131.54,199.38 131.81,196.68 131.86,195.22 131.79,194.14 
		131.68,193.47 131.47,192.54 131.35,192.12 131.19,191.78 130.27,190.26 129.99,189.85 129.8,189.65 129.23,189.3 128.5,188.95 
		127.94,188.77 127.46,188.7 126.83,188.71 126,188.79 124.99,188.94 124.07,189.12 122.92,189.41 121.83,189.72 120.88,190.04 
		120.22,190.33 119.93,190.49 119.69,190.7 119.52,190.92 119.39,191.16 119.2,191.84 119.06,192.93 119.03,194.53 119.14,195.43 
		119.34,196.22 120.33,199.6 120.98,202.25 121.19,203.27 121.36,206.2 121.43,210.22 121.59,213.07 121.56,213.89 121.29,215.75 
		120.23,224.98 119.97,226.17 119.85,227.31 119.78,228.99 119.85,230.98 119.85,233.59 119.89,234.56 120.02,235.79 120.3,237.53 
		120.83,240.66 121.14,242.03 121.36,242.72 121.66,243.45 123.36,246.96 124.11,248.46 124.37,248.72 124.74,248.94 124.9,249 
		125.05,249 	"></polyline>
</g>
<g>
	<polyline class="st1" points="123.39,240.63 123.66,240.52 123.78,240.35 123.86,239.7 123.89,238.01 123.88,236.68 123.92,235.38 
		124.02,233.9 124.13,232.81 124.23,232.25 124.36,231.81 124.97,230.2 125.13,229.35 125.18,228.29 125.06,227 125.09,226.29 
		125.27,225.66 125.95,224.25 126.06,223.95 126.15,223.57 126.42,221.48 126.67,218.66 126.76,217.52 126.84,215.38 126.95,214.29 
		127.35,212.04 127.68,209.89 127.87,208.8 129.44,201.9 130,198.1 130.24,195.87 130.24,194.72 130.19,194.29 130.11,193.94 
		129.86,193.21 129.55,192.46 129.22,191.76 128.9,191.18 128.59,190.81 128.06,190.5 127.41,190.27 126.71,190.16 126.33,190.16 
		125.84,190.22 123.58,190.66 121.89,191.13 121.16,191.39 120.73,191.58 120.38,191.81 120.17,192.09 119.81,193.28 119.74,193.77 
		119.76,194.8 119.93,195.74 120.56,197.73 121.98,202.47 122.1,202.95 122.32,205.42 122.6,208.99 123.14,212.85 123.32,214.79 
		123.32,215.75 123.22,217.56 122.88,220.6 122.58,223.86 122.44,224.88 122.04,226.68 121.94,227.58 121.92,228.59 122.03,230.29 
		122.05,231.42 122.04,232.85 121.96,234.55 121.99,235.14 122.32,237.27 122.86,240.21 122.96,240.51 123.12,240.64 123.39,240.63 
			"></polyline>
</g>
<g>
	<polyline class="st3" points="125.39,209.59 125.5,209.43 125.73,208.41 126.26,206.64 126.64,205.08 126.86,204.04 127.19,202.08 
		127.76,199.56 128,198.2 128.23,196.47 128.3,195.38 128.26,194.55 128.08,193.45 127.94,193 127.54,192.5 127.11,192.13 
		126.73,192 125.82,191.96 124.84,192.03 122.62,192.39 121.96,192.53 121.54,192.65 121.07,192.91 120.76,193.22 120.6,193.59 
		120.43,194.33 120.41,194.7 120.44,195.14 120.71,196.02 121.39,197.83 122.02,199.67 122.67,201.08 123.01,201.98 123.16,202.61 
		123.33,204.19 123.63,205.76 123.75,206.13 124.36,207.37 124.94,208.61 125.29,209.54 125.33,209.59 125.39,209.59 	"></polyline>
</g>
<g>
	<polyline class="st2" points="124.93,199.48 125.22,199.39 125.52,199.14 125.8,198.66 126,198 126.09,197.17 126.13,196.14 
		126.07,195.38 125.95,194.83 125.71,194.34 125.42,193.98 125.21,193.89 124.82,193.88 124.29,193.92 123.91,194.03 123.66,194.14 
		123.4,194.33 123.13,194.57 122.83,194.93 122.41,195.6 122.3,195.91 122.26,196.15 122.35,196.55 122.78,197.44 123.16,198.17 
		123.44,198.6 123.8,198.97 124.21,199.27 124.61,199.44 124.93,199.48 	"></polyline>
</g>
</svg>