<?xml version="1.0" encoding="utf-8"?>
<!-- Generator: Adobe Illustrator 27.0.0, SVG Export Plug-In . SVG Version: 6.00 Build 0)  -->
<svg version="1.1" id="Layer_1" xmlns="http://www.w3.org/2000/svg" xmlns:xlink="http://www.w3.org/1999/xlink" x="0px" y="0px"
	 viewBox="0 0 296.14 419.53" style="enable-background:new 0 0 296.14 419.53;" xml:space="preserve">
<style type="text/css">
	.st1{fill:#FFFFFF;}
	.st2{fill:#F7D100;}
	.st3{fill:#71BF09;}
	.st4{fill:#232323;}
	.st5{fill:#54792D;}
</style>
<g id="Layer_1_00000134231739797945313270000010131899185815185849_">
	<rect class="st4" width="296.14" height="419.53"/>
</g>
<g id="Layer_6">
	<rect x="8.51" y="8.51" class="st1" width="279.13" height="402.52"/>
	<rect class="st2" width="8.51" height="8.51"/>
	<g>
		<rect y="8.51" class="st3" width="8.51" height="8.51"/>
		<rect y="25.52" class="st3" width="8.51" height="8.51"/>
		<rect y="42.53" class="st3" width="8.51" height="8.51"/>
		<rect y="59.55" class="st3" width="8.51" height="8.51"/>
		<rect y="93.57" class="st3" width="8.51" height="8.51"/>
		<rect y="110.59" class="st3" width="8.51" height="25.52"/>
		<rect y="161.63" class="st3" width="8.51" height="8.51"/>
		<rect y="178.64" class="st3" width="8.51" height="25.52"/>
		<rect y="212.67" class="st3" width="8.51" height="25.52"/>
		<rect y="246.69" class="st3" width="8.51" height="8.51"/>
		<rect y="280.72" class="st3" width="8.51" height="8.51"/>
		<rect y="297.73" class="st3" width="8.51" height="25.52"/>
		<rect y="331.76" class="st3" width="8.51" height="25.52"/>
		<rect y="365.78" class="st3" width="8.51" height="8.51"/>
		<rect x="0" y="399.81" class="st3" width="8.51" height="19.72"/>
		<rect x="25.52" y="411.02" class="st3" width="8.51" height="8.51"/>
		<rect x="42.54" y="411.02" class="st3" width="25.52" height="8.51"/>
		<rect x="76.56" y="411.02" class="st3" width="25.52" height="8.51"/>
		<rect x="127.6" y="411.02" class="st3" width="8.51" height="8.51"/>
		<rect x="144.61" y="411.02" class="st3" width="8.51" height="8.51"/>
		<rect x="161.63" y="411.02" class="st3" width="25.52" height="8.51"/>
		<rect x="195.65" y="411.02" class="st3" width="25.52" height="8.51"/>
		<rect x="229.68" y="411.02" class="st3" width="25.52" height="8.51"/>
		<rect x="280.72" y="411.02" class="st3" width="8.51" height="8.51"/>
		<rect x="287.63" y="394.01" class="st3" width="8.51" height="8.51"/>
		<rect x="287.63" y="377" class="st3" width="8.51" height="8.51"/>
		<rect x="287.63" y="342.97" class="st3" width="8.51" height="25.52"/>
		<rect x="287.63" y="308.94" class="st3" width="8.51" height="25.52"/>
		<rect x="287.63" y="274.92" class="st3" width="8.51" height="8.51"/>
		<rect x="287.63" y="240.89" class="st3" width="8.51" height="25.52"/>
		<rect x="287.63" y="223.88" class="st3" width="8.51" height="8.51"/>
		<rect x="287.63" y="172.84" class="st3" width="8.51" height="25.52"/>
		<rect x="287.63" y="155.82" class="st3" width="8.51" height="8.51"/>
		<rect x="287.63" y="138.81" class="st3" width="8.51" height="8.51"/>
		<rect x="287.63" y="104.78" class="st3" width="8.51" height="8.51"/>
		<rect x="287.63" y="70.76" class="st3" width="8.51" height="25.52"/>
		<rect x="287.63" y="36.73" class="st3" width="8.51" height="25.52"/>
		<rect x="287.63" y="19.72" class="st3" width="8.51" height="8.51"/>
		<rect x="270.62" y="0" class="st3" width="8.51" height="8.51"/>
		<rect x="253.61" y="0" class="st3" width="8.51" height="8.51"/>
		<rect x="236.59" y="0" class="st3" width="8.51" height="8.51"/>
		<rect x="219.58" y="0" class="st3" width="8.51" height="8.51"/>
		<rect x="168.54" y="0" class="st3" width="25.52" height="8.51"/>
		<rect x="134.51" y="0" class="st3" width="25.52" height="8.51"/>
		<rect x="100.49" y="0" class="st3" width="25.51" height="8.5"/>
		<rect x="8.51" y="411.02" class="st3" width="8.51" height="8.51"/>
	</g>
	<g>
		<rect y="17.01" class="st4" width="8.51" height="8.51"/>
		<rect y="34.03" class="st4" width="8.51" height="8.51"/>
		<rect y="51.04" class="st4" width="8.51" height="8.51"/>
		<rect y="68.05" class="st4" width="8.51" height="25.52"/>
		<rect y="102.08" class="st4" width="8.51" height="8.51"/>
		<rect y="136.11" class="st4" width="8.51" height="25.52"/>
		<rect y="170.13" class="st4" width="8.51" height="8.51"/>
		<rect y="204.16" class="st4" width="8.51" height="8.51"/>
		<rect y="238.19" class="st4" width="8.51" height="8.51"/>
		<rect y="255.2" class="st4" width="8.51" height="25.52"/>
		<rect y="289.23" class="st4" width="8.51" height="8.51"/>
		<rect y="323.25" class="st4" width="8.51" height="8.51"/>
		<rect y="357.28" class="st4" width="8.51" height="8.51"/>
		<rect y="374.29" class="st4" width="8.51" height="25.52"/>
		<rect x="17.01" y="411.02" class="st4" width="8.51" height="8.51"/>
		<rect x="34.03" y="411.02" class="st4" width="8.51" height="8.51"/>
		<rect x="68.05" y="411.02" class="st4" width="8.51" height="8.51"/>
		<rect x="102.08" y="411.02" class="st4" width="25.52" height="8.51"/>
		<rect x="136.11" y="411.02" class="st4" width="8.51" height="8.51"/>
		<rect x="153.12" y="411.02" class="st4" width="8.51" height="8.51"/>
		<rect x="187.15" y="411.02" class="st4" width="8.51" height="8.51"/>
		<rect x="221.17" y="411.02" class="st4" width="8.51" height="8.51"/>
		<rect x="255.2" y="411.02" class="st4" width="25.52" height="8.51"/>
		<rect x="289.23" y="411.02" class="st4" width="6.91" height="8.51"/>
		<rect x="287.63" y="385.5" class="st4" width="8.51" height="8.51"/>
		<rect x="287.63" y="368.49" class="st4" width="8.51" height="8.51"/>
		<rect x="287.63" y="334.46" class="st4" width="8.51" height="8.51"/>
		<rect x="287.63" y="283.42" class="st4" width="8.51" height="25.52"/>
		<rect x="287.63" y="266.41" class="st4" width="8.51" height="8.51"/>
		<rect x="287.63" y="232.38" class="st4" width="8.51" height="8.51"/>
		<rect x="287.63" y="198.36" class="st4" width="8.51" height="25.52"/>
		<rect x="287.63" y="164.33" class="st4" width="8.51" height="8.51"/>
		<rect x="287.63" y="147.32" class="st4" width="8.51" height="8.51"/>
		<rect x="287.63" y="113.29" class="st4" width="8.51" height="25.52"/>
		<rect x="287.63" y="96.28" class="st4" width="8.51" height="8.51"/>
		<rect x="287.63" y="62.25" class="st4" width="8.51" height="8.51"/>
		<rect x="287.63" y="28.23" class="st4" width="8.51" height="8.51"/>
		<rect x="287.63" y="0" class="st4" width="8.51" height="19.72"/>
		<rect x="262.11" y="0" class="st4" width="8.51" height="8.51"/>
		<rect x="245.1" y="0" class="st4" width="8.51" height="8.51"/>
		<rect x="228.09" y="0" class="st4" width="8.51" height="8.51"/>
		<rect x="194.06" y="0" class="st4" width="25.52" height="8.51"/>
		<rect x="160.03" y="0" class="st4" width="8.51" height="8.51"/>
		<rect x="126.01" y="0" class="st4" width="8.51" height="8.51"/>
		<rect x="8.51" y="0" class="st4" width="91.98" height="8.51"/>
		<rect x="287.63" y="402.52" class="st4" width="8.51" height="8.51"/>
		<rect x="279.13" class="st4" width="8.51" height="8.51"/>
	</g>
</g>
<g id="Layer_7">
	<rect class="st4" width="296.14" height="419.53"/>
</g>
<g id="Layer_2_00000044149815630260420230000011314299825256055939_">
	<path class="st5" d="M267.76,419.53h28.38v-26.59c-4.62-6.87-9.08-13.49-13.38-19.87C277.32,386.96,272.44,402.24,267.76,419.53z"
		/>
	<path class="st5" d="M0,392.93v26.59h28.38c-4.68-17.29-9.56-32.57-15-46.46C9.08,379.44,4.62,386.07,0,392.93z"/>
	<path class="st5" d="M76.75,419.53h55.45c-8.51-28.56-15.54-52.19-21.95-72.22C100.84,367.76,89.81,391.61,76.75,419.53z"/>
	<path class="st5" d="M163.94,419.53h55.44c-13.06-27.91-24.08-51.77-33.5-72.22C179.47,367.34,172.45,390.97,163.94,419.53z"/>
	<path class="st5" d="M0,343.72v34.61c3.35-4.81,6.61-9.5,9.79-14.06C6.74,357.1,3.48,350.29,0,343.72z"/>
	<path class="st5" d="M296.14,378.34v-34.61c-3.48,6.57-6.74,13.38-9.79,20.56C289.52,368.84,292.79,373.52,296.14,378.34z"/>
	<path class="st5" d="M81.14,273.52c-15.26,22.36-34.53,50.41-59.31,87.03c6.9,17.07,12.9,36.3,18.78,58.98h27.34
		c15.64-32.09,28.54-58.87,39.33-81.35C98.52,311.52,90.64,291.42,81.14,273.52z"/>
	<path class="st5" d="M214.99,273.52c-9.5,17.9-17.38,38-26.15,64.66c10.79,22.48,23.69,49.26,39.33,81.35h27.34
		c5.88-22.68,11.88-41.9,18.78-58.98C249.53,323.93,230.26,295.88,214.99,273.52z"/>
	<path class="st5" d="M148.07,266.06c-8.86,18.24-19.12,40.61-33.04,70.87c7.42,22.21,15.68,49.03,26.14,82.6h13.8
		c10.46-33.56,18.72-60.39,26.14-82.6C167.19,306.68,156.93,284.3,148.07,266.06z"/>
	<path class="st5" d="M77.91,267.63c-9.87-17.47-21.67-33.28-37.55-51.65C29.05,228.91,15.74,243.38,0,260.41v57.34
		c6.86,10.78,12.87,22.05,18.29,34.38C43.18,316.58,62.56,289.37,77.91,267.63z"/>
	<path class="st5" d="M218.22,267.63c15.36,21.75,34.74,48.95,59.63,84.5c5.42-12.33,11.42-23.6,18.29-34.38v-57.34
		c-15.74-17.03-29.05-31.5-40.36-44.43C239.89,234.35,228.1,250.16,218.22,267.63z"/>
	<path class="st5" d="M86.09,266.26c9.41,17.29,17.24,36.5,25.98,61.95c13.94-29.05,24.23-50.49,33.09-68.09
		c-8.59-17.41-16.08-31.19-24.89-45.55C111.2,229.14,100.53,245.07,86.09,266.26z"/>
	<path class="st5" d="M150.98,260.12c8.86,17.59,19.14,39.04,33.09,68.09c8.75-25.46,16.57-44.66,25.98-61.95
		c-14.44-21.19-25.11-37.12-34.18-51.68C167.05,228.94,159.57,242.72,150.98,260.12z"/>
	<path class="st5" d="M0,171.92v75.68c13.37-14.16,24.92-26.55,34.92-37.84C24.92,198.47,13.37,186.09,0,171.92z"/>
	<path class="st5" d="M213.24,158.96c-14.52,20.64-25.27,36.27-34.39,50.8c9.12,14.53,19.86,30.16,34.39,50.8
		c9.78-16.92,21.44-32.46,37.15-50.8C234.68,191.42,223.02,175.88,213.24,158.96z"/>
	<path class="st5" d="M82.89,158.96c-9.78,16.92-21.44,32.46-37.15,50.8c15.71,18.34,27.37,33.88,37.15,50.8
		c14.52-20.64,25.27-36.27,34.39-50.8C108.16,195.23,97.42,179.6,82.89,158.96z"/>
	<path class="st5" d="M296.14,247.6v-75.68c-13.37,14.16-24.92,26.55-34.92,37.84C271.22,221.05,282.77,233.44,296.14,247.6z"/>
	<path class="st5" d="M148.07,165.14c-8.59,16.82-16.06,30.3-24.82,44.63c8.77,14.33,16.24,27.81,24.82,44.63
		c8.59-16.82,16.06-30.3,24.82-44.63C164.12,195.43,156.66,181.96,148.07,165.14z"/>
	<path class="st5" d="M210.04,153.26c-9.41-17.29-17.24-36.5-25.98-61.95c-13.95,29.05-24.23,50.5-33.09,68.09
		c8.59,17.4,16.08,31.18,24.89,45.54C184.94,190.39,195.61,174.46,210.04,153.26z"/>
	<path class="st5" d="M145.16,159.4c-8.86-17.59-19.14-39.04-33.09-68.09c-8.75,25.46-16.57,44.66-25.98,61.95
		c14.43,21.19,25.11,37.12,34.18,51.69C129.08,190.59,136.57,176.81,145.16,159.4z"/>
	<path class="st5" d="M218.22,151.9c9.87,17.47,21.66,33.27,37.55,51.64c11.31-12.93,24.62-27.4,40.37-44.43v-57.34
		c-6.86-10.78-12.87-22.05-18.29-34.38C252.96,102.95,233.58,130.15,218.22,151.9z"/>
	<path class="st5" d="M77.91,151.9c-15.36-21.75-34.74-48.95-59.63-84.5C12.87,79.72,6.86,90.99,0,101.77v57.34
		c15.74,17.03,29.05,31.49,40.36,44.43C56.25,185.17,68.04,169.37,77.91,151.9z"/>
	<path class="st5" d="M148.07,153.46c8.86-18.24,19.12-40.61,33.04-70.87c-7.42-22.2-15.68-49.03-26.14-82.59h-13.8
		c-10.46,33.56-18.72,60.39-26.14,82.59C128.95,112.85,139.21,135.22,148.07,153.46z"/>
	<path class="st5" d="M296.14,75.8V41.19c-3.35,4.81-6.61,9.5-9.79,14.06C289.4,62.42,292.66,69.23,296.14,75.8z"/>
	<path class="st5" d="M214.99,146.01c15.26-22.35,34.53-50.41,59.31-87.03C267.4,41.9,261.4,22.67,255.52,0h-27.34
		c-15.64,32.09-28.54,58.87-39.33,81.35C197.62,108.01,205.5,128.1,214.99,146.01z"/>
	<path class="st5" d="M81.14,146.01c9.5-17.9,17.38-38,26.15-64.66C96.5,58.87,83.6,32.09,67.96,0H40.62
		c-5.88,22.67-11.88,41.9-18.78,58.98C46.61,95.59,65.88,123.65,81.14,146.01z"/>
	<path class="st5" d="M0,41.19V75.8c3.48-6.57,6.74-13.38,9.79-20.56C6.61,50.69,3.35,46,0,41.19z"/>
	<path class="st5" d="M132.2,0H76.75c13.06,27.91,24.08,51.77,33.5,72.22C116.66,52.19,123.69,28.56,132.2,0z"/>
	<path class="st5" d="M219.38,0h-55.45c8.51,28.56,15.54,52.19,21.95,72.22C195.3,51.77,206.33,27.91,219.38,0z"/>
	<path class="st5" d="M296.14,26.59V0h-28.38c4.68,17.29,9.56,32.57,15,46.46C287.06,40.09,291.52,33.46,296.14,26.59z"/>
	<path class="st5" d="M28.38,0H0v26.6c4.62,6.87,9.08,13.49,13.38,19.87C18.82,32.57,23.69,17.29,28.38,0z"/>
</g>
<g id="Layer_3">
	<path class="st3" d="M288.64,397.51c-2.4,6.98-4.71,14.3-6.94,22.02h14.44v-10.46C293.59,405.14,291.09,401.28,288.64,397.51z"/>
	<path class="st3" d="M0,409.27v10.26h14.61c-2.24-7.74-4.54-15.08-6.95-22.07C5.16,401.31,2.6,405.25,0,409.27z"/>
	<path class="st3" d="M86.15,419.53h36.34c-5.27-18.49-9.96-34.89-14.33-49.56C101.59,384.86,94.29,401.32,86.15,419.53z"/>
	<path class="st3" d="M173.77,419.53h36.33c-8.14-18.2-15.44-34.66-22.01-49.54C183.73,384.66,179.04,401.04,173.77,419.53z"/>
	<path class="st3" d="M78.93,288.51c-12.16,18.49-26.7,40.57-44.26,67.46c6.96,18.13,13.09,38.78,19.31,63.56h3.87
		c16.08-31.55,29.47-58.03,40.73-80.38C92.08,319.29,85.9,303.04,78.93,288.51z"/>
	<path class="st3" d="M217.32,288.53c-6.97,14.53-13.16,30.78-19.66,50.64c11.27,22.35,24.65,48.82,40.74,80.36h3.9
		c6.22-24.76,12.35-45.4,19.31-63.52C244.04,329.11,229.49,307.03,217.32,288.53z"/>
	<path class="st3" d="M123.46,335.17c7,20.41,14.88,44.73,24.66,74.57c9.77-29.83,17.65-54.15,24.65-74.56
		c-9.81-22.33-17.71-40.27-24.66-55.43C141.16,294.91,133.27,312.84,123.46,335.17z"/>
	<path class="st3" d="M68.41,268.81c-7.92-13.33-17.12-25.86-28.52-39.41C28.58,242.34,15.41,256.93,0,274.06v18.34
		c9,12.04,16.64,24.31,23.37,37.75C41.21,305.72,56.01,285.69,68.41,268.81z"/>
	<path class="st3" d="M227.84,268.83c12.41,16.89,27.23,36.92,45.08,61.37c6.69-13.36,14.28-25.56,23.22-37.53V273.9
		c-15.35-17.06-28.48-31.6-39.75-44.49C244.98,242.96,235.77,255.49,227.84,268.83z"/>
	<path class="st3" d="M120.11,225c-7.11,11.39-15.26,23.99-25.39,39.45c6.77,12.89,12.84,26.98,19.26,44.12
		c9.86-19.58,17.8-35.28,24.76-48.71C132.44,246.92,126.57,235.9,120.11,225z"/>
	<path class="st3" d="M157.47,259.87c6.97,13.44,14.91,29.14,24.78,48.73c6.42-17.14,12.49-31.23,19.26-44.12
		c-10.13-15.47-18.29-28.07-25.4-39.47C169.64,235.9,163.77,246.92,157.47,259.87z"/>
	<path class="st3" d="M0,185.8v46.97c8.06-8.39,15.41-16.16,22.13-23.48C15.41,201.97,8.05,194.2,0,185.8z"/>
	<path class="st3" d="M211.81,171.94c-10.38,14.36-18.74,26.29-26,37.47c7.24,11.17,15.57,23.05,25.91,37.34
		c7.67-12.18,16.55-24.06,27.57-37.41C228.31,196.02,219.46,184.14,211.81,171.94z"/>
	<path class="st3" d="M84.43,171.95c-7.65,12.2-16.49,24.08-27.46,37.39c11,13.35,19.88,25.22,27.54,37.4
		c10.33-14.29,18.65-26.16,25.89-37.33C103.15,198.23,94.8,186.31,84.43,171.95z"/>
	<path class="st3" d="M296.14,232.61v-46.63c-7.99,8.32-15.3,16.04-21.97,23.32C280.84,216.57,288.14,224.29,296.14,232.61z"/>
	<path class="st3" d="M129.63,209.43c6.38,10.67,12.19,20.96,18.48,32.67c6.29-11.71,12.1-22,18.48-32.67
		c-6.36-10.66-12.18-20.97-18.48-32.73C141.81,188.45,135.99,198.76,129.63,209.43z"/>
	<path class="st3" d="M176.13,193.82c7.13-11.43,15.32-24.09,25.49-39.66c-6.76-12.95-12.83-27.13-19.26-44.38
		c-9.91,19.72-17.88,35.53-24.87,49.05C163.8,171.85,169.67,182.91,176.13,193.82z"/>
	<path class="st3" d="M138.72,158.83c-6.98-13.52-14.95-29.32-24.85-49.04c-6.43,17.26-12.49,31.44-19.25,44.39
		c10.17,15.56,18.34,28.22,25.47,39.65C126.54,182.91,132.41,171.85,138.72,158.83z"/>
	<path class="st3" d="M227.98,149.74c7.91,13.38,17.08,25.93,28.46,39.47c11.27-12.89,24.38-27.44,39.69-44.49v-19.35
		c-8.81-11.9-16.31-24.05-22.92-37.36C255.31,112.6,240.44,132.76,227.98,149.74z"/>
	<path class="st3" d="M68.27,149.76c-12.45-16.98-27.3-37.13-45.19-61.7C16.43,101.45,8.87,113.67,0,125.64v18.92
		c15.38,17.13,28.54,31.73,39.83,44.66C51.2,175.68,60.37,163.14,68.27,149.76z"/>
	<path class="st3" d="M172.86,83c-7.02-20.56-14.92-45.05-24.74-75.09c-9.82,30.04-17.73,54.54-24.75,75.1
		c9.85,22.48,17.77,40.55,24.74,55.81C155.08,123.56,163.01,105.48,172.86,83z"/>
	<path class="st3" d="M217.48,129.95c12.22-18.61,26.82-40.84,44.45-67.89C255.16,44.29,249.18,24.09,243.11,0h-5.35
		c-15.72,30.9-28.84,56.93-39.93,78.99C204.34,98.98,210.52,115.34,217.48,129.95z"/>
	<path class="st3" d="M78.77,129.98C85.72,115.37,91.91,99,98.42,79.01C87.34,56.95,74.21,30.91,58.5,0h-5.32
		c-6.07,24.11-12.05,44.32-18.82,62.1C51.97,89.15,66.56,111.37,78.77,129.98z"/>
	<path class="st3" d="M121.82,0H86.77C94.6,17.56,101.64,33.5,108,47.96C112.23,33.71,116.76,17.82,121.82,0z"/>
	<path class="st3" d="M209.48,0h-35.05c5.06,17.82,9.59,33.69,13.81,47.94C194.61,33.49,201.65,17.55,209.48,0z"/>
	<path class="st3" d="M296.14,9.35V0h-13.48c2.06,7.09,4.18,13.85,6.39,20.32C291.36,16.73,293.73,13.07,296.14,9.35z"/>
	<path class="st3" d="M13.65,0H0v9.15c2.46,3.81,4.88,7.55,7.25,11.22C9.47,13.89,11.59,7.11,13.65,0z"/>
</g>
<g id="Layer_4">
	<path class="st2" d="M95.48,419.53h17.08c-2.34-8.57-4.57-16.69-6.72-24.38C102.57,402.89,99.11,411.02,95.48,419.53z"/>
	<path class="st2" d="M183.81,419.53h17.06c-3.63-8.49-7.08-16.61-10.36-24.34C188.37,402.87,186.15,410.97,183.81,419.53z"/>
	<path class="st2" d="M46.77,351.7c4.77,13.01,9.21,27.38,13.66,43.7c10.96-20.64,20.6-38.85,29.12-54.99
		c-4.35-13.23-8.66-24.89-13.24-35.54C67.66,318.57,57.88,334.06,46.77,351.7z"/>
	<path class="st2" d="M206.79,340.46c8.54,16.14,18.19,34.36,29.17,55.01c4.45-16.31,8.89-30.68,13.67-43.69
		c-11.12-17.65-20.92-33.15-29.59-46.86C215.45,315.57,211.15,327.23,206.79,340.46z"/>
	<path class="st2" d="M131.68,333.71c4.92,13.87,10.31,29.54,16.49,47.5c6.17-17.96,11.56-33.62,16.47-47.49
		c-6.19-14.73-11.58-27.52-16.49-38.85C143.25,306.2,137.87,318.98,131.68,333.71z"/>
	<path class="st2" d="M38.85,243.12c-9.29,10.76-19.76,22.7-31.59,36.23c7.76,9.99,14.51,20.02,20.54,30.68
		c11.42-15.01,21.5-28.18,30.44-39.9C52.54,261.02,46.17,252.2,38.85,243.12z"/>
	<path class="st2" d="M238.13,270.18c8.96,11.73,19.06,24.91,30.49,39.93c6.04-10.66,12.8-20.7,20.58-30.7
		c-11.85-13.54-22.33-25.49-31.64-36.26C250.23,252.23,243.85,261.05,238.13,270.18z"/>
	<path class="st2" d="M119.74,235.77c-5,8.11-10.53,16.97-16.88,27.07c4.39,8.61,8.55,17.81,12.79,28.17
		c6.24-11.81,11.68-22.05,16.6-31.24C128.07,251.14,124,243.32,119.74,235.77z"/>
	<path class="st2" d="M164.04,259.78c4.93,9.19,10.37,19.44,16.63,31.26c4.24-10.36,8.4-19.56,12.8-28.17
		c-6.36-10.11-11.91-18.97-16.91-27.08C172.29,243.33,168.22,251.15,164.04,259.78z"/>
	<path class="st2" d="M0,200.07v17.43c2.88-2.97,5.67-5.88,8.36-8.71C5.67,205.95,2.88,203.05,0,200.07z"/>
	<path class="st2" d="M193.16,209.04c5.17,7.69,10.9,15.75,17.49,24.69c5.4-8,11.41-16.08,18.32-24.79
		c-6.86-8.66-12.83-16.74-18.2-24.75C204.14,193.22,198.36,201.33,193.16,209.04z"/>
	<path class="st2" d="M67.39,208.95c6.89,8.69,12.9,16.77,18.29,24.77c6.58-8.94,12.3-16.99,17.46-24.68
		c-5.19-7.71-10.96-15.81-17.58-24.83C80.21,192.23,74.24,200.29,67.39,208.95z"/>
	<path class="st2" d="M296.14,217.16v-16.74c-2.76,2.85-5.44,5.64-8.03,8.37C290.7,211.51,293.38,214.3,296.14,217.16z"/>
	<path class="st2" d="M135.81,209.1c4.18,7.12,8.18,14.12,12.33,21.54c4.15-7.42,8.15-14.42,12.33-21.54
		c-4.17-7.12-8.18-14.13-12.33-21.6C143.98,194.96,139.98,201.98,135.81,209.1z"/>
	<path class="st2" d="M176.63,182.28c5.04-8.19,10.62-17.14,17.03-27.37c-4.39-8.69-8.54-18-12.79-28.5
		c-6.3,11.98-11.78,22.37-16.74,31.67C168.3,166.8,172.37,174.68,176.63,182.28z"/>
	<path class="st2" d="M132.17,158.08c-4.95-9.3-10.43-19.68-16.72-31.65c-4.25,10.5-8.41,19.81-12.79,28.5
		c6.4,10.23,11.97,19.18,17,27.36C123.92,174.69,127.99,166.81,132.17,158.08z"/>
	<path class="st2" d="M257.75,174.51c9.37-10.86,19.92-22.93,31.83-36.61c-7.73-10.04-14.45-20.14-20.45-30.9
		c-11.51,15.2-21.68,28.53-30.69,40.39C244.13,156.57,250.47,165.42,257.75,174.51z"/>
	<path class="st2" d="M57.94,147.43c-9.01-11.85-19.16-25.17-30.65-40.36c-5.99,10.76-12.7,20.86-20.42,30.89
		c11.9,13.67,22.43,25.73,31.78,36.58C45.93,165.46,52.26,156.61,57.94,147.43z"/>
	<path class="st2" d="M164.76,83.1c-4.94-14.07-10.36-29.97-16.59-48.18c-6.23,18.22-11.66,34.12-16.61,48.2
		c6.23,14.94,11.66,27.91,16.59,39.4C153.08,111.02,158.52,98.05,164.76,83.1z"/>
	<path class="st2" d="M250.23,64.86c-4.76-13.18-9.2-27.75-13.66-44.29c-11.06,20.91-20.79,39.37-29.39,55.73
		c4.36,13.41,8.66,25.23,13.24,36.01C229.16,98.42,239.03,82.73,250.23,64.86z"/>
	<path class="st2" d="M89.17,76.35c-8.59-16.35-18.3-34.8-29.35-55.7c-4.45,16.54-8.89,31.11-13.65,44.29
		C57.35,82.8,67.2,98.49,75.93,112.37C80.51,101.58,84.81,89.77,89.17,76.35z"/>
	<path class="st2" d="M111.22,0h-14.5c3.06,7.22,5.99,14.16,8.8,20.83C107.35,14.2,109.25,7.26,111.22,0z"/>
	<path class="st2" d="M199.64,0h-14.48c1.97,7.25,3.86,14.17,5.69,20.79C193.65,14.13,196.58,7.2,199.64,0z"/>
</g>
<g id="Layer_5">
	<path class="st4" d="M57.92,349.18c2.37,6.75,4.67,13.87,6.96,21.45c5.35-9.69,10.36-18.76,15.06-27.28
		c-2.26-6.8-4.52-13.2-6.85-19.27C68.36,331.91,63.3,340.26,57.92,349.18z"/>
	<path class="st4" d="M216.54,343.43c4.71,8.53,9.73,17.61,15.09,27.3c2.29-7.58,4.6-14.7,6.96-21.45
		c-5.4-8.93-10.46-17.29-15.21-25.13C221.06,330.23,218.8,336.63,216.54,343.43z"/>
	<path class="st4" d="M139.73,333.91c2.66,7.27,5.48,15.04,8.49,23.36c3-8.32,5.81-16.08,8.47-23.35c-3.01-7.5-5.82-14.5-8.49-21.05
		C145.54,319.42,142.73,326.41,139.73,333.91z"/>
	<path class="st4" d="M20.99,277.38c3.69,5.03,7.15,10.09,10.39,15.25c5.61-7.11,10.88-13.77,15.82-20.04
		c-3.15-4.8-6.5-9.53-10.09-14.27C32.07,264.3,26.71,270.63,20.99,277.38z"/>
	<path class="st4" d="M249.32,272.67c4.96,6.27,10.24,12.94,15.86,20.06c3.25-5.17,6.71-10.23,10.42-15.26
		c-5.73-6.76-11.11-13.1-16.17-19.08C255.84,263.13,252.48,267.87,249.32,272.67z"/>
	<path class="st4" d="M110.46,262.26c2.2,4.43,4.36,9.04,6.52,13.9c3.04-5.5,5.88-10.64,8.57-15.49c-2.15-4.44-4.28-8.67-6.45-12.78
		C116.4,252.4,113.53,257.17,110.46,262.26z"/>
	<path class="st4" d="M170.81,260.69c2.69,4.85,5.54,10,8.59,15.5c2.16-4.86,4.33-9.47,6.53-13.9c-3.07-5.1-5.95-9.87-8.67-14.39
		C175.09,252.02,172.96,256.25,170.81,260.69z"/>
	<path class="st4" d="M210.1,196.74c-3.24,4.38-6.26,8.58-9.12,12.65c2.84,4.07,5.86,8.25,9.09,12.62c2.91-4.12,6-8.31,9.31-12.64
		C216.08,205.04,213,200.85,210.1,196.74z"/>
	<path class="st4" d="M77.08,209.37c3.3,4.33,6.38,8.52,9.29,12.63c3.22-4.36,6.23-8.54,9.07-12.61c-2.85-4.07-5.87-8.26-9.1-12.64
		C83.43,200.86,80.36,205.04,77.08,209.37z"/>
	<path class="st4" d="M148.17,198.45c-2.11,3.7-4.21,7.33-6.32,10.98c2.12,3.65,4.21,7.28,6.32,10.98
		c2.11-3.69,4.21-7.33,6.32-10.98C152.38,205.78,150.28,202.15,148.17,198.45z"/>
	<path class="st4" d="M170.86,157.99c2.15,4.46,4.28,8.72,6.45,12.84c2.73-4.54,5.61-9.34,8.7-14.47c-2.2-4.45-4.36-9.09-6.53-13.98
		C176.43,147.94,173.57,153.11,170.86,157.99z"/>
	<path class="st4" d="M125.51,158.01c-2.7-4.87-5.55-10.05-8.6-15.59c-2.17,4.89-4.33,9.52-6.52,13.98
		c3.08,5.12,5.96,9.92,8.68,14.46C121.23,166.73,123.36,162.48,125.51,158.01z"/>
	<path class="st4" d="M249.49,145.85c3.15,4.82,6.5,9.56,10.08,14.31c5.07-6.01,10.47-12.38,16.22-19.18
		c-3.69-5.04-7.14-10.12-10.39-15.31C259.76,132.84,254.46,139.54,249.49,145.85z"/>
	<path class="st4" d="M47.04,145.92c-4.97-6.3-10.25-13-15.88-20.15c-3.24,5.19-6.68,10.26-10.36,15.3
		c5.73,6.78,11.12,13.15,16.18,19.15C40.56,155.48,43.9,150.74,47.04,145.92z"/>
	<path class="st4" d="M139.7,84.27c3.01,7.55,5.83,14.59,8.5,21.19c2.67-6.6,5.5-13.64,8.52-21.2c-2.67-7.32-5.49-15.14-8.5-23.51
		C145.2,69.12,142.37,76.94,139.7,84.27z"/>
	<path class="st4" d="M216.76,74.7c2.26,6.85,4.52,13.29,6.85,19.4c4.77-7.89,9.84-16.3,15.26-25.29
		c-2.37-6.79-4.67-13.96-6.96-21.59C226.53,56.97,221.49,66.11,216.76,74.7z"/>
	<path class="st4" d="M79.71,74.78c-4.72-8.58-9.75-17.71-15.12-27.46c-2.29,7.63-4.59,14.8-6.96,21.59
		c5.41,8.98,10.47,17.38,15.23,25.27C75.19,88.07,77.46,81.63,79.71,74.78z"/>
</g>
</svg>
