<?xml version="1.0" encoding="utf-8"?>
<!-- Generator: Adobe Illustrator 27.0.0, SVG Export Plug-In . SVG Version: 6.00 Build 0)  -->
<svg version="1.1" xmlns="http://www.w3.org/2000/svg" xmlns:xlink="http://www.w3.org/1999/xlink" x="0px" y="0px"
	 viewBox="0 0 297.64 419.53" style="enable-background:new 0 0 297.64 419.53;" xml:space="preserve">
<style type="text/css">
	.st0{fill:#232323;}
	.st1{fill:#0091FF;}
	.st2{fill:#FF0076;}
	.st3{fill-rule:evenodd;clip-rule:evenodd;fill:#FF0076;}
	.st4{fill-rule:evenodd;clip-rule:evenodd;fill:#8F00FF;}
	.st5{fill-rule:evenodd;clip-rule:evenodd;fill:#0091FF;}
	.st6{fill-rule:evenodd;clip-rule:evenodd;fill:#00D4FF;}
</style>
<g id="Layer_1">
	<path class="st0" d="M0,0v419.53h297.64V0H0z M200.26,206.12l-2.12,3.23l1.19,1.82l-1.19,1.56l1.82,3.25l-2.69,2.77l2.52,6.17
		l-5.5,3.67l0.67,3.71l-3.44,1.74l0.12,2.09l-1.82,0.76l-0.05,3.77l-3.71,1.05l-0.9,6.58l-6.61,0.43l-1.29,3.6l-3.82-0.22
		l-0.91,1.81l-2.01-0.26l-1.95,3.28l-3.7-0.94l-4.06,5.24l-5.96-2.94l-2.94,2.49l-3.16-2.07l-1.65,1.08l-1.67-1.27l-3.36,1.88
		l-2.7-2.63l-6.12,2.5l-3.71-5.55l-3.8,0.69l-1.68-3.32l-1.96,0.11l-0.84-2l-3.86-0.05l-1.01-3.58l-6.56-0.89l-0.44-6.68l-3.62-1.3
		l0.21-3.68l-1.77-0.89l0.28-2.21l-3.3-1.96l0.91-3.57l-5.25-4.06l2.97-6.02l-2.46-2.9l2.01-3.06l-1.12-1.71l1.37-1.8l-1.86-3.32
		l2.56-2.62l-2.52-6.16l5.58-3.73l-0.67-3.69l3.28-1.65l-0.12-2.12l2.07-0.87l0.05-3.75l3.53-1l0.9-6.62l6.69-0.44l1.25-3.48
		l3.7,0.21l0.99-1.96l2.18,0.28l1.89-3.18l3.59,0.91l4.11-5.3l6,2.96l2.8-2.37l3.14,2.06l1.88-1.23l1.69,1.29l3.2-1.79l2.69,2.62
		l6.22-2.54l3.7,5.54l3.6-0.65l1.71,3.39l2.26-0.13l0.79,1.89l3.66,0.05l1.03,3.66l6.65,0.91l0.43,6.62l3.46,1.24l-0.22,3.84
		l1.99,1.01l-0.25,1.97l3.16,1.88l-0.95,3.72l5.29,4.1l-2.93,5.94L200.26,206.12z"/>
</g>
<g id="Layer_6">
	<polygon class="st1" points="99.38,209.35 98.26,207.64 99.62,205.84 97.77,202.52 100.32,199.9 97.8,193.73 103.38,190 
		102.72,186.31 105.99,184.66 105.87,182.54 107.95,181.67 108,177.92 111.53,176.92 112.43,170.3 119.12,169.86 120.37,166.38 
		124.07,166.59 125.06,164.62 127.24,164.9 129.13,161.72 132.72,162.63 136.82,157.33 142.82,160.28 145.62,157.91 148.76,159.97 
		150.64,158.74 152.14,159.88 297.71,14.31 297.79,0.22 224.11,0.22 0.21,224.12 0.13,311.89 98.4,213.62 97.37,212.41 	"/>
	<polygon class="st2" points="140.5,0.22 0.21,140.51 0.13,224.04 224.02,0.14 	"/>
	<polygon class="st1" points="200.26,206.12 198.14,209.35 199.33,211.17 198.14,212.73 199.96,215.98 197.27,218.74 199.79,224.92 
		194.29,228.59 194.96,232.3 191.52,234.04 191.64,236.13 189.82,236.9 189.77,240.67 186.06,241.72 185.17,248.3 178.56,248.73 
		177.26,252.33 173.45,252.11 172.54,253.92 170.53,253.67 168.58,256.95 164.87,256.01 160.82,261.25 154.86,258.31 151.92,260.8 
		148.76,258.73 147.11,259.81 145.44,258.54 142.08,260.43 140.83,259.21 0.21,399.83 0.21,419.67 72.44,419.63 297.75,194.31 
		297.79,102.25 198.91,201.13 197.85,203.28 	"/>
	<polygon class="st2" points="155.53,158.23 158.22,160.85 164.43,158.31 168.13,163.84 171.74,163.19 173.45,166.59 175.7,166.46 
		176.5,168.35 180.16,168.39 181.19,172.05 187.84,172.96 188.28,179.58 191.74,180.82 191.52,184.66 193.52,185.66 193.27,187.64 
		196.43,189.52 195.48,193.24 200.78,197.34 199.07,200.81 297.71,102.17 297.79,14.39 152.23,159.95 152.33,160.02 	"/>
	<polygon class="st2" points="133.25,260.3 129.54,254.75 125.74,255.44 124.07,252.11 122.11,252.22 121.27,250.22 117.41,250.17 
		116.4,246.59 109.84,245.69 109.4,239.01 105.79,237.72 105.99,234.04 104.22,233.14 104.5,230.93 101.2,228.96 102.11,225.4 
		96.86,221.33 99.83,215.31 98.47,213.71 0.21,311.97 0.13,399.75 140.75,259.13 139.37,257.79 	"/>
	<polygon class="st2" points="156.09,419.67 297.79,279.38 297.79,194.36 72.48,419.67 	"/>
	<polygon class="st1" points="0.21,0.22 0.17,140.47 140.46,0.18 	"/>
	<polygon class="st1" points="297.79,419.67 297.79,279.38 156.09,419.67 	"/>
</g>
<g id="Layer_7">
	<path class="st0" d="M0,0v419.53h297.64V0H0z M200.26,206.12l-2.12,3.23l1.19,1.82l-1.19,1.56l1.82,3.25l-2.69,2.77l2.52,6.17
		l-5.5,3.67l0.67,3.71l-3.44,1.74l0.12,2.09l-1.82,0.76l-0.05,3.77l-3.71,1.05l-0.9,6.58l-6.61,0.43l-1.29,3.6l-3.82-0.22
		l-0.91,1.81l-2.01-0.26l-1.95,3.28l-3.7-0.94l-4.06,5.24l-5.96-2.94l-2.94,2.49l-3.16-2.07l-1.65,1.08l-1.67-1.27l-3.36,1.88
		l-2.7-2.63l-6.12,2.5l-3.71-5.55l-3.8,0.69l-1.68-3.32l-1.96,0.11l-0.84-2l-3.86-0.05l-1.01-3.58l-6.56-0.89l-0.44-6.68l-3.62-1.3
		l0.21-3.68l-1.77-0.89l0.28-2.21l-3.3-1.96l0.91-3.57l-5.25-4.06l2.97-6.02l-2.46-2.9l2.01-3.06l-1.12-1.71l1.37-1.8l-1.86-3.32
		l2.56-2.62l-2.52-6.16l5.58-3.73l-0.67-3.69l3.28-1.65l-0.12-2.12l2.07-0.87l0.05-3.75l3.53-1l0.9-6.62l6.69-0.44l1.25-3.48
		l3.7,0.21l0.99-1.96l2.18,0.28l1.89-3.18l3.59,0.91l4.11-5.3l6,2.96l2.8-2.37l3.14,2.06l1.88-1.23l1.69,1.29l3.2-1.79l2.69,2.62
		l6.22-2.54l3.7,5.54l3.6-0.65l1.71,3.39l2.26-0.13l0.79,1.89l3.66,0.05l1.03,3.66l6.65,0.91l0.43,6.62l3.46,1.24l-0.22,3.84
		l1.99,1.01l-0.25,1.97l3.16,1.88l-0.95,3.72l5.29,4.1l-2.93,5.94L200.26,206.12z"/>
</g>
<g id="Layer_2">
	<path id="Combined-Shape" class="st3" d="M182.57,127.41l15.98,31.97l31.97,15.98l-11.3,33.9l11.3,33.9l-31.97,15.98l-15.98,31.97
		l-33.9-11.3l-33.9,11.3l-15.98-31.97l-31.97-15.98l11.3-33.9l-11.3-33.9l31.97-15.98l15.98-31.97l33.9,11.3L182.57,127.41z
		 M164.81,149.45l-16.05,10.52l-16.05-10.52l-8.64,17.14l-19.16-1.09l1.09,19.16l-17.14,8.64l10.52,16.05L88.86,225.4l17.14,8.64
		l-1.09,19.16l19.16-1.09l8.64,17.14l16.05-10.52l16.05,10.52l8.64-17.14l19.16,1.09l-1.09-19.16l17.14-8.64l-10.52-16.05
		l10.52-16.05l-17.14-8.64l1.09-19.16l-19.16,1.09L164.81,149.45z"/>
</g>
<g id="Layer_3">
	<path id="Combined-Shape_00000058548407055626177170000003081004229303708035_" class="st4" d="M197.62,135.34l9.59,34.43
		l28.33,21.78l-17.57,31.12l4.63,35.44l-34.43,9.59l-21.78,28.33l-31.12-17.57l-35.44,4.63l-9.59-34.43l-28.33-21.78l17.57-31.12
		l-4.63-35.44l34.43-9.59l21.78-28.33l31.12,17.57L197.62,135.34z M175.98,153.58l-17.76,7.26l-13.75-13.39l-11.75,15.17l-18.6-4.72
		l-2.59,19.02l-18.47,5.21l7.26,17.76l-13.39,13.75l15.17,11.75L97.38,244l19.02,2.59l5.21,18.47l17.76-7.26l13.75,13.39
		l11.75-15.17l18.6,4.72l2.59-19.02l18.47-5.21l-7.26-17.76l13.39-13.75l-15.17-11.75l4.72-18.6l-19.02-2.59L175.98,153.58z"/>
</g>
<g id="Layer_4">
	<path id="Combined-Shape_00000147202307384159533470000010236010475734534830_" class="st5" d="M211.98,147.08l2.22,35.67
		l23.18,27.2l-23.65,26.79l-2.84,35.62l-35.67,2.22l-27.2,23.18l-26.79-23.65l-35.62-2.84l-2.22-35.67L60.2,208.4l23.65-26.79
		l2.84-35.62l35.67-2.22l27.2-23.18l26.79,23.65L211.98,147.08z M187.02,160.43l-18.89,3.41l-10.66-15.96l-14.65,12.4l-17.21-8.49
		l-6.49,18.06l-19.15,1.26l3.41,18.89l-15.96,10.66l12.4,14.65l-8.49,17.21l18.06,6.49l1.26,19.15l18.89-3.41l10.66,15.96
		l14.65-12.4l17.21,8.49l6.49-18.06l19.15-1.26l-3.41-18.89l15.96-10.66l-12.4-14.65l8.49-17.21l-18.06-6.49L187.02,160.43z"/>
</g>
<g id="Layer_5">
	<path id="Combined-Shape_00000129889971586128331750000014604736413829884837_" class="st6" d="M222.73,160.26l-4.63,35.44
		l17.57,31.12l-28.33,21.78l-9.59,34.43l-35.44-4.63l-31.12,17.57l-21.78-28.33l-34.43-9.59l4.63-35.44l-17.57-31.12l28.33-21.78
		l9.59-34.43l35.44,4.63l31.12-17.57l21.78,28.33L222.73,160.26z M195.69,168.6l-19.19-0.25l-7.42-17.7l-16.75,9.38l-15.28-11.61
		l-9.81,16.49l-19.04-2.42l-0.25,19.19l-17.7,7.42l9.38,16.75l-11.61,15.28l16.49,9.81l-2.42,19.04l19.19,0.25l7.42,17.7l16.75-9.38
		l15.28,11.61l9.81-16.49l19.04,2.42l0.25-19.19l17.7-7.42l-9.38-16.75l11.61-15.28l-16.49-9.81L195.69,168.6z"/>
</g>
</svg>
