<svg xmlns="http://www.w3.org/2000/svg" xml:space="preserve" style="enable-background:new 0 0 297.9 419.8" viewBox="0 0 297.9 419.8"><style>.st0{fill-rule:evenodd;clip-rule:evenodd;fill:#232323}.st1{fill:#0091ff}.st2{fill:#ff0076}.st3{fill:#8f00ff}.st4{fill:#00d4ff}.st5{fill:#f7d100}</style><path id="Layer_1" d="M.1.1v419.5h297.6V.1H.1zm131.7 172.8c2.8.9 4.2 1.3 7 2.2-1.1 2.8-1.7 4.2-2.9 7-2.8-.9-4.2-1.3-7-2.2 1.1-2.8 1.7-4.2 2.9-7zm9.1 73.9c-2.8-.9-4.2-1.3-7-2.2 1.1-2.8 1.7-4.2 2.9-7 2.8.9 4.2 1.3 7 2.2-1.2 2.8-1.8 4.2-2.9 7zm5.7-14c-2.8-.9-4.2-1.3-7-2.2 1.1-2.8 1.7-4.2 2.9-7 2.8.9 4.2 1.3 7 2.2-1.1 2.8-1.7 4.2-2.9 7zm39.4-18.9c-2.8-.9-4.2-1.3-7-2.2 3.4-8.3 5.1-12.5 8.5-20.8 2.8.9 4.2 1.4 7 2.2-3.4 8.4-5.1 12.5-8.5 20.8z" class="st0"/><g id="Layer_2"><path d="M244.8 260.8c13.8-2.3 27.7-5 41.7-6.3.9-.1 1 .2 1 1 .4 21.9-2 43.8-1.5 65.7-.8 3.7 5.6 24.5 1.8 23.7-25.6 2.9-50.6 9.1-75.8 14.3-2.4.1-21.4 6.4-18.9 2.4 4.7-27.5-11.9-52.7-17.2-79-.5-3.7-2-10.6 3.2-11.5 16.1-1.3 32-4.3 47.9-7.1" class="st1"/><path d="M18.4 160c-1.1-25.7-1.2-51.3-2.2-77 .5-2.7-1.6-12.8.7-13.2C37.6 65 58.8 55.1 80.3 58.5c4.5 1.1 26.6 5.6 26.7 9.6-9.7 31.4 23 56.2 18.9 87.7-.2 2.9-.2 2.9-2.8 2-34-10.8-70.7-5.8-104.7 2.2z" class="st2"/><path d="M9.9 251.4c1.9-24.2 4-48.2 5.9-72.4 1.2-4-.7-18.2 3.3-19 33.8-7.6 70.3-12.6 103.9-1.5 1 .4 1.4.6.9 1.8-7.4 17.4-15.6 34.4-21.9 52.1-2.9 8.3-6.3 15.6-9.5 22.8-2.2 1-2 7.7-5 7-22.9-8-49.4-6.7-70.7 5.2" class="st3"/><path d="M288.3 75.6c.9 28.7 0 57.9.4 86.7 0 1.2-.5 1.5-1.5 1.7-6.6.4-13 2-19.3 3.7-19.8 4.2-37.3 16.3-58 17.2 7.1-26.9-14.9-50.7-16.2-77.2.2-3.9-1.3-12.5 2.8-14.3 11.4-2.6 22.9-5.3 34.3-8 18.9-4.1 37.8-10.5 57.5-9.8z" class="st4"/><path d="M287.2 164.3c1-.1 1.5.2 1.5 1.4-.1 12.3-.2 24.6-.4 36.9-.2 13.3-.3 26.7-.6 40-.7 2.6 1.1 10.7-1.2 11.5-36.5 4-72.1 13.4-108.7 16.7 11.1-28.2 20.4-58.3 32.7-85.4 26.5-2.8 49.7-19.3 76.7-21.1zM17 247.7c21.3-11.7 47.3-12.8 70.2-5.1 1 .3 1.1.7.8 1.7-5.2 26.1 16.4 48 18.6 73.4.4 3.2 1.5 20.1-2.7 18.9-28.1-11.9-60.3-6.8-88.2 3.2-.7.3-.9.1-.9-.6-.9-14.3-2.1-28.6-3.1-42.9-.7-12.7-1-25.5-1.6-38.2-.9-7.6.7-6.8 6.9-10.4z" class="st2"/><path d="M90 243.4c28.1 9.4 56.4 18.1 84.6 27.3.7.2 1.2.3.5 1.3-6.5 19.5 24 62.5 16.4 89.6-.3 1.3-.7 1.6-2.1 1.2-10.7-3.3-21.4-6.6-32.2-9.9-16.3-5-32.5-9.9-48.8-14.9-1.8-.6-1.9-.6-1.4-2.4 9.3-32.5-25.3-61.8-17-92.2z" class="st4"/><path d="M127 158.1c2.6-20.1-6.9-38.5-15.6-55.9-4.9-10.6-6.4-22.8-3.1-34.1.3-.9.6-1.1 1.6-.8 27.5 8.7 55 17.2 82.5 25.9 1.9.6 1.9.6 1.5 2.5-4.6 25.3 12.4 47.5 16.4 71.6.6 3.6 1.9 16.9-2.4 17.3-26.9-7.5-56.1-14.8-80.9-26.5z" class="st3"/><path d="M12.7 345.2c1-2.4 1.8-5.1 4.7-5.6 26.8-9.4 57.3-14 84.5-3.5 3.3 1.3 3.2 1.3 2.4 4.8-1.3 5.5-2 11.1-2.4 16.7-1.3 15.1-.3 30.2.3 45.3 0 1.7-.3 3.3-.2 5-.3.7.5 1.8-.6 2.3-28.6-1.9-57.8-2.5-86.3-4.6-1.2-12.3-1.5-25.3-2.5-37.8.2-7.5-2.7-15.7.1-22.6z" class="st1"/><path d="M199.3 58.2c.9-14-.1-28.2-1.2-42.1-.1-1.1.2-1.2 1.2-1.2 20.7-.6 41.4-1.4 62.1-2 4.1.7 26.1-2.7 26.2.4-.1 20.6 1.5 41.6.9 62-31.9.1-62.1 12.2-93.3 18.1 2.6-11.7 3.9-23.4 4.1-35.2zm90.1 351.9c-31.6-.2-63.4.5-94.8-.2-4.7-12-7.4-33.2-2.6-45.3 31.2-6 63.9-15 96-19.4.7.1 1.5-.3 1.5 1.1-.1 21.2.1 42.5-.1 63.8z" class="st3"/><path d="M189.1 384.9c-.5-6.9-.2-14 1.7-20.7.1-.9-.6-.8-1.1-1l-51-15.6c-10.3-3.1-20.6-6.3-30.9-9.5-.9-.3-1.4-.3-1.6.8-3.7 14.4-3.7 29.3-3.5 44.1l87.8 13.7c-.7-3.9-1.2-7.8-1.4-11.8z" class="st2"/><path d="M190.4 396.7 102.6 383c0 8.3 1.4 16.5.5 24.8 0 2.3 0 2.3 2.3 2.3 29.2-.3 58.9.5 87.9-.3-1.2-4.3-2.3-8.6-2.9-13.1z" class="st5"/><path d="M11.5 14c0-2 0-2 2.1-2h92.5c2.3 0 1.9-.4 2.2 1.9 1.1 17.2 4.7 35.8-1.4 52.3-36.8-15.4-53.9-7.1-90.3 2.9-1.8.5-1.7.5-1.9-1.4-1.1-17.9-2.2-35.8-3.2-53.7z" class="st1"/><path d="M197.3 24c-.7-2.3.4-8.3-1.8-9.2-15.4-.7-30.9-1.1-46.3-1.6-12.9-.3-25.8-.7-38.6-1.2-2.6 0 .8 12.8.3 15.5 29.2 2.6 57.8 9.3 87.1 13.9-.1-5.8-.4-11.6-.7-17.4z" class="st5"/><path d="M198 41.3c-29.3-4.6-57.9-11.3-87.1-13.9.4 13 2.5 26.9-2.7 39.2 28 8.8 56.1 17.6 84.1 26.4.8.3 1.2.2 1.4-.8 4.1-16.5 4.7-33.8 4.3-50.9z" class="st2"/><path d="M206.7 184.9c-27.1-6.9-53.8-15.3-79.9-25.3-.7-.3-1.1-.3-1.5.6-5.1 12.3-10.2 24.6-15.4 36.8-2.2 5.3-4.5 10.5-6.8 15.8-1.6 3.1-2.7 6.4-4.2 9.5-.7 1.7-1.5 3.4-2.2 5.2-.9 2.1-2 4.1-2.7 6.3l-.6 1.5c-.6 1.5-1.3 3-1.9 4.4-1.5 3.3-1.5 3.3 1.9 4.4l53.1 17.1c9.3 3 18.6 6 27.8 9 1.9.6 1.9.6 2.5-1.1 1.1-2.9 2.2-5.8 3.3-8.8 9.2-24.5 18.3-49 27.5-73.4.5-1.3.4-1.7-.9-2zm-74.9-12c2.8.9 4.2 1.3 7 2.2-1.1 2.8-1.7 4.2-2.9 7-2.8-.9-4.2-1.3-7-2.2 1.1-2.8 1.7-4.2 2.9-7zm9.1 73.9c-2.8-.9-4.2-1.3-7-2.2 1.1-2.8 1.7-4.2 2.9-7 2.8.9 4.2 1.3 7 2.2-1.2 2.8-1.8 4.2-2.9 7zm5.7-14c-2.8-.9-4.2-1.3-7-2.2 1.1-2.8 1.7-4.2 2.9-7 2.8.9 4.2 1.3 7 2.2-1.1 2.8-1.7 4.2-2.9 7zm39.4-18.9c-2.8-.9-4.2-1.3-7-2.2 3.4-8.3 5.1-12.5 8.5-20.8 2.8.9 4.2 1.4 7 2.2-3.4 8.4-5.1 12.5-8.5 20.8zM289.4 0h8.5v2.8h-8.5V0z" class="st5"/><path d="M289.4 2.8h8.5v8.5h-8.5V2.8z" class="st4"/><path d="M289.4 11.3h8.5v17h-8.5v-17z" class="st1"/><path d="M289.4 28.4h8.5v17h-8.5v-17z" class="st4"/><path d="M289.4 45.4h8.5v2.8h-8.5v-2.8z" class="st3"/><path d="M289.4 48.2h8.5v8.5h-8.5v-8.5z" class="st1"/><path d="M289.4 56.7h8.5v25.5h-8.5V56.7z" class="st4"/><path d="M289.4 82.2h8.5v8.5h-8.5v-8.5z" class="st1"/><path d="M289.4 90.7h8.5v2.8h-8.5v-2.8z" class="st3"/><path d="M289.4 93.6h8.5v8.5h-8.5v-8.5z" class="st1"/><path d="M289.4 102.1h8.5v34h-8.5v-34z" class="st4"/><path d="M289.4 136.1h8.5v2.8h-8.5v-2.8z" class="st3"/><path d="M289.4 138.9h8.5v17h-8.5v-17z" class="st1"/><path d="M289.4 156h8.5v25.5h-8.5V156z" class="st4"/><path d="M289.4 181.5h8.5v2.8h-8.5v-2.8z" class="st3"/><path d="M289.4 184.3h8.5v8.5h-8.5v-8.5z" class="st1"/><path d="M289.4 192.8h8.5v25.5h-8.5v-25.5z" class="st4"/><path d="M289.4 218.3h8.5v8.5h-8.5v-8.5z" class="st1"/><path d="M289.4 226.8h8.5v2.8h-8.5v-2.8z" class="st3"/><path d="M289.4 229.7h8.5v17h-8.5v-17z" class="st1"/><path d="M289.4 246.7h8.5v8.5h-8.5v-8.5z" class="st4"/><path d="M289.4 255.2h8.5v17h-8.5v-17z" class="st1"/><path d="M289.4 272.2h8.5v2.8h-8.5v-2.8z" class="st3"/><path d="M289.4 275.1h8.5v34h-8.5v-34z" class="st1"/><path d="M289.4 309.1h8.5v8.5h-8.5v-8.5z" class="st4"/><path d="M289.4 317.6h8.5v2.8h-8.5v-2.8z" class="st3"/><path d="M289.4 320.4h8.5v17h-8.5v-17z" class="st1"/><path d="M289.4 337.4h8.5v8.5h-8.5v-8.5z" class="st4"/><path d="M289.4 345.9h8.5v17h-8.5v-17z" class="st1"/><path d="M289.4 363h8.5v2.8h-8.5V363z" class="st3"/><path d="M289.4 365.8h8.5v17h-8.5v-17z" class="st1"/><path d="M289.4 382.8h8.5v25.5h-8.5v-25.5z" class="st4"/><path d="M289.4 408.3h8.5v2.8h-8.5v-2.8z" class="st3"/><path d="M289.4 411.2h8.5v8.5h-8.5v-8.5zm-25.5 0h25.5v8.5h-25.5v-8.5z" class="st1"/><path d="M261.1 411.2h2.8v8.5h-2.8v-8.5z" class="st3"/><path d="M252.6 411.2h8.5v8.5h-8.5v-8.5z" class="st1"/><path d="M218.5 411.2h34v8.5h-34v-8.5z" class="st4"/><path d="M215.7 411.2h2.8v8.5h-2.8v-8.5z" class="st3"/><path d="M207.2 411.2h8.5v8.5h-8.5v-8.5z" class="st1"/><path d="M173.2 411.2h34v8.5h-34v-8.5z" class="st4"/><path d="M170.3 411.2h2.8v8.5h-2.8v-8.5z" class="st3"/><path d="M153.3 411.2h17v8.5h-17v-8.5z" class="st4"/><path d="M127.8 411.2h25.5v8.5h-25.5v-8.5z" class="st1"/><path d="M124.9 411.2h2.8v8.5h-2.8v-8.5z" class="st3"/><path d="M99.4 411.2h25.5v8.5H99.4v-8.5z" class="st1"/><path d="M90.9 411.2h8.5v8.5h-8.5v-8.5z" class="st4"/><path d="M82.4 411.2h8.5v8.5h-8.5v-8.5z" class="st1"/><path d="M79.6 411.2h2.8v8.5h-2.8v-8.5z" class="st3"/><path d="M62.6 411.2h17v8.5h-17v-8.5z" class="st1"/><path d="M54.1 411.2h8.5v8.5h-8.5v-8.5z" class="st4"/><path d="M37 411.2h17v8.5H37v-8.5z" class="st1"/><path d="M34.2 411.2H37v8.5h-2.8v-8.5z" class="st3"/><path d="M25.7 411.2h8.5v8.5h-8.5v-8.5z" class="st4"/><path d="M8.7 411.2h17v8.5h-17v-8.5z" class="st1"/><path d="M.2 411.2h8.5v8.5H.2v-8.5z" class="st4"/><path d="M0 408.3h8.5v2.8H0v-2.8z" class="st3"/><path d="M0 391.3h8.5v17H0v-17z" class="st1"/><path d="M0 365.8h8.5v25.5H0v-25.5z" class="st4"/><path d="M0 363h8.5v2.8H0V363z" class="st3"/><path d="M0 328.9h8.5v34H0v-34z" class="st1"/><path d="M0 320.4h8.5v8.5H0v-8.5z" class="st4"/><path d="M0 317.6h8.5v2.8H0v-2.8z" class="st3"/><path d="M0 292.1h8.5v25.5H0v-25.5z" class="st1"/><path d="M0 275.1h8.5v17H0v-17z" class="st4"/><path d="M0 272.2h8.5v2.8H0v-2.8z" class="st3"/><path d="M0 229.7h8.5v42.5H0v-42.5z" class="st1"/><path d="M0 226.8h8.5v2.8H0v-2.8z" class="st3"/><path d="M0 209.8h8.5v17H0v-17z" class="st4"/><path d="M0 184.3h8.5v25.5H0v-25.5z" class="st1"/><path d="M0 181.5h8.5v2.8H0v-2.8z" class="st3"/><path d="M0 164.5h8.5v17H0v-17z" class="st1"/><path d="M0 156h8.5v8.5H0V156z" class="st4"/><path d="M0 147.5h8.5v8.5H0v-8.5z" class="st1"/><path d="M0 138.9h8.5v8.5H0v-8.5z" class="st4"/><path d="M0 136.1h8.5v2.8H0v-2.8z" class="st3"/><path d="M0 127.6h8.5v8.5H0v-8.5z" class="st4"/><path d="M0 102.1h8.5v25.5H0v-25.5z" class="st1"/><path d="M0 93.6h8.5v8.5H0v-8.5z" class="st4"/><path d="M0 90.7h8.5v2.8H0v-2.8z" class="st3"/><path d="M0 82.2h8.5v8.5H0v-8.5z" class="st1"/><path d="M0 56.7h8.5v25.5H0V56.7z" class="st4"/><path d="M0 48.2h8.5v8.5H0v-8.5z" class="st1"/><path d="M0 45.4h8.5v2.8H0v-2.8z" class="st3"/><path d="M0 36.9h8.5v8.5H0v-8.5z" class="st1"/><path d="M0 19.8h8.5v17H0v-17z" class="st4"/><path d="M0 2.8h8.5v17H0v-17z" class="st1"/><path d="m0 0 8.5 2.8H0V0z" class="st3"/><path d="M8.5 2.8V0H0l8.5 2.8z" class="st4"/><path d="M8.5 0H34v8.5H8.5V0z" class="st1"/><path d="M34 0h8.5v8.5H34V0z" class="st4"/><path d="M42.5 0h2.8v8.5h-2.8V0z" class="st3"/><path d="M45.4 0h17v8.5h-17V0z" class="st1"/><path d="M62.4 0h8.5v8.5h-8.5V0z" class="st4"/><path d="M70.9 0h17v8.5h-17V0z" class="st1"/><path d="M87.9 0h2.8v8.5h-2.8V0z" class="st3"/><path d="M90.7 0h8.5v8.5h-8.5V0z" class="st4"/><path d="M99.2 0h8.5v8.5h-8.5V0z" class="st1"/><path d="M107.8 0h8.5v8.5h-8.5V0z" class="st4"/><path d="M116.3 0h17v8.5h-17V0z" class="st1"/><path d="M133.3 0h2.8v8.5h-2.8V0z" class="st3"/><path d="M136.1 0h34v8.5h-34V0z" class="st1"/><path d="M170.1 0h8.5v8.5h-8.5V0z" class="st4"/><path d="M178.6 0h2.8v8.5h-2.8V0z" class="st3"/><path d="M181.5 0h17v8.5h-17V0z" class="st1"/><path d="M198.5 0h8.5v8.5h-8.5V0z" class="st4"/><path d="M207 0h17v8.5h-17V0z" class="st1"/><path d="M224 0h2.8v8.5H224V0z" class="st3"/><path d="M226.8 0h8.5v8.5h-8.5V0z" class="st1"/><path d="M235.4 0h17v8.5h-17V0z" class="st4"/><path d="M252.4 0h8.5v8.5h-8.5V0z" class="st1"/><path d="M260.9 0h8.5v8.5h-8.5V0z" class="st4"/></g><g id="Layer_3"><path d="M52.3 254c-.6-3.1-.8-4.6-.9-7.6-2.4.3-3.6.5-6 1.1.1 3 .3 4.5.8 7.6 2.4-.6 3.6-.8 6.1-1.1zm-8.1-54.2c3.1-.8 4.6-1.2 7.7-1.9.8-2.8 1.2-4.3 2-7.1-3.2.7-4.8 1-8 1.8-.7 2.9-1 4.4-1.7 7.2zm193.2 80.3c-.2-3-.3-4.5-.3-7.5-3.9.8-5.9 1.2-9.8 2 0 3 .1 4.5.4 7.5 3.9-.8 5.9-1.2 9.7-2zM38.1 28.7c-.2-2.5-.4-3.7-.6-6.3-3.2.3-4.7.5-7.9.9l.5 6.5c3.2-.4 4.8-.7 8-1.1zm-9.4 175.7c3.1-.9 4.7-1.4 7.8-2.3.6-2.9.8-4.3 1.4-7.2-3.2.9-4.9 1.4-8.1 2.3-.5 2.8-.7 4.3-1.1 7.2zM66.5 69.6c-3 .2-4.5.4-7.5.9-.1 3 0 4.5.4 7.5 3-.5 4.5-.6 7.5-.8-.4-3.1-.5-4.6-.4-7.6zm26.1 274.7c-2.8-.8-4.2-1.3-7-2.1-.6 3.3-.8 5-1.1 8.4 2.8.8 4.2 1.2 7.1 1.9.2-3.3.4-4.9 1-8.2zm-42.5-73.8c2.6-.5 3.9-.7 6.5-1-1.1-3.1-1.6-4.7-2.5-7.8-2.5.3-3.8.5-6.3 1 .8 3.2 1.3 4.7 2.3 7.8zm36.7-49c-8.3-2.7-12.5-4.5-20.6-4.9-1.1 2.8-1.6 4.2-2.7 7 8 .3 12.2 2.2 20.5 4.9 1.1-2.8 1.6-4.2 2.8-7zM30 324.4c3.2-.9 4.8-1.4 8-2.3.2-8.8-.5-13.3-2.3-22.4-3 .9-4.5 1.4-7.5 2.4 1.5 9 2.1 13.5 1.8 22.3zm-3.5 57c0 3.4.1 5.1.1 8.4 2.9-.4 4.4-.6 7.4-1-.1-3.5-.1-5.2-.2-8.7-2.9.5-4.3.8-7.3 1.3zM54 26.7c-.3-2.3-.5-3.5-.8-5.8-3.1.2-4.7.4-7.9.7.3 2.4.5 3.6.7 6 3.2-.4 4.8-.5 8-.9zM41.2 379c0 3.6.1 5.4.2 8.9 2.9-.3 4.4-.5 7.3-.8-.1-3.7-.1-5.5-.2-9.1-2.9.3-4.4.5-7.3 1zM216.7 42.3c-.1-3.7-.1-5.5-.2-9.2-2.9.2-4.4.3-7.3.5.1 3.7.2 5.6.2 9.4 3-.3 4.4-.4 7.3-.7zm14.6-2c0-3.5-.1-5.3-.2-8.8-2.9.4-4.4.5-7.3.9.1 3.6.1 5.4.2 9 2.9-.4 4.4-.7 7.3-1.1zM230 297.4c3.7-.8 5.5-1.3 9.2-2.1-.5-3-.7-4.6-1-7.6-3.8.8-5.7 1.3-9.5 2.1.4 3 .7 4.5 1.3 7.6zM109.7 165.8c-2.8-.9-4.2-1.4-7-2.3-1.1 2.8-1.7 4.2-2.9 7 2.8.9 4.2 1.4 7 2.3 1.2-2.8 1.7-4.2 2.9-7zm35-13.2c-.2-3-.4-4.5-1.1-7.6-2.8-.9-4.2-1.4-7-2.3.7 3.1 1 4.6 1.1 7.6 2.8 1 4.2 1.4 7 2.3zm-83.9-67c.7 3.1 1.1 4.6 2.1 7.8 3.2-.4 4.8-.6 7.8-.8-1-3.1-1.5-4.7-2.3-7.8-3 .2-4.5.4-7.6.8zm40.1-39.2c-8.4-2.3-12.8-3.6-22-3.9-.1 2.3-.2 3.5-.5 5.9 9.1.3 13.4 1.8 21.8 4.3.5-2.5.6-3.8.7-6.3zm36.8 48.1c-.4-3-.4-4.5-.1-7.4-8.3-2.7-12.5-4-20.8-6.7-.3 2.9-.2 4.4.1 7.4 8.3 2.7 12.5 4 20.8 6.7zm14.1-42.2c2.8.7 4.3 1 7.1 1.7.1-3.2 0-4.9-.1-8.2-2.9-.6-4.3-.8-7.1-1.4.1 3.2.1 4.8.1 7.9zm6.6 9.7c-2.8-.8-4.2-1.1-7-1.9-.3 3.1-.4 4.6-1 7.6 2.8.8 4.2 1.3 7 2.1.6-3 .8-4.6 1-7.8zm-37.1 210.3c-.6-3.1-.8-4.6-.9-7.6-8.3-2.7-12.5-4-20.8-6.7.1 3 .3 4.5.9 7.6 8.3 2.7 12.5 4 20.8 6.7zm44.6-147.7 3.5 8c2.8.9 4.2 1.4 7 2.3-1.4-3.2-2.2-4.8-3.5-8-2.8-.9-4.2-1.4-7-2.3zm-57.2 17.6c2.8.9 4.2 1.3 7 2.2-.1-3-.3-4.5-.9-7.6-2.8-.9-4.2-1.3-7-2.2.6 3.1.8 4.6.9 7.6zm166.1 34.2c-2.9.3-4.3.6-7.1 1.2-.1 3-.1 4.4-.2 7.4 2.8-.6 4.3-.8 7.2-1.2 0-3 .1-4.5.1-7.4zm-.5 180.3c-3.2.3-4.7.5-7.9 1-.1 2.9-.1 4.4-.1 7.3 3.2-.4 4.8-.6 8-.9-.1-3-.1-4.4 0-7.4zM203 394c.4 2.2.6 3.4 1 5.6 3.1-.1 4.7-.2 7.8-.4-.4-2.3-.6-3.5-.9-5.8-3.2.3-4.8.4-7.9.6zm15.8-1.3c.3 2.4.5 3.6.8 5.9 3.1-.3 4.7-.4 7.9-.8-.3-2.5-.4-3.7-.7-6.1l-8 1zm-38.9-263.6 3.5 8c2.8.9 4.2 1.4 7 2.3-1.4-3.2-2.2-4.8-3.5-8-2.9-.9-4.2-1.4-7-2.3zm35.5 21c3.1 9.3 4.5 14 4.9 22.9 2.4-.4 3.6-.7 6-1.4-.3-8.9-1.6-13.5-4.4-22.8-2.6.7-3.9.9-6.5 1.3zm27.3-55.8c-3.2.9-4.8 1.4-8 2.3-.1 3 0 4.5.1 7.5 3.2-.9 4.7-1.4 7.9-2.3-.1-3-.1-4.5 0-7.5z" class="st0"/><path d="M.1.1v419.5h297.6V.1H.1zm282 18.9v7.4c-5.7 0-8.6.2-14.5.6 0 3.1.1 4.6.1 7.7 5.8-.6 8.7-.8 14.4-.9v7.4c-12.3.3-24.4 2.4-36.3 4.9v-8.3c5.9-1 8.8-1.5 14.7-2.3 0-3.1-.1-4.7-.1-7.8-5.9.6-8.8 1-14.7 1.8-.1-3.3-.1-5-.2-8.3 12.1-1.2 24.3-2.2 36.6-2.2zm-29.5 103.1c-2.9.9-4.3 1.4-7.2 2.4-5.7 1.9-8.6 3-14.3 4.8-2.8-12.6-5.6-24.9-3.7-37.8 6.3-1.7 9.5-2.7 15.8-4.6 3.2-.9 4.8-1.4 7.9-2.2-1.2 12.6.1 24.9 1.5 37.4zm6-32c.1-3 .2-4.4.4-7.4 9.4-2.2 14.1-3.1 23.1-3.1v37.2c-9 0-13.5.9-22.2 3.3-.3-3-.4-4.5-.6-7.5 6-1.5 9.1-2.2 15.2-2.8-.1-3-.1-4.5-.1-7.5-6.2.6-9.3 1.2-15.5 2.7-.2-3-.2-4.5-.3-7.5 6.3-1.5 9.5-2.1 15.7-2.7 0-3 0-4.5.1-7.4-6.3.6-9.5 1.2-15.8 2.7zm23.5 78.4v22.2c-3 0-4.5.1-7.4.4-5.9.7-8.8 1.3-14.6 2.9.3-5.9.5-8.8.8-14.7-5.4 1.6-8 2.7-13.3 4.7.4-2.9.6-4.4.9-7.3 12.1-4.5 20.5-6.8 33.6-8.2zm0 44.5v7.4c-13.8.3-26.9 3.8-40 7.3.4-2.9.6-4.4.9-7.3 6.4-1.8 9.6-2.8 16-4.3.2-2.9.2-4.4.4-7.4-6.1 1.5-9.2 2.5-15.4 4.4.4-2.9.6-4.4.9-7.3 11.9-4 24.4-7.5 37.3-7.7v7.4c-6 0-9 .4-15.1 1.5-.1 3-.1 4.4-.2 7.4 6.2-1 9.2-1.4 15.2-1.4zm-8 68.4c-6.6.5-10.1 1.1-17.4 2.4-.2-3-.3-4.5-.3-7.5 7.4-1.3 10.9-1.9 17.6-2.4v-7.4c-6.7.5-10.3 1.1-17.7 2.4 0-3 .1-4.5.3-7.4 11.1-2 16.4-2.8 25.5-2.7V296c-9 0-13.9.9-24.2 2.9-.3-3-.4-4.5-.6-7.5 7-1.4 10.5-1.9 17-2.5-.2-3.1-.2-4.6-.2-7.5zm-35.7-24.6c.4-2.9.6-4.4.9-7.3.7-5.8 1.1-8.7 1.8-14.5 13.5-3.3 26.9-6.9 40.9-7.1v22.2c-14.8.3-29.2 3.6-43.6 6.7zM157 389.7c-2.9-.5-4.3-.7-7.2-1.1-.7-5.4-1-8.1-1.1-13.5-2.8-.7-4.3-1-7.1-1.7 0 5.6.3 8.4 1 14-2.9-.5-4.3-.7-7.2-1.1-1.4-12-1.4-24.3 1.9-36.1 2.8.9 4.2 1.3 7 2.2-1.6 5.6-2 8.4-2.4 14 2.8.8 4.2 1.1 7 1.9.4-5.4.8-8.1 2.4-13.7 2.8.9 4.2 1.3 7 2.2-3.1 10.8-2.9 21.9-1.3 32.9zm-45.4-79c2.8.9 4.2 1.4 7 2.3l14 4.5c1.8 6.2 2.4 9.3 2.1 15.2l14 4.5c-.2 2.9-.4 4.4-1.3 7.2-11.7-3.8-23.3-7.5-35-11.3.9-2.8 1.2-4.3 1.3-7.2.3-6-.3-9-2.1-15.2zm39 5.6c-1.2-3.2-1.9-4.7-3.3-7.9-2.8-6.4-4.4-9.6-7-15.9 11.7 3.8 23.4 8.2 35.5 10.7 2.5 6.3 4 9.5 6.6 15.9 1.3 3.2 2 4.8 3.1 7.9-11.9-2.6-23.4-7-34.9-10.7zm-70-50c-5.6-1.8-8.4-3.1-13.6-4.1-1-3.1-1.5-4.7-2.1-7.8 5.2 1 8 2.3 13.6 4.1-.6-3.1-.8-4.6-.9-7.6-5.6-1.8-8.4-3.1-13.6-4.1-.1-3 0-4.5.5-7.4 5.3 1 8.1 2.3 13.7 4.1 2.8.9 4.2 1.3 7 2.2-2.4 13.6 3.5 26.1 8.8 38.6-8.4-2.7-12.6-4.8-20.9-6.4-1.4-3.2-2.1-4.8-3.3-8 5.3 1 8.2 2.3 13.7 4.1-1.3-3-1.9-4.5-2.9-7.7zm-60.9 30.3c8.7-2.8 12.9-4.5 21.4-7.1 3 12.6 6.1 24.9 4.1 37.8-9.4 2.5-14.2 4.1-23.7 6.8 1.4-12.6-.2-25-1.8-37.5zm20.1-54.8c4.7-1.6 7.1-2.2 12-2.7 2.5-.3 3.7-.3 6.2-.2-1.8 13.5 3.4 26 8.3 38.5-8.2-.4-12.2.5-20.4 2.7-3.6-12.7-7.4-25.2-6.1-38.3zm12.9-77.7c-1.4 5.7-2 8.6-3.4 14.3-3.5.8-5.2 1.2-8.7 2 1.1-5.8 1.7-8.6 2.8-14.4-3.8.8-5.6 1.2-9.4 2.1-.9 5.8-1.3 8.7-2.1 14.5-3.5.9-5.2 1.3-8.7 2.2.6-5.8.9-8.8 1.5-14.6.3-2.9.5-4.4.8-7.3 15.8-3.4 31.7-7.2 47.8-8.8-.9 2.8-1.4 4.2-2.3 7.1-1.8 5.6-2.8 8.5-4.6 14.1-3.3.4-5 .7-8.5 1.3 1.6-5.7 2.4-8.5 4-14.2-3.6.6-5.4 1-9.2 1.7zm28.6-63.6c-3.1-.2-4.6-.2-7.8 0-6.4.3-9.7.8-16.4 2.1-3.5-12.6-7-24.9-4.8-38 6.2-1.3 9.2-1.9 15.2-2.2 3-.2 4.5-.2 7.4-.1-3.1 13.3 1.8 25.7 6.4 38.2zm28.4 7.3c-8.4-2.7-12.3-4.7-21-6.4-1.3-3.2-2-4.8-3.2-7.9 5.6 1.1 8.3 2.3 13.9 4.1-1.2-3.2-1.8-4.7-2.7-7.9-5.6-1.8-8.3-3-13.8-4.1-.9-3.1-1.3-4.7-1.7-7.7C86.7 79 89.4 80.2 95 82c-.4-3-.6-4.6-.4-7.5-5.6-1.8-8.3-3-13.8-4.1.1-3 .3-4.4 1.2-7.3 8.5 1.6 12.6 3.7 20.9 6.4-3.8 13.4 1.8 25.9 6.8 38.3zM144 35.2c2.9.5 4.3.7 7.2 1.1 5.8.9 8.6 1.4 14.4 2.3.5 14.1 0 27.1-2.9 40.9-2.8-.9-4.2-1.3-7-2.2-2.8-.9-4.2-1.3-7-2.2-2.8-.9-4.2-1.3-7-2.2 3.5-12.5 3.1-24.9 2.3-37.7zm28.6 70.6c2.8.9 4.1 1.4 7 2.3-.7-6-.6-9 1.5-14.6 2.8.9 4.3 1.2 7.2 1.6-2.8 8.5-2.1 13 .3 22.3-12.1-2.5-23.8-6.9-35.4-10.6-2.5-9.3-3.2-13.8 0-22.2 2.8.9 4.2 1.4 7 2.3-2.1 5.6-2.2 8.5-1.5 14.6 2.8.9 4.2 1.4 7 2.3-.7-6-.6-9 1.5-14.6 2.8.9 4.2 1.4 7 2.3-2.2 5.3-2.3 8.2-1.6 14.3zm9.2 137.6c-1.1 2.8-1.7 4.2-2.8 7-6-.9-8.7-2-14.3-3.8-1.1 2.8-1.7 4.2-2.9 7 5.6 1.8 8.2 3 14.3 3.9-1.1 2.8-1.7 4.2-2.8 7-9.3-1.3-13-3.4-21.3-6.1 4.8-11.7 9.6-23.3 14.4-35 8.4 2.7 12.4 4.8 21.1 6.1-1.1 2.8-1.7 4.2-2.8 7-5.9-.8-8.6-2-14.2-3.8-1.1 2.8-1.7 4.2-2.9 7 5.5 1.7 8.2 2.8 14.2 3.7zm-27.9-47.5c-2.3 5.6-3.4 8.4-5.7 14-2.8-.9-4.2-1.3-7-2.2 4.8-11.7 9.6-23.3 14.4-35 2.8.9 4.2 1.3 7 2.2-2.3 5.6-3.4 8.4-5.7 14 2.8.9 4.2 1.3 7 2.2 2.3-5.6 3.4-8.4 5.7-14 2.8.9 4.2 1.3 7 2.2-4.8 11.7-9.6 23.3-14.4 35-2.8-.9-4.2-1.3-7-2.2 2.3-5.6 3.4-8.4 5.7-14-2.8-.8-4.2-1.3-7-2.2zm-28.2 30.2c-1.1 2.8-1.7 4.2-2.9 7-5.6-1.8-8.4-2.7-13.9-4.5-1.1 2.8-1.7 4.2-2.9 7 5.6 1.8 8.4 2.7 13.9 4.5-1.1 2.8-1.7 4.2-2.9 7-8.4-2.7-12.5-4-20.9-6.7 4.8-11.7 9.6-23.3 14.4-35 8.4 2.7 12.5 4 20.9 6.7-1.1 2.8-1.7 4.2-2.9 7-5.6-1.8-8.4-2.7-13.9-4.5-1.1 2.8-1.7 4.2-2.9 7 5.7 1.8 8.4 2.7 14 4.5zm-46.3-65.5 2.5-7c13.6-.7 25.2 3.4 37.6 7.5-3.4 8.4-5.1 12.5-8.6 20.9-2.8-.9-4.2-1.4-7-2.3-2.8-.9-4.2-1.4-7-2.3-2.8-.9-4.2-1.3-7.1-1.9 2.3-5.6 3.4-8.4 5.7-13.9-6-1.1-9.3-1.2-16.1-1zm-4.5-13.5c-3.7.4-5.6.6-9.5 1.1 1.3-13.1-2.5-25.6-6.1-38.2 3.5-.6 5.2-.9 8.6-1.3 2.1 6.3 3.3 9.4 4.9 15.6 3.6-.4 5.4-.5 8.9-.6-1.8-6.2-3-9.4-5.4-15.7 3.3-.1 4.9-.1 8.1 0 4.8 12.5 10.1 25 8.3 38.5-3.3-.2-5.1-.2-8.6-.1.9-5.8.6-8.8-.5-15-3.5.1-5.4.2-9.1.6 1 6.2 1.2 9.2.4 15.1zm51.1 39.8c-2.3 5.6-3.4 8.4-5.7 14-2.8-.9-4.2-1.3-7-2.2 4.8-11.7 9.6-23.3 14.4-35 8.4 2.7 12.5 4 20.9 6.7-1.1 2.8-1.7 4.2-2.9 7-1.1 2.8-1.7 4.2-2.9 7-1.1 2.8-1.7 4.2-2.9 7-5.5-1.8-8.3-2.7-13.9-4.5zm1.3-54.2 14 4.5c2.8.9 4.2 1.4 7 2.3 2.2 6.3 3.1 9.4 3.4 15.4l14 4.5c.2 3 .1 4.5-.4 7.4-11.7-3.8-23.3-7.5-35-11.3 1.5-8.7.3-13.4-3-22.8zm41.8 83.9c4.8-11.7 9.6-23.3 14.4-35 8.4 2.7 12.7 4.9 20.7 6-4.7 11.7-9.4 23.3-14.1 35-8.6-1.1-12.7-3.3-21-6zm26.8 13.5c1.1-2.8 1.6-4.2 2.6-7 1.1-2.8 1.6-4.2 2.6-7 12.6-.4 24.8-3.9 36.5-7.9-1.5 8.7-2.2 13-3.7 21.7-13.4 3.5-26.7 7-40.7 7.2 1.2-2.8 1.7-4.2 2.7-7zm36-26.7c1.2-5.7 1.9-8.6 3.1-14.3-2.6 1-3.8 1.4-6.4 2.3-1.5 5.7-2.2 8.5-3.7 14.2-2.8.8-4.2 1.2-7 1.8 1.7-5.7 2.6-8.5 4.3-14.1-2.6.7-3.9.9-6.5 1.3-1.9 5.6-2.9 8.4-4.9 14.1-2.8.4-4.2.5-7 .5 2.1-5.6 3.2-8.4 5.3-14 1.1-2.8 1.6-4.2 2.6-7 11.1-.4 21-4.8 30.8-8.8-1.5 8.7-2.2 13-3.7 21.7-2.7.9-4.1 1.4-6.9 2.3zm0-26.4c-7.1 2.6-10.6 3.7-18 4 1.7-13.4-3.3-25.9-8-38.4 8.2-.2 12.2-1.2 20.3-3.6 3.4 12.5 6.9 25 5.7 38zm-25-5c.2 3 .2 4.5-.2 7.4-11.8-2.6-23.2-6.8-34.6-10.5 1.5-8.7.2-13.3-3.1-22.7 2.8.9 4.2 1.4 7 2.3 2.2 6.3 3.1 9.4 3.4 15.4 2.8.9 4.2 1.4 7 2.3-.4-6-1.2-9.1-3.4-15.4 2.8.9 4.2 1.4 7 2.3 2.2 6.3 3.1 9.4 3.4 15.4 2.8.9 4.3 1.4 7 2.2-.4-6-1.2-9.1-3.4-15.4 2.7.8 4 1.1 6.6 1.5 2 6.2 2.9 9.3 3.3 15.2zm-41-33.7c-2.7-6.3-4.3-9.6-7-15.9-1.4-3.2-2-4.8-3.2-7.9 11.6 3.7 23.2 8.2 35.3 10.6 3.4 9.4 5.9 14.3 9.7 23.8-11.9-2.6-23.3-6.9-34.8-10.6zm-16.9-26c1.2 3.1 1.9 4.7 3.2 7.9l-14-4.5 3.5 8 14 4.5 3.5 8c-11.7-3.8-23.3-7.5-35-11.3-1.3-3.2-2.1-4.8-3.5-8l14 4.5c-1.4-3.2-2.2-4.8-3.5-8l-14-4.5c-1.4-3.2-2-4.8-3.2-7.9 11.6 3.8 23.3 7.5 35 11.3zM122 154c-8.4-2.7-12-4.7-21.3-6.4 1.7-8.7.6-13.3-2.5-22.7 6.2 1.2 8.8 2.4 14.4 4.2-2.1-6.3-3.6-9.5-6.4-15.9 2.8.9 4.2 1.3 7 2.2 5.2 12.5 11.2 25 8.8 38.6zm-66.3-4.2c-9.9 1.8-19.7 3.8-29.4 5.9 1-12.6-.8-25.1-2.5-37.6 10.6-2.5 16.1-4.1 26.7-6.3 3.2 12.5 6.5 25 5.2 38zm11 45.9c6-.4 8.9-.3 14.6.8 1.1-2.8 1.7-4.2 2.8-7-5.8-1.1-8.8-1.2-14.9-.8l2.5-7c13.1-.9 24.3 3.4 36.3 7.3-1.1 2.8-1.7 4.2-2.9 7l-14-4.5c-1.1 2.8-1.7 4.2-2.9 7l14 4.5c-1.1 2.8-1.7 4.2-2.9 7-11.6-3.8-22.7-8.2-35.3-7.1 1.2-3 1.7-4.4 2.7-7.2zm29.9 21.1c-1.1 2.8-1.7 4.2-2.9 7-2.3 5.6-3.4 8.4-5.7 13.9-10.5-3.4-22.5-8.4-34-6.9 3-8.4 4.6-12.6 7.6-21.1 12.6-1.1 23.6 3.4 35 7.1zm-3.1 46.6c-1.3-6.1-1.5-9.1-.3-14.9 11.7 3.8 23.3 7.5 35 11.3-1.3 5.7-1 8.7.3 14.9.6 3.1 1.1 4.6 2.1 7.7-11.7-3.8-23.3-7.5-35-11.3-1-3.1-1.4-4.7-2.1-7.7zm30.6-14.1c4.8-11.7 9.6-23.3 14.4-35 8.4 2.7 12.5 4 20.9 6.7-4.8 11.7-9.6 23.3-14.4 35-8.4-2.6-12.6-4-20.9-6.7zM135 262c2.8.9 4.2 1.4 7 2.3-1.3 5.7-1 8.7.3 14.9 2.8.9 4.2 1.4 7 2.3-1.3-6.1-1.5-9.1-.3-14.9 2.8.9 4.2 1.4 7 2.3-1.3 5.7-1 8.7.3 14.9 2.8.9 4.1 1.4 7 2.3-1.3-6.1-1.5-9.1-.3-14.9 2.9.9 4.4 1.2 7.6 1.7-1.6 8.6-.5 13.3 2.4 22.6-12.2-2.4-24-6.9-35.7-10.7-3.1-9.6-4.2-14.2-2.3-22.8zm50.3 41.9c6.6.1 10.1-.2 17.3-1.2-.9-3.1-1.4-4.7-2.1-7.8-7.3.9-10.9 1.3-17.7 1.2-.9-3.1-1.3-4.7-1.9-7.7 6.9.1 10.6-.2 18.1-1.1-.5-3.1-.6-4.6-.7-7.6-7.6.9-11.3 1.2-18.2 1.1-.1-3-.1-4.5.4-7.4 10.4.2 16.1-.6 27.8-2.5-1.3 13.1 2.3 25.5 5.7 38.1-10.6 2.1-15.8 2.9-25.4 2.8-1.6-3.1-2.2-4.7-3.3-7.9zm28.4-55.6c-1.5 5.7-2.2 8.5-3.7 14.2-3.8.6-5.7.9-9.4 1.4 1.7-5.7 2.6-8.5 4.3-14.1-3.5.5-5.2.7-8.6 1-1.9 5.6-2.9 8.4-4.9 14.1-3.6.2-5.3.3-8.7.3 2.1-5.6 3.2-8.4 5.3-14 1.1-2.8 1.6-4.2 2.6-7 14.5-.2 28.3-3.6 42.2-7-.5 2.9-.7 4.3-1.2 7.2-1 5.8-1.5 8.7-2.4 14.4-3.9.8-5.8 1.2-9.6 2 1.2-5.7 1.9-8.6 3.1-14.3-3.7.7-5.5 1.1-9 1.8zm4.1 20.9c9.8-1.9 19.6-4 29.3-6-.9 12.6.6 25 2.1 37.5-10.5 2.4-16 4-26.7 6.4-2.9-12.5-5.9-25-4.7-37.9zm37.8-102.3c-2.5 1-3.7 1.5-6.1 2.5.5-5.9.5-8.9.1-14.9-2.4 1-3.7 1.6-6.1 2.6.5 6 .6 9 .1 14.9-2.4 1.1-3.5 1.6-5.9 2.6 1.2-12.9-1.8-25.4-4.8-37.9 2.7-.9 4.1-1.4 6.8-2.4 1.3 6.2 1.9 9.2 2.8 15.3 2.5-1 3.7-1.6 6.3-2.6-.7-6.1-1.3-9.1-2.3-15.2 2.8-1 4.1-1.5 6.9-2.4 1.6 12.5 3.1 25 2.2 37.5zM238.3 22c.2 6.8.3 10.2.4 17.1v8.5c-11.9 2.5-24 4.6-36.3 5 0-3.8 0-5.7-.1-9.4-.1-3.8-.1-5.7-.3-9.5-.1-3.8-.2-5.7-.4-9.4 12.3 0 24.5-1.1 36.7-2.3zm-36.7 48.9c.3-3.6.4-5.4.6-9.1 12.4-.4 24.5-3 36.4-5.8-.3 10.1-.5 15.1-1.7 24.4-3.1.9-4.6 1.3-7.7 2.2 1-6.3 1.3-9.6 1.7-16.4-3 .7-4.5 1.1-7.4 1.7-.5 6.9-.8 10.3-1.9 16.6-3.1.7-4.6 1.1-7.6 1.6 1.2-6.4 1.6-9.8 2.2-16.8-2.9.5-4.4.7-7.3 1-.6 7.1-1 10.5-2.4 17-3 .3-4.5.4-7.4.5 1.4-6.3 1.9-9.7 2.5-16.9zm-5.1 25.9c9 0 13.6-1 23-3.2-2.1 13 1.2 25.3 4.5 37.9-8.5 2.4-12.7 3.4-21.2 3.5-1.2-3.2-1.8-4.7-2.9-7.9 5.8-.1 8.8-.5 14.6-1.6-.9-3.1-1.3-4.7-2-7.7-6.1 1.1-9.1 1.5-15.1 1.6-.8-3.1-1.1-4.6-1.6-7.7 6.1 0 9.1-.4 15.3-1.5-.3-3-.4-4.5-.4-7.5-6.2 1.1-9.3 1.5-15.4 1.5.3-3.1.5-4.6 1.2-7.4zm-2.3-44.6c-5.6-.4-8.3-1.1-14-2.2 0 3.6 0 5.4-.1 9 5.7 1.3 8.4 2.1 13.9 2.6-.2 3.7-.3 5.5-.6 9.1-5.5-.5-8.2-1.4-13.9-2.9-.3 3.4-.5 5.1-1.1 8.3 5.6 1.7 8.3 2.6 13.9 3.2-.6 3.4-.9 5-1.7 8.2-5.7-.7-8.4-1.8-13.9-3.5-2.8-.9-4.2-1.3-7-2.2 3-14.2 3.5-27.6 3.1-42 8.6 1.4 12.9 2.4 21.3 3 .1 3.8.1 5.7.1 9.4zm-1-28.3c.2 3.9.3 5.8.5 9.7-26.5-2.8-53-6.1-79.5-9.3-.4-2.8-.7-4.1-1.1-6.9 26.8 2.1 53.5 4.3 80.1 6.5zm-56.8 39.6c-.5 2.9-.8 4.3-1.6 7.2-5.6-1.8-8.4-2.7-14-4.4-2.8-.9-4.2-1.3-7-2.2 3.1-10.9 3-22.3 1.4-33.4 8.6 1.4 12.9 2 21.6 3.4.3 3 .4 4.5.6 7.5-5.7-1.1-8.6-1.7-14.3-2.8.2 2.8.3 4.1.3 6.9 5.7 1.3 8.5 2 14.2 3.4 0 2.9-.1 4.4-.3 7.3-5.6-1.5-8.4-2.3-14.1-3.8-.2 2.7-.4 4.1-.8 6.9 5.6 1.5 8.4 2.4 14 4zm-26.6 14.6c.3-2.9.6-4.4 1.6-7.2 11.7 3.8 23.3 7.5 35 11.3-2.1 5.6-2.2 8.5-1.5 14.6.4 3 .7 4.6 1.5 7.7-11.7-3.8-23.3-7.5-35-11.3-.8-3.1-1.2-4.6-1.5-7.7-.4-3-.4-4.5-.1-7.4zm-2.5-23.3c-.4 2.6-.7 3.9-1.5 6.6-12-3.9-23.3-7.8-36.3-6.8.6-2.5.8-3.7 1.1-6.1.6-4.8.6-7.1.3-11.6C84 36.2 95.8 39 108.2 42c.1 5.1 0 7.6-.9 12.8zm-2.6-38c.5 2.6.7 3.8 1.2 6.4-5.8-.7-8.7-1-14.5-1.7.5 2.3.7 3.5 1.2 5.7 5.8.9 8.7 1.4 14.4 2.3.4 2.5.6 3.8.8 6.3-12.5-2.5-24.5-5-37.4-4.5-.3-2.2-.4-3.3-.8-5.6 6.3-.2 9.4-.1 15.5.5-.4-2.2-.7-3.3-1.1-5.6-6.1-.5-9.1-.6-15.3-.5-.4-2.3-.7-3.4-1.1-5.7 12.2-.1 24.6 1.5 37.1 2.4zM61.9 55.4c-3.1.4-4.7.7-7.9 1.4.9-5.1 1.1-7.6 1.2-12.4-3.2.5-4.9.8-8.1 1.5-.1 5-.2 7.5-1.1 12.7-3.2.8-4.8 1.2-8 2.1.7-5.4.9-7.9.9-13.1-3.3.7-4.9 1.1-8.2 1.8-.1 5.3-.2 8-.8 13.4-3.2.9-4.8 1.3-8.1 2.2.5-5.6.6-8.4.7-13.8v-6.8c13.4-2.7 26.9-5.5 40.6-6.9.4 6.8.4 10.3-1.2 17.9zM60 14.6c.8 4.7 1.3 6.9 2 11.5.3 2.3.5 3.4.8 5.7-13.6 1.2-26.9 3.6-40.3 5.9-.1-2.7-.2-4-.3-6.7-.2-2.7-.2-4-.4-6.7s-.3-4-.5-6.8C34.1 16.3 47 15.1 60 14.6zM21 73.3c6.3-1.8 9.4-2.8 15.7-4.6 3.1-.9 4.7-1.4 7.8-2.2-2 12.9 1 25.3 4.1 37.8-10.3 2.3-15.6 3.9-25.8 6.5-.4-3-.6-4.6-1-7.6 6.6-1.8 9.9-2.7 16.6-4.5-.6-3.1-.9-4.6-1.3-7.6-6.4 1.8-9.7 2.8-16.1 4.6-.3-3-.4-4.5-.5-7.5 6.3-1.8 9.4-2.8 15.7-4.6-.2-3-.3-4.5-.2-7.5-6.2 1.8-9.4 2.8-15.6 4.7.1-3.1.2-4.6.6-7.5zm-.1 133.4c.3-2.9.5-4.4.8-7.3.3-2.9.5-4.4.8-7.3 13.8-3.7 27.5-7.7 41.7-9.7-2.8 8.5-4.1 12.7-6.9 21.2-12.7 2.3-24.9 6.5-37.1 10.5.2-3 .4-4.5.7-7.4zm-2.3 21.9c.3-2.9.5-4.4.8-7.3 11.7-4 23.3-8.4 35.5-10.7-2.8 8.5-4.1 12.7-6.9 21.2-2.5.5-3.7.9-6.2 1.7 1.6-5.7 2.4-8.5 4-14.2-2.7.7-4.1 1.2-6.8 2-1.4 5.7-2 8.6-3.4 14.3-2.5.9-3.7 1.4-6.1 2.5 1.1-5.8 1.7-8.6 2.8-14.4-2.7 1-4.1 1.5-6.8 2.5-.9 5.8-1.3 8.7-2.1 14.5-2.5 1-3.7 1.6-6.3 2.6.6-5.9.9-8.9 1.5-14.7zm-1 53.1c5.3-2 7.9-3.1 13.1-5-.6-3.1-.9-4.6-1.4-7.7-5 2-7.5 3.1-12.6 5.1-.3-3-.4-4.5-.6-7.5 4.9-2 7.3-3.1 12.1-5.2-.3-3-.4-4.5-.4-7.5-4.7 2.1-7.1 3.2-11.9 5.2 0-3 .1-4.5.3-7.4 4.9-2 7.2-3.2 11.9-5.2 2.4-1 3.5-1.5 5.9-2.5-1.2 13 2 25.4 5.2 38-8.1 2.7-12.2 4.4-20.5 7.3-.5-3.1-.7-4.6-1.1-7.6zm1.9 117.2c-.1-3.3-.1-4.9-.2-8.2-.1-3.3-.1-4.9-.1-8.2v-8.2c12.1-2.5 24.3-5.1 36.6-6.5-.1 7.4 0 11.2.3 18.6.1 3.7.2 5.6.3 9.3-12.4.7-24.7 2-36.9 3.2zm37.9-57.7c-.9 6.8-1.2 10.3-1.4 17.6-2.9.4-4.3.6-7.3 1.1.3-7.1.5-10.7 1.3-17.4-3 .6-4.5 1-7.5 1.7-.7 6.6-.9 10.1-1.1 17-2.9.6-4.4.9-7.4 1.6.2-6.8.4-10.2 1-16.7-3 .8-4.5 1.3-7.6 2.1-.5 6.4-.7 9.6-.8 16.3-3 .7-4.4 1-7.4 1.7.1-6.5.2-9.7.6-15.9.2-3.1.3-4.7.6-7.7 12.6-3.7 25.2-7.7 38.3-9.8-.6 3.3-.9 5-1.3 8.4zm3.4-17.2c-3.1.5-4.6.7-7.7 1.4 2.2-13-1.3-25.4-4.8-38 2.8-.7 4.2-1 7.1-1.5 2.1 6.3 3.2 9.4 4.6 15.6 3-.5 4.5-.6 7.5-.8-1.6-6.2-2.7-9.4-5-15.7 2.8-.2 4.2-.2 7.1-.1 4.6 12.5 9.5 24.9 6.5 38.2-3-.2-4.5-.1-7.5 0 1.3-5.7 1.3-8.7.5-14.8-3.1.2-4.6.3-7.7.8.5 6.1.6 9.1-.6 14.9zm2.5 71.6c-.2-3.7-.2-5.6-.4-9.4 5.8-.2 8.6-.1 14.3.3-.2-3.8-.3-5.7-.4-9.5-5.6-.5-8.4-.5-14.2-.3-.1-3.8-.1-5.7-.1-9.4 12.2-.8 23.6 1.7 35.3 4.1.1 3.5.1 5.2.3 8.7-5.8-.9-8.7-1.4-14.4-2.3.1 3.7.2 5.6.4 9.3 5.8.7 8.7 1 14.5 1.7.3 3.5.4 5.3.7 8.7-11.8-.7-23.9-2.2-36-1.9zM98 362.9c-5.7-1.4-8.5-2-14.2-3.4-2.8-.7-4.1-.9-6.9-1.2.3-7.3.6-10.9 1.7-17.6-5.6-.8-8.4-.8-14.2-.4.5-3.4.8-5.1 1.5-8.3 12.7-1.1 23.7 2.9 35.4 6.7-2.5 9-3 14-3.3 24.2zm6.2-32.5c-8.4-2.7-12.4-4.8-21-6.4 2.5-8.5 1.7-13.1-1-22.5 5.9 1.1 8.7 2.4 14.2 4.2-1.8-6.2-3.2-9.4-6-15.8 2.8.9 4.2 1.3 7 2.2 5.1 12.4 10.6 24.9 6.8 38.3zm11.8-39-14-4.5c-1.4-3.2-2.1-4.8-3.4-8 11.7 3.8 23.3 7.5 35 11.3 1.3 3.2 2 4.8 3.4 8l-14-4.5c1.4 3.2 2.2 4.8 3.6 8l14 4.5c1.4 3.2 2.1 4.8 3.3 7.9-11.7-3.8-23.3-7.5-35-11.3-1.2-3.2-1.9-4.7-3.3-7.9l14 4.5c-1.4-3.2-2.1-4.8-3.6-8zm-6.5 49.9c8.4 2.7 12.6 4 20.9 6.6-.8 2.9-1.1 4.3-1.6 7.2-.5 2.9-.7 4.4-.9 7.3-.2 3-.3 4.5-.3 7.5-5.7-1.3-8.5-2-14.2-3.4-.1 6.4.1 9.7.5 16.2-2.9-.5-4.3-.7-7.2-1.1-.5-13.8-.1-26.6 2.8-40.3zm-1.4 57c-.3-3.4-.5-5.1-.8-8.5 26.7 3.2 53.3 6.5 80 9.4.5 2.2.7 3.4 1.2 5.7l-80.4-6.6zm78.1-4.4c-3.1-.2-4.6-.4-7.6-.8-6-.9-8.7-1.4-14.4-2.3-1.8-10.6-2-21.4 1.1-31.8 5.6 1.8 8.2 2.9 14 4.4 2.9.8 4.3 1 7.3 1.4-1.7 10.1-2.7 19-.4 29.1zm4-44.1c-.1 2.9-.3 4.4-1.1 7.2-12-2.5-23.5-6.9-35-10.6.9-2.8 1.2-4.3 1.3-7.2.3-5.9-.3-8.9-2.1-15.2 2.8.9 4.2 1.4 7 2.3 1.8 6.2 2.4 9.3 2.1 15.2 2.8.9 4.2 1.4 7 2.3.3-5.9-.3-8.9-2.1-15.2 2.8.9 4.2 1.4 7 2.3 1.8 6.2 2.4 9.3 2.1 15.2 2.8.9 4.3 1.4 7 2.2.3-5.9-.3-8.9-2.1-15.2 2.7.8 4.1 1.1 6.9 1.5 1.7 6.3 2.3 9.3 2 15.2zm25.7-33.3c3.3 12.6 6.6 24.9 4.5 37.9-9.3 2.3-13.9 3.2-22.8 3.2 2.8-13.3-1.9-25.7-6.3-38.2 9.3 0 14.4-.8 24.6-2.9zm-21.7 55c.3-2.4.5-3.6 1.1-6.1 13.5-.3 26.7-3.6 39.5-7.2-.3 2.7-.5 4-.6 6.7-.3 5.3-.3 7.9-.2 13-3.3.6-4.9 1-8.1 1.6-.2-5-.2-7.4.2-12.6-3.2.8-4.9 1.1-8.1 1.8-.4 5-.4 7.4-.2 12.2-3.2.5-4.9.8-8.1 1.1-.2-4.7-.2-7 .3-11.9-3.2.5-4.8.7-7.9 1-.6 4.8-.6 7.1-.3 11.7-3.2.2-4.8.3-7.9.3-.4-4.6-.3-6.8.3-11.6zm3.2 33.9c-.5-2.3-.7-3.4-1.1-5.7-.4-2.2-.7-3.3-1.1-5.6-.4-2.2-.6-3.3-.9-5.5 13.5-.1 26.8-2.1 40-4.4.5 7.6.9 11.4 1.7 19.2-12.8 1.1-25.7 2.1-38.6 2zm38.6-55.3c-3.1.9-4.7 1.4-7.8 2.3 1.9-12.9-.9-25.2-3.7-37.8 3.4-.8 5.2-1.3 8.6-2.1 1.2 6.1 1.9 9.2 2.7 15.3 3.2-.9 4.8-1.4 8.1-2.3-.6-6-1.1-9.1-2.1-15.2 3.4-.9 5.1-1.3 8.5-2.2 1.4 12.5 2.7 24.9 1.5 37.4-3.1.9-4.7 1.3-7.8 2.3.8-5.8.8-8.8.5-14.8-3.1.9-4.7 1.4-7.9 2.3.2 6 .2 9-.6 14.8zm6.6 5.9c12.8-3.6 26-6.8 39.5-7.1v22.2c-3.1 0-4.7.1-7.9.3s-4.8.4-8 .8-4.8.6-8.1 1.1c-.1-5.6 0-8.5.2-14.2-6.5 1.3-9.7 2.1-16.2 3.7.1-2.6.2-4 .5-6.8zm.9 46.7c-.2-2.7-.3-4-.5-6.6 6.3-.7 9.5-1.1 15.8-1.6-.1-2.8-.2-4.2-.3-7-6.4.7-9.6 1.2-16 2.1-.2-2.6-.3-4-.4-6.6 13.2-2.3 26.5-4.3 40-4.4v7.4c-6.2 0-9.4.1-15.7.7.1 2.9.1 4.3.2 7.2 6.3-.4 9.4-.5 15.5-.5v7.4c-12.9-.1-25.8.8-38.6 1.9zm38.6-62.4c-8.8 0-13.4.9-22.7 3.2.3-2.9.3-4.4.4-7.4s.1-4.4 0-7.4c0-3-.1-4.5-.3-7.5 6.3-1.5 9.3-2.1 15.2-2.8-.1-6-.1-9-.3-14.9 3.1-.3 4.6-.4 7.5-.4.2 12.4.2 24.8.2 37.2zm-20.3-175.6c.6-8.8.4-13.3-.1-22.3 5.2-1.6 7.9-2.3 13.4-3.1-.1-6-.2-9-.3-14.9 2.9-.3 4.4-.4 7.3-.4v37.2c-8.7 0-12.7 1-20.3 3.5zm20.3-101.2v7.4c-13 .4-25.6 3.7-37.8 7.4.3-3.1.5-4.6.7-7.8.5-6.3.6-9.5.7-16.1 11.9-2.9 24-5.4 36.4-5.7v14.8z" class="st0"/><path d="M268.5 148c0 3 .1 4.5 0 7.4 2.6-.6 3.9-.9 6.6-1.3v-7.4c-2.6.4-4 .7-6.6 1.3zm-1.1 186.4c3-.6 4.5-.8 7.4-1.1 0-3 .1-4.5.1-7.4-2.9.3-4.4.6-7.4 1.1 0 2.9 0 4.4-.1 7.4zm-31.8-222.8c.4 3 .7 4.6 1.2 7.6 3-1 4.5-1.4 7.5-2.4-.4-3-.6-4.6-.9-7.6-3.2 1-4.7 1.5-7.8 2.4zm39.3-55c-8.6.9-13 1.9-21.8 4.1-.1 3.1-.2 4.7-.4 7.8 9-2.3 13.4-3.5 22.1-4.4.1-3.1.1-4.5.1-7.5zm-71.3 173.1c3.1-.3 4.6-.6 7.8-1.1.9-2.8 1.3-4.2 2.2-7.1-3 .6-4.5.8-7.5 1.2-1.1 2.8-1.6 4.2-2.5 7zm-81.8 123.4c-2.8-.8-4.2-1.3-7-2.1-.5 3-.7 4.6-1 7.7 2.8.8 4.2 1.1 7 1.9.3-3 .4-4.5 1-7.5zm28.9-50.5c1.4 3.2 2.2 4.8 3.6 8 2.8.9 4.2 1.4 7 2.3-1.4-3.2-2.1-4.8-3.6-8-2.8-.9-4.2-1.4-7-2.3zm-59.1 16.1c2.8.9 4.2 1.3 7 2.2.2-3 .1-4.5-.4-7.5-2.8-.9-4.2-1.3-7-2.2.5 3 .6 4.5.4 7.5zm73.1-11.5c1.4 3.2 2.2 4.8 3.6 8 2.8.9 4.2 1.4 7 2.2l-3.5-8c-2.9-.9-4.3-1.3-7.1-2.2zm-44 20.9c2.8.9 4.2 1.4 7 2.3.2-2.9.1-4.4-.4-7.5-2.8-.9-4.2-1.4-7-2.3.5 3 .6 4.5.4 7.5zM34.1 123.8c1.5 9.1 2.3 13.6 2.3 22.4 3.9-.8 5.9-1.2 9.8-2-.1-8.9-1-13.4-2.9-22.5-3.7.8-5.5 1.3-9.2 2.1zm185.2 103.1c3.2-.7 4.8-1.2 8-2 .6-2.9.9-4.3 1.5-7.2-3.1.9-4.6 1.3-7.7 2.1-.7 2.8-1.1 4.3-1.8 7.1zm29.5 20.5c10.8-2.4 16.1-3.5 25.6-4.3v-7.4c-9.4.9-14.5 2-25 4.4-.3 2.9-.4 4.3-.6 7.3zm-42.9 102.5c3-.3 4.5-.6 7.5-1.1.2-8.8-1-13.4-3.6-22.6-3.2.5-4.8.8-7.9 1.1 2.9 9.1 4.2 13.8 4 22.6zm-35.1 17.9c-1.3 7.6-1.1 11-.2 18.1 2.9.6 4.2.9 7.2 1.4-.9-6.7-1.1-10.1.1-17.4-3.1-.8-4.3-1.3-7.1-2.1z" class="st0"/></g></svg>