<?xml version="1.0" encoding="utf-8"?>
<svg version="1.1" id="Layer_1" xmlns="http://www.w3.org/2000/svg" xmlns:xlink="http://www.w3.org/1999/xlink" x="0px" y="0px"
	 viewBox="0 0 297.64 419.53" style="enable-background:new 0 0 297.64 419.53;" xml:space="preserve">
<style type="text/css">
	.st0{fill:#8F00FF;}
	.st1{fill:#FF0076;}
	.st2{fill:#F7D100;}
	.st3{fill:#00D4FF;}
	.st4{fill:#FA8A00;}
	.st5{fill:#71BF09;}
	.st6{fill:#9E9E9E;}
	.st7{fill:#E02020;}
	.st8{fill:#232323;}
</style>
<g id="Layer_1_00000031926963087690117870000010797203780207028408_">
	<rect x="0" y="0" class="st8" width="297.64" height="419.53"/>
</g>
<g id="Layer_2_00000010991704338653943510000012705628672360863136_">
	<rect x="0" y="0" class="st0" width="297.64" height="419.53"/>
</g>
<g id="Layer_3_00000099629723027263817570000008023612350970584240_">
	<rect x="0" y="0" class="st8" width="297.64" height="419.53"/>
</g>
<g class="st8" id="Layer_4_00000110443361787760672240000016692957410510552745_">
	<polygon points="104.98,133.84 104.98,119.6 92.65,126.72 	"/>
	<polygon points="48.82,216.88 61.15,209.76 48.82,202.65 	"/>
	<polygon points="104.98,299.92 104.98,285.69 92.65,292.81 	"/>
	<polygon points="192.65,299.92 204.98,292.81 192.65,285.69 	"/>
	<polygon points="248.82,216.88 248.82,202.65 236.49,209.76 	"/>
	<polygon points="192.65,133.84 204.98,126.72 192.65,119.6 	"/>
	<polygon points="228.27,214.51 210.46,224.79 192.65,214.51 192.65,235.07 174.85,245.35 192.65,255.64 192.65,276.2 
		210.46,265.92 228.27,276.2 228.27,255.64 246.08,245.35 228.27,235.07 	"/>
	<polygon points="104.98,143.33 87.18,153.61 69.37,143.33 69.37,163.89 51.56,174.17 69.37,184.45 69.37,205.02 87.18,194.74 
		104.98,205.02 104.98,184.45 122.79,174.17 104.98,163.89 	"/>
	<polygon points="104.98,214.51 87.18,224.79 69.37,214.51 69.37,235.07 51.56,245.35 69.37,255.64 69.37,276.2 87.18,265.92 
		104.98,276.2 104.98,255.64 122.79,245.35 104.98,235.07 	"/>
	<polygon points="228.27,143.33 210.46,153.61 192.65,143.33 192.65,163.89 174.85,174.17 192.65,184.45 192.65,205.02 
		210.46,194.74 228.27,205.02 228.27,184.45 246.08,174.17 228.27,163.89 	"/>
	<polygon points="166.63,250.1 148.82,260.38 131.01,250.1 131.01,270.66 113.2,280.94 131.01,291.22 131.01,311.79 148.82,301.51 
		166.63,311.79 166.63,291.22 184.43,280.94 166.63,270.66 	"/>
	<polygon points="166.63,199.48 166.63,178.92 148.82,189.2 131.01,178.92 131.01,199.48 113.2,209.76 129.64,219.25 131.01,220.05 
		131.01,240.61 148.82,230.33 166.63,240.61 166.63,220.04 184.44,209.76 168,200.28 	"/>
	<polygon points="166.63,107.74 148.82,118.02 131.01,107.74 131.01,128.3 113.2,138.58 131.01,148.87 131.01,169.43 148.82,159.15 
		166.63,169.43 166.63,148.87 184.44,138.58 166.63,128.3 	"/>
</g>
<g id="Layer_5">
	<g>
		<polygon class="st1" points="104.98,133.84 104.98,119.6 92.65,126.72 		"/>
		<polygon class="st1" points="48.82,216.88 61.15,209.76 48.82,202.65 		"/>
		<polygon class="st1" points="104.98,299.92 104.98,285.69 92.65,292.81 		"/>
		<polygon class="st1" points="192.65,299.92 204.98,292.81 192.65,285.69 		"/>
		<polygon class="st1" points="248.82,216.88 248.82,202.65 236.49,209.76 		"/>
		<polygon class="st1" points="192.65,133.84 204.98,126.72 192.65,119.6 		"/>
	</g>
	<polygon class="st2" points="228.27,214.51 210.46,224.79 192.65,214.51 192.65,235.07 174.85,245.35 192.65,255.64 192.65,276.2 
		210.46,265.92 228.27,276.2 228.27,255.64 246.08,245.35 228.27,235.07 	"/>
	<polygon class="st0" points="104.98,143.33 87.18,153.61 69.37,143.33 69.37,163.89 51.56,174.17 69.37,184.45 69.37,205.02 
		87.18,194.74 104.98,205.02 104.98,184.45 122.79,174.17 104.98,163.89 	"/>
	<polygon class="st3" points="104.98,214.51 87.18,224.79 69.37,214.51 69.37,235.07 51.56,245.35 69.37,255.64 69.37,276.2 
		87.18,265.92 104.98,276.2 104.98,255.64 122.79,245.35 104.98,235.07 	"/>
	<polygon class="st4" points="228.27,143.33 210.46,153.61 192.65,143.33 192.65,163.89 174.85,174.17 192.65,184.45 192.65,205.02 
		210.46,194.74 228.27,205.02 228.27,184.45 246.08,174.17 228.27,163.89 	"/>
	<polygon class="st5" points="166.63,250.1 148.82,260.38 131.01,250.1 131.01,270.66 113.2,280.94 131.01,291.22 131.01,311.79 
		148.82,301.51 166.63,311.79 166.63,291.22 184.43,280.94 166.63,270.66 	"/>
	<polygon class="st6" points="166.63,199.48 166.63,178.92 148.82,189.2 131.01,178.92 131.01,199.48 113.2,209.76 129.64,219.25 
		131.01,220.05 131.01,240.61 148.82,230.33 166.63,240.61 166.63,220.04 184.44,209.76 168,200.28 	"/>
	<polygon class="st7" points="166.63,107.74 148.82,118.02 131.01,107.74 131.01,128.3 113.2,138.58 131.01,148.87 131.01,169.43 
		148.82,159.15 166.63,169.43 166.63,148.87 184.44,138.58 166.63,128.3 	"/>
</g>
<g class="st8" id="Layer_6">
	<polygon points="104.98,133.84 104.98,119.6 92.65,126.72 	"/>
	<polygon points="48.82,216.88 61.15,209.76 48.82,202.65 	"/>
	<polygon points="104.98,299.92 104.98,285.69 92.65,292.81 	"/>
	<polygon points="192.65,299.92 204.98,292.81 192.65,285.69 	"/>
	<polygon points="248.82,216.88 248.82,202.65 236.49,209.76 	"/>
	<polygon points="192.65,133.84 204.98,126.72 192.65,119.6 	"/>
	<polygon points="228.27,214.51 210.46,224.79 192.65,214.51 192.65,235.07 174.85,245.35 192.65,255.64 192.65,276.2 
		210.46,265.92 228.27,276.2 228.27,255.64 246.08,245.35 228.27,235.07 	"/>
	<polygon points="104.98,143.33 87.18,153.61 69.37,143.33 69.37,163.89 51.56,174.17 69.37,184.45 69.37,205.02 
		87.18,194.74 104.98,205.02 104.98,184.45 122.79,174.17 104.98,163.89 	"/>
	<polygon points="104.98,214.51 87.18,224.79 69.37,214.51 69.37,235.07 51.56,245.35 69.37,255.64 69.37,276.2 
		87.18,265.92 104.98,276.2 104.98,255.64 122.79,245.35 104.98,235.07 	"/>
	<polygon points="228.27,143.33 210.46,153.61 192.65,143.33 192.65,163.89 174.85,174.17 192.65,184.45 192.65,205.02 
		210.46,194.74 228.27,205.02 228.27,184.45 246.08,174.17 228.27,163.89 	"/>
	<polygon points="166.63,250.1 148.82,260.38 131.01,250.1 131.01,270.66 113.2,280.94 131.01,291.22 131.01,311.79 
		148.82,301.51 166.63,311.79 166.63,291.22 184.43,280.94 166.63,270.66 	"/>
	<polygon points="166.63,199.48 166.63,178.92 148.82,189.2 131.01,178.92 131.01,199.48 113.2,209.76 129.64,219.25 
		131.01,220.05 131.01,240.61 148.82,230.33 166.63,240.61 166.63,220.04 184.44,209.76 168,200.28 	"/>
	<polygon points="166.63,107.74 148.82,118.02 131.01,107.74 131.01,128.3 113.2,138.58 131.01,148.87 131.01,169.43 
		148.82,159.15 166.63,169.43 166.63,148.87 184.44,138.58 166.63,128.3 	"/>
</g>
</svg>
